%TF.GenerationSoftware,KiCad,Pcbnew,(6.0.11)*%
%TF.CreationDate,2023-04-01T14:18:44-06:00*%
%TF.ProjectId,arduino-mega-isa-shield,61726475-696e-46f2-9d6d-6567612d6973,rev?*%
%TF.SameCoordinates,Original*%
%TF.FileFunction,Legend,Top*%
%TF.FilePolarity,Positive*%
%FSLAX46Y46*%
G04 Gerber Fmt 4.6, Leading zero omitted, Abs format (unit mm)*
G04 Created by KiCad (PCBNEW (6.0.11)) date 2023-04-01 14:18:44*
%MOMM*%
%LPD*%
G01*
G04 APERTURE LIST*
%ADD10C,0.150000*%
%ADD11C,0.075000*%
%ADD12C,0.120000*%
G04 APERTURE END LIST*
D10*
X193992500Y-85725000D02*
X193992500Y-94996000D01*
X190055500Y-85725000D02*
X193992500Y-85725000D01*
X190055500Y-94996000D02*
X190055500Y-85725000D01*
X187325000Y-77851000D02*
X193929000Y-77851000D01*
X187325000Y-77851000D02*
X187325000Y-85344000D01*
X187325000Y-85344000D02*
X193929000Y-85344000D01*
X193929000Y-77851000D02*
X193929000Y-85344000D01*
X193992500Y-94996000D02*
X190055500Y-94996000D01*
X152218333Y-103880666D02*
X152694523Y-103880666D01*
X152123095Y-104166380D02*
X152456428Y-103166380D01*
X152789761Y-104166380D01*
X153123095Y-104166380D02*
X153123095Y-103499714D01*
X153123095Y-103690190D02*
X153170714Y-103594952D01*
X153218333Y-103547333D01*
X153313571Y-103499714D01*
X153408809Y-103499714D01*
X154170714Y-104166380D02*
X154170714Y-103166380D01*
X154170714Y-104118761D02*
X154075476Y-104166380D01*
X153885000Y-104166380D01*
X153789761Y-104118761D01*
X153742142Y-104071142D01*
X153694523Y-103975904D01*
X153694523Y-103690190D01*
X153742142Y-103594952D01*
X153789761Y-103547333D01*
X153885000Y-103499714D01*
X154075476Y-103499714D01*
X154170714Y-103547333D01*
X155075476Y-103499714D02*
X155075476Y-104166380D01*
X154646904Y-103499714D02*
X154646904Y-104023523D01*
X154694523Y-104118761D01*
X154789761Y-104166380D01*
X154932619Y-104166380D01*
X155027857Y-104118761D01*
X155075476Y-104071142D01*
X155551666Y-104166380D02*
X155551666Y-103499714D01*
X155551666Y-103166380D02*
X155504047Y-103214000D01*
X155551666Y-103261619D01*
X155599285Y-103214000D01*
X155551666Y-103166380D01*
X155551666Y-103261619D01*
X156027857Y-103499714D02*
X156027857Y-104166380D01*
X156027857Y-103594952D02*
X156075476Y-103547333D01*
X156170714Y-103499714D01*
X156313571Y-103499714D01*
X156408809Y-103547333D01*
X156456428Y-103642571D01*
X156456428Y-104166380D01*
X157075476Y-104166380D02*
X156980238Y-104118761D01*
X156932619Y-104071142D01*
X156885000Y-103975904D01*
X156885000Y-103690190D01*
X156932619Y-103594952D01*
X156980238Y-103547333D01*
X157075476Y-103499714D01*
X157218333Y-103499714D01*
X157313571Y-103547333D01*
X157361190Y-103594952D01*
X157408809Y-103690190D01*
X157408809Y-103975904D01*
X157361190Y-104071142D01*
X157313571Y-104118761D01*
X157218333Y-104166380D01*
X157075476Y-104166380D01*
X158599285Y-104166380D02*
X158599285Y-103166380D01*
X158932619Y-103880666D01*
X159265952Y-103166380D01*
X159265952Y-104166380D01*
X160123095Y-104118761D02*
X160027857Y-104166380D01*
X159837380Y-104166380D01*
X159742142Y-104118761D01*
X159694523Y-104023523D01*
X159694523Y-103642571D01*
X159742142Y-103547333D01*
X159837380Y-103499714D01*
X160027857Y-103499714D01*
X160123095Y-103547333D01*
X160170714Y-103642571D01*
X160170714Y-103737809D01*
X159694523Y-103833047D01*
X161027857Y-103499714D02*
X161027857Y-104309238D01*
X160980238Y-104404476D01*
X160932619Y-104452095D01*
X160837380Y-104499714D01*
X160694523Y-104499714D01*
X160599285Y-104452095D01*
X161027857Y-104118761D02*
X160932619Y-104166380D01*
X160742142Y-104166380D01*
X160646904Y-104118761D01*
X160599285Y-104071142D01*
X160551666Y-103975904D01*
X160551666Y-103690190D01*
X160599285Y-103594952D01*
X160646904Y-103547333D01*
X160742142Y-103499714D01*
X160932619Y-103499714D01*
X161027857Y-103547333D01*
X161932619Y-104166380D02*
X161932619Y-103642571D01*
X161885000Y-103547333D01*
X161789761Y-103499714D01*
X161599285Y-103499714D01*
X161504047Y-103547333D01*
X161932619Y-104118761D02*
X161837380Y-104166380D01*
X161599285Y-104166380D01*
X161504047Y-104118761D01*
X161456428Y-104023523D01*
X161456428Y-103928285D01*
X161504047Y-103833047D01*
X161599285Y-103785428D01*
X161837380Y-103785428D01*
X161932619Y-103737809D01*
X163123095Y-103261619D02*
X163170714Y-103214000D01*
X163265952Y-103166380D01*
X163504047Y-103166380D01*
X163599285Y-103214000D01*
X163646904Y-103261619D01*
X163694523Y-103356857D01*
X163694523Y-103452095D01*
X163646904Y-103594952D01*
X163075476Y-104166380D01*
X163694523Y-104166380D01*
X164599285Y-103166380D02*
X164123095Y-103166380D01*
X164075476Y-103642571D01*
X164123095Y-103594952D01*
X164218333Y-103547333D01*
X164456428Y-103547333D01*
X164551666Y-103594952D01*
X164599285Y-103642571D01*
X164646904Y-103737809D01*
X164646904Y-103975904D01*
X164599285Y-104071142D01*
X164551666Y-104118761D01*
X164456428Y-104166380D01*
X164218333Y-104166380D01*
X164123095Y-104118761D01*
X164075476Y-104071142D01*
X165504047Y-103166380D02*
X165313571Y-103166380D01*
X165218333Y-103214000D01*
X165170714Y-103261619D01*
X165075476Y-103404476D01*
X165027857Y-103594952D01*
X165027857Y-103975904D01*
X165075476Y-104071142D01*
X165123095Y-104118761D01*
X165218333Y-104166380D01*
X165408809Y-104166380D01*
X165504047Y-104118761D01*
X165551666Y-104071142D01*
X165599285Y-103975904D01*
X165599285Y-103737809D01*
X165551666Y-103642571D01*
X165504047Y-103594952D01*
X165408809Y-103547333D01*
X165218333Y-103547333D01*
X165123095Y-103594952D01*
X165075476Y-103642571D01*
X165027857Y-103737809D01*
X166218333Y-103166380D02*
X166313571Y-103166380D01*
X166408809Y-103214000D01*
X166456428Y-103261619D01*
X166504047Y-103356857D01*
X166551666Y-103547333D01*
X166551666Y-103785428D01*
X166504047Y-103975904D01*
X166456428Y-104071142D01*
X166408809Y-104118761D01*
X166313571Y-104166380D01*
X166218333Y-104166380D01*
X166123095Y-104118761D01*
X166075476Y-104071142D01*
X166027857Y-103975904D01*
X165980238Y-103785428D01*
X165980238Y-103547333D01*
X166027857Y-103356857D01*
X166075476Y-103261619D01*
X166123095Y-103214000D01*
X166218333Y-103166380D01*
X153694523Y-105776380D02*
X153694523Y-104776380D01*
X154123095Y-105728761D02*
X154265952Y-105776380D01*
X154504047Y-105776380D01*
X154599285Y-105728761D01*
X154646904Y-105681142D01*
X154694523Y-105585904D01*
X154694523Y-105490666D01*
X154646904Y-105395428D01*
X154599285Y-105347809D01*
X154504047Y-105300190D01*
X154313571Y-105252571D01*
X154218333Y-105204952D01*
X154170714Y-105157333D01*
X154123095Y-105062095D01*
X154123095Y-104966857D01*
X154170714Y-104871619D01*
X154218333Y-104824000D01*
X154313571Y-104776380D01*
X154551666Y-104776380D01*
X154694523Y-104824000D01*
X155075476Y-105490666D02*
X155551666Y-105490666D01*
X154980238Y-105776380D02*
X155313571Y-104776380D01*
X155646904Y-105776380D01*
X157313571Y-105681142D02*
X157265952Y-105728761D01*
X157123095Y-105776380D01*
X157027857Y-105776380D01*
X156885000Y-105728761D01*
X156789761Y-105633523D01*
X156742142Y-105538285D01*
X156694523Y-105347809D01*
X156694523Y-105204952D01*
X156742142Y-105014476D01*
X156789761Y-104919238D01*
X156885000Y-104824000D01*
X157027857Y-104776380D01*
X157123095Y-104776380D01*
X157265952Y-104824000D01*
X157313571Y-104871619D01*
X158170714Y-105776380D02*
X158170714Y-105252571D01*
X158123095Y-105157333D01*
X158027857Y-105109714D01*
X157837380Y-105109714D01*
X157742142Y-105157333D01*
X158170714Y-105728761D02*
X158075476Y-105776380D01*
X157837380Y-105776380D01*
X157742142Y-105728761D01*
X157694523Y-105633523D01*
X157694523Y-105538285D01*
X157742142Y-105443047D01*
X157837380Y-105395428D01*
X158075476Y-105395428D01*
X158170714Y-105347809D01*
X158646904Y-105776380D02*
X158646904Y-105109714D01*
X158646904Y-105300190D02*
X158694523Y-105204952D01*
X158742142Y-105157333D01*
X158837380Y-105109714D01*
X158932619Y-105109714D01*
X159694523Y-105776380D02*
X159694523Y-104776380D01*
X159694523Y-105728761D02*
X159599285Y-105776380D01*
X159408809Y-105776380D01*
X159313571Y-105728761D01*
X159265952Y-105681142D01*
X159218333Y-105585904D01*
X159218333Y-105300190D01*
X159265952Y-105204952D01*
X159313571Y-105157333D01*
X159408809Y-105109714D01*
X159599285Y-105109714D01*
X159694523Y-105157333D01*
X160885000Y-105728761D02*
X161027857Y-105776380D01*
X161265952Y-105776380D01*
X161361190Y-105728761D01*
X161408809Y-105681142D01*
X161456428Y-105585904D01*
X161456428Y-105490666D01*
X161408809Y-105395428D01*
X161361190Y-105347809D01*
X161265952Y-105300190D01*
X161075476Y-105252571D01*
X160980238Y-105204952D01*
X160932619Y-105157333D01*
X160885000Y-105062095D01*
X160885000Y-104966857D01*
X160932619Y-104871619D01*
X160980238Y-104824000D01*
X161075476Y-104776380D01*
X161313571Y-104776380D01*
X161456428Y-104824000D01*
X161885000Y-105776380D02*
X161885000Y-104776380D01*
X162313571Y-105776380D02*
X162313571Y-105252571D01*
X162265952Y-105157333D01*
X162170714Y-105109714D01*
X162027857Y-105109714D01*
X161932619Y-105157333D01*
X161885000Y-105204952D01*
X162789761Y-105776380D02*
X162789761Y-105109714D01*
X162789761Y-104776380D02*
X162742142Y-104824000D01*
X162789761Y-104871619D01*
X162837380Y-104824000D01*
X162789761Y-104776380D01*
X162789761Y-104871619D01*
X163646904Y-105728761D02*
X163551666Y-105776380D01*
X163361190Y-105776380D01*
X163265952Y-105728761D01*
X163218333Y-105633523D01*
X163218333Y-105252571D01*
X163265952Y-105157333D01*
X163361190Y-105109714D01*
X163551666Y-105109714D01*
X163646904Y-105157333D01*
X163694523Y-105252571D01*
X163694523Y-105347809D01*
X163218333Y-105443047D01*
X164265952Y-105776380D02*
X164170714Y-105728761D01*
X164123095Y-105633523D01*
X164123095Y-104776380D01*
X165075476Y-105776380D02*
X165075476Y-104776380D01*
X165075476Y-105728761D02*
X164980238Y-105776380D01*
X164789761Y-105776380D01*
X164694523Y-105728761D01*
X164646904Y-105681142D01*
X164599285Y-105585904D01*
X164599285Y-105300190D01*
X164646904Y-105204952D01*
X164694523Y-105157333D01*
X164789761Y-105109714D01*
X164980238Y-105109714D01*
X165075476Y-105157333D01*
X156289761Y-107386380D02*
X156289761Y-106386380D01*
X156289761Y-106767333D02*
X156385000Y-106719714D01*
X156575476Y-106719714D01*
X156670714Y-106767333D01*
X156718333Y-106814952D01*
X156765952Y-106910190D01*
X156765952Y-107195904D01*
X156718333Y-107291142D01*
X156670714Y-107338761D01*
X156575476Y-107386380D01*
X156385000Y-107386380D01*
X156289761Y-107338761D01*
X157099285Y-106719714D02*
X157337380Y-107386380D01*
X157575476Y-106719714D02*
X157337380Y-107386380D01*
X157242142Y-107624476D01*
X157194523Y-107672095D01*
X157099285Y-107719714D01*
X158718333Y-107386380D02*
X158718333Y-106386380D01*
X158813571Y-107005428D02*
X159099285Y-107386380D01*
X159099285Y-106719714D02*
X158718333Y-107100666D01*
X159908809Y-107338761D02*
X159813571Y-107386380D01*
X159623095Y-107386380D01*
X159527857Y-107338761D01*
X159480238Y-107243523D01*
X159480238Y-106862571D01*
X159527857Y-106767333D01*
X159623095Y-106719714D01*
X159813571Y-106719714D01*
X159908809Y-106767333D01*
X159956428Y-106862571D01*
X159956428Y-106957809D01*
X159480238Y-107053047D01*
X160765952Y-107338761D02*
X160670714Y-107386380D01*
X160480238Y-107386380D01*
X160385000Y-107338761D01*
X160337380Y-107243523D01*
X160337380Y-106862571D01*
X160385000Y-106767333D01*
X160480238Y-106719714D01*
X160670714Y-106719714D01*
X160765952Y-106767333D01*
X160813571Y-106862571D01*
X160813571Y-106957809D01*
X160337380Y-107053047D01*
X161670714Y-106719714D02*
X161670714Y-107529238D01*
X161623095Y-107624476D01*
X161575476Y-107672095D01*
X161480238Y-107719714D01*
X161337380Y-107719714D01*
X161242142Y-107672095D01*
X161670714Y-107338761D02*
X161575476Y-107386380D01*
X161385000Y-107386380D01*
X161289761Y-107338761D01*
X161242142Y-107291142D01*
X161194523Y-107195904D01*
X161194523Y-106910190D01*
X161242142Y-106814952D01*
X161289761Y-106767333D01*
X161385000Y-106719714D01*
X161575476Y-106719714D01*
X161670714Y-106767333D01*
X162099285Y-107338761D02*
X162194523Y-107386380D01*
X162385000Y-107386380D01*
X162480238Y-107338761D01*
X162527857Y-107243523D01*
X162527857Y-107195904D01*
X162480238Y-107100666D01*
X162385000Y-107053047D01*
X162242142Y-107053047D01*
X162146904Y-107005428D01*
X162099285Y-106910190D01*
X162099285Y-106862571D01*
X162146904Y-106767333D01*
X162242142Y-106719714D01*
X162385000Y-106719714D01*
X162480238Y-106767333D01*
X150908809Y-109939714D02*
X150908809Y-110749238D01*
X150861190Y-110844476D01*
X150813571Y-110892095D01*
X150718333Y-110939714D01*
X150575476Y-110939714D01*
X150480238Y-110892095D01*
X150908809Y-110558761D02*
X150813571Y-110606380D01*
X150623095Y-110606380D01*
X150527857Y-110558761D01*
X150480238Y-110511142D01*
X150432619Y-110415904D01*
X150432619Y-110130190D01*
X150480238Y-110034952D01*
X150527857Y-109987333D01*
X150623095Y-109939714D01*
X150813571Y-109939714D01*
X150908809Y-109987333D01*
X151385000Y-110606380D02*
X151385000Y-109939714D01*
X151385000Y-109606380D02*
X151337380Y-109654000D01*
X151385000Y-109701619D01*
X151432619Y-109654000D01*
X151385000Y-109606380D01*
X151385000Y-109701619D01*
X151718333Y-109939714D02*
X152099285Y-109939714D01*
X151861190Y-109606380D02*
X151861190Y-110463523D01*
X151908809Y-110558761D01*
X152004047Y-110606380D01*
X152099285Y-110606380D01*
X152432619Y-110606380D02*
X152432619Y-109606380D01*
X152861190Y-110606380D02*
X152861190Y-110082571D01*
X152813571Y-109987333D01*
X152718333Y-109939714D01*
X152575476Y-109939714D01*
X152480238Y-109987333D01*
X152432619Y-110034952D01*
X153765952Y-109939714D02*
X153765952Y-110606380D01*
X153337380Y-109939714D02*
X153337380Y-110463523D01*
X153385000Y-110558761D01*
X153480238Y-110606380D01*
X153623095Y-110606380D01*
X153718333Y-110558761D01*
X153765952Y-110511142D01*
X154242142Y-110606380D02*
X154242142Y-109606380D01*
X154242142Y-109987333D02*
X154337380Y-109939714D01*
X154527857Y-109939714D01*
X154623095Y-109987333D01*
X154670714Y-110034952D01*
X154718333Y-110130190D01*
X154718333Y-110415904D01*
X154670714Y-110511142D01*
X154623095Y-110558761D01*
X154527857Y-110606380D01*
X154337380Y-110606380D01*
X154242142Y-110558761D01*
X155146904Y-110511142D02*
X155194523Y-110558761D01*
X155146904Y-110606380D01*
X155099285Y-110558761D01*
X155146904Y-110511142D01*
X155146904Y-110606380D01*
X156051666Y-110558761D02*
X155956428Y-110606380D01*
X155765952Y-110606380D01*
X155670714Y-110558761D01*
X155623095Y-110511142D01*
X155575476Y-110415904D01*
X155575476Y-110130190D01*
X155623095Y-110034952D01*
X155670714Y-109987333D01*
X155765952Y-109939714D01*
X155956428Y-109939714D01*
X156051666Y-109987333D01*
X156623095Y-110606380D02*
X156527857Y-110558761D01*
X156480238Y-110511142D01*
X156432619Y-110415904D01*
X156432619Y-110130190D01*
X156480238Y-110034952D01*
X156527857Y-109987333D01*
X156623095Y-109939714D01*
X156765952Y-109939714D01*
X156861190Y-109987333D01*
X156908809Y-110034952D01*
X156956428Y-110130190D01*
X156956428Y-110415904D01*
X156908809Y-110511142D01*
X156861190Y-110558761D01*
X156765952Y-110606380D01*
X156623095Y-110606380D01*
X157385000Y-110606380D02*
X157385000Y-109939714D01*
X157385000Y-110034952D02*
X157432619Y-109987333D01*
X157527857Y-109939714D01*
X157670714Y-109939714D01*
X157765952Y-109987333D01*
X157813571Y-110082571D01*
X157813571Y-110606380D01*
X157813571Y-110082571D02*
X157861190Y-109987333D01*
X157956428Y-109939714D01*
X158099285Y-109939714D01*
X158194523Y-109987333D01*
X158242142Y-110082571D01*
X158242142Y-110606380D01*
X159432619Y-109558761D02*
X158575476Y-110844476D01*
X159765952Y-110606380D02*
X159765952Y-109606380D01*
X159861190Y-110225428D02*
X160146904Y-110606380D01*
X160146904Y-109939714D02*
X159765952Y-110320666D01*
X160480238Y-109939714D02*
X160718333Y-110606380D01*
X160956428Y-109939714D01*
X161765952Y-110606380D02*
X161765952Y-110082571D01*
X161718333Y-109987333D01*
X161623095Y-109939714D01*
X161432619Y-109939714D01*
X161337380Y-109987333D01*
X161765952Y-110558761D02*
X161670714Y-110606380D01*
X161432619Y-110606380D01*
X161337380Y-110558761D01*
X161289761Y-110463523D01*
X161289761Y-110368285D01*
X161337380Y-110273047D01*
X161432619Y-110225428D01*
X161670714Y-110225428D01*
X161765952Y-110177809D01*
X162242142Y-109939714D02*
X162242142Y-110606380D01*
X162242142Y-110034952D02*
X162289761Y-109987333D01*
X162385000Y-109939714D01*
X162527857Y-109939714D01*
X162623095Y-109987333D01*
X162670714Y-110082571D01*
X162670714Y-110606380D01*
X163575476Y-110606380D02*
X163575476Y-109606380D01*
X163575476Y-110558761D02*
X163480238Y-110606380D01*
X163289761Y-110606380D01*
X163194523Y-110558761D01*
X163146904Y-110511142D01*
X163099285Y-110415904D01*
X163099285Y-110130190D01*
X163146904Y-110034952D01*
X163194523Y-109987333D01*
X163289761Y-109939714D01*
X163480238Y-109939714D01*
X163575476Y-109987333D01*
X164432619Y-110558761D02*
X164337380Y-110606380D01*
X164146904Y-110606380D01*
X164051666Y-110558761D01*
X164004047Y-110463523D01*
X164004047Y-110082571D01*
X164051666Y-109987333D01*
X164146904Y-109939714D01*
X164337380Y-109939714D01*
X164432619Y-109987333D01*
X164480238Y-110082571D01*
X164480238Y-110177809D01*
X164004047Y-110273047D01*
X164908809Y-110606380D02*
X164908809Y-109939714D01*
X164908809Y-110130190D02*
X164956428Y-110034952D01*
X165004047Y-109987333D01*
X165099285Y-109939714D01*
X165194523Y-109939714D01*
X165670714Y-110606380D02*
X165575476Y-110558761D01*
X165527857Y-110463523D01*
X165527857Y-109606380D01*
X166480238Y-110606380D02*
X166480238Y-110082571D01*
X166432619Y-109987333D01*
X166337380Y-109939714D01*
X166146904Y-109939714D01*
X166051666Y-109987333D01*
X166480238Y-110558761D02*
X166385000Y-110606380D01*
X166146904Y-110606380D01*
X166051666Y-110558761D01*
X166004047Y-110463523D01*
X166004047Y-110368285D01*
X166051666Y-110273047D01*
X166146904Y-110225428D01*
X166385000Y-110225428D01*
X166480238Y-110177809D01*
X167385000Y-110606380D02*
X167385000Y-110082571D01*
X167337380Y-109987333D01*
X167242142Y-109939714D01*
X167051666Y-109939714D01*
X166956428Y-109987333D01*
X167385000Y-110558761D02*
X167289761Y-110606380D01*
X167051666Y-110606380D01*
X166956428Y-110558761D01*
X166908809Y-110463523D01*
X166908809Y-110368285D01*
X166956428Y-110273047D01*
X167051666Y-110225428D01*
X167289761Y-110225428D01*
X167385000Y-110177809D01*
X168289761Y-109939714D02*
X168289761Y-110749238D01*
X168242142Y-110844476D01*
X168194523Y-110892095D01*
X168099285Y-110939714D01*
X167956428Y-110939714D01*
X167861190Y-110892095D01*
X168289761Y-110558761D02*
X168194523Y-110606380D01*
X168004047Y-110606380D01*
X167908809Y-110558761D01*
X167861190Y-110511142D01*
X167813571Y-110415904D01*
X167813571Y-110130190D01*
X167861190Y-110034952D01*
X167908809Y-109987333D01*
X168004047Y-109939714D01*
X168194523Y-109939714D01*
X168289761Y-109987333D01*
X189819595Y-68651428D02*
X190581500Y-68651428D01*
X191581500Y-69032380D02*
X191010071Y-69032380D01*
X191295785Y-69032380D02*
X191295785Y-68032380D01*
X191200547Y-68175238D01*
X191105309Y-68270476D01*
X191010071Y-68318095D01*
X191962452Y-68127619D02*
X192010071Y-68080000D01*
X192105309Y-68032380D01*
X192343404Y-68032380D01*
X192438642Y-68080000D01*
X192486261Y-68127619D01*
X192533880Y-68222857D01*
X192533880Y-68318095D01*
X192486261Y-68460952D01*
X191914833Y-69032380D01*
X192533880Y-69032380D01*
X192819595Y-68032380D02*
X193152928Y-69032380D01*
X193486261Y-68032380D01*
X188184404Y-81161000D02*
X188089166Y-81113380D01*
X187946309Y-81113380D01*
X187803452Y-81161000D01*
X187708214Y-81256238D01*
X187660595Y-81351476D01*
X187612976Y-81541952D01*
X187612976Y-81684809D01*
X187660595Y-81875285D01*
X187708214Y-81970523D01*
X187803452Y-82065761D01*
X187946309Y-82113380D01*
X188041547Y-82113380D01*
X188184404Y-82065761D01*
X188232023Y-82018142D01*
X188232023Y-81684809D01*
X188041547Y-81684809D01*
X188660595Y-82113380D02*
X188660595Y-81113380D01*
X189232023Y-82113380D01*
X189232023Y-81113380D01*
X189708214Y-82113380D02*
X189708214Y-81113380D01*
X189946309Y-81113380D01*
X190089166Y-81161000D01*
X190184404Y-81256238D01*
X190232023Y-81351476D01*
X190279642Y-81541952D01*
X190279642Y-81684809D01*
X190232023Y-81875285D01*
X190184404Y-81970523D01*
X190089166Y-82065761D01*
X189946309Y-82113380D01*
X189708214Y-82113380D01*
X190581595Y-94051428D02*
X191343500Y-94051428D01*
X190962547Y-94432380D02*
X190962547Y-93670476D01*
X192295880Y-93432380D02*
X191819690Y-93432380D01*
X191772071Y-93908571D01*
X191819690Y-93860952D01*
X191914928Y-93813333D01*
X192153023Y-93813333D01*
X192248261Y-93860952D01*
X192295880Y-93908571D01*
X192343500Y-94003809D01*
X192343500Y-94241904D01*
X192295880Y-94337142D01*
X192248261Y-94384761D01*
X192153023Y-94432380D01*
X191914928Y-94432380D01*
X191819690Y-94384761D01*
X191772071Y-94337142D01*
X192629214Y-93432380D02*
X192962547Y-94432380D01*
X193295880Y-93432380D01*
X186644595Y-75763428D02*
X187406500Y-75763428D01*
X187025547Y-76144380D02*
X187025547Y-75382476D01*
X188406500Y-76144380D02*
X187835071Y-76144380D01*
X188120785Y-76144380D02*
X188120785Y-75144380D01*
X188025547Y-75287238D01*
X187930309Y-75382476D01*
X187835071Y-75430095D01*
X188787452Y-75239619D02*
X188835071Y-75192000D01*
X188930309Y-75144380D01*
X189168404Y-75144380D01*
X189263642Y-75192000D01*
X189311261Y-75239619D01*
X189358880Y-75334857D01*
X189358880Y-75430095D01*
X189311261Y-75572952D01*
X188739833Y-76144380D01*
X189358880Y-76144380D01*
X189644595Y-75144380D02*
X189977928Y-76144380D01*
X190311261Y-75144380D01*
%TO.C,C2*%
X178776333Y-82145179D02*
X178728714Y-82192798D01*
X178585857Y-82240417D01*
X178490619Y-82240417D01*
X178347761Y-82192798D01*
X178252523Y-82097560D01*
X178204904Y-82002322D01*
X178157285Y-81811846D01*
X178157285Y-81668989D01*
X178204904Y-81478513D01*
X178252523Y-81383275D01*
X178347761Y-81288037D01*
X178490619Y-81240417D01*
X178585857Y-81240417D01*
X178728714Y-81288037D01*
X178776333Y-81335656D01*
X179157285Y-81335656D02*
X179204904Y-81288037D01*
X179300142Y-81240417D01*
X179538238Y-81240417D01*
X179633476Y-81288037D01*
X179681095Y-81335656D01*
X179728714Y-81430894D01*
X179728714Y-81526132D01*
X179681095Y-81668989D01*
X179109666Y-82240417D01*
X179728714Y-82240417D01*
%TO.C,C1*%
X178776333Y-83796100D02*
X178728714Y-83843719D01*
X178585857Y-83891338D01*
X178490619Y-83891338D01*
X178347761Y-83843719D01*
X178252523Y-83748481D01*
X178204904Y-83653243D01*
X178157285Y-83462767D01*
X178157285Y-83319910D01*
X178204904Y-83129434D01*
X178252523Y-83034196D01*
X178347761Y-82938958D01*
X178490619Y-82891338D01*
X178585857Y-82891338D01*
X178728714Y-82938958D01*
X178776333Y-82986577D01*
X179728714Y-83891338D02*
X179157285Y-83891338D01*
X179443000Y-83891338D02*
X179443000Y-82891338D01*
X179347761Y-83034196D01*
X179252523Y-83129434D01*
X179157285Y-83177053D01*
X176617666Y-75509338D02*
X176046238Y-75509338D01*
X176331952Y-75509338D02*
X176331952Y-74509338D01*
X176236714Y-74652196D01*
X176141476Y-74747434D01*
X176046238Y-74795053D01*
X177236714Y-74509338D02*
X177331952Y-74509338D01*
X177427190Y-74556958D01*
X177474809Y-74604577D01*
X177522428Y-74699815D01*
X177570047Y-74890291D01*
X177570047Y-75128386D01*
X177522428Y-75318862D01*
X177474809Y-75414100D01*
X177427190Y-75461719D01*
X177331952Y-75509338D01*
X177236714Y-75509338D01*
X177141476Y-75461719D01*
X177093857Y-75414100D01*
X177046238Y-75318862D01*
X176998619Y-75128386D01*
X176998619Y-74890291D01*
X177046238Y-74699815D01*
X177093857Y-74604577D01*
X177141476Y-74556958D01*
X177236714Y-74509338D01*
X178427190Y-74842672D02*
X178427190Y-75509338D01*
X177998619Y-74842672D02*
X177998619Y-75366481D01*
X178046238Y-75461719D01*
X178141476Y-75509338D01*
X178284333Y-75509338D01*
X178379571Y-75461719D01*
X178427190Y-75414100D01*
X179236714Y-74985529D02*
X178903380Y-74985529D01*
X178903380Y-75509338D02*
X178903380Y-74509338D01*
X179379571Y-74509338D01*
X181046238Y-75509338D02*
X180474809Y-75509338D01*
X180760523Y-75509338D02*
X180760523Y-74509338D01*
X180665285Y-74652196D01*
X180570047Y-74747434D01*
X180474809Y-74795053D01*
X181903380Y-74509338D02*
X181712904Y-74509338D01*
X181617666Y-74556958D01*
X181570047Y-74604577D01*
X181474809Y-74747434D01*
X181427190Y-74937910D01*
X181427190Y-75318862D01*
X181474809Y-75414100D01*
X181522428Y-75461719D01*
X181617666Y-75509338D01*
X181808142Y-75509338D01*
X181903380Y-75461719D01*
X181951000Y-75414100D01*
X181998619Y-75318862D01*
X181998619Y-75080767D01*
X181951000Y-74985529D01*
X181903380Y-74937910D01*
X181808142Y-74890291D01*
X181617666Y-74890291D01*
X181522428Y-74937910D01*
X181474809Y-74985529D01*
X181427190Y-75080767D01*
X182284333Y-74509338D02*
X182617666Y-75509338D01*
X182951000Y-74509338D01*
%TO.C,C4*%
X113625333Y-108942142D02*
X113577714Y-108989761D01*
X113434857Y-109037380D01*
X113339619Y-109037380D01*
X113196761Y-108989761D01*
X113101523Y-108894523D01*
X113053904Y-108799285D01*
X113006285Y-108608809D01*
X113006285Y-108465952D01*
X113053904Y-108275476D01*
X113101523Y-108180238D01*
X113196761Y-108085000D01*
X113339619Y-108037380D01*
X113434857Y-108037380D01*
X113577714Y-108085000D01*
X113625333Y-108132619D01*
X114482476Y-108370714D02*
X114482476Y-109037380D01*
X114244380Y-107989761D02*
X114006285Y-108704047D01*
X114625333Y-108704047D01*
X113038142Y-109783619D02*
X113085761Y-109736000D01*
X113181000Y-109688380D01*
X113419095Y-109688380D01*
X113514333Y-109736000D01*
X113561952Y-109783619D01*
X113609571Y-109878857D01*
X113609571Y-109974095D01*
X113561952Y-110116952D01*
X112990523Y-110688380D01*
X113609571Y-110688380D01*
X113942904Y-109688380D02*
X114609571Y-109688380D01*
X114181000Y-110688380D01*
X114990523Y-110021714D02*
X114990523Y-111021714D01*
X114990523Y-110069333D02*
X115085761Y-110021714D01*
X115276238Y-110021714D01*
X115371476Y-110069333D01*
X115419095Y-110116952D01*
X115466714Y-110212190D01*
X115466714Y-110497904D01*
X115419095Y-110593142D01*
X115371476Y-110640761D01*
X115276238Y-110688380D01*
X115085761Y-110688380D01*
X114990523Y-110640761D01*
X116228619Y-110164571D02*
X115895285Y-110164571D01*
X115895285Y-110688380D02*
X115895285Y-109688380D01*
X116371476Y-109688380D01*
%TO.C,C3*%
X178776313Y-80494142D02*
X178728694Y-80541761D01*
X178585837Y-80589380D01*
X178490599Y-80589380D01*
X178347741Y-80541761D01*
X178252503Y-80446523D01*
X178204884Y-80351285D01*
X178157265Y-80160809D01*
X178157265Y-80017952D01*
X178204884Y-79827476D01*
X178252503Y-79732238D01*
X178347741Y-79637000D01*
X178490599Y-79589380D01*
X178585837Y-79589380D01*
X178728694Y-79637000D01*
X178776313Y-79684619D01*
X179109646Y-79589380D02*
X179728694Y-79589380D01*
X179395360Y-79970333D01*
X179538218Y-79970333D01*
X179633456Y-80017952D01*
X179681075Y-80065571D01*
X179728694Y-80160809D01*
X179728694Y-80398904D01*
X179681075Y-80494142D01*
X179633456Y-80541761D01*
X179538218Y-80589380D01*
X179252503Y-80589380D01*
X179157265Y-80541761D01*
X179109646Y-80494142D01*
%TO.C,Y1*%
X114585809Y-102846190D02*
X114585809Y-103322380D01*
X114252476Y-102322380D02*
X114585809Y-102846190D01*
X114919142Y-102322380D01*
X115776285Y-103322380D02*
X115204857Y-103322380D01*
X115490571Y-103322380D02*
X115490571Y-102322380D01*
X115395333Y-102465238D01*
X115300095Y-102560476D01*
X115204857Y-102608095D01*
X114380000Y-103973380D02*
X114999047Y-103973380D01*
X114665714Y-104354333D01*
X114808571Y-104354333D01*
X114903809Y-104401952D01*
X114951428Y-104449571D01*
X114999047Y-104544809D01*
X114999047Y-104782904D01*
X114951428Y-104878142D01*
X114903809Y-104925761D01*
X114808571Y-104973380D01*
X114522857Y-104973380D01*
X114427619Y-104925761D01*
X114380000Y-104878142D01*
X115427619Y-104878142D02*
X115475238Y-104925761D01*
X115427619Y-104973380D01*
X115380000Y-104925761D01*
X115427619Y-104878142D01*
X115427619Y-104973380D01*
X116380000Y-103973380D02*
X115903809Y-103973380D01*
X115856190Y-104449571D01*
X115903809Y-104401952D01*
X115999047Y-104354333D01*
X116237142Y-104354333D01*
X116332380Y-104401952D01*
X116380000Y-104449571D01*
X116427619Y-104544809D01*
X116427619Y-104782904D01*
X116380000Y-104878142D01*
X116332380Y-104925761D01*
X116237142Y-104973380D01*
X115999047Y-104973380D01*
X115903809Y-104925761D01*
X115856190Y-104878142D01*
X116760952Y-103973380D02*
X117427619Y-103973380D01*
X116999047Y-104973380D01*
X117856190Y-104973380D02*
X118046666Y-104973380D01*
X118141904Y-104925761D01*
X118189523Y-104878142D01*
X118284761Y-104735285D01*
X118332380Y-104544809D01*
X118332380Y-104163857D01*
X118284761Y-104068619D01*
X118237142Y-104021000D01*
X118141904Y-103973380D01*
X117951428Y-103973380D01*
X117856190Y-104021000D01*
X117808571Y-104068619D01*
X117760952Y-104163857D01*
X117760952Y-104401952D01*
X117808571Y-104497190D01*
X117856190Y-104544809D01*
X117951428Y-104592428D01*
X118141904Y-104592428D01*
X118237142Y-104544809D01*
X118284761Y-104497190D01*
X118332380Y-104401952D01*
X119237142Y-103973380D02*
X118760952Y-103973380D01*
X118713333Y-104449571D01*
X118760952Y-104401952D01*
X118856190Y-104354333D01*
X119094285Y-104354333D01*
X119189523Y-104401952D01*
X119237142Y-104449571D01*
X119284761Y-104544809D01*
X119284761Y-104782904D01*
X119237142Y-104878142D01*
X119189523Y-104925761D01*
X119094285Y-104973380D01*
X118856190Y-104973380D01*
X118760952Y-104925761D01*
X118713333Y-104878142D01*
X120141904Y-104306714D02*
X120141904Y-104973380D01*
X119903809Y-103925761D02*
X119665714Y-104640047D01*
X120284761Y-104640047D01*
X121141904Y-103973380D02*
X120665714Y-103973380D01*
X120618095Y-104449571D01*
X120665714Y-104401952D01*
X120760952Y-104354333D01*
X120999047Y-104354333D01*
X121094285Y-104401952D01*
X121141904Y-104449571D01*
X121189523Y-104544809D01*
X121189523Y-104782904D01*
X121141904Y-104878142D01*
X121094285Y-104925761D01*
X120999047Y-104973380D01*
X120760952Y-104973380D01*
X120665714Y-104925761D01*
X120618095Y-104878142D01*
X121618095Y-104973380D02*
X121618095Y-103973380D01*
X121951428Y-104687666D01*
X122284761Y-103973380D01*
X122284761Y-104973380D01*
X122760952Y-104973380D02*
X122760952Y-103973380D01*
X122760952Y-104449571D02*
X123332380Y-104449571D01*
X123332380Y-104973380D02*
X123332380Y-103973380D01*
X123713333Y-103973380D02*
X124380000Y-103973380D01*
X123713333Y-104973380D01*
X124380000Y-104973380D01*
%TO.C,XA1*%
X140462000Y-84939142D02*
X140509619Y-84986761D01*
X140462000Y-85034380D01*
X140414380Y-84986761D01*
X140462000Y-84939142D01*
X140462000Y-85034380D01*
D11*
X141108952Y-67917190D02*
X141108952Y-67417190D01*
X141228000Y-67417190D01*
X141299428Y-67441000D01*
X141347047Y-67488619D01*
X141370857Y-67536238D01*
X141394666Y-67631476D01*
X141394666Y-67702904D01*
X141370857Y-67798142D01*
X141347047Y-67845761D01*
X141299428Y-67893380D01*
X141228000Y-67917190D01*
X141108952Y-67917190D01*
X141704190Y-67417190D02*
X141751809Y-67417190D01*
X141799428Y-67441000D01*
X141823238Y-67464809D01*
X141847047Y-67512428D01*
X141870857Y-67607666D01*
X141870857Y-67726714D01*
X141847047Y-67821952D01*
X141823238Y-67869571D01*
X141799428Y-67893380D01*
X141751809Y-67917190D01*
X141704190Y-67917190D01*
X141656571Y-67893380D01*
X141632761Y-67869571D01*
X141608952Y-67821952D01*
X141585142Y-67726714D01*
X141585142Y-67607666D01*
X141608952Y-67512428D01*
X141632761Y-67464809D01*
X141656571Y-67441000D01*
X141704190Y-67417190D01*
D10*
%TO.C,C6*%
X103064333Y-89882142D02*
X103016714Y-89929761D01*
X102873857Y-89977380D01*
X102778619Y-89977380D01*
X102635761Y-89929761D01*
X102540523Y-89834523D01*
X102492904Y-89739285D01*
X102445285Y-89548809D01*
X102445285Y-89405952D01*
X102492904Y-89215476D01*
X102540523Y-89120238D01*
X102635761Y-89025000D01*
X102778619Y-88977380D01*
X102873857Y-88977380D01*
X103016714Y-89025000D01*
X103064333Y-89072619D01*
X103921476Y-88977380D02*
X103731000Y-88977380D01*
X103635761Y-89025000D01*
X103588142Y-89072619D01*
X103492904Y-89215476D01*
X103445285Y-89405952D01*
X103445285Y-89786904D01*
X103492904Y-89882142D01*
X103540523Y-89929761D01*
X103635761Y-89977380D01*
X103826238Y-89977380D01*
X103921476Y-89929761D01*
X103969095Y-89882142D01*
X104016714Y-89786904D01*
X104016714Y-89548809D01*
X103969095Y-89453571D01*
X103921476Y-89405952D01*
X103826238Y-89358333D01*
X103635761Y-89358333D01*
X103540523Y-89405952D01*
X103492904Y-89453571D01*
X103445285Y-89548809D01*
X105926142Y-91400380D02*
X106021380Y-91400380D01*
X106116619Y-91448000D01*
X106164238Y-91495619D01*
X106211857Y-91590857D01*
X106259476Y-91781333D01*
X106259476Y-92019428D01*
X106211857Y-92209904D01*
X106164238Y-92305142D01*
X106116619Y-92352761D01*
X106021380Y-92400380D01*
X105926142Y-92400380D01*
X105830904Y-92352761D01*
X105783285Y-92305142D01*
X105735666Y-92209904D01*
X105688047Y-92019428D01*
X105688047Y-91781333D01*
X105735666Y-91590857D01*
X105783285Y-91495619D01*
X105830904Y-91448000D01*
X105926142Y-91400380D01*
X106688047Y-92305142D02*
X106735666Y-92352761D01*
X106688047Y-92400380D01*
X106640428Y-92352761D01*
X106688047Y-92305142D01*
X106688047Y-92400380D01*
X107688047Y-92400380D02*
X107116619Y-92400380D01*
X107402333Y-92400380D02*
X107402333Y-91400380D01*
X107307095Y-91543238D01*
X107211857Y-91638476D01*
X107116619Y-91686095D01*
X108545190Y-91733714D02*
X108545190Y-92400380D01*
X108116619Y-91733714D02*
X108116619Y-92257523D01*
X108164238Y-92352761D01*
X108259476Y-92400380D01*
X108402333Y-92400380D01*
X108497571Y-92352761D01*
X108545190Y-92305142D01*
X109354714Y-91876571D02*
X109021380Y-91876571D01*
X109021380Y-92400380D02*
X109021380Y-91400380D01*
X109497571Y-91400380D01*
%TO.C,J1*%
X58721666Y-42251380D02*
X58721666Y-42965666D01*
X58674047Y-43108523D01*
X58578809Y-43203761D01*
X58435952Y-43251380D01*
X58340714Y-43251380D01*
X59721666Y-43251380D02*
X59150238Y-43251380D01*
X59435952Y-43251380D02*
X59435952Y-42251380D01*
X59340714Y-42394238D01*
X59245476Y-42489476D01*
X59150238Y-42537095D01*
X120404666Y-48947142D02*
X120357047Y-48994761D01*
X120214190Y-49042380D01*
X120118952Y-49042380D01*
X119976095Y-48994761D01*
X119880857Y-48899523D01*
X119833238Y-48804285D01*
X119785619Y-48613809D01*
X119785619Y-48470952D01*
X119833238Y-48280476D01*
X119880857Y-48185238D01*
X119976095Y-48090000D01*
X120118952Y-48042380D01*
X120214190Y-48042380D01*
X120357047Y-48090000D01*
X120404666Y-48137619D01*
X121023714Y-48042380D02*
X121214190Y-48042380D01*
X121309428Y-48090000D01*
X121404666Y-48185238D01*
X121452285Y-48375714D01*
X121452285Y-48709047D01*
X121404666Y-48899523D01*
X121309428Y-48994761D01*
X121214190Y-49042380D01*
X121023714Y-49042380D01*
X120928476Y-48994761D01*
X120833238Y-48899523D01*
X120785619Y-48709047D01*
X120785619Y-48375714D01*
X120833238Y-48185238D01*
X120928476Y-48090000D01*
X121023714Y-48042380D01*
X121880857Y-49042380D02*
X121880857Y-48042380D01*
X122452285Y-49042380D01*
X122452285Y-48042380D01*
X122928476Y-49042380D02*
X122928476Y-48042380D01*
X123499904Y-49042380D01*
X123499904Y-48042380D01*
X123738000Y-49137619D02*
X124499904Y-49137619D01*
X124738000Y-48518571D02*
X125071333Y-48518571D01*
X125214190Y-49042380D02*
X124738000Y-49042380D01*
X124738000Y-48042380D01*
X125214190Y-48042380D01*
X125976095Y-48518571D02*
X126118952Y-48566190D01*
X126166571Y-48613809D01*
X126214190Y-48709047D01*
X126214190Y-48851904D01*
X126166571Y-48947142D01*
X126118952Y-48994761D01*
X126023714Y-49042380D01*
X125642761Y-49042380D01*
X125642761Y-48042380D01*
X125976095Y-48042380D01*
X126071333Y-48090000D01*
X126118952Y-48137619D01*
X126166571Y-48232857D01*
X126166571Y-48328095D01*
X126118952Y-48423333D01*
X126071333Y-48470952D01*
X125976095Y-48518571D01*
X125642761Y-48518571D01*
X127214190Y-48947142D02*
X127166571Y-48994761D01*
X127023714Y-49042380D01*
X126928476Y-49042380D01*
X126785619Y-48994761D01*
X126690380Y-48899523D01*
X126642761Y-48804285D01*
X126595142Y-48613809D01*
X126595142Y-48470952D01*
X126642761Y-48280476D01*
X126690380Y-48185238D01*
X126785619Y-48090000D01*
X126928476Y-48042380D01*
X127023714Y-48042380D01*
X127166571Y-48090000D01*
X127214190Y-48137619D01*
X128071333Y-48375714D02*
X128071333Y-49042380D01*
X127833238Y-47994761D02*
X127595142Y-48709047D01*
X128214190Y-48709047D01*
X128642761Y-49042380D02*
X128833238Y-49042380D01*
X128928476Y-48994761D01*
X128976095Y-48947142D01*
X129071333Y-48804285D01*
X129118952Y-48613809D01*
X129118952Y-48232857D01*
X129071333Y-48137619D01*
X129023714Y-48090000D01*
X128928476Y-48042380D01*
X128738000Y-48042380D01*
X128642761Y-48090000D01*
X128595142Y-48137619D01*
X128547523Y-48232857D01*
X128547523Y-48470952D01*
X128595142Y-48566190D01*
X128642761Y-48613809D01*
X128738000Y-48661428D01*
X128928476Y-48661428D01*
X129023714Y-48613809D01*
X129071333Y-48566190D01*
X129118952Y-48470952D01*
X129309428Y-49137619D02*
X130071333Y-49137619D01*
X130261809Y-48994761D02*
X130404666Y-49042380D01*
X130642761Y-49042380D01*
X130737999Y-48994761D01*
X130785619Y-48947142D01*
X130833238Y-48851904D01*
X130833238Y-48756666D01*
X130785619Y-48661428D01*
X130737999Y-48613809D01*
X130642761Y-48566190D01*
X130452285Y-48518571D01*
X130357047Y-48470952D01*
X130309428Y-48423333D01*
X130261809Y-48328095D01*
X130261809Y-48232857D01*
X130309428Y-48137619D01*
X130357047Y-48090000D01*
X130452285Y-48042380D01*
X130690380Y-48042380D01*
X130833238Y-48090000D01*
X131261809Y-48042380D02*
X131261809Y-48851904D01*
X131309428Y-48947142D01*
X131357047Y-48994761D01*
X131452285Y-49042380D01*
X131642761Y-49042380D01*
X131737999Y-48994761D01*
X131785619Y-48947142D01*
X131833238Y-48851904D01*
X131833238Y-48042380D01*
X132785619Y-49042380D02*
X132309428Y-49042380D01*
X132309428Y-48042380D01*
X191008000Y-45502380D02*
X191008000Y-45740476D01*
X190769904Y-45645238D02*
X191008000Y-45740476D01*
X191246095Y-45645238D01*
X190865142Y-45930952D02*
X191008000Y-45740476D01*
X191150857Y-45930952D01*
%TO.C,J2*%
X197913666Y-94194380D02*
X197913666Y-94908666D01*
X197866047Y-95051523D01*
X197770809Y-95146761D01*
X197627952Y-95194380D01*
X197532714Y-95194380D01*
X198342238Y-94289619D02*
X198389857Y-94242000D01*
X198485095Y-94194380D01*
X198723190Y-94194380D01*
X198818428Y-94242000D01*
X198866047Y-94289619D01*
X198913666Y-94384857D01*
X198913666Y-94480095D01*
X198866047Y-94622952D01*
X198294619Y-95194380D01*
X198913666Y-95194380D01*
%TO.C,C5*%
X102322333Y-108942142D02*
X102274714Y-108989761D01*
X102131857Y-109037380D01*
X102036619Y-109037380D01*
X101893761Y-108989761D01*
X101798523Y-108894523D01*
X101750904Y-108799285D01*
X101703285Y-108608809D01*
X101703285Y-108465952D01*
X101750904Y-108275476D01*
X101798523Y-108180238D01*
X101893761Y-108085000D01*
X102036619Y-108037380D01*
X102131857Y-108037380D01*
X102274714Y-108085000D01*
X102322333Y-108132619D01*
X103227095Y-108037380D02*
X102750904Y-108037380D01*
X102703285Y-108513571D01*
X102750904Y-108465952D01*
X102846142Y-108418333D01*
X103084238Y-108418333D01*
X103179476Y-108465952D01*
X103227095Y-108513571D01*
X103274714Y-108608809D01*
X103274714Y-108846904D01*
X103227095Y-108942142D01*
X103179476Y-108989761D01*
X103084238Y-109037380D01*
X102846142Y-109037380D01*
X102750904Y-108989761D01*
X102703285Y-108942142D01*
X99957142Y-109783619D02*
X100004761Y-109736000D01*
X100100000Y-109688380D01*
X100338095Y-109688380D01*
X100433333Y-109736000D01*
X100480952Y-109783619D01*
X100528571Y-109878857D01*
X100528571Y-109974095D01*
X100480952Y-110116952D01*
X99909523Y-110688380D01*
X100528571Y-110688380D01*
X100861904Y-109688380D02*
X101528571Y-109688380D01*
X101100000Y-110688380D01*
X101909523Y-110021714D02*
X101909523Y-111021714D01*
X101909523Y-110069333D02*
X102004761Y-110021714D01*
X102195238Y-110021714D01*
X102290476Y-110069333D01*
X102338095Y-110116952D01*
X102385714Y-110212190D01*
X102385714Y-110497904D01*
X102338095Y-110593142D01*
X102290476Y-110640761D01*
X102195238Y-110688380D01*
X102004761Y-110688380D01*
X101909523Y-110640761D01*
X103147619Y-110164571D02*
X102814285Y-110164571D01*
X102814285Y-110688380D02*
X102814285Y-109688380D01*
X103290476Y-109688380D01*
%TO.C,U1*%
X111125095Y-94448380D02*
X111125095Y-95257904D01*
X111172714Y-95353142D01*
X111220333Y-95400761D01*
X111315571Y-95448380D01*
X111506047Y-95448380D01*
X111601285Y-95400761D01*
X111648904Y-95353142D01*
X111696523Y-95257904D01*
X111696523Y-94448380D01*
X112696523Y-95448380D02*
X112125095Y-95448380D01*
X112410809Y-95448380D02*
X112410809Y-94448380D01*
X112315571Y-94591238D01*
X112220333Y-94686476D01*
X112125095Y-94734095D01*
X111641238Y-97353380D02*
X111641238Y-96353380D01*
X112688857Y-97258142D02*
X112641238Y-97305761D01*
X112498380Y-97353380D01*
X112403142Y-97353380D01*
X112260285Y-97305761D01*
X112165047Y-97210523D01*
X112117428Y-97115285D01*
X112069809Y-96924809D01*
X112069809Y-96781952D01*
X112117428Y-96591476D01*
X112165047Y-96496238D01*
X112260285Y-96401000D01*
X112403142Y-96353380D01*
X112498380Y-96353380D01*
X112641238Y-96401000D01*
X112688857Y-96448619D01*
X113069809Y-97305761D02*
X113212666Y-97353380D01*
X113450761Y-97353380D01*
X113546000Y-97305761D01*
X113593619Y-97258142D01*
X113641238Y-97162904D01*
X113641238Y-97067666D01*
X113593619Y-96972428D01*
X113546000Y-96924809D01*
X113450761Y-96877190D01*
X113260285Y-96829571D01*
X113165047Y-96781952D01*
X113117428Y-96734333D01*
X113069809Y-96639095D01*
X113069809Y-96543857D01*
X113117428Y-96448619D01*
X113165047Y-96401000D01*
X113260285Y-96353380D01*
X113498380Y-96353380D01*
X113641238Y-96401000D01*
X114546000Y-96353380D02*
X114069809Y-96353380D01*
X114022190Y-96829571D01*
X114069809Y-96781952D01*
X114165047Y-96734333D01*
X114403142Y-96734333D01*
X114498380Y-96781952D01*
X114546000Y-96829571D01*
X114593619Y-96924809D01*
X114593619Y-97162904D01*
X114546000Y-97258142D01*
X114498380Y-97305761D01*
X114403142Y-97353380D01*
X114165047Y-97353380D01*
X114069809Y-97305761D01*
X114022190Y-97258142D01*
X115212666Y-96353380D02*
X115307904Y-96353380D01*
X115403142Y-96401000D01*
X115450761Y-96448619D01*
X115498380Y-96543857D01*
X115546000Y-96734333D01*
X115546000Y-96972428D01*
X115498380Y-97162904D01*
X115450761Y-97258142D01*
X115403142Y-97305761D01*
X115307904Y-97353380D01*
X115212666Y-97353380D01*
X115117428Y-97305761D01*
X115069809Y-97258142D01*
X115022190Y-97162904D01*
X114974571Y-96972428D01*
X114974571Y-96734333D01*
X115022190Y-96543857D01*
X115069809Y-96448619D01*
X115117428Y-96401000D01*
X115212666Y-96353380D01*
X116498380Y-97353380D02*
X115926952Y-97353380D01*
X116212666Y-97353380D02*
X116212666Y-96353380D01*
X116117428Y-96496238D01*
X116022190Y-96591476D01*
X115926952Y-96639095D01*
D12*
%TO.C,C2*%
X182348000Y-79436900D02*
X180166000Y-79436900D01*
X185612000Y-81557900D02*
X181164000Y-81557900D01*
X182348000Y-80117900D02*
X180290000Y-80117900D01*
X182348000Y-81077900D02*
X180752000Y-81077900D01*
X186284000Y-80637900D02*
X184428000Y-80637900D01*
X185432000Y-81717900D02*
X181344000Y-81717900D01*
X182348000Y-81157900D02*
X180810000Y-81157900D01*
X186547000Y-79876900D02*
X184428000Y-79876900D01*
X186244000Y-80717900D02*
X184428000Y-80717900D01*
X184328000Y-82317900D02*
X182448000Y-82317900D01*
X182348000Y-80437900D02*
X180402000Y-80437900D01*
X186435000Y-80277900D02*
X184428000Y-80277900D01*
X184190000Y-82357900D02*
X182586000Y-82357900D01*
X182348000Y-80997900D02*
X180698000Y-80997900D01*
X182348000Y-80557900D02*
X180454000Y-80557900D01*
X186449000Y-80237900D02*
X184428000Y-80237900D01*
X185936000Y-81197900D02*
X184428000Y-81197900D01*
X182348000Y-81317900D02*
X180938000Y-81317900D01*
X186606000Y-79476900D02*
X184428000Y-79476900D01*
X186603000Y-79516900D02*
X184428000Y-79516900D01*
X184969000Y-82037900D02*
X181807000Y-82037900D01*
X182348000Y-79836900D02*
X180221000Y-79836900D01*
X184650000Y-82197900D02*
X182126000Y-82197900D01*
X186589000Y-79636900D02*
X184428000Y-79636900D01*
X182348000Y-79917900D02*
X180238000Y-79917900D01*
X182348000Y-79716900D02*
X180199000Y-79716900D01*
X185570000Y-81597900D02*
X181206000Y-81597900D01*
X186222000Y-80757900D02*
X184428000Y-80757900D01*
X182348000Y-79756900D02*
X180206000Y-79756900D01*
X185222000Y-81877900D02*
X181554000Y-81877900D01*
X186052000Y-81037900D02*
X184428000Y-81037900D01*
X182348000Y-80917900D02*
X180646000Y-80917900D01*
X182348000Y-80317900D02*
X180355000Y-80317900D01*
X186599000Y-79556900D02*
X184428000Y-79556900D01*
X186555000Y-79836900D02*
X184428000Y-79836900D01*
X182348000Y-80717900D02*
X180532000Y-80717900D01*
X185542000Y-76011659D02*
X184912000Y-76011659D01*
X186509000Y-80037900D02*
X184428000Y-80037900D01*
X186154000Y-80877900D02*
X184428000Y-80877900D01*
X185653000Y-81517900D02*
X181123000Y-81517900D01*
X182348000Y-81437900D02*
X181045000Y-81437900D01*
X182348000Y-80037900D02*
X180267000Y-80037900D01*
X185804000Y-81357900D02*
X184428000Y-81357900D01*
X182348000Y-81237900D02*
X180872000Y-81237900D01*
X182348000Y-81037900D02*
X180724000Y-81037900D01*
X186519000Y-79997900D02*
X184428000Y-79997900D01*
X186104000Y-80957900D02*
X184428000Y-80957900D01*
X186616000Y-79316900D02*
X180160000Y-79316900D01*
X185995000Y-81117900D02*
X184428000Y-81117900D01*
X184820000Y-82117900D02*
X181956000Y-82117900D01*
X186322000Y-80557900D02*
X184428000Y-80557900D01*
X182348000Y-80597900D02*
X180472000Y-80597900D01*
X185164000Y-81917900D02*
X181612000Y-81917900D01*
X182348000Y-81357900D02*
X180972000Y-81357900D01*
X185525000Y-81637900D02*
X181251000Y-81637900D01*
X182348000Y-79556900D02*
X180177000Y-79556900D01*
X182348000Y-80837900D02*
X180598000Y-80837900D01*
X182348000Y-80357900D02*
X180370000Y-80357900D01*
X182348000Y-80157900D02*
X180302000Y-80157900D01*
X182348000Y-80277900D02*
X180341000Y-80277900D01*
X182348000Y-79796900D02*
X180213000Y-79796900D01*
X182348000Y-80517900D02*
X180436000Y-80517900D01*
X186498000Y-80077900D02*
X184428000Y-80077900D01*
X186618000Y-79236900D02*
X180158000Y-79236900D01*
X185904000Y-81237900D02*
X184428000Y-81237900D01*
X182348000Y-79636900D02*
X180187000Y-79636900D01*
X186390000Y-80397900D02*
X184428000Y-80397900D01*
X186594000Y-79596900D02*
X184428000Y-79596900D01*
X186474000Y-80157900D02*
X184428000Y-80157900D01*
X186024000Y-81077900D02*
X184428000Y-81077900D01*
X184738000Y-82157900D02*
X182038000Y-82157900D01*
X186130000Y-80917900D02*
X184428000Y-80917900D01*
X184021000Y-82397900D02*
X182755000Y-82397900D01*
X182348000Y-80757900D02*
X180554000Y-80757900D01*
X186618000Y-79196900D02*
X180158000Y-79196900D01*
X182348000Y-80877900D02*
X180622000Y-80877900D01*
X186078000Y-80997900D02*
X184428000Y-80997900D01*
X182348000Y-81117900D02*
X180781000Y-81117900D01*
X184897000Y-82077900D02*
X181879000Y-82077900D01*
X184447000Y-82277900D02*
X182329000Y-82277900D01*
X185227000Y-75696659D02*
X185227000Y-76326659D01*
X182348000Y-80197900D02*
X180314000Y-80197900D01*
X182348000Y-80477900D02*
X180418000Y-80477900D01*
X182348000Y-80677900D02*
X180512000Y-80677900D01*
X185838000Y-81317900D02*
X184428000Y-81317900D01*
X182348000Y-79596900D02*
X180182000Y-79596900D01*
X186618000Y-79276900D02*
X180158000Y-79276900D01*
X186421000Y-80317900D02*
X184428000Y-80317900D01*
X182348000Y-80637900D02*
X180492000Y-80637900D01*
X185693000Y-81477900D02*
X184428000Y-81477900D01*
X186406000Y-80357900D02*
X184428000Y-80357900D01*
X186610000Y-79436900D02*
X184428000Y-79436900D01*
X186304000Y-80597900D02*
X184428000Y-80597900D01*
X185383000Y-81757900D02*
X181393000Y-81757900D01*
X182348000Y-80397900D02*
X180386000Y-80397900D01*
X182348000Y-81477900D02*
X181083000Y-81477900D01*
X182348000Y-81197900D02*
X180840000Y-81197900D01*
X185278000Y-81837900D02*
X181498000Y-81837900D01*
X182348000Y-80077900D02*
X180278000Y-80077900D01*
X186486000Y-80117900D02*
X184428000Y-80117900D01*
X184553000Y-82237900D02*
X182223000Y-82237900D01*
X182348000Y-79997900D02*
X180257000Y-79997900D01*
X182348000Y-80957900D02*
X180672000Y-80957900D01*
X185731000Y-81437900D02*
X184428000Y-81437900D01*
X186358000Y-80477900D02*
X184428000Y-80477900D01*
X182348000Y-80797900D02*
X180576000Y-80797900D01*
X182348000Y-81277900D02*
X180904000Y-81277900D01*
X182348000Y-79516900D02*
X180173000Y-79516900D01*
X186340000Y-80517900D02*
X184428000Y-80517900D01*
X186612000Y-79396900D02*
X180164000Y-79396900D01*
X182348000Y-79476900D02*
X180170000Y-79476900D01*
X186264000Y-80677900D02*
X184428000Y-80677900D01*
X186529000Y-79957900D02*
X184428000Y-79957900D01*
X186615000Y-79356900D02*
X180161000Y-79356900D01*
X182348000Y-79957900D02*
X180247000Y-79957900D01*
X185038000Y-81997900D02*
X181738000Y-81997900D01*
X186538000Y-79917900D02*
X184428000Y-79917900D01*
X185332000Y-81797900D02*
X181444000Y-81797900D01*
X186178000Y-80837900D02*
X184428000Y-80837900D01*
X182348000Y-79876900D02*
X180229000Y-79876900D01*
X186462000Y-80197900D02*
X184428000Y-80197900D01*
X182348000Y-81397900D02*
X181008000Y-81397900D01*
X182348000Y-79676900D02*
X180193000Y-79676900D01*
X183790000Y-82437900D02*
X182986000Y-82437900D01*
X186577000Y-79716900D02*
X184428000Y-79716900D01*
X186570000Y-79756900D02*
X184428000Y-79756900D01*
X185966000Y-81157900D02*
X184428000Y-81157900D01*
X186583000Y-79676900D02*
X184428000Y-79676900D01*
X185480000Y-81677900D02*
X181296000Y-81677900D01*
X185872000Y-81277900D02*
X184428000Y-81277900D01*
X182348000Y-80237900D02*
X180327000Y-80237900D01*
X186374000Y-80437900D02*
X184428000Y-80437900D01*
X186200000Y-80797900D02*
X184428000Y-80797900D01*
X186563000Y-79796900D02*
X184428000Y-79796900D01*
X185102000Y-81957900D02*
X181674000Y-81957900D01*
X185768000Y-81397900D02*
X184428000Y-81397900D01*
X186658000Y-79196900D02*
G75*
G03*
X186658000Y-79196900I-3270000J0D01*
G01*
%TO.C,C1*%
X181459000Y-90904200D02*
X179565000Y-90904200D01*
X184723000Y-91904200D02*
X180275000Y-91904200D01*
X185560000Y-90584200D02*
X183539000Y-90584200D01*
X181459000Y-91024200D02*
X179623000Y-91024200D01*
X185163000Y-91384200D02*
X183539000Y-91384200D01*
X184983000Y-91624200D02*
X183539000Y-91624200D01*
X184804000Y-91824200D02*
X183539000Y-91824200D01*
X184213000Y-92304200D02*
X180785000Y-92304200D01*
X185723000Y-89743200D02*
X179275000Y-89743200D01*
X183301000Y-92704200D02*
X181697000Y-92704200D01*
X184008000Y-92424200D02*
X180990000Y-92424200D01*
X181459000Y-90504200D02*
X179413000Y-90504200D01*
X185241000Y-91264200D02*
X183539000Y-91264200D01*
X181459000Y-91224200D02*
X179733000Y-91224200D01*
X182901000Y-92784200D02*
X182097000Y-92784200D01*
X185688000Y-90063200D02*
X183539000Y-90063200D01*
X183849000Y-92504200D02*
X181149000Y-92504200D01*
X183439000Y-92664200D02*
X181559000Y-92664200D01*
X185721000Y-89783200D02*
X183539000Y-89783200D01*
X181459000Y-91344200D02*
X179809000Y-91344200D01*
X181459000Y-91704200D02*
X180083000Y-91704200D01*
X181459000Y-90544200D02*
X179425000Y-90544200D01*
X185215000Y-91304200D02*
X183539000Y-91304200D01*
X181459000Y-91144200D02*
X179687000Y-91144200D01*
X185658000Y-90223200D02*
X183539000Y-90223200D01*
X181459000Y-90584200D02*
X179438000Y-90584200D01*
X185717000Y-89823200D02*
X183539000Y-89823200D01*
X181459000Y-90344200D02*
X179368000Y-90344200D01*
X184443000Y-92144200D02*
X180555000Y-92144200D01*
X185710000Y-89903200D02*
X183539000Y-89903200D01*
X185355000Y-91064200D02*
X183539000Y-91064200D01*
X185546000Y-90624200D02*
X183539000Y-90624200D01*
X184338000Y-86042959D02*
X184338000Y-86672959D01*
X185451000Y-90864200D02*
X183539000Y-90864200D01*
X185729000Y-89543200D02*
X179269000Y-89543200D01*
X184494000Y-92104200D02*
X180504000Y-92104200D01*
X185395000Y-90984200D02*
X183539000Y-90984200D01*
X181459000Y-91424200D02*
X179863000Y-91424200D01*
X181459000Y-91544200D02*
X179951000Y-91544200D01*
X185047000Y-91544200D02*
X183539000Y-91544200D01*
X181459000Y-91264200D02*
X179757000Y-91264200D01*
X181459000Y-91624200D02*
X180015000Y-91624200D01*
X181459000Y-90063200D02*
X179310000Y-90063200D01*
X185727000Y-89663200D02*
X179271000Y-89663200D01*
X185573000Y-90544200D02*
X183539000Y-90544200D01*
X185265000Y-91224200D02*
X183539000Y-91224200D01*
X181459000Y-90824200D02*
X179529000Y-90824200D01*
X185501000Y-90744200D02*
X183539000Y-90744200D01*
X181459000Y-90704200D02*
X179481000Y-90704200D01*
X184949000Y-91664200D02*
X183539000Y-91664200D01*
X181459000Y-90103200D02*
X179317000Y-90103200D01*
X181459000Y-90023200D02*
X179304000Y-90023200D01*
X181459000Y-91664200D02*
X180049000Y-91664200D01*
X181459000Y-89903200D02*
X179288000Y-89903200D01*
X181459000Y-90664200D02*
X179466000Y-90664200D01*
X184389000Y-92184200D02*
X180609000Y-92184200D01*
X184842000Y-91784200D02*
X183539000Y-91784200D01*
X185135000Y-91424200D02*
X183539000Y-91424200D01*
X181459000Y-90384200D02*
X179378000Y-90384200D01*
X181459000Y-89983200D02*
X179298000Y-89983200D01*
X185666000Y-90183200D02*
X183539000Y-90183200D01*
X181459000Y-90143200D02*
X179324000Y-90143200D01*
X181459000Y-91584200D02*
X179983000Y-91584200D01*
X185015000Y-91584200D02*
X183539000Y-91584200D01*
X181459000Y-89783200D02*
X179277000Y-89783200D01*
X183132000Y-92744200D02*
X181866000Y-92744200D01*
X181459000Y-91384200D02*
X179835000Y-91384200D01*
X184681000Y-91944200D02*
X180317000Y-91944200D01*
X185311000Y-91144200D02*
X183539000Y-91144200D01*
X185433000Y-90904200D02*
X183539000Y-90904200D01*
X181459000Y-89943200D02*
X179293000Y-89943200D01*
X184915000Y-91704200D02*
X183539000Y-91704200D01*
X185729000Y-89583200D02*
X179269000Y-89583200D01*
X184149000Y-92344200D02*
X180849000Y-92344200D01*
X181459000Y-91744200D02*
X180119000Y-91744200D01*
X185585000Y-90504200D02*
X183539000Y-90504200D01*
X184275000Y-92264200D02*
X180723000Y-92264200D01*
X181459000Y-91824200D02*
X180194000Y-91824200D01*
X185700000Y-89983200D02*
X183539000Y-89983200D01*
X183558000Y-92624200D02*
X181440000Y-92624200D01*
X185517000Y-90704200D02*
X183539000Y-90704200D01*
X181459000Y-90183200D02*
X179332000Y-90183200D01*
X181459000Y-91504200D02*
X179921000Y-91504200D01*
X181459000Y-91784200D02*
X180156000Y-91784200D01*
X185532000Y-90664200D02*
X183539000Y-90664200D01*
X183664000Y-92584200D02*
X181334000Y-92584200D01*
X185674000Y-90143200D02*
X183539000Y-90143200D01*
X183931000Y-92464200D02*
X181067000Y-92464200D01*
X185630000Y-90344200D02*
X183539000Y-90344200D01*
X181459000Y-89823200D02*
X179281000Y-89823200D01*
X185289000Y-91184200D02*
X183539000Y-91184200D01*
X185640000Y-90304200D02*
X183539000Y-90304200D01*
X181459000Y-90223200D02*
X179340000Y-90223200D01*
X184543000Y-92064200D02*
X180455000Y-92064200D01*
X184653000Y-86357959D02*
X184023000Y-86357959D01*
X184333000Y-92224200D02*
X180665000Y-92224200D01*
X181459000Y-90944200D02*
X179583000Y-90944200D01*
X181459000Y-89863200D02*
X179284000Y-89863200D01*
X185485000Y-90784200D02*
X183539000Y-90784200D01*
X185333000Y-91104200D02*
X183539000Y-91104200D01*
X185106000Y-91464200D02*
X183539000Y-91464200D01*
X184591000Y-92024200D02*
X180407000Y-92024200D01*
X181459000Y-90784200D02*
X179513000Y-90784200D01*
X184879000Y-91744200D02*
X183539000Y-91744200D01*
X185705000Y-89943200D02*
X183539000Y-89943200D01*
X181459000Y-91064200D02*
X179643000Y-91064200D01*
X184080000Y-92384200D02*
X180918000Y-92384200D01*
X185469000Y-90824200D02*
X183539000Y-90824200D01*
X181459000Y-90864200D02*
X179547000Y-90864200D01*
X185649000Y-90264200D02*
X183539000Y-90264200D01*
X185681000Y-90103200D02*
X183539000Y-90103200D01*
X181459000Y-90744200D02*
X179497000Y-90744200D01*
X185729000Y-89623200D02*
X179269000Y-89623200D01*
X181459000Y-91184200D02*
X179709000Y-91184200D01*
X181459000Y-90424200D02*
X179389000Y-90424200D01*
X185726000Y-89703200D02*
X179272000Y-89703200D01*
X185694000Y-90023200D02*
X183539000Y-90023200D01*
X185077000Y-91504200D02*
X183539000Y-91504200D01*
X181459000Y-91304200D02*
X179783000Y-91304200D01*
X181459000Y-90304200D02*
X179358000Y-90304200D01*
X183761000Y-92544200D02*
X181237000Y-92544200D01*
X184764000Y-91864200D02*
X180234000Y-91864200D01*
X184636000Y-91984200D02*
X180362000Y-91984200D01*
X185415000Y-90944200D02*
X183539000Y-90944200D01*
X181459000Y-90624200D02*
X179452000Y-90624200D01*
X181459000Y-91464200D02*
X179892000Y-91464200D01*
X185597000Y-90464200D02*
X183539000Y-90464200D01*
X185189000Y-91344200D02*
X183539000Y-91344200D01*
X185714000Y-89863200D02*
X183539000Y-89863200D01*
X181459000Y-90984200D02*
X179603000Y-90984200D01*
X185375000Y-91024200D02*
X183539000Y-91024200D01*
X185620000Y-90384200D02*
X183539000Y-90384200D01*
X181459000Y-90464200D02*
X179401000Y-90464200D01*
X185609000Y-90424200D02*
X183539000Y-90424200D01*
X181459000Y-91104200D02*
X179665000Y-91104200D01*
X181459000Y-90264200D02*
X179349000Y-90264200D01*
X185769000Y-89543200D02*
G75*
G03*
X185769000Y-89543200I-3270000J0D01*
G01*
%TO.C,C4*%
X112418000Y-110605000D02*
X111793000Y-110605000D01*
X112418000Y-106565000D02*
X112418000Y-110605000D01*
X109578000Y-106565000D02*
X109578000Y-110605000D01*
X110203000Y-106565000D02*
X109578000Y-106565000D01*
X110203000Y-110605000D02*
X109578000Y-110605000D01*
X112418000Y-106565000D02*
X111793000Y-106565000D01*
%TO.C,C3*%
X188102600Y-69277000D02*
X188102600Y-73725000D01*
X186221600Y-68306000D02*
X186221600Y-70461000D01*
X185741600Y-68271000D02*
X185741600Y-74731000D01*
X187982600Y-69158000D02*
X187982600Y-70461000D01*
X186742600Y-68427000D02*
X186742600Y-70461000D01*
X187902600Y-69085000D02*
X187902600Y-70461000D01*
X188742600Y-70239000D02*
X188742600Y-72763000D01*
X187982600Y-72541000D02*
X187982600Y-73844000D01*
X187102600Y-72541000D02*
X187102600Y-74435000D01*
X187382600Y-72541000D02*
X187382600Y-74291000D01*
X186622600Y-68391000D02*
X186622600Y-70461000D01*
X188582600Y-69920000D02*
X188582600Y-73082000D01*
X186221600Y-72541000D02*
X186221600Y-74696000D01*
X188702600Y-70151000D02*
X188702600Y-72851000D01*
X182241359Y-69662000D02*
X182871359Y-69662000D01*
X186542600Y-68370000D02*
X186542600Y-70461000D01*
X186181600Y-68300000D02*
X186181600Y-70461000D01*
X187182600Y-72541000D02*
X187182600Y-74397000D01*
X186101600Y-68290000D02*
X186101600Y-70461000D01*
X187342600Y-68689000D02*
X187342600Y-70461000D01*
X187222600Y-72541000D02*
X187222600Y-74377000D01*
X188422600Y-69667000D02*
X188422600Y-73335000D01*
X186902600Y-72541000D02*
X186902600Y-74519000D01*
X188782600Y-70336000D02*
X188782600Y-72666000D01*
X187782600Y-72541000D02*
X187782600Y-74017000D01*
X188862600Y-70561000D02*
X188862600Y-72441000D01*
X186502600Y-72541000D02*
X186502600Y-74642000D01*
X187302600Y-72541000D02*
X187302600Y-74335000D01*
X186702600Y-68415000D02*
X186702600Y-70461000D01*
X186982600Y-72541000D02*
X186982600Y-74487000D01*
X187342600Y-72541000D02*
X187342600Y-74313000D01*
X187662600Y-68894000D02*
X187662600Y-70461000D01*
X186141600Y-68295000D02*
X186141600Y-70461000D01*
X188462600Y-69725000D02*
X188462600Y-73277000D01*
X186902600Y-68483000D02*
X186902600Y-70461000D01*
X187742600Y-68953000D02*
X187742600Y-70461000D01*
X186261600Y-68312000D02*
X186261600Y-70461000D01*
X187022600Y-72541000D02*
X187022600Y-74471000D01*
X187542600Y-72541000D02*
X187542600Y-74191000D01*
X186862600Y-68468000D02*
X186862600Y-70461000D01*
X186542600Y-72541000D02*
X186542600Y-74632000D01*
X188502600Y-69787000D02*
X188502600Y-73215000D01*
X188622600Y-69992000D02*
X188622600Y-73010000D01*
X186061600Y-68286000D02*
X186061600Y-70461000D01*
X188542600Y-69851000D02*
X188542600Y-73151000D01*
X186582600Y-68380000D02*
X186582600Y-70461000D01*
X186942600Y-68499000D02*
X186942600Y-70461000D01*
X182556359Y-69347000D02*
X182556359Y-69977000D01*
X186822600Y-68454000D02*
X186822600Y-70461000D01*
X188342600Y-69557000D02*
X188342600Y-73445000D01*
X187142600Y-72541000D02*
X187142600Y-74417000D01*
X186061600Y-72541000D02*
X186061600Y-74716000D01*
X188222600Y-69409000D02*
X188222600Y-73593000D01*
X188182600Y-69364000D02*
X188182600Y-73638000D01*
X186862600Y-72541000D02*
X186862600Y-74534000D01*
X187062600Y-72541000D02*
X187062600Y-74453000D01*
X186782600Y-72541000D02*
X186782600Y-74562000D01*
X187582600Y-68837000D02*
X187582600Y-70461000D01*
X186421600Y-68342000D02*
X186421600Y-70461000D01*
X186021600Y-68283000D02*
X186021600Y-70461000D01*
X186381600Y-68334000D02*
X186381600Y-70461000D01*
X187502600Y-72541000D02*
X187502600Y-74217000D01*
X187102600Y-68567000D02*
X187102600Y-70461000D01*
X188982600Y-71099000D02*
X188982600Y-71903000D01*
X186341600Y-68326000D02*
X186341600Y-70461000D01*
X187222600Y-68625000D02*
X187222600Y-70461000D01*
X187062600Y-68549000D02*
X187062600Y-70461000D01*
X187702600Y-72541000D02*
X187702600Y-74079000D01*
X187582600Y-72541000D02*
X187582600Y-74165000D01*
X188022600Y-69196000D02*
X188022600Y-70461000D01*
X188942600Y-70868000D02*
X188942600Y-72134000D01*
X186942600Y-72541000D02*
X186942600Y-74503000D01*
X186181600Y-72541000D02*
X186181600Y-74702000D01*
X187302600Y-68667000D02*
X187302600Y-70461000D01*
X187942600Y-72541000D02*
X187942600Y-73881000D01*
X186982600Y-68515000D02*
X186982600Y-70461000D01*
X187422600Y-72541000D02*
X187422600Y-74267000D01*
X188142600Y-69319000D02*
X188142600Y-73683000D01*
X186822600Y-72541000D02*
X186822600Y-74548000D01*
X187542600Y-68811000D02*
X187542600Y-70461000D01*
X186622600Y-72541000D02*
X186622600Y-74611000D01*
X188262600Y-69457000D02*
X188262600Y-73545000D01*
X187422600Y-68735000D02*
X187422600Y-70461000D01*
X187622600Y-72541000D02*
X187622600Y-74137000D01*
X188662600Y-70069000D02*
X188662600Y-72933000D01*
X186141600Y-72541000D02*
X186141600Y-74707000D01*
X186782600Y-68440000D02*
X186782600Y-70461000D01*
X186742600Y-72541000D02*
X186742600Y-74575000D01*
X185941600Y-68277000D02*
X185941600Y-74725000D01*
X187462600Y-72541000D02*
X187462600Y-74243000D01*
X186462600Y-72541000D02*
X186462600Y-74651000D01*
X187702600Y-68923000D02*
X187702600Y-70461000D01*
X188382600Y-69611000D02*
X188382600Y-73391000D01*
X186261600Y-72541000D02*
X186261600Y-74690000D01*
X188302600Y-69506000D02*
X188302600Y-73496000D01*
X186502600Y-68360000D02*
X186502600Y-70461000D01*
X186341600Y-72541000D02*
X186341600Y-74676000D01*
X188822600Y-70442000D02*
X188822600Y-72560000D01*
X187822600Y-69017000D02*
X187822600Y-70461000D01*
X187862600Y-72541000D02*
X187862600Y-73951000D01*
X187022600Y-68531000D02*
X187022600Y-70461000D01*
X186662600Y-72541000D02*
X186662600Y-74599000D01*
X186021600Y-72541000D02*
X186021600Y-74719000D01*
X185981600Y-72541000D02*
X185981600Y-74723000D01*
X187782600Y-68985000D02*
X187782600Y-70461000D01*
X185901600Y-68274000D02*
X185901600Y-74728000D01*
X187142600Y-68585000D02*
X187142600Y-70461000D01*
X186421600Y-72541000D02*
X186421600Y-74660000D01*
X187862600Y-69051000D02*
X187862600Y-70461000D01*
X186662600Y-68403000D02*
X186662600Y-70461000D01*
X186301600Y-72541000D02*
X186301600Y-74683000D01*
X186101600Y-72541000D02*
X186101600Y-74712000D01*
X187942600Y-69121000D02*
X187942600Y-70461000D01*
X186702600Y-72541000D02*
X186702600Y-74587000D01*
X187382600Y-68711000D02*
X187382600Y-70461000D01*
X186301600Y-68319000D02*
X186301600Y-70461000D01*
X185821600Y-68271000D02*
X185821600Y-74731000D01*
X185981600Y-68279000D02*
X185981600Y-70461000D01*
X187622600Y-68865000D02*
X187622600Y-70461000D01*
X186462600Y-68351000D02*
X186462600Y-70461000D01*
X188022600Y-72541000D02*
X188022600Y-73806000D01*
X187262600Y-72541000D02*
X187262600Y-74357000D01*
X185781600Y-68271000D02*
X185781600Y-74731000D01*
X187502600Y-68785000D02*
X187502600Y-70461000D01*
X187662600Y-72541000D02*
X187662600Y-74108000D01*
X186381600Y-72541000D02*
X186381600Y-74668000D01*
X188902600Y-70699000D02*
X188902600Y-72303000D01*
X186582600Y-72541000D02*
X186582600Y-74622000D01*
X188062600Y-69236000D02*
X188062600Y-73766000D01*
X187462600Y-68759000D02*
X187462600Y-70461000D01*
X187902600Y-72541000D02*
X187902600Y-73917000D01*
X185861600Y-68273000D02*
X185861600Y-74729000D01*
X187182600Y-68605000D02*
X187182600Y-70461000D01*
X187262600Y-68645000D02*
X187262600Y-70461000D01*
X187822600Y-72541000D02*
X187822600Y-73985000D01*
X187742600Y-72541000D02*
X187742600Y-74049000D01*
X189011600Y-71501000D02*
G75*
G03*
X189011600Y-71501000I-3270000J0D01*
G01*
%TO.C,Y1*%
X111159000Y-105395000D02*
X104909000Y-105395000D01*
X111159000Y-100345000D02*
X104909000Y-100345000D01*
X104909000Y-100345000D02*
G75*
G03*
X104909000Y-105395000I0J-2525000D01*
G01*
X111159000Y-105395000D02*
G75*
G03*
X111159000Y-100345000I0J2525000D01*
G01*
%TO.C,C6*%
X101211000Y-92870000D02*
X101211000Y-93495000D01*
X101211000Y-90655000D02*
X101211000Y-91280000D01*
X101211000Y-90655000D02*
X105251000Y-90655000D01*
X101211000Y-93495000D02*
X105251000Y-93495000D01*
X105251000Y-90655000D02*
X105251000Y-91280000D01*
X105251000Y-92870000D02*
X105251000Y-93495000D01*
%TO.C,J1*%
X195707000Y-43764000D02*
X56769000Y-43764000D01*
X195707000Y-53416000D02*
X195707000Y-43764000D01*
X56769000Y-53416000D02*
X195707000Y-53416000D01*
X56769000Y-43764000D02*
X56769000Y-53416000D01*
X194564000Y-46050000D02*
G75*
G03*
X194564000Y-46050000I-381000J0D01*
G01*
%TO.C,J2*%
X205490000Y-80374000D02*
X206990000Y-80374000D01*
X206990000Y-88294000D02*
X206990000Y-86654000D01*
X206990000Y-80374000D02*
X206990000Y-78734000D01*
X205490000Y-70624000D02*
X205490000Y-92444000D01*
X206990000Y-82694000D02*
X205490000Y-82694000D01*
X206990000Y-76414000D02*
X206990000Y-74774000D01*
X190370000Y-93044000D02*
X191980000Y-93044000D01*
X195870000Y-93494000D02*
X195870000Y-69574000D01*
X205490000Y-76414000D02*
X206990000Y-76414000D01*
X206990000Y-70814000D02*
X205490000Y-70814000D01*
X199290000Y-92444000D02*
X199290000Y-93494000D01*
X199290000Y-70624000D02*
X205490000Y-70624000D01*
X199290000Y-93494000D02*
X195870000Y-93494000D01*
X206990000Y-90614000D02*
X205490000Y-90614000D01*
X205490000Y-88294000D02*
X206990000Y-88294000D01*
X206990000Y-74774000D02*
X205490000Y-74774000D01*
X205490000Y-92254000D02*
X206990000Y-92254000D01*
X206990000Y-92254000D02*
X206990000Y-90614000D01*
X199290000Y-69574000D02*
X199290000Y-70624000D01*
X206990000Y-86654000D02*
X205490000Y-86654000D01*
X206990000Y-72454000D02*
X206990000Y-70814000D01*
X205490000Y-72454000D02*
X206990000Y-72454000D01*
X195870000Y-69574000D02*
X199290000Y-69574000D01*
X206990000Y-78734000D02*
X205490000Y-78734000D01*
X205490000Y-92444000D02*
X199290000Y-92444000D01*
X190370000Y-91434000D02*
X190370000Y-93044000D01*
X205490000Y-84334000D02*
X206990000Y-84334000D01*
X206990000Y-84334000D02*
X206990000Y-82694000D01*
%TO.C,C5*%
X106576000Y-106565000D02*
X106576000Y-110605000D01*
X104361000Y-110605000D02*
X103736000Y-110605000D01*
X104361000Y-106565000D02*
X103736000Y-106565000D01*
X106576000Y-110605000D02*
X105951000Y-110605000D01*
X103736000Y-106565000D02*
X103736000Y-110605000D01*
X106576000Y-106565000D02*
X105951000Y-106565000D01*
%TO.C,U1*%
X106807000Y-99080000D02*
X110257000Y-99080000D01*
X106807000Y-99080000D02*
X104857000Y-99080000D01*
X106807000Y-93960000D02*
X108757000Y-93960000D01*
X106807000Y-93960000D02*
X104857000Y-93960000D01*
%TD*%
M02*
