%TF.GenerationSoftware,KiCad,Pcbnew,(6.0.11)*%
%TF.CreationDate,2023-04-01T14:18:44-06:00*%
%TF.ProjectId,arduino-mega-isa-shield,61726475-696e-46f2-9d6d-6567612d6973,rev?*%
%TF.SameCoordinates,Original*%
%TF.FileFunction,Copper,L2,Bot*%
%TF.FilePolarity,Positive*%
%FSLAX46Y46*%
G04 Gerber Fmt 4.6, Leading zero omitted, Abs format (unit mm)*
G04 Created by KiCad (PCBNEW (6.0.11)) date 2023-04-01 14:18:44*
%MOMM*%
%LPD*%
G01*
G04 APERTURE LIST*
G04 Aperture macros list*
%AMRoundRect*
0 Rectangle with rounded corners*
0 $1 Rounding radius*
0 $2 $3 $4 $5 $6 $7 $8 $9 X,Y pos of 4 corners*
0 Add a 4 corners polygon primitive as box body*
4,1,4,$2,$3,$4,$5,$6,$7,$8,$9,$2,$3,0*
0 Add four circle primitives for the rounded corners*
1,1,$1+$1,$2,$3*
1,1,$1+$1,$4,$5*
1,1,$1+$1,$6,$7*
1,1,$1+$1,$8,$9*
0 Add four rect primitives between the rounded corners*
20,1,$1+$1,$2,$3,$4,$5,0*
20,1,$1+$1,$4,$5,$6,$7,0*
20,1,$1+$1,$6,$7,$8,$9,0*
20,1,$1+$1,$8,$9,$2,$3,0*%
G04 Aperture macros list end*
%TA.AperFunction,ComponentPad*%
%ADD10R,1.600000X1.600000*%
%TD*%
%TA.AperFunction,ComponentPad*%
%ADD11C,1.600000*%
%TD*%
%TA.AperFunction,ComponentPad*%
%ADD12C,1.500000*%
%TD*%
%TA.AperFunction,ComponentPad*%
%ADD13O,1.727200X1.727200*%
%TD*%
%TA.AperFunction,ComponentPad*%
%ADD14R,1.727200X1.727200*%
%TD*%
%TA.AperFunction,ComponentPad*%
%ADD15C,1.651000*%
%TD*%
%TA.AperFunction,ComponentPad*%
%ADD16RoundRect,0.250001X1.099999X-1.099999X1.099999X1.099999X-1.099999X1.099999X-1.099999X-1.099999X0*%
%TD*%
%TA.AperFunction,ComponentPad*%
%ADD17C,2.700000*%
%TD*%
%TA.AperFunction,ViaPad*%
%ADD18C,0.800000*%
%TD*%
%TA.AperFunction,Conductor*%
%ADD19C,1.000000*%
%TD*%
%TA.AperFunction,Conductor*%
%ADD20C,2.000000*%
%TD*%
%TA.AperFunction,Conductor*%
%ADD21C,0.250000*%
%TD*%
G04 APERTURE END LIST*
D10*
%TO.P,C2,1*%
%TO.N,+12V*%
X183388000Y-77946900D03*
D11*
%TO.P,C2,2*%
%TO.N,GND*%
X183388000Y-80446900D03*
%TD*%
D10*
%TO.P,C1,1*%
%TO.N,+5V*%
X182499000Y-88293200D03*
D11*
%TO.P,C1,2*%
%TO.N,GND*%
X182499000Y-90793200D03*
%TD*%
%TO.P,C4,1*%
%TO.N,Net-(C4-Pad1)*%
X110998000Y-107335000D03*
%TO.P,C4,2*%
%TO.N,GND*%
X110998000Y-109835000D03*
%TD*%
D10*
%TO.P,C3,1*%
%TO.N,GND*%
X184491600Y-71501000D03*
D11*
%TO.P,C3,2*%
%TO.N,-12V*%
X186991600Y-71501000D03*
%TD*%
D12*
%TO.P,Y1,1,1*%
%TO.N,Net-(C4-Pad1)*%
X110474000Y-102870000D03*
%TO.P,Y1,2,2*%
%TO.N,Net-(C5-Pad1)*%
X105594000Y-102870000D03*
%TD*%
D13*
%TO.P,XA1,*%
%TO.N,*%
X105918000Y-114046000D03*
%TO.P,XA1,3V3,3.3V*%
%TO.N,unconnected-(XA1-Pad3V3)*%
X113538000Y-114046000D03*
%TO.P,XA1,5V1,5V*%
%TO.N,+5V*%
X116078000Y-114046000D03*
%TO.P,XA1,5V3,5V*%
X171958000Y-65786000D03*
%TO.P,XA1,5V4,5V*%
X174498000Y-65786000D03*
%TO.P,XA1,A0,A0*%
%TO.N,/A8*%
X128778000Y-114046000D03*
%TO.P,XA1,A1,A1*%
%TO.N,/A9*%
X131318000Y-114046000D03*
%TO.P,XA1,A2,A2*%
%TO.N,/A10*%
X133858000Y-114046000D03*
%TO.P,XA1,A3,A3*%
%TO.N,/A11*%
X136398000Y-114046000D03*
%TO.P,XA1,A4,A4*%
%TO.N,/A12*%
X138938000Y-114046000D03*
%TO.P,XA1,A5,A5*%
%TO.N,/A13*%
X141478000Y-114046000D03*
%TO.P,XA1,A6,A6*%
%TO.N,/A14*%
X144018000Y-114046000D03*
%TO.P,XA1,A7,A7*%
%TO.N,/A15*%
X146558000Y-114046000D03*
%TO.P,XA1,A8,A8*%
%TO.N,/LA17*%
X151638000Y-114046000D03*
%TO.P,XA1,A9,A9*%
%TO.N,/LA18*%
X154178000Y-114046000D03*
%TO.P,XA1,A10,A10*%
%TO.N,/LA19*%
X156718000Y-114046000D03*
%TO.P,XA1,A11,A11*%
%TO.N,/LA20*%
X159258000Y-114046000D03*
%TO.P,XA1,A12,A12*%
%TO.N,/LA21*%
X161798000Y-114046000D03*
%TO.P,XA1,A13,A13*%
%TO.N,/LA22*%
X164338000Y-114046000D03*
%TO.P,XA1,A14,A14*%
%TO.N,/LA23*%
X166878000Y-114046000D03*
%TO.P,XA1,A15,A15*%
%TO.N,/PK7*%
X169418000Y-114046000D03*
%TO.P,XA1,AREF,AREF*%
%TO.N,unconnected-(XA1-PadAREF)*%
X101854000Y-65786000D03*
%TO.P,XA1,D0,D0_RX0*%
%TO.N,/PE0*%
X141478000Y-65786000D03*
%TO.P,XA1,D1,D1_TX0*%
%TO.N,/ALE*%
X138938000Y-65786000D03*
%TO.P,XA1,D2,D2_INT0*%
%TO.N,/PE4*%
X136398000Y-65786000D03*
%TO.P,XA1,D3,D3_INT1*%
%TO.N,/PE5*%
X133858000Y-65786000D03*
%TO.P,XA1,D4,D4*%
%TO.N,/PG5*%
X131318000Y-65786000D03*
%TO.P,XA1,D5,D5*%
%TO.N,/PE3*%
X128778000Y-65786000D03*
%TO.P,XA1,D6,D6*%
%TO.N,/PH3*%
X126238000Y-65786000D03*
%TO.P,XA1,D7,D7*%
%TO.N,/PH4*%
X123698000Y-65786000D03*
%TO.P,XA1,D8,D8*%
%TO.N,/PH5*%
X119634000Y-65786000D03*
%TO.P,XA1,D9,D9*%
%TO.N,/PH6*%
X117094000Y-65786000D03*
%TO.P,XA1,D10,D10*%
%TO.N,/A4*%
X114554000Y-65786000D03*
%TO.P,XA1,D11,D11*%
%TO.N,/A5*%
X112014000Y-65786000D03*
%TO.P,XA1,D12,D12*%
%TO.N,/A6*%
X109474000Y-65786000D03*
%TO.P,XA1,D13,D13*%
%TO.N,/A7*%
X106934000Y-65786000D03*
%TO.P,XA1,D14,D14_TX3*%
%TO.N,/PJ1*%
X146558000Y-65786000D03*
%TO.P,XA1,D15,D15_RX3*%
%TO.N,/PJ0*%
X149098000Y-65786000D03*
%TO.P,XA1,D16,D16_TX2*%
%TO.N,/PH1*%
X151638000Y-65786000D03*
%TO.P,XA1,D17,D17_RX2*%
%TO.N,/PH0*%
X154178000Y-65786000D03*
%TO.P,XA1,D18,D18_TX1*%
%TO.N,/A19*%
X156718000Y-65786000D03*
%TO.P,XA1,D19,D19_RX1*%
%TO.N,/A18*%
X159258000Y-65786000D03*
%TO.P,XA1,D20,D20_SDA*%
%TO.N,/A17*%
X161798000Y-65786000D03*
%TO.P,XA1,D21,D21_SCL*%
%TO.N,/A16*%
X164338000Y-65786000D03*
%TO.P,XA1,D22,D22*%
%TO.N,/D0*%
X171958000Y-68326000D03*
%TO.P,XA1,D23,D23*%
%TO.N,/D1*%
X174498000Y-68326000D03*
%TO.P,XA1,D24,D24*%
%TO.N,/D2*%
X171958000Y-70866000D03*
%TO.P,XA1,D25,D25*%
%TO.N,/D3*%
X174498000Y-70866000D03*
%TO.P,XA1,D26,D26*%
%TO.N,/D4*%
X171958000Y-73406000D03*
%TO.P,XA1,D27,D27*%
%TO.N,/D5*%
X174498000Y-73406000D03*
%TO.P,XA1,D28,D28*%
%TO.N,/D6*%
X171958000Y-75946000D03*
%TO.P,XA1,D29,D29*%
%TO.N,/D7*%
X174498000Y-75946000D03*
%TO.P,XA1,D30,D30*%
%TO.N,/PC7*%
X171958000Y-78486000D03*
%TO.P,XA1,D31,D31*%
%TO.N,/PC6*%
X174498000Y-78486000D03*
%TO.P,XA1,D32,D32*%
%TO.N,/PC5*%
X171958000Y-81026000D03*
%TO.P,XA1,D33,D33*%
%TO.N,/PC4*%
X174498000Y-81026000D03*
%TO.P,XA1,D34,D34*%
%TO.N,/PC3*%
X171958000Y-83566000D03*
%TO.P,XA1,D35,D35*%
%TO.N,/PC2*%
X174498000Y-83566000D03*
%TO.P,XA1,D36,D36*%
%TO.N,/PC1*%
X171958000Y-86106000D03*
%TO.P,XA1,D37,D37*%
%TO.N,/PC0*%
X174498000Y-86106000D03*
%TO.P,XA1,D38,D38*%
%TO.N,/AEN*%
X171958000Y-88646000D03*
%TO.P,XA1,D39,D39*%
%TO.N,/PG2*%
X174498000Y-88646000D03*
%TO.P,XA1,D40,D40*%
%TO.N,/PG1*%
X171958000Y-91186000D03*
%TO.P,XA1,D41,D41*%
%TO.N,/PG0*%
X174498000Y-91186000D03*
%TO.P,XA1,D42,D42*%
%TO.N,/IRQ7*%
X171958000Y-93726000D03*
%TO.P,XA1,D43,D43*%
%TO.N,/IRQ5*%
X174498000Y-93726000D03*
%TO.P,XA1,D44,D44*%
%TO.N,/IRQ3*%
X171958000Y-96266000D03*
%TO.P,XA1,D45,D45*%
%TO.N,/IRQ2*%
X174498000Y-96266000D03*
%TO.P,XA1,D46,D46*%
%TO.N,/DRQ7*%
X171958000Y-98806000D03*
%TO.P,XA1,D47,D47*%
%TO.N,/DRQ5*%
X174498000Y-98806000D03*
%TO.P,XA1,D48,D48*%
%TO.N,/DRQ3*%
X171958000Y-101346000D03*
%TO.P,XA1,D49,D49*%
%TO.N,/DRQ1*%
X174498000Y-101346000D03*
%TO.P,XA1,D50,D50_MISO*%
%TO.N,/A3*%
X171958000Y-103886000D03*
%TO.P,XA1,D51,D51_MOSI*%
%TO.N,/A2*%
X174498000Y-103886000D03*
%TO.P,XA1,D52,D52_SCK*%
%TO.N,/A1*%
X171958000Y-106426000D03*
%TO.P,XA1,D53,D53_CS*%
%TO.N,/A0*%
X174498000Y-106426000D03*
D14*
%TO.P,XA1,GND1,GND*%
%TO.N,GND*%
X104394000Y-65786000D03*
%TO.P,XA1,GND2,GND*%
X118618000Y-114046000D03*
%TO.P,XA1,GND3,GND*%
X121158000Y-114046000D03*
%TO.P,XA1,GND5,GND*%
X171958000Y-108966000D03*
%TO.P,XA1,GND6,GND*%
X174498000Y-108966000D03*
D13*
%TO.P,XA1,IORF,IOREF*%
%TO.N,unconnected-(XA1-PadIORF)*%
X108458000Y-114046000D03*
%TO.P,XA1,RST1,RESET*%
%TO.N,unconnected-(XA1-PadRST1)*%
X110998000Y-114046000D03*
%TO.P,XA1,SCL,SCL*%
%TO.N,unconnected-(XA1-PadSCL)*%
X96774000Y-65786000D03*
%TO.P,XA1,SDA,SDA*%
%TO.N,unconnected-(XA1-PadSDA)*%
X99314000Y-65786000D03*
%TO.P,XA1,VIN,VIN*%
%TO.N,+5V*%
X123698000Y-114046000D03*
%TD*%
D11*
%TO.P,C6,1*%
%TO.N,+5V*%
X101981000Y-92075000D03*
%TO.P,C6,2*%
%TO.N,GND*%
X104481000Y-92075000D03*
%TD*%
D15*
%TO.P,J1,1,D18*%
%TO.N,GND*%
X191008000Y-51130000D03*
%TO.P,J1,2,D17*%
%TO.N,/PK7*%
X188468000Y-51130000D03*
%TO.P,J1,3,D16*%
%TO.N,+5V*%
X185928000Y-51130000D03*
%TO.P,J1,4,D15*%
%TO.N,/DRQ7*%
X183388000Y-51130000D03*
%TO.P,J1,5,D14*%
%TO.N,/PH4*%
X180848000Y-51130000D03*
%TO.P,J1,6,D13*%
%TO.N,/DRQ6*%
X178308000Y-51130000D03*
%TO.P,J1,7,D12*%
%TO.N,/~{DACK6}*%
X175768000Y-51130000D03*
%TO.P,J1,8,D11*%
%TO.N,/DRQ5*%
X173228000Y-51130000D03*
%TO.P,J1,9,D10*%
%TO.N,/PH3*%
X170688000Y-51130000D03*
%TO.P,J1,10,D9*%
%TO.N,/DRQ0*%
X168148000Y-51130000D03*
%TO.P,J1,11,D8*%
%TO.N,/~{DACK0}*%
X165608000Y-51130000D03*
%TO.P,J1,12,D7*%
%TO.N,/IRQ14*%
X163068000Y-51130000D03*
%TO.P,J1,13,D6*%
%TO.N,/IRQ13*%
X160528000Y-51130000D03*
%TO.P,J1,14,D5*%
%TO.N,/IRQ12*%
X157988000Y-51130000D03*
%TO.P,J1,15,D4*%
%TO.N,/IRQ11*%
X155448000Y-51130000D03*
%TO.P,J1,16,D3*%
%TO.N,/IRQ10*%
X152908000Y-51130000D03*
%TO.P,J1,17,D2*%
%TO.N,/PJ1*%
X150368000Y-51130000D03*
%TO.P,J1,18,D1*%
%TO.N,/~{MEMCS16}*%
X147828000Y-51130000D03*
%TO.P,J1,19,B31*%
%TO.N,GND*%
X137668000Y-51130000D03*
%TO.P,J1,20,B30*%
%TO.N,/OSC_14M318*%
X135128000Y-51130000D03*
%TO.P,J1,21,B29*%
%TO.N,+5V*%
X132588000Y-51130000D03*
%TO.P,J1,22,B28*%
%TO.N,/ALE*%
X130048000Y-51130000D03*
%TO.P,J1,23,B27*%
%TO.N,/PH5*%
X127508000Y-51130000D03*
%TO.P,J1,24,B26*%
%TO.N,/~{DACK2}*%
X124968000Y-51130000D03*
%TO.P,J1,25,B25*%
%TO.N,/IRQ3*%
X122428000Y-51130000D03*
%TO.P,J1,26,B24*%
%TO.N,/IRQ4*%
X119888000Y-51130000D03*
%TO.P,J1,27,B23*%
%TO.N,/IRQ5*%
X117348000Y-51130000D03*
%TO.P,J1,28,B22*%
%TO.N,/IRQ6*%
X114808000Y-51130000D03*
%TO.P,J1,29,B21*%
%TO.N,/IRQ7*%
X112268000Y-51130000D03*
%TO.P,J1,30,B20*%
%TO.N,/OSC_8M*%
X109728000Y-51130000D03*
%TO.P,J1,31,B19*%
%TO.N,/~{REFRESH}*%
X107188000Y-51130000D03*
%TO.P,J1,32,B18*%
%TO.N,/DRQ1*%
X104648000Y-51130000D03*
%TO.P,J1,33,B17*%
%TO.N,/PH0*%
X102108000Y-51130000D03*
%TO.P,J1,34,B16*%
%TO.N,/DRQ3*%
X99568000Y-51130000D03*
%TO.P,J1,35,B15*%
%TO.N,/PH1*%
X97028000Y-51130000D03*
%TO.P,J1,36,B14*%
%TO.N,/PG0*%
X94488000Y-51130000D03*
%TO.P,J1,37,B13*%
%TO.N,/PG1*%
X91948000Y-51130000D03*
%TO.P,J1,38,B12*%
%TO.N,/PG2*%
X89408000Y-51130000D03*
%TO.P,J1,39,B11*%
%TO.N,/PG5*%
X86868000Y-51130000D03*
%TO.P,J1,40,B10*%
%TO.N,GND*%
X84328000Y-51130000D03*
%TO.P,J1,41,B9*%
%TO.N,+12V*%
X81788000Y-51130000D03*
%TO.P,J1,42,B8*%
%TO.N,/PJ0*%
X79248000Y-51130000D03*
%TO.P,J1,43,B7*%
%TO.N,-12V*%
X76708000Y-51130000D03*
%TO.P,J1,44,B6*%
%TO.N,/DRQ2*%
X74168000Y-51130000D03*
%TO.P,J1,45,B5*%
%TO.N,/-5V*%
X71628000Y-51130000D03*
%TO.P,J1,46,B4*%
%TO.N,/IRQ2*%
X69088000Y-51130000D03*
%TO.P,J1,47,B3*%
%TO.N,+5V*%
X66548000Y-51130000D03*
%TO.P,J1,48,B2*%
%TO.N,/PE0*%
X64008000Y-51130000D03*
%TO.P,J1,49,B1*%
%TO.N,GND*%
X61468000Y-51130000D03*
%TO.P,J1,50,C18*%
%TO.N,/PC7*%
X191008000Y-46050000D03*
%TO.P,J1,51,C17*%
%TO.N,/PC6*%
X188468000Y-46050000D03*
%TO.P,J1,52,C16*%
%TO.N,/PC5*%
X185928000Y-46050000D03*
%TO.P,J1,53,C15*%
%TO.N,/PC4*%
X183388000Y-46050000D03*
%TO.P,J1,54,C14*%
%TO.N,/PC3*%
X180848000Y-46050000D03*
%TO.P,J1,55,C13*%
%TO.N,/PC2*%
X178308000Y-46050000D03*
%TO.P,J1,56,C12*%
%TO.N,/PC1*%
X175768000Y-46050000D03*
%TO.P,J1,57,C11*%
%TO.N,/PC0*%
X173228000Y-46050000D03*
%TO.P,J1,58,C10*%
%TO.N,/PE5*%
X170688000Y-46050000D03*
%TO.P,J1,59,C9*%
%TO.N,/PE4*%
X168148000Y-46050000D03*
%TO.P,J1,60,C8*%
%TO.N,/LA17*%
X165608000Y-46050000D03*
%TO.P,J1,61,C7*%
%TO.N,/LA18*%
X163068000Y-46050000D03*
%TO.P,J1,62,C6*%
%TO.N,/LA19*%
X160528000Y-46050000D03*
%TO.P,J1,63,C5*%
%TO.N,/LA20*%
X157988000Y-46050000D03*
%TO.P,J1,64,C4*%
%TO.N,/LA21*%
X155448000Y-46050000D03*
%TO.P,J1,65,C3*%
%TO.N,/LA22*%
X152908000Y-46050000D03*
%TO.P,J1,66,C2*%
%TO.N,/LA23*%
X150368000Y-46050000D03*
%TO.P,J1,67,C1*%
%TO.N,/PE3*%
X147828000Y-46050000D03*
%TO.P,J1,68,A31*%
%TO.N,/A0*%
X137668000Y-46050000D03*
%TO.P,J1,69,A30*%
%TO.N,/A1*%
X135128000Y-46050000D03*
%TO.P,J1,70,A29*%
%TO.N,/A2*%
X132588000Y-46050000D03*
%TO.P,J1,71,A28*%
%TO.N,/A3*%
X130048000Y-46050000D03*
%TO.P,J1,72,A27*%
%TO.N,/A4*%
X127508000Y-46050000D03*
%TO.P,J1,73,A26*%
%TO.N,/A5*%
X124968000Y-46050000D03*
%TO.P,J1,74,A25*%
%TO.N,/A6*%
X122428000Y-46050000D03*
%TO.P,J1,75,A24*%
%TO.N,/A7*%
X119888000Y-46050000D03*
%TO.P,J1,76,A23*%
%TO.N,/A8*%
X117348000Y-46050000D03*
%TO.P,J1,77,A22*%
%TO.N,/A9*%
X114808000Y-46050000D03*
%TO.P,J1,78,A21*%
%TO.N,/A10*%
X112268000Y-46050000D03*
%TO.P,J1,79,A20*%
%TO.N,/A11*%
X109728000Y-46050000D03*
%TO.P,J1,80,A19*%
%TO.N,/A12*%
X107188000Y-46050000D03*
%TO.P,J1,81,A18*%
%TO.N,/A13*%
X104648000Y-46050000D03*
%TO.P,J1,82,A17*%
%TO.N,/A14*%
X102108000Y-46050000D03*
%TO.P,J1,83,A16*%
%TO.N,/A15*%
X99568000Y-46050000D03*
%TO.P,J1,84,A15*%
%TO.N,/A16*%
X97028000Y-46050000D03*
%TO.P,J1,85,A14*%
%TO.N,/A17*%
X94488000Y-46050000D03*
%TO.P,J1,86,A13*%
%TO.N,/A18*%
X91948000Y-46050000D03*
%TO.P,J1,87,A12*%
%TO.N,/A19*%
X89408000Y-46050000D03*
%TO.P,J1,88,A11*%
%TO.N,/AEN*%
X86868000Y-46050000D03*
%TO.P,J1,89,A10*%
%TO.N,/PH6*%
X84328000Y-46050000D03*
%TO.P,J1,90,A9*%
%TO.N,/D0*%
X81788000Y-46050000D03*
%TO.P,J1,91,A8*%
%TO.N,/D1*%
X79248000Y-46050000D03*
%TO.P,J1,92,A7*%
%TO.N,/D2*%
X76708000Y-46050000D03*
%TO.P,J1,93,A6*%
%TO.N,/D3*%
X74168000Y-46050000D03*
%TO.P,J1,94,A5*%
%TO.N,/D4*%
X71628000Y-46050000D03*
%TO.P,J1,95,A4*%
%TO.N,/D5*%
X69088000Y-46050000D03*
%TO.P,J1,96,A3*%
%TO.N,/D6*%
X66548000Y-46050000D03*
%TO.P,J1,97,A2*%
%TO.N,/D7*%
X64008000Y-46050000D03*
%TO.P,J1,98,A1*%
%TO.N,/~{IO_CH_CHK}*%
X61468000Y-46050000D03*
%TD*%
D16*
%TO.P,J2,1,Pin_1*%
%TO.N,+5V*%
X191980000Y-91434000D03*
D17*
%TO.P,J2,2,Pin_2*%
X191980000Y-87474000D03*
%TO.P,J2,3,Pin_3*%
%TO.N,GND*%
X191980000Y-83514000D03*
%TO.P,J2,4,Pin_4*%
X191980000Y-79554000D03*
%TO.P,J2,5,Pin_5*%
%TO.N,+12V*%
X191980000Y-75594000D03*
%TO.P,J2,6,Pin_6*%
%TO.N,-12V*%
X191980000Y-71634000D03*
%TD*%
D11*
%TO.P,C5,1*%
%TO.N,Net-(C5-Pad1)*%
X105156000Y-107335000D03*
%TO.P,C5,2*%
%TO.N,GND*%
X105156000Y-109835000D03*
%TD*%
D18*
%TO.N,-12V*%
X89045100Y-57048700D03*
%TO.N,/DRQ7*%
X179670300Y-91344600D03*
%TO.N,/PH4*%
X128019500Y-55287500D03*
X176642800Y-55335200D03*
%TO.N,/PH3*%
X143862400Y-65916200D03*
%TO.N,/OSC_14M318*%
X133042500Y-76361700D03*
%TO.N,/ALE*%
X131907200Y-64205600D03*
%TO.N,/IRQ3*%
X185436500Y-58233800D03*
%TO.N,/IRQ5*%
X185349300Y-62379600D03*
%TO.N,/IRQ7*%
X129024400Y-72752200D03*
X122127200Y-55762100D03*
%TO.N,/DRQ1*%
X130071300Y-74850000D03*
X120457900Y-57417000D03*
%TO.N,/PH0*%
X107647000Y-59733000D03*
%TO.N,/DRQ3*%
X132349800Y-74948400D03*
%TO.N,/PH1*%
X105698800Y-59729500D03*
%TO.N,/PG0*%
X140315100Y-58410700D03*
X148416700Y-73696000D03*
%TO.N,/PG1*%
X167231600Y-70309100D03*
X104309900Y-63091600D03*
%TO.N,/PG2*%
X101239400Y-64296600D03*
%TO.N,/PG5*%
X98104500Y-62366500D03*
%TO.N,/PE0*%
X139984600Y-71371400D03*
%TO.N,/PE4*%
X140451700Y-64563000D03*
%TO.N,/LA17*%
X127697700Y-52585200D03*
%TO.N,/LA18*%
X154679500Y-95081900D03*
%TO.N,/LA20*%
X161249400Y-110867100D03*
%TO.N,/PE3*%
X129127000Y-52896700D03*
%TO.N,/A0*%
X153680400Y-84946000D03*
%TO.N,/A1*%
X153505400Y-87973600D03*
%TO.N,/A3*%
X135092100Y-79811600D03*
%TO.N,/A10*%
X122416600Y-49459900D03*
%TO.N,/A11*%
X112665400Y-111579800D03*
%TO.N,/A13*%
X109794800Y-59931200D03*
X115395900Y-60580500D03*
%TO.N,/A14*%
X106204200Y-64139500D03*
X116746500Y-67450400D03*
%TO.N,/A16*%
X157503700Y-56135700D03*
%TO.N,/A17*%
X155839100Y-56610300D03*
%TO.N,/A18*%
X149941300Y-57099000D03*
X155542700Y-62700400D03*
%TO.N,/A19*%
X148107800Y-57549100D03*
%TO.N,/AEN*%
X159775300Y-75646100D03*
X147107600Y-57999200D03*
%TO.N,/PH6*%
X118382100Y-57616400D03*
%TO.N,/D0*%
X104995400Y-61077000D03*
%TO.N,/D1*%
X181608200Y-56522000D03*
%TO.N,/D2*%
X100280200Y-63410000D03*
%TO.N,/PC7*%
X186389100Y-56232600D03*
%TO.N,/PC4*%
X185788200Y-54754500D03*
%TO.N,/PC2*%
X187043900Y-54072300D03*
%TO.N,/PC0*%
X184689400Y-60483400D03*
%TD*%
D19*
%TO.N,+5V*%
X89231800Y-73813800D02*
X66548000Y-51130000D01*
X182210500Y-54337300D02*
X174498000Y-62049800D01*
X174498000Y-65786000D02*
X174498000Y-64222300D01*
X174498000Y-62049800D02*
X174498000Y-64222300D01*
X95983600Y-92075000D02*
X89231800Y-85323200D01*
X185928000Y-51130000D02*
X182720700Y-54337300D01*
X89231800Y-85323200D02*
X89231800Y-73813800D01*
X182720700Y-54337300D02*
X182210500Y-54337300D01*
X101981000Y-92075000D02*
X95983600Y-92075000D01*
%TO.N,-12V*%
X82626700Y-57048700D02*
X89045100Y-57048700D01*
X76708000Y-51130000D02*
X82626700Y-57048700D01*
%TO.N,GND*%
X82802300Y-49604300D02*
X84328000Y-51130000D01*
D20*
X120015000Y-118745000D02*
X176149000Y-118745000D01*
D19*
X61468000Y-51130000D02*
X62993700Y-49604300D01*
D20*
X180213000Y-108966000D02*
X174498000Y-108966000D01*
X103156000Y-93821000D02*
X104481000Y-92496000D01*
D19*
X88370400Y-54676800D02*
X87874800Y-54676800D01*
D20*
X118618000Y-114046000D02*
X118618000Y-117348000D01*
X184888000Y-80446863D02*
X183388000Y-80446863D01*
D19*
X87874800Y-54676800D02*
X84328000Y-51130000D01*
D20*
X105156000Y-109835000D02*
X104024630Y-109835000D01*
X180594000Y-114300000D02*
X180594000Y-109347000D01*
D19*
X101607600Y-89201600D02*
X98044000Y-89201600D01*
X121158000Y-117602000D02*
X121158000Y-118745000D01*
D20*
X191980000Y-79554000D02*
X191980000Y-83514000D01*
X183388000Y-80446863D02*
X191087137Y-80446863D01*
X103156000Y-108966370D02*
X103156000Y-93821000D01*
X180213000Y-108966000D02*
X180594000Y-109347000D01*
X95377000Y-67945000D02*
X103632000Y-67945000D01*
X180864000Y-109077000D02*
X180864000Y-92428242D01*
X189430000Y-86064000D02*
X191980000Y-83514000D01*
D19*
X190443900Y-51694100D02*
X191008000Y-51130000D01*
D20*
X118618000Y-114046000D02*
X121158000Y-114046000D01*
X184491620Y-71501000D02*
X184491620Y-75050483D01*
X189430000Y-89485620D02*
X188122378Y-90793242D01*
X94488000Y-88138000D02*
X95551600Y-89201600D01*
X185388000Y-79946863D02*
X184888000Y-80446863D01*
X92432000Y-77256000D02*
X94488000Y-79312000D01*
D19*
X184492000Y-69651000D02*
X184492000Y-71500620D01*
D20*
X103632000Y-67945000D02*
X104394000Y-67183000D01*
D19*
X184492000Y-69651000D02*
X190443900Y-63699100D01*
D20*
X90932000Y-77256000D02*
X92432000Y-77256000D01*
D19*
X90861500Y-57167900D02*
X88370400Y-54676800D01*
D20*
X184491620Y-75050483D02*
X185388000Y-75946863D01*
X95551600Y-89201600D02*
X98044000Y-89201600D01*
X180864000Y-92428242D02*
X182499000Y-90793242D01*
D19*
X93601400Y-69720600D02*
X90861500Y-66980700D01*
D20*
X90932000Y-72390000D02*
X95377000Y-67945000D01*
X185388000Y-75946863D02*
X185388000Y-79946863D01*
X118618000Y-117348000D02*
X120015000Y-118745000D01*
X104481000Y-92496000D02*
X104481000Y-92075000D01*
X180594000Y-109347000D02*
X180864000Y-109077000D01*
D19*
X190443900Y-63699100D02*
X190443900Y-51694100D01*
D20*
X189430000Y-89485620D02*
X189430000Y-86064000D01*
X104024630Y-109835000D02*
X103156000Y-108966370D01*
X90932000Y-77256000D02*
X90932000Y-72390000D01*
D19*
X104394000Y-67183000D02*
X104394000Y-65786000D01*
X90861500Y-66980700D02*
X90861500Y-57167900D01*
X104481000Y-92075000D02*
X101607600Y-89201600D01*
D20*
X121158000Y-117602000D02*
X121158000Y-114046000D01*
X176149000Y-118745000D02*
X180594000Y-114300000D01*
D19*
X184492000Y-71500620D02*
X184491620Y-71501000D01*
D20*
X110998000Y-109835000D02*
X115169000Y-109835000D01*
X105156000Y-109835000D02*
X110998000Y-109835000D01*
X94488000Y-79312000D02*
X94488000Y-88138000D01*
X115169000Y-109835000D02*
X119380000Y-114046000D01*
X188122378Y-90793242D02*
X182499000Y-90793242D01*
D19*
X62993700Y-49604300D02*
X82802300Y-49604300D01*
D21*
%TO.N,/PK7*%
X172289100Y-105237200D02*
X171448200Y-105237200D01*
X173309200Y-103371600D02*
X173309200Y-104217100D01*
X188468000Y-51130000D02*
X188468000Y-60953600D01*
X179243200Y-90391300D02*
X178945200Y-90689300D01*
X188468000Y-60953600D02*
X179243200Y-70178400D01*
X171448200Y-105237200D02*
X169418000Y-107267400D01*
X178945200Y-98592800D02*
X174922000Y-102616000D01*
X174922000Y-102616000D02*
X174064800Y-102616000D01*
X174064800Y-102616000D02*
X173309200Y-103371600D01*
X179243200Y-70178400D02*
X179243200Y-90391300D01*
X178945200Y-90689300D02*
X178945200Y-98592800D01*
X169418000Y-107267400D02*
X169418000Y-114046000D01*
X173309200Y-104217100D02*
X172289100Y-105237200D01*
%TO.N,/DRQ7*%
X180978100Y-90036800D02*
X179670300Y-91344600D01*
X189618700Y-45523800D02*
X189618700Y-61700300D01*
X183388000Y-51130000D02*
X187317300Y-47200700D01*
X187974500Y-44861700D02*
X188956600Y-44861700D01*
X188956600Y-44861700D02*
X189618700Y-45523800D01*
X180978100Y-70340900D02*
X180978100Y-90036800D01*
X187317300Y-45518900D02*
X187974500Y-44861700D01*
X189618700Y-61700300D02*
X180978100Y-70340900D01*
X187317300Y-47200700D02*
X187317300Y-45518900D01*
%TO.N,/PH4*%
X180848000Y-51130000D02*
X176642800Y-55335200D01*
X123698000Y-59609000D02*
X128019500Y-55287500D01*
X123698000Y-65786000D02*
X123698000Y-59609000D01*
%TO.N,/DRQ5*%
X166210600Y-58147400D02*
X173228000Y-51130000D01*
X173309300Y-98806000D02*
X173309300Y-98434400D01*
X171554700Y-97617300D02*
X166210600Y-92273200D01*
X173309300Y-98434400D02*
X172492200Y-97617300D01*
X172492200Y-97617300D02*
X171554700Y-97617300D01*
X174498000Y-98806000D02*
X173309300Y-98806000D01*
X166210600Y-92273200D02*
X166210600Y-58147400D01*
%TO.N,/PH3*%
X143862400Y-47689100D02*
X148511100Y-43040400D01*
X161757800Y-43040400D02*
X164218700Y-45501300D01*
X148511100Y-43040400D02*
X161757800Y-43040400D01*
X169537300Y-49979300D02*
X170688000Y-51130000D01*
X143862400Y-65916200D02*
X143862400Y-47689100D01*
X164218700Y-46357700D02*
X167840300Y-49979300D01*
X167840300Y-49979300D02*
X169537300Y-49979300D01*
X164218700Y-45501300D02*
X164218700Y-46357700D01*
%TO.N,/PJ1*%
X146382500Y-55115500D02*
X146382500Y-64421800D01*
X150368000Y-51130000D02*
X146382500Y-55115500D01*
X146382500Y-64421800D02*
X146558000Y-64597300D01*
X146558000Y-65786000D02*
X146558000Y-64597300D01*
%TO.N,/OSC_14M318*%
X135128000Y-74276200D02*
X133042500Y-76361700D01*
X135128000Y-51130000D02*
X135128000Y-74276200D01*
%TO.N,/ALE*%
X131907200Y-64205600D02*
X131907200Y-52989200D01*
X131907200Y-52989200D02*
X130048000Y-51130000D01*
%TO.N,/PH5*%
X122863800Y-53985700D02*
X119634000Y-57215500D01*
X119634000Y-57215500D02*
X119634000Y-64597300D01*
X124652300Y-53985700D02*
X122863800Y-53985700D01*
X127508000Y-51130000D02*
X124652300Y-53985700D01*
X119634000Y-65786000D02*
X119634000Y-64597300D01*
%TO.N,/IRQ3*%
X174064800Y-89916000D02*
X174977200Y-89916000D01*
X171958000Y-96266000D02*
X171958000Y-95077300D01*
X185436500Y-61227200D02*
X185436500Y-58233800D01*
X171958000Y-95077300D02*
X172329600Y-95077300D01*
X184613000Y-63076900D02*
X184613000Y-62050700D01*
X174977200Y-89916000D02*
X178290300Y-86602900D01*
X173146700Y-94260200D02*
X173146700Y-90834100D01*
X184613000Y-62050700D02*
X185436500Y-61227200D01*
X172329600Y-95077300D02*
X173146700Y-94260200D01*
X178290300Y-69399600D02*
X184613000Y-63076900D01*
X178290300Y-86602900D02*
X178290300Y-69399600D01*
X173146700Y-90834100D02*
X174064800Y-89916000D01*
%TO.N,/IRQ5*%
X185349300Y-63046800D02*
X185349300Y-62379600D01*
X178740500Y-88666300D02*
X178740500Y-69655600D01*
X174869500Y-92537300D02*
X178740500Y-88666300D01*
X174498000Y-93726000D02*
X174498000Y-92537300D01*
X178740500Y-69655600D02*
X185349300Y-63046800D01*
X174498000Y-92537300D02*
X174869500Y-92537300D01*
%TO.N,/IRQ7*%
X128975900Y-72752200D02*
X122184400Y-65960700D01*
X122184400Y-55819300D02*
X122127200Y-55762100D01*
X122184400Y-65960700D02*
X122184400Y-55819300D01*
X129024400Y-72752200D02*
X128975900Y-72752200D01*
%TO.N,/DRQ1*%
X121717200Y-58676300D02*
X120457900Y-57417000D01*
X121717200Y-66495900D02*
X121717200Y-58676300D01*
X130071300Y-74850000D02*
X121717200Y-66495900D01*
%TO.N,/PH0*%
X102108000Y-53071300D02*
X107647000Y-58610300D01*
X107647000Y-58610300D02*
X107647000Y-59733000D01*
X102108000Y-51130000D02*
X102108000Y-53071300D01*
%TO.N,/DRQ3*%
X108458000Y-46439600D02*
X108458000Y-45672400D01*
X99071500Y-44860000D02*
X98394700Y-45536800D01*
X112754700Y-47228000D02*
X109246400Y-47228000D01*
X115246000Y-43980500D02*
X113538000Y-45688500D01*
X109246400Y-47228000D02*
X108458000Y-46439600D01*
X132349800Y-74948400D02*
X131880400Y-74479000D01*
X128778000Y-45658300D02*
X127100200Y-43980500D01*
X131880400Y-74479000D02*
X131880400Y-70045200D01*
X108458000Y-45672400D02*
X107645600Y-44860000D01*
X128778000Y-51487300D02*
X128778000Y-45658300D01*
X98394700Y-45536800D02*
X98394700Y-49956700D01*
X98394700Y-49956700D02*
X99568000Y-51130000D01*
X130109600Y-68274400D02*
X130109600Y-52818900D01*
X131880400Y-70045200D02*
X130109600Y-68274400D01*
X130109600Y-52818900D02*
X128778000Y-51487300D01*
X113538000Y-46444700D02*
X112754700Y-47228000D01*
X107645600Y-44860000D02*
X99071500Y-44860000D01*
X127100200Y-43980500D02*
X115246000Y-43980500D01*
X113538000Y-45688500D02*
X113538000Y-46444700D01*
%TO.N,/PH1*%
X97028000Y-51130000D02*
X105627500Y-59729500D01*
X105627500Y-59729500D02*
X105698800Y-59729500D01*
%TO.N,/PG0*%
X142675700Y-60771300D02*
X140315100Y-58410700D01*
X142675700Y-67955000D02*
X142675700Y-60771300D01*
X148416700Y-73696000D02*
X142675700Y-67955000D01*
%TO.N,/PG1*%
X167231600Y-85642400D02*
X167231600Y-70309100D01*
X103909600Y-63091600D02*
X104309900Y-63091600D01*
X171958000Y-89997300D02*
X171586500Y-89997300D01*
X91948000Y-51130000D02*
X103909600Y-63091600D01*
X171958000Y-91186000D02*
X171958000Y-89997300D01*
X171586500Y-89997300D02*
X167231600Y-85642400D01*
%TO.N,/PG2*%
X101239400Y-62961400D02*
X89408000Y-51130000D01*
X101239400Y-64296600D02*
X101239400Y-62961400D01*
%TO.N,/PG5*%
X86868000Y-51130000D02*
X98104500Y-62366500D01*
%TO.N,/PE0*%
X141478000Y-65786000D02*
X141478000Y-69878000D01*
X141478000Y-69878000D02*
X139984600Y-71371400D01*
%TO.N,/PE5*%
X166718100Y-42080100D02*
X170688000Y-46050000D01*
X131435600Y-46800900D02*
X131435600Y-45566300D01*
X131435600Y-45566300D02*
X134921800Y-42080100D01*
X133858000Y-49223300D02*
X131435600Y-46800900D01*
X134921800Y-42080100D02*
X166718100Y-42080100D01*
X133858000Y-65786000D02*
X133858000Y-49223300D01*
%TO.N,/PE4*%
X139538700Y-63650000D02*
X139538700Y-49823600D01*
X136495500Y-45582200D02*
X139547500Y-42530200D01*
X140451700Y-64563000D02*
X139538700Y-63650000D01*
X139538700Y-49823600D02*
X136495500Y-46780400D01*
X136495500Y-46780400D02*
X136495500Y-45582200D01*
X139547500Y-42530200D02*
X164628200Y-42530200D01*
X164628200Y-42530200D02*
X168148000Y-46050000D01*
%TO.N,/LA17*%
X127559100Y-56790500D02*
X127559100Y-67925900D01*
X127559100Y-67925900D02*
X130809900Y-71176700D01*
X128744600Y-53632100D02*
X128744600Y-55605000D01*
X128744600Y-55605000D02*
X127559100Y-56790500D01*
X151638000Y-108756400D02*
X151638000Y-114046000D01*
X127697700Y-52585200D02*
X128744600Y-53632100D01*
X130809900Y-87928300D02*
X151638000Y-108756400D01*
X130809900Y-71176700D02*
X130809900Y-87928300D01*
%TO.N,/LA18*%
X144877400Y-68034900D02*
X144877400Y-47310800D01*
X154679500Y-77837000D02*
X144877400Y-68034900D01*
X160508600Y-43490600D02*
X163068000Y-46050000D01*
X148697600Y-43490600D02*
X160508600Y-43490600D01*
X144877400Y-47310800D02*
X148697600Y-43490600D01*
X154679500Y-95081900D02*
X154679500Y-77837000D01*
%TO.N,/LA19*%
X145330900Y-66962900D02*
X145330900Y-50517400D01*
X156718000Y-112857300D02*
X156718000Y-78350000D01*
X156718000Y-114046000D02*
X156718000Y-112857300D01*
X149098000Y-46750300D02*
X149098000Y-45665700D01*
X145330900Y-50517400D02*
X149098000Y-46750300D01*
X158437000Y-43959000D02*
X160528000Y-46050000D01*
X156718000Y-78350000D02*
X145330900Y-66962900D01*
X150804700Y-43959000D02*
X158437000Y-43959000D01*
X149098000Y-45665700D02*
X150804700Y-43959000D01*
%TO.N,/LA20*%
X156829600Y-44891600D02*
X154929500Y-44891600D01*
X160519600Y-66204200D02*
X161249400Y-66934000D01*
X161249400Y-66934000D02*
X161249400Y-110867100D01*
X154285500Y-45535600D02*
X154285500Y-56349500D01*
X160519600Y-62583600D02*
X160519600Y-66204200D01*
X154285500Y-56349500D02*
X160519600Y-62583600D01*
X157988000Y-46050000D02*
X156829600Y-44891600D01*
X154929500Y-44891600D02*
X154285500Y-45535600D01*
%TO.N,/LA21*%
X161798000Y-114046000D02*
X161798000Y-112857300D01*
X156753300Y-47355300D02*
X156753300Y-56460400D01*
X156753300Y-56460400D02*
X162996300Y-62703400D01*
X162996300Y-111659000D02*
X161798000Y-112857300D01*
X162996300Y-62703400D02*
X162996300Y-111659000D01*
X155448000Y-46050000D02*
X156753300Y-47355300D01*
%TO.N,/LA22*%
X154516500Y-44441500D02*
X152908000Y-46050000D01*
X164338000Y-112857300D02*
X165530300Y-111665000D01*
X165530300Y-111665000D02*
X165530300Y-62736000D01*
X159258000Y-56463700D02*
X159258000Y-45692700D01*
X159258000Y-45692700D02*
X158006800Y-44441500D01*
X158006800Y-44441500D02*
X154516500Y-44441500D01*
X164338000Y-114046000D02*
X164338000Y-112857300D01*
X165530300Y-62736000D02*
X159258000Y-56463700D01*
%TO.N,/LA23*%
X160524300Y-114463800D02*
X161322500Y-115262000D01*
X161322500Y-115262000D02*
X164844800Y-115262000D01*
X160524300Y-70512400D02*
X160524300Y-114463800D01*
X151638000Y-54338700D02*
X157988000Y-60688700D01*
X164844800Y-115262000D02*
X165689300Y-114417500D01*
X150368000Y-46050000D02*
X151638000Y-47320000D01*
X157988000Y-60688700D02*
X157988000Y-67976100D01*
X151638000Y-47320000D02*
X151638000Y-54338700D01*
X157988000Y-67976100D02*
X160524300Y-70512400D01*
X165689300Y-114417500D02*
X165689300Y-114046000D01*
X166878000Y-114046000D02*
X165689300Y-114046000D01*
%TO.N,/PE3*%
X129194700Y-64180600D02*
X129194700Y-52964400D01*
X128778000Y-64597300D02*
X129194700Y-64180600D01*
X129194700Y-52964400D02*
X129127000Y-52896700D01*
X128778000Y-65786000D02*
X128778000Y-64597300D01*
%TO.N,/A0*%
X153680400Y-77913000D02*
X153680400Y-84946000D01*
X137668000Y-46050000D02*
X143126000Y-51508000D01*
X143126000Y-67358600D02*
X153680400Y-77913000D01*
X143126000Y-51508000D02*
X143126000Y-67358600D01*
%TO.N,/A1*%
X139034000Y-64185800D02*
X139034000Y-49956000D01*
X139034000Y-49956000D02*
X135128000Y-46050000D01*
X139235900Y-68713200D02*
X140128400Y-67820700D01*
X153505400Y-87973600D02*
X153505400Y-86695300D01*
X140128400Y-65280200D02*
X139034000Y-64185800D01*
X153505400Y-86695300D02*
X139235900Y-72425800D01*
X140128400Y-67820700D02*
X140128400Y-65280200D01*
X139235900Y-72425800D02*
X139235900Y-68713200D01*
%TO.N,/A2*%
X137668000Y-57175400D02*
X137668000Y-92957500D01*
X137668000Y-92957500D02*
X155406500Y-110696000D01*
X156701500Y-115712200D02*
X169433000Y-115712200D01*
X155406500Y-110696000D02*
X155406500Y-114417200D01*
X169433000Y-115712200D02*
X173146800Y-111998400D01*
X174126500Y-105074700D02*
X174498000Y-105074700D01*
X173146800Y-111998400D02*
X173146800Y-106054400D01*
X174498000Y-103886000D02*
X174498000Y-105074700D01*
X173146800Y-106054400D02*
X174126500Y-105074700D01*
X155406500Y-114417200D02*
X156701500Y-115712200D01*
X136398000Y-55905400D02*
X137668000Y-57175400D01*
X132588000Y-46050000D02*
X136398000Y-49860000D01*
X136398000Y-49860000D02*
X136398000Y-55905400D01*
%TO.N,/A3*%
X133118500Y-70808300D02*
X132632500Y-70322300D01*
X132282300Y-76069100D02*
X133118500Y-75232900D01*
X132632500Y-53077800D02*
X131318000Y-51763300D01*
X132282300Y-77001800D02*
X132282300Y-76069100D01*
X132632500Y-70322300D02*
X132632500Y-53077800D01*
X135092100Y-79811600D02*
X132282300Y-77001800D01*
X131318000Y-47320000D02*
X130048000Y-46050000D01*
X133118500Y-75232900D02*
X133118500Y-70808300D01*
X131318000Y-51763300D02*
X131318000Y-47320000D01*
%TO.N,/A4*%
X114554000Y-60367100D02*
X121385600Y-53535500D01*
X114554000Y-65786000D02*
X114554000Y-64597300D01*
X121385600Y-53535500D02*
X124199100Y-53535500D01*
X126238000Y-47320000D02*
X127508000Y-46050000D01*
X114554000Y-64597300D02*
X114554000Y-60367100D01*
X126238000Y-51496600D02*
X126238000Y-47320000D01*
X124199100Y-53535500D02*
X126238000Y-51496600D01*
%TO.N,/A5*%
X124786000Y-46050000D02*
X121038600Y-49797400D01*
X121038600Y-49797400D02*
X121038600Y-51997900D01*
X112014000Y-65786000D02*
X112014000Y-64597300D01*
X113022100Y-60014400D02*
X113022100Y-63589200D01*
X121038600Y-51997900D02*
X113022100Y-60014400D01*
X124968000Y-46050000D02*
X124786000Y-46050000D01*
X113022100Y-63589200D02*
X112014000Y-64597300D01*
%TO.N,/A6*%
X109474000Y-64597300D02*
X109996700Y-64074600D01*
X109996700Y-64074600D02*
X109996700Y-62377300D01*
X117954600Y-48895500D02*
X119582500Y-48895500D01*
X116078000Y-54545000D02*
X116078000Y-50772100D01*
X111755900Y-60618100D02*
X111755900Y-58867100D01*
X116078000Y-50772100D02*
X117954600Y-48895500D01*
X111755900Y-58867100D02*
X116078000Y-54545000D01*
X109474000Y-65786000D02*
X109474000Y-64597300D01*
X109996700Y-62377300D02*
X111755900Y-60618100D01*
X119582500Y-48895500D02*
X122428000Y-46050000D01*
%TO.N,/A7*%
X106934000Y-64046300D02*
X106934000Y-64597300D01*
X114141200Y-47616200D02*
X111080200Y-50677200D01*
X111080200Y-54726500D02*
X110808200Y-54998500D01*
X110808200Y-59974400D02*
X108937500Y-61845100D01*
X108937500Y-61845100D02*
X108937500Y-62042800D01*
X119888000Y-46050000D02*
X118321800Y-47616200D01*
X108937500Y-62042800D02*
X106934000Y-64046300D01*
X106934000Y-65786000D02*
X106934000Y-64597300D01*
X111080200Y-50677200D02*
X111080200Y-54726500D01*
X110808200Y-54998500D02*
X110808200Y-59974400D01*
X118321800Y-47616200D02*
X114141200Y-47616200D01*
%TO.N,/A8*%
X111258300Y-57452900D02*
X111258300Y-60160900D01*
X118501600Y-44896400D02*
X120398200Y-44896400D01*
X113538000Y-50737900D02*
X113538000Y-55173200D01*
X121050500Y-46557900D02*
X119388000Y-48220400D01*
X109387600Y-62668200D02*
X108285200Y-63770600D01*
X128778000Y-114046000D02*
X128778000Y-112857300D01*
X121050500Y-45548700D02*
X121050500Y-46557900D01*
X108285200Y-63770600D02*
X108285200Y-92364500D01*
X119388000Y-48220400D02*
X116055500Y-48220400D01*
X117348000Y-46050000D02*
X118501600Y-44896400D01*
X108285200Y-92364500D02*
X128778000Y-112857300D01*
X111258300Y-60160900D02*
X109387600Y-62031600D01*
X109387600Y-62031600D02*
X109387600Y-62668200D01*
X120398200Y-44896400D02*
X121050500Y-45548700D01*
X116055500Y-48220400D02*
X113538000Y-50737900D01*
X113538000Y-55173200D02*
X111258300Y-57452900D01*
%TO.N,/A9*%
X110817000Y-92356300D02*
X131318000Y-112857300D01*
X116417000Y-44441000D02*
X122464100Y-44441000D01*
X114808000Y-46050000D02*
X116417000Y-44441000D01*
X118618000Y-53466400D02*
X112571900Y-59512500D01*
X118618000Y-50744400D02*
X118618000Y-53466400D01*
X131318000Y-114046000D02*
X131318000Y-112857300D01*
X122464100Y-44441000D02*
X123599800Y-45576700D01*
X112571900Y-59512500D02*
X112571900Y-61626300D01*
X120313100Y-49049300D02*
X118618000Y-50744400D01*
X123599800Y-45576700D02*
X123599800Y-46547800D01*
X121098300Y-49049300D02*
X120313100Y-49049300D01*
X123599800Y-46547800D02*
X121098300Y-49049300D01*
X112571900Y-61626300D02*
X110817000Y-63381200D01*
X110817000Y-63381200D02*
X110817000Y-92356300D01*
%TO.N,/A10*%
X133858000Y-112857300D02*
X113339100Y-92338400D01*
X113339100Y-63908900D02*
X113504600Y-63743400D01*
X133858000Y-114046000D02*
X133858000Y-112857300D01*
X113339100Y-92338400D02*
X113339100Y-63908900D01*
X122332900Y-52860400D02*
X123629400Y-51563900D01*
X113504600Y-63743400D02*
X113504600Y-60698900D01*
X123629400Y-51563900D02*
X123629400Y-50672700D01*
X113504600Y-60698900D02*
X121343100Y-52860400D01*
X121343100Y-52860400D02*
X122332900Y-52860400D01*
X123629400Y-50672700D02*
X122416600Y-49459900D01*
%TO.N,/A11*%
X64573200Y-59252400D02*
X60275000Y-54954200D01*
X108028200Y-44350200D02*
X109728000Y-46050000D01*
X63337200Y-47584100D02*
X74293500Y-47584100D01*
X60275000Y-54954200D02*
X60275000Y-50646300D01*
X60275000Y-50646300D02*
X63337200Y-47584100D01*
X112665400Y-111579800D02*
X103807000Y-111579800D01*
X76757200Y-44350200D02*
X108028200Y-44350200D01*
X75438000Y-45669400D02*
X76757200Y-44350200D01*
X79649600Y-71163300D02*
X67738700Y-59252400D01*
X75438000Y-46439600D02*
X75438000Y-45669400D01*
X79649600Y-87422400D02*
X79649600Y-71163300D01*
X67738700Y-59252400D02*
X64573200Y-59252400D01*
X103807000Y-111579800D02*
X79649600Y-87422400D01*
X74293500Y-47584100D02*
X75438000Y-46439600D01*
%TO.N,/A13*%
X115878500Y-87257800D02*
X115878500Y-61063000D01*
X106037300Y-47439300D02*
X106037300Y-52742300D01*
X106037300Y-52742300D02*
X109794800Y-56499800D01*
X141478000Y-114046000D02*
X141478000Y-112857300D01*
X115878500Y-61063000D02*
X115878400Y-61063000D01*
X115878400Y-61063000D02*
X115395900Y-60580500D01*
X109794800Y-56499800D02*
X109794800Y-59931200D01*
X141478000Y-112857300D02*
X115878500Y-87257800D01*
X104648000Y-46050000D02*
X106037300Y-47439300D01*
%TO.N,/A14*%
X103378000Y-47320000D02*
X103378000Y-53555600D01*
X102108000Y-46050000D02*
X103378000Y-47320000D01*
X144018000Y-112857300D02*
X116746500Y-85585800D01*
X116746500Y-85585800D02*
X116746500Y-67450400D01*
X144018000Y-114046000D02*
X144018000Y-112857300D01*
X103378000Y-53555600D02*
X108381600Y-58559200D01*
X108381600Y-61962100D02*
X106204200Y-64139500D01*
X108381600Y-58559200D02*
X108381600Y-61962100D01*
%TO.N,/A15*%
X144548400Y-115238400D02*
X128286100Y-115238400D01*
X145369300Y-114417500D02*
X144548400Y-115238400D01*
X105737900Y-64754000D02*
X105451400Y-64467500D01*
X146558000Y-114046000D02*
X145369300Y-114046000D01*
X105851300Y-92803600D02*
X105851300Y-66766200D01*
X105451400Y-63835100D02*
X106435200Y-62851300D01*
X128286100Y-115238400D02*
X105851300Y-92803600D01*
X100838000Y-47320000D02*
X99568000Y-46050000D01*
X145369300Y-114046000D02*
X145369300Y-114417500D01*
X105851300Y-66766200D02*
X105737900Y-66652800D01*
X106435200Y-62851300D02*
X106435200Y-58371900D01*
X106435200Y-58371900D02*
X100838000Y-52774700D01*
X105737900Y-66652800D02*
X105737900Y-64754000D01*
X100838000Y-52774700D02*
X100838000Y-47320000D01*
X105451400Y-64467500D02*
X105451400Y-63835100D01*
%TO.N,/A16*%
X164338000Y-62970000D02*
X157503700Y-56135700D01*
X164338000Y-65786000D02*
X164338000Y-62970000D01*
%TO.N,/A17*%
X161798000Y-62569200D02*
X155839100Y-56610300D01*
X161798000Y-65786000D02*
X161798000Y-62569200D01*
%TO.N,/A18*%
X155542700Y-62700400D02*
X149941300Y-57099000D01*
%TO.N,/A19*%
X155156000Y-64597300D02*
X148107800Y-57549100D01*
X156718000Y-65786000D02*
X156718000Y-64597300D01*
X156718000Y-64597300D02*
X155156000Y-64597300D01*
%TO.N,/AEN*%
X159775300Y-75646100D02*
X152908000Y-68778800D01*
X152908000Y-63799600D02*
X147107600Y-57999200D01*
X152908000Y-68778800D02*
X152908000Y-63799600D01*
%TO.N,/PH6*%
X117094000Y-58904500D02*
X118382100Y-57616400D01*
X117094000Y-64597300D02*
X117094000Y-58904500D01*
X117094000Y-65786000D02*
X117094000Y-64597300D01*
%TO.N,/D0*%
X102775900Y-61077000D02*
X93218000Y-51519100D01*
X89770700Y-47300400D02*
X83038400Y-47300400D01*
X83038400Y-47300400D02*
X81788000Y-46050000D01*
X93218000Y-50747700D02*
X89770700Y-47300400D01*
X104995400Y-61077000D02*
X102775900Y-61077000D01*
X93218000Y-51519100D02*
X93218000Y-50747700D01*
%TO.N,/D1*%
X174498000Y-68326000D02*
X174498000Y-67137300D01*
X175686700Y-62443500D02*
X181608200Y-56522000D01*
X174869600Y-67137300D02*
X175686700Y-66320200D01*
X175686700Y-66320200D02*
X175686700Y-62443500D01*
X174498000Y-67137300D02*
X174869600Y-67137300D01*
%TO.N,/D2*%
X76708000Y-46050000D02*
X78807100Y-48149100D01*
X88138000Y-51515600D02*
X93566300Y-56943900D01*
X93814100Y-56943900D02*
X100280200Y-63410000D01*
X85539700Y-48149100D02*
X88138000Y-50747400D01*
X93566300Y-56943900D02*
X93814100Y-56943900D01*
X88138000Y-50747400D02*
X88138000Y-51515600D01*
X78807100Y-48149100D02*
X85539700Y-48149100D01*
%TO.N,/PC7*%
X171442400Y-82243800D02*
X172339000Y-82243800D01*
X173146800Y-83051600D02*
X173146800Y-83918000D01*
X172339000Y-82243800D02*
X173146800Y-83051600D01*
X177165000Y-69251700D02*
X183712700Y-62704000D01*
X183712700Y-58909000D02*
X186389100Y-56232600D01*
X173146800Y-83918000D02*
X173983600Y-84754800D01*
X183712700Y-62704000D02*
X183712700Y-58909000D01*
X177165000Y-82582100D02*
X177165000Y-69251700D01*
X171958000Y-78486000D02*
X170745200Y-79698800D01*
X174992300Y-84754800D02*
X177165000Y-82582100D01*
X170745200Y-81546600D02*
X171442400Y-82243800D01*
X170745200Y-79698800D02*
X170745200Y-81546600D01*
X173983600Y-84754800D02*
X174992300Y-84754800D01*
%TO.N,/PC6*%
X187092400Y-48062200D02*
X188468000Y-46686600D01*
X174498000Y-78486000D02*
X174498000Y-77297300D01*
X187092400Y-52208700D02*
X187092400Y-48062200D01*
X188468000Y-46686600D02*
X188468000Y-46050000D01*
X180238700Y-59062400D02*
X187092400Y-52208700D01*
X174498000Y-77297300D02*
X174869500Y-77297300D01*
X175814700Y-76352100D02*
X175814700Y-68055600D01*
X175814700Y-68055600D02*
X180238700Y-63631600D01*
X180238700Y-63631600D02*
X180238700Y-59062400D01*
X174869500Y-77297300D02*
X175814700Y-76352100D01*
%TO.N,/PC5*%
X173146700Y-61655900D02*
X173146700Y-79020200D01*
X171958000Y-81026000D02*
X171958000Y-79837300D01*
X172329600Y-79837300D02*
X171958000Y-79837300D01*
X182118000Y-49860000D02*
X182118000Y-52684600D01*
X185928000Y-46050000D02*
X182118000Y-49860000D01*
X182118000Y-52684600D02*
X173146700Y-61655900D01*
X173146700Y-79020200D02*
X172329600Y-79837300D01*
%TO.N,/PC4*%
X182357500Y-58185200D02*
X185788200Y-54754500D01*
X174498000Y-79837300D02*
X174869500Y-79837300D01*
X176264800Y-68428400D02*
X182357500Y-62335700D01*
X182357500Y-62335700D02*
X182357500Y-58185200D01*
X174498000Y-81026000D02*
X174498000Y-79837300D01*
X174869500Y-79837300D02*
X176264800Y-78442000D01*
X176264800Y-78442000D02*
X176264800Y-68428400D01*
%TO.N,/PC3*%
X170528700Y-59083600D02*
X170528700Y-74533900D01*
X177038000Y-52574300D02*
X170528700Y-59083600D01*
X180848000Y-46050000D02*
X177038000Y-49860000D01*
X177038000Y-49860000D02*
X177038000Y-52574300D01*
X170528700Y-74533900D02*
X170295000Y-74767600D01*
X170295000Y-74767600D02*
X170295000Y-81903000D01*
X170295000Y-81903000D02*
X171958000Y-83566000D01*
%TO.N,/PC2*%
X187043900Y-54542400D02*
X187043900Y-54072300D01*
X174498000Y-82377300D02*
X174849700Y-82377300D01*
X174849700Y-82377300D02*
X176714900Y-80512100D01*
X174498000Y-83566000D02*
X174498000Y-82377300D01*
X183032700Y-62618600D02*
X183032700Y-58553600D01*
X176714900Y-80512100D02*
X176714900Y-68936400D01*
X183032700Y-58553600D02*
X187043900Y-54542400D01*
X176714900Y-68936400D02*
X183032700Y-62618600D01*
%TO.N,/PC1*%
X171958000Y-86106000D02*
X171958000Y-84917300D01*
X170078500Y-74029300D02*
X170078500Y-58894400D01*
X170078500Y-58894400D02*
X174568200Y-54404700D01*
X169839800Y-83170700D02*
X169839800Y-74268000D01*
X174568200Y-54404700D02*
X174568200Y-47249800D01*
X174568200Y-47249800D02*
X175768000Y-46050000D01*
X171958000Y-84917300D02*
X171586400Y-84917300D01*
X169839800Y-74268000D02*
X170078500Y-74029300D01*
X171586400Y-84917300D02*
X169839800Y-83170700D01*
%TO.N,/PC0*%
X184162800Y-62890500D02*
X184162800Y-61010000D01*
X177840100Y-69213200D02*
X184162800Y-62890500D01*
X174498000Y-86106000D02*
X177840100Y-82763900D01*
X177840100Y-82763900D02*
X177840100Y-69213200D01*
X184162800Y-61010000D02*
X184689400Y-60483400D01*
%TD*%
M02*
