%TF.GenerationSoftware,KiCad,Pcbnew,(6.0.11)*%
%TF.CreationDate,2023-03-11T14:29:23-07:00*%
%TF.ProjectId,arduino-mega-isa-shield,61726475-696e-46f2-9d6d-6567612d6973,rev?*%
%TF.SameCoordinates,Original*%
%TF.FileFunction,Copper,L1,Top*%
%TF.FilePolarity,Positive*%
%FSLAX46Y46*%
G04 Gerber Fmt 4.6, Leading zero omitted, Abs format (unit mm)*
G04 Created by KiCad (PCBNEW (6.0.11)) date 2023-03-11 14:29:23*
%MOMM*%
%LPD*%
G01*
G04 APERTURE LIST*
G04 Aperture macros list*
%AMRoundRect*
0 Rectangle with rounded corners*
0 $1 Rounding radius*
0 $2 $3 $4 $5 $6 $7 $8 $9 X,Y pos of 4 corners*
0 Add a 4 corners polygon primitive as box body*
4,1,4,$2,$3,$4,$5,$6,$7,$8,$9,$2,$3,0*
0 Add four circle primitives for the rounded corners*
1,1,$1+$1,$2,$3*
1,1,$1+$1,$4,$5*
1,1,$1+$1,$6,$7*
1,1,$1+$1,$8,$9*
0 Add four rect primitives between the rounded corners*
20,1,$1+$1,$2,$3,$4,$5,0*
20,1,$1+$1,$4,$5,$6,$7,0*
20,1,$1+$1,$6,$7,$8,$9,0*
20,1,$1+$1,$8,$9,$2,$3,0*%
G04 Aperture macros list end*
%TA.AperFunction,ComponentPad*%
%ADD10C,1.600000*%
%TD*%
%TA.AperFunction,ComponentPad*%
%ADD11R,1.600000X1.600000*%
%TD*%
%TA.AperFunction,ComponentPad*%
%ADD12C,1.500000*%
%TD*%
%TA.AperFunction,ComponentPad*%
%ADD13O,1.727200X1.727200*%
%TD*%
%TA.AperFunction,ComponentPad*%
%ADD14R,1.727200X1.727200*%
%TD*%
%TA.AperFunction,ComponentPad*%
%ADD15C,1.651000*%
%TD*%
%TA.AperFunction,ComponentPad*%
%ADD16RoundRect,0.250001X-1.099999X1.099999X-1.099999X-1.099999X1.099999X-1.099999X1.099999X1.099999X0*%
%TD*%
%TA.AperFunction,ComponentPad*%
%ADD17C,2.700000*%
%TD*%
%TA.AperFunction,SMDPad,CuDef*%
%ADD18RoundRect,0.150000X0.825000X0.150000X-0.825000X0.150000X-0.825000X-0.150000X0.825000X-0.150000X0*%
%TD*%
%TA.AperFunction,ViaPad*%
%ADD19C,0.800000*%
%TD*%
%TA.AperFunction,Conductor*%
%ADD20C,0.500000*%
%TD*%
%TA.AperFunction,Conductor*%
%ADD21C,1.000000*%
%TD*%
%TA.AperFunction,Conductor*%
%ADD22C,0.250000*%
%TD*%
%TA.AperFunction,Conductor*%
%ADD23C,2.000000*%
%TD*%
G04 APERTURE END LIST*
D10*
%TO.P,C6,1*%
%TO.N,+5V*%
X101981000Y-92075000D03*
%TO.P,C6,2*%
%TO.N,GND*%
X104481000Y-92075000D03*
%TD*%
D11*
%TO.P,C2,1*%
%TO.N,+12V*%
X98044000Y-86701600D03*
D10*
%TO.P,C2,2*%
%TO.N,GND*%
X98044000Y-89201600D03*
%TD*%
D11*
%TO.P,C1,1*%
%TO.N,+5V*%
X90932000Y-79756000D03*
D10*
%TO.P,C1,2*%
%TO.N,GND*%
X90932000Y-77256000D03*
%TD*%
%TO.P,C4,1*%
%TO.N,Net-(C4-Pad1)*%
X110998000Y-107335000D03*
%TO.P,C4,2*%
%TO.N,GND*%
X110998000Y-109835000D03*
%TD*%
D11*
%TO.P,C3,1*%
%TO.N,GND*%
X90170000Y-93130400D03*
D10*
%TO.P,C3,2*%
%TO.N,-12V*%
X90170000Y-90630400D03*
%TD*%
D12*
%TO.P,Y1,1,1*%
%TO.N,Net-(C4-Pad1)*%
X110474000Y-102870000D03*
%TO.P,Y1,2,2*%
%TO.N,Net-(C5-Pad1)*%
X105594000Y-102870000D03*
%TD*%
D13*
%TO.P,XA1,*%
%TO.N,*%
X105918000Y-114046000D03*
%TO.P,XA1,3V3,3.3V*%
%TO.N,unconnected-(XA1-Pad3V3)*%
X113538000Y-114046000D03*
%TO.P,XA1,5V1,5V*%
%TO.N,+5V*%
X116078000Y-114046000D03*
%TO.P,XA1,5V3,5V*%
X171958000Y-65786000D03*
%TO.P,XA1,5V4,5V*%
X174498000Y-65786000D03*
%TO.P,XA1,A0,A0*%
%TO.N,/A8*%
X128778000Y-114046000D03*
%TO.P,XA1,A1,A1*%
%TO.N,/A9*%
X131318000Y-114046000D03*
%TO.P,XA1,A2,A2*%
%TO.N,/A10*%
X133858000Y-114046000D03*
%TO.P,XA1,A3,A3*%
%TO.N,/A11*%
X136398000Y-114046000D03*
%TO.P,XA1,A4,A4*%
%TO.N,/A12*%
X138938000Y-114046000D03*
%TO.P,XA1,A5,A5*%
%TO.N,/A13*%
X141478000Y-114046000D03*
%TO.P,XA1,A6,A6*%
%TO.N,/A14*%
X144018000Y-114046000D03*
%TO.P,XA1,A7,A7*%
%TO.N,/A15*%
X146558000Y-114046000D03*
%TO.P,XA1,A8,A8*%
%TO.N,/LA23*%
X151638000Y-114046000D03*
%TO.P,XA1,A9,A9*%
%TO.N,/LA22*%
X154178000Y-114046000D03*
%TO.P,XA1,A10,A10*%
%TO.N,/LA21*%
X156718000Y-114046000D03*
%TO.P,XA1,A11,A11*%
%TO.N,/LA20*%
X159258000Y-114046000D03*
%TO.P,XA1,A12,A12*%
%TO.N,/LA19*%
X161798000Y-114046000D03*
%TO.P,XA1,A13,A13*%
%TO.N,/LA18*%
X164338000Y-114046000D03*
%TO.P,XA1,A14,A14*%
%TO.N,/LA17*%
X166878000Y-114046000D03*
%TO.P,XA1,A15,A15*%
%TO.N,/PK7*%
X169418000Y-114046000D03*
%TO.P,XA1,AREF,AREF*%
%TO.N,unconnected-(XA1-PadAREF)*%
X101854000Y-65786000D03*
%TO.P,XA1,D0,D0_RX0*%
%TO.N,/PE0*%
X141478000Y-65786000D03*
%TO.P,XA1,D1,D1_TX0*%
%TO.N,/ALE*%
X138938000Y-65786000D03*
%TO.P,XA1,D2,D2_INT0*%
%TO.N,/PE4*%
X136398000Y-65786000D03*
%TO.P,XA1,D3,D3_INT1*%
%TO.N,/PE5*%
X133858000Y-65786000D03*
%TO.P,XA1,D4,D4*%
%TO.N,/PG5*%
X131318000Y-65786000D03*
%TO.P,XA1,D5,D5*%
%TO.N,/PE3*%
X128778000Y-65786000D03*
%TO.P,XA1,D6,D6*%
%TO.N,/PH3*%
X126238000Y-65786000D03*
%TO.P,XA1,D7,D7*%
%TO.N,/PH4*%
X123698000Y-65786000D03*
%TO.P,XA1,D8,D8*%
%TO.N,/PH5*%
X119634000Y-65786000D03*
%TO.P,XA1,D9,D9*%
%TO.N,/PH6*%
X117094000Y-65786000D03*
%TO.P,XA1,D10,D10*%
%TO.N,/A4*%
X114554000Y-65786000D03*
%TO.P,XA1,D11,D11*%
%TO.N,/A5*%
X112014000Y-65786000D03*
%TO.P,XA1,D12,D12*%
%TO.N,/A6*%
X109474000Y-65786000D03*
%TO.P,XA1,D13,D13*%
%TO.N,/A7*%
X106934000Y-65786000D03*
%TO.P,XA1,D14,D14_TX3*%
%TO.N,/PJ1*%
X146558000Y-65786000D03*
%TO.P,XA1,D15,D15_RX3*%
%TO.N,/PJ0*%
X149098000Y-65786000D03*
%TO.P,XA1,D16,D16_TX2*%
%TO.N,/PH1*%
X151638000Y-65786000D03*
%TO.P,XA1,D17,D17_RX2*%
%TO.N,/PH0*%
X154178000Y-65786000D03*
%TO.P,XA1,D18,D18_TX1*%
%TO.N,/A19*%
X156718000Y-65786000D03*
%TO.P,XA1,D19,D19_RX1*%
%TO.N,/A18*%
X159258000Y-65786000D03*
%TO.P,XA1,D20,D20_SDA*%
%TO.N,/A17*%
X161798000Y-65786000D03*
%TO.P,XA1,D21,D21_SCL*%
%TO.N,/A16*%
X164338000Y-65786000D03*
%TO.P,XA1,D22,D22*%
%TO.N,/D0*%
X171958000Y-68326000D03*
%TO.P,XA1,D23,D23*%
%TO.N,/D1*%
X174498000Y-68326000D03*
%TO.P,XA1,D24,D24*%
%TO.N,/D2*%
X171958000Y-70866000D03*
%TO.P,XA1,D25,D25*%
%TO.N,/D3*%
X174498000Y-70866000D03*
%TO.P,XA1,D26,D26*%
%TO.N,/D4*%
X171958000Y-73406000D03*
%TO.P,XA1,D27,D27*%
%TO.N,/D5*%
X174498000Y-73406000D03*
%TO.P,XA1,D28,D28*%
%TO.N,/D6*%
X171958000Y-75946000D03*
%TO.P,XA1,D29,D29*%
%TO.N,/D7*%
X174498000Y-75946000D03*
%TO.P,XA1,D30,D30*%
%TO.N,/PC7*%
X171958000Y-78486000D03*
%TO.P,XA1,D31,D31*%
%TO.N,/PC6*%
X174498000Y-78486000D03*
%TO.P,XA1,D32,D32*%
%TO.N,/PC5*%
X171958000Y-81026000D03*
%TO.P,XA1,D33,D33*%
%TO.N,/PC4*%
X174498000Y-81026000D03*
%TO.P,XA1,D34,D34*%
%TO.N,/PC3*%
X171958000Y-83566000D03*
%TO.P,XA1,D35,D35*%
%TO.N,/PC2*%
X174498000Y-83566000D03*
%TO.P,XA1,D36,D36*%
%TO.N,/PC1*%
X171958000Y-86106000D03*
%TO.P,XA1,D37,D37*%
%TO.N,/PC0*%
X174498000Y-86106000D03*
%TO.P,XA1,D38,D38*%
%TO.N,/AEN*%
X171958000Y-88646000D03*
%TO.P,XA1,D39,D39*%
%TO.N,/PG2*%
X174498000Y-88646000D03*
%TO.P,XA1,D40,D40*%
%TO.N,/PG1*%
X171958000Y-91186000D03*
%TO.P,XA1,D41,D41*%
%TO.N,/PG0*%
X174498000Y-91186000D03*
%TO.P,XA1,D42,D42*%
%TO.N,/IRQ7*%
X171958000Y-93726000D03*
%TO.P,XA1,D43,D43*%
%TO.N,/IRQ5*%
X174498000Y-93726000D03*
%TO.P,XA1,D44,D44*%
%TO.N,/IRQ3*%
X171958000Y-96266000D03*
%TO.P,XA1,D45,D45*%
%TO.N,/IRQ2*%
X174498000Y-96266000D03*
%TO.P,XA1,D46,D46*%
%TO.N,/DRQ7*%
X171958000Y-98806000D03*
%TO.P,XA1,D47,D47*%
%TO.N,/DRQ5*%
X174498000Y-98806000D03*
%TO.P,XA1,D48,D48*%
%TO.N,/DRQ3*%
X171958000Y-101346000D03*
%TO.P,XA1,D49,D49*%
%TO.N,/DRQ1*%
X174498000Y-101346000D03*
%TO.P,XA1,D50,D50_MISO*%
%TO.N,/A3*%
X171958000Y-103886000D03*
%TO.P,XA1,D51,D51_MOSI*%
%TO.N,/A2*%
X174498000Y-103886000D03*
%TO.P,XA1,D52,D52_SCK*%
%TO.N,/A1*%
X171958000Y-106426000D03*
%TO.P,XA1,D53,D53_CS*%
%TO.N,/A0*%
X174498000Y-106426000D03*
D14*
%TO.P,XA1,GND1,GND*%
%TO.N,GND*%
X104394000Y-65786000D03*
%TO.P,XA1,GND2,GND*%
X118618000Y-114046000D03*
%TO.P,XA1,GND3,GND*%
X121158000Y-114046000D03*
%TO.P,XA1,GND5,GND*%
X171958000Y-108966000D03*
%TO.P,XA1,GND6,GND*%
X174498000Y-108966000D03*
D13*
%TO.P,XA1,IORF,IOREF*%
%TO.N,unconnected-(XA1-PadIORF)*%
X108458000Y-114046000D03*
%TO.P,XA1,RST1,RESET*%
%TO.N,unconnected-(XA1-PadRST1)*%
X110998000Y-114046000D03*
%TO.P,XA1,SCL,SCL*%
%TO.N,unconnected-(XA1-PadSCL)*%
X96774000Y-65786000D03*
%TO.P,XA1,SDA,SDA*%
%TO.N,unconnected-(XA1-PadSDA)*%
X99314000Y-65786000D03*
%TO.P,XA1,VIN,VIN*%
%TO.N,+5V*%
X123698000Y-114046000D03*
%TD*%
D15*
%TO.P,J1,1,D18*%
%TO.N,GND*%
X191008000Y-46050000D03*
%TO.P,J1,2,D17*%
%TO.N,/PK7*%
X188468000Y-46050000D03*
%TO.P,J1,3,D16*%
%TO.N,+5V*%
X185928000Y-46050000D03*
%TO.P,J1,4,D15*%
%TO.N,/DRQ7*%
X183388000Y-46050000D03*
%TO.P,J1,5,D14*%
%TO.N,/PH4*%
X180848000Y-46050000D03*
%TO.P,J1,6,D13*%
%TO.N,/DRQ6*%
X178308000Y-46050000D03*
%TO.P,J1,7,D12*%
%TO.N,/~{DACK6}*%
X175768000Y-46050000D03*
%TO.P,J1,8,D11*%
%TO.N,/DRQ5*%
X173228000Y-46050000D03*
%TO.P,J1,9,D10*%
%TO.N,/PH3*%
X170688000Y-46050000D03*
%TO.P,J1,10,D9*%
%TO.N,/DRQ0*%
X168148000Y-46050000D03*
%TO.P,J1,11,D8*%
%TO.N,/~{DACK0}*%
X165608000Y-46050000D03*
%TO.P,J1,12,D7*%
%TO.N,/IRQ14*%
X163068000Y-46050000D03*
%TO.P,J1,13,D6*%
%TO.N,/IRQ13*%
X160528000Y-46050000D03*
%TO.P,J1,14,D5*%
%TO.N,/IRQ12*%
X157988000Y-46050000D03*
%TO.P,J1,15,D4*%
%TO.N,/IRQ11*%
X155448000Y-46050000D03*
%TO.P,J1,16,D3*%
%TO.N,/IRQ10*%
X152908000Y-46050000D03*
%TO.P,J1,17,D2*%
%TO.N,/PJ1*%
X150368000Y-46050000D03*
%TO.P,J1,18,D1*%
%TO.N,/~{MEMCS16}*%
X147828000Y-46050000D03*
%TO.P,J1,19,B31*%
%TO.N,GND*%
X137668000Y-46050000D03*
%TO.P,J1,20,B30*%
%TO.N,/OSC_14M318*%
X135128000Y-46050000D03*
%TO.P,J1,21,B29*%
%TO.N,+5V*%
X132588000Y-46050000D03*
%TO.P,J1,22,B28*%
%TO.N,/ALE*%
X130048000Y-46050000D03*
%TO.P,J1,23,B27*%
%TO.N,/PH5*%
X127508000Y-46050000D03*
%TO.P,J1,24,B26*%
%TO.N,/~{DACK2}*%
X124968000Y-46050000D03*
%TO.P,J1,25,B25*%
%TO.N,/IRQ3*%
X122428000Y-46050000D03*
%TO.P,J1,26,B24*%
%TO.N,/IRQ4*%
X119888000Y-46050000D03*
%TO.P,J1,27,B23*%
%TO.N,/IRQ5*%
X117348000Y-46050000D03*
%TO.P,J1,28,B22*%
%TO.N,/IRQ6*%
X114808000Y-46050000D03*
%TO.P,J1,29,B21*%
%TO.N,/IRQ7*%
X112268000Y-46050000D03*
%TO.P,J1,30,B20*%
%TO.N,/OSC_8M*%
X109728000Y-46050000D03*
%TO.P,J1,31,B19*%
%TO.N,/~{REFRESH}*%
X107188000Y-46050000D03*
%TO.P,J1,32,B18*%
%TO.N,/DRQ1*%
X104648000Y-46050000D03*
%TO.P,J1,33,B17*%
%TO.N,/PH0*%
X102108000Y-46050000D03*
%TO.P,J1,34,B16*%
%TO.N,/DRQ3*%
X99568000Y-46050000D03*
%TO.P,J1,35,B15*%
%TO.N,/PH1*%
X97028000Y-46050000D03*
%TO.P,J1,36,B14*%
%TO.N,/PG0*%
X94488000Y-46050000D03*
%TO.P,J1,37,B13*%
%TO.N,/PG1*%
X91948000Y-46050000D03*
%TO.P,J1,38,B12*%
%TO.N,/PG2*%
X89408000Y-46050000D03*
%TO.P,J1,39,B11*%
%TO.N,/PG5*%
X86868000Y-46050000D03*
%TO.P,J1,40,B10*%
%TO.N,GND*%
X84328000Y-46050000D03*
%TO.P,J1,41,B9*%
%TO.N,+12V*%
X81788000Y-46050000D03*
%TO.P,J1,42,B8*%
%TO.N,/PJ0*%
X79248000Y-46050000D03*
%TO.P,J1,43,B7*%
%TO.N,-12V*%
X76708000Y-46050000D03*
%TO.P,J1,44,B6*%
%TO.N,/DRQ2*%
X74168000Y-46050000D03*
%TO.P,J1,45,B5*%
%TO.N,/-5V*%
X71628000Y-46050000D03*
%TO.P,J1,46,B4*%
%TO.N,/IRQ2*%
X69088000Y-46050000D03*
%TO.P,J1,47,B3*%
%TO.N,+5V*%
X66548000Y-46050000D03*
%TO.P,J1,48,B2*%
%TO.N,/PE0*%
X64008000Y-46050000D03*
%TO.P,J1,49,B1*%
%TO.N,GND*%
X61468000Y-46050000D03*
%TO.P,J1,50,C18*%
%TO.N,/PC7*%
X191008000Y-51130000D03*
%TO.P,J1,51,C17*%
%TO.N,/PC6*%
X188468000Y-51130000D03*
%TO.P,J1,52,C16*%
%TO.N,/PC5*%
X185928000Y-51130000D03*
%TO.P,J1,53,C15*%
%TO.N,/PC4*%
X183388000Y-51130000D03*
%TO.P,J1,54,C14*%
%TO.N,/PC3*%
X180848000Y-51130000D03*
%TO.P,J1,55,C13*%
%TO.N,/PC2*%
X178308000Y-51130000D03*
%TO.P,J1,56,C12*%
%TO.N,/PC1*%
X175768000Y-51130000D03*
%TO.P,J1,57,C11*%
%TO.N,/PC0*%
X173228000Y-51130000D03*
%TO.P,J1,58,C10*%
%TO.N,/PE5*%
X170688000Y-51130000D03*
%TO.P,J1,59,C9*%
%TO.N,/PE4*%
X168148000Y-51130000D03*
%TO.P,J1,60,C8*%
%TO.N,/LA17*%
X165608000Y-51130000D03*
%TO.P,J1,61,C7*%
%TO.N,/LA18*%
X163068000Y-51130000D03*
%TO.P,J1,62,C6*%
%TO.N,/LA19*%
X160528000Y-51130000D03*
%TO.P,J1,63,C5*%
%TO.N,/LA20*%
X157988000Y-51130000D03*
%TO.P,J1,64,C4*%
%TO.N,/LA21*%
X155448000Y-51130000D03*
%TO.P,J1,65,C3*%
%TO.N,/LA22*%
X152908000Y-51130000D03*
%TO.P,J1,66,C2*%
%TO.N,/LA23*%
X150368000Y-51130000D03*
%TO.P,J1,67,C1*%
%TO.N,/PE3*%
X147828000Y-51130000D03*
%TO.P,J1,68,A31*%
%TO.N,/A0*%
X137668000Y-51130000D03*
%TO.P,J1,69,A30*%
%TO.N,/A1*%
X135128000Y-51130000D03*
%TO.P,J1,70,A29*%
%TO.N,/A2*%
X132588000Y-51130000D03*
%TO.P,J1,71,A28*%
%TO.N,/A3*%
X130048000Y-51130000D03*
%TO.P,J1,72,A27*%
%TO.N,/A4*%
X127508000Y-51130000D03*
%TO.P,J1,73,A26*%
%TO.N,/A5*%
X124968000Y-51130000D03*
%TO.P,J1,74,A25*%
%TO.N,/A6*%
X122428000Y-51130000D03*
%TO.P,J1,75,A24*%
%TO.N,/A7*%
X119888000Y-51130000D03*
%TO.P,J1,76,A23*%
%TO.N,/A8*%
X117348000Y-51130000D03*
%TO.P,J1,77,A22*%
%TO.N,/A9*%
X114808000Y-51130000D03*
%TO.P,J1,78,A21*%
%TO.N,/A10*%
X112268000Y-51130000D03*
%TO.P,J1,79,A20*%
%TO.N,/A11*%
X109728000Y-51130000D03*
%TO.P,J1,80,A19*%
%TO.N,/A12*%
X107188000Y-51130000D03*
%TO.P,J1,81,A18*%
%TO.N,/A13*%
X104648000Y-51130000D03*
%TO.P,J1,82,A17*%
%TO.N,/A14*%
X102108000Y-51130000D03*
%TO.P,J1,83,A16*%
%TO.N,/A15*%
X99568000Y-51130000D03*
%TO.P,J1,84,A15*%
%TO.N,/A16*%
X97028000Y-51130000D03*
%TO.P,J1,85,A14*%
%TO.N,/A17*%
X94488000Y-51130000D03*
%TO.P,J1,86,A13*%
%TO.N,/A18*%
X91948000Y-51130000D03*
%TO.P,J1,87,A12*%
%TO.N,/A19*%
X89408000Y-51130000D03*
%TO.P,J1,88,A11*%
%TO.N,/AEN*%
X86868000Y-51130000D03*
%TO.P,J1,89,A10*%
%TO.N,/PH6*%
X84328000Y-51130000D03*
%TO.P,J1,90,A9*%
%TO.N,/D0*%
X81788000Y-51130000D03*
%TO.P,J1,91,A8*%
%TO.N,/D1*%
X79248000Y-51130000D03*
%TO.P,J1,92,A7*%
%TO.N,/D2*%
X76708000Y-51130000D03*
%TO.P,J1,93,A6*%
%TO.N,/D3*%
X74168000Y-51130000D03*
%TO.P,J1,94,A5*%
%TO.N,/D4*%
X71628000Y-51130000D03*
%TO.P,J1,95,A4*%
%TO.N,/D5*%
X69088000Y-51130000D03*
%TO.P,J1,96,A3*%
%TO.N,/D6*%
X66548000Y-51130000D03*
%TO.P,J1,97,A2*%
%TO.N,/D7*%
X64008000Y-51130000D03*
%TO.P,J1,98,A1*%
%TO.N,/~{IO_CH_CHK}*%
X61468000Y-51130000D03*
%TD*%
D16*
%TO.P,J2,1,Pin_1*%
%TO.N,+5V*%
X81788000Y-81788000D03*
D17*
%TO.P,J2,2,Pin_2*%
%TO.N,+12V*%
X81788000Y-85748000D03*
%TO.P,J2,3,Pin_3*%
%TO.N,-12V*%
X81788000Y-89708000D03*
%TO.P,J2,4,Pin_4*%
%TO.N,GND*%
X81788000Y-93668000D03*
%TO.P,J2,5,Pin_5*%
X81788000Y-97628000D03*
%TO.P,J2,6,Pin_6*%
X81788000Y-101588000D03*
%TD*%
D10*
%TO.P,C5,1*%
%TO.N,Net-(C5-Pad1)*%
X105156000Y-107335000D03*
%TO.P,C5,2*%
%TO.N,GND*%
X105156000Y-109835000D03*
%TD*%
D18*
%TO.P,U1,1,X1*%
%TO.N,Net-(C4-Pad1)*%
X109282000Y-98425000D03*
%TO.P,U1,2,VDD*%
%TO.N,+5V*%
X109282000Y-97155000D03*
%TO.P,U1,3,GND*%
%TO.N,GND*%
X109282000Y-95885000D03*
%TO.P,U1,4,S1*%
X109282000Y-94615000D03*
%TO.P,U1,5,CLK*%
%TO.N,/OSC_14M318*%
X104332000Y-94615000D03*
%TO.P,U1,6,S0*%
%TO.N,GND*%
X104332000Y-95885000D03*
%TO.P,U1,7,OE*%
%TO.N,+5V*%
X104332000Y-97155000D03*
%TO.P,U1,8,X2*%
%TO.N,Net-(C5-Pad1)*%
X104332000Y-98425000D03*
%TD*%
D19*
%TO.N,/PH4*%
X133928200Y-54641500D03*
%TO.N,/PH3*%
X135630200Y-54086600D03*
%TO.N,/PJ1*%
X149485800Y-49210100D03*
%TO.N,/OSC_14M318*%
X135637800Y-49056800D03*
X124866900Y-78958200D03*
%TO.N,/ALE*%
X139115500Y-53556800D03*
%TO.N,/PH5*%
X127606400Y-49577200D03*
%TO.N,/IRQ3*%
X144432400Y-55368200D03*
X150837100Y-95567900D03*
%TO.N,/IRQ5*%
X143691800Y-56098800D03*
X150123000Y-77622700D03*
%TO.N,/IRQ7*%
X135684900Y-57326900D03*
X145403700Y-92238500D03*
%TO.N,/DRQ1*%
X143455000Y-58052100D03*
X149787100Y-96414900D03*
%TO.N,/DRQ3*%
X165799300Y-67338200D03*
%TO.N,/PG0*%
X178298900Y-64165400D03*
%TO.N,/PG1*%
X88231600Y-75445300D03*
%TO.N,/PG2*%
X141907500Y-76317800D03*
X136910400Y-61412100D03*
%TO.N,/PG5*%
X102765300Y-61061500D03*
%TO.N,/IRQ2*%
X79932200Y-68609900D03*
%TO.N,/PE4*%
X139029400Y-57102300D03*
%TO.N,/PE3*%
X139637500Y-52009400D03*
%TO.N,/A0*%
X145593500Y-98242200D03*
%TO.N,/A2*%
X122384300Y-77422600D03*
%TO.N,/A3*%
X120826100Y-78153000D03*
%TO.N,/A11*%
X118870400Y-58315500D03*
%TO.N,/A13*%
X128873200Y-58942900D03*
%TO.N,/A15*%
X133166600Y-59785400D03*
%TO.N,/AEN*%
X89272700Y-75121000D03*
%TO.N,/PH6*%
X102746700Y-64572200D03*
%TO.N,/PC7*%
X177405400Y-74739700D03*
%TO.N,/PC5*%
X176997100Y-77709500D03*
%TD*%
D20*
%TO.N,GND*%
X102870000Y-95631000D02*
X103124000Y-95885000D01*
X103124000Y-95885000D02*
X104332000Y-95885000D01*
X102870000Y-93686000D02*
X102870000Y-95631000D01*
X104481000Y-92075000D02*
X102870000Y-93686000D01*
X104332000Y-95885000D02*
X109282000Y-95885000D01*
%TO.N,+5V*%
X101981000Y-92075000D02*
X101981000Y-97155000D01*
X100457000Y-97155000D02*
X101981000Y-97155000D01*
X101981000Y-97155000D02*
X104332000Y-97155000D01*
X104332000Y-97155000D02*
X109282000Y-97155000D01*
D21*
X56691000Y-52889838D02*
X56691000Y-42623000D01*
X79424000Y-79424000D02*
X79424000Y-71558837D01*
X123317000Y-118237000D02*
X122301000Y-118237000D01*
X177038000Y-118237000D02*
X181102000Y-114173000D01*
X197239000Y-40513000D02*
X185547000Y-40513000D01*
X57990000Y-41324000D02*
X66216000Y-41324000D01*
X123698000Y-117856000D02*
X123317000Y-118237000D01*
X185982894Y-62611000D02*
X194364894Y-62611000D01*
X116078000Y-117856000D02*
X116078000Y-114046000D01*
X132588000Y-41148000D02*
X133223000Y-40513000D01*
X56691000Y-42623000D02*
X57990000Y-41324000D01*
X185928000Y-40894000D02*
X185928000Y-46050000D01*
X123317000Y-118237000D02*
X177038000Y-118237000D01*
X99314000Y-79756000D02*
X100330000Y-80772000D01*
X116459000Y-118237000D02*
X116078000Y-117856000D01*
X100330000Y-117348000D02*
X101219000Y-118237000D01*
X199144000Y-42418000D02*
X197239000Y-40513000D01*
X123698000Y-114046000D02*
X123698000Y-117856000D01*
X185547000Y-40513000D02*
X185928000Y-40894000D01*
X117348000Y-118237000D02*
X116459000Y-118237000D01*
X122301000Y-118237000D02*
X123317000Y-118237000D01*
X199144000Y-57831894D02*
X199144000Y-42418000D01*
X181102000Y-114173000D02*
X181102000Y-65786000D01*
X74364162Y-70563000D02*
X56691000Y-52889838D01*
X132588000Y-46050000D02*
X132588000Y-41148000D01*
X88900000Y-81788000D02*
X90932000Y-79756000D01*
X174498000Y-65786000D02*
X181102000Y-65786000D01*
X81788000Y-81788000D02*
X79424000Y-79424000D01*
X100330000Y-80772000D02*
X100330000Y-97282000D01*
X100330000Y-97282000D02*
X100330000Y-117348000D01*
X81407000Y-82169000D02*
X81788000Y-81788000D01*
X122301000Y-118237000D02*
X117348000Y-118237000D01*
X78428163Y-70563000D02*
X74364162Y-70563000D01*
X181102000Y-65786000D02*
X182807894Y-65786000D01*
X101219000Y-118237000D02*
X116459000Y-118237000D01*
D22*
X100457000Y-97155000D02*
X100330000Y-97282000D01*
D21*
X66548000Y-41656000D02*
X66548000Y-46050000D01*
X81788000Y-81788000D02*
X88900000Y-81788000D01*
X133223000Y-40513000D02*
X185547000Y-40513000D01*
X66216000Y-41324000D02*
X66548000Y-41656000D01*
X116459000Y-118237000D02*
X117348000Y-118237000D01*
X79424000Y-71558837D02*
X78428163Y-70563000D01*
X182807894Y-65786000D02*
X185982894Y-62611000D01*
X194364894Y-62611000D02*
X199144000Y-57831894D01*
X90932000Y-79756000D02*
X99314000Y-79756000D01*
X171958000Y-65786000D02*
X174498000Y-65786000D01*
%TO.N,+12V*%
X55491000Y-53386894D02*
X55491000Y-42117106D01*
X79502000Y-83693000D02*
X78224000Y-82415000D01*
X97090400Y-85748000D02*
X98044000Y-86701600D01*
X55491000Y-42117106D02*
X57484106Y-40124000D01*
X81788000Y-85748000D02*
X97090400Y-85748000D01*
X73867106Y-71763000D02*
X55491000Y-53386894D01*
X77931107Y-71763000D02*
X73867106Y-71763000D01*
X79733000Y-83693000D02*
X79502000Y-83693000D01*
X80510000Y-40124000D02*
X81788000Y-41402000D01*
X81788000Y-85748000D02*
X79733000Y-83693000D01*
X57484106Y-40124000D02*
X80510000Y-40124000D01*
X81788000Y-41402000D02*
X81788000Y-46050000D01*
X78224000Y-82415000D02*
X78224000Y-72055893D01*
X78224000Y-72055893D02*
X77931107Y-71763000D01*
D23*
%TO.N,GND*%
X110998000Y-109835000D02*
X112129370Y-109835000D01*
X113030000Y-108934370D02*
X113030000Y-97409000D01*
X110236000Y-94615000D02*
X109282000Y-94615000D01*
D22*
X109282000Y-95655000D02*
X109282000Y-95885000D01*
X109282000Y-95885000D02*
X110998000Y-95885000D01*
D23*
X113030000Y-97409000D02*
X110236000Y-94615000D01*
X112129370Y-109835000D02*
X113030000Y-108934370D01*
X109282000Y-94615000D02*
X109282000Y-95655000D01*
D22*
%TO.N,/PH4*%
X143060500Y-54536800D02*
X142771400Y-54825900D01*
X163852700Y-54536800D02*
X143060500Y-54536800D01*
X177619200Y-49278800D02*
X168354900Y-49278800D01*
X142771400Y-54825900D02*
X134112600Y-54825900D01*
X166878000Y-51511500D02*
X163852700Y-54536800D01*
X166878000Y-50755700D02*
X166878000Y-51511500D01*
X168354900Y-49278800D02*
X166878000Y-50755700D01*
X180848000Y-46050000D02*
X177619200Y-49278800D01*
X134112600Y-54825900D02*
X133928200Y-54641500D01*
%TO.N,/PH3*%
X135630200Y-54086600D02*
X135825500Y-54281900D01*
X139738600Y-54281900D02*
X139933900Y-54086600D01*
X139933900Y-54086600D02*
X159236100Y-54086600D01*
X169537300Y-47200700D02*
X170688000Y-46050000D01*
X161798000Y-51524700D02*
X161798000Y-50768500D01*
X161798000Y-50768500D02*
X165365800Y-47200700D01*
X165365800Y-47200700D02*
X169537300Y-47200700D01*
X135825500Y-54281900D02*
X139738600Y-54281900D01*
X159236100Y-54086600D02*
X161798000Y-51524700D01*
%TO.N,/PJ1*%
X150368000Y-48327900D02*
X149485800Y-49210100D01*
X150368000Y-46050000D02*
X150368000Y-48327900D01*
%TO.N,/OSC_14M318*%
X135128000Y-46050000D02*
X135637800Y-46559800D01*
X135637800Y-46559800D02*
X135637800Y-49056800D01*
X119988800Y-78958200D02*
X104332000Y-94615000D01*
X124866900Y-78958200D02*
X119988800Y-78958200D01*
%TO.N,/ALE*%
X136278700Y-51373800D02*
X138461700Y-53556800D01*
X135607000Y-49923400D02*
X136278700Y-50595100D01*
X130048000Y-46050000D02*
X133921400Y-49923400D01*
X138461700Y-53556800D02*
X139115500Y-53556800D01*
X133921400Y-49923400D02*
X135607000Y-49923400D01*
X136278700Y-50595100D02*
X136278700Y-51373800D01*
%TO.N,/PH5*%
X127508000Y-46050000D02*
X127508000Y-49478800D01*
X127508000Y-49478800D02*
X127606400Y-49577200D01*
%TO.N,/IRQ3*%
X133600600Y-55368200D02*
X144432400Y-55368200D01*
X130513100Y-52280700D02*
X133600600Y-55368200D01*
X171958000Y-96266000D02*
X170769300Y-96266000D01*
X150837100Y-95567900D02*
X170071200Y-95567900D01*
X170071200Y-95567900D02*
X170769300Y-96266000D01*
X126238000Y-49860000D02*
X126238000Y-51504300D01*
X122428000Y-46050000D02*
X126238000Y-49860000D01*
X126238000Y-51504300D02*
X127014400Y-52280700D01*
X127014400Y-52280700D02*
X130513100Y-52280700D01*
%TO.N,/IRQ5*%
X175722000Y-91684800D02*
X175722000Y-88128300D01*
X157336300Y-84836000D02*
X150123000Y-77622700D01*
X117348000Y-46050000D02*
X120437400Y-49139400D01*
X174166900Y-87457200D02*
X173146800Y-86437100D01*
X173146800Y-86437100D02*
X173146800Y-85591600D01*
X123698000Y-50712200D02*
X123698000Y-51535500D01*
X125343400Y-53180900D02*
X130699800Y-53180900D01*
X174498000Y-92537300D02*
X174869500Y-92537300D01*
X174869500Y-92537300D02*
X175722000Y-91684800D01*
X122125200Y-49139400D02*
X123698000Y-50712200D01*
X123698000Y-51535500D02*
X125343400Y-53180900D01*
X130699800Y-53180900D02*
X133617700Y-56098800D01*
X175722000Y-88128300D02*
X175050900Y-87457200D01*
X172391200Y-84836000D02*
X157336300Y-84836000D01*
X175050900Y-87457200D02*
X174166900Y-87457200D01*
X120437400Y-49139400D02*
X122125200Y-49139400D01*
X133617700Y-56098800D02*
X143691800Y-56098800D01*
X173146800Y-85591600D02*
X172391200Y-84836000D01*
X174498000Y-93726000D02*
X174498000Y-92537300D01*
%TO.N,/IRQ7*%
X169281800Y-92238500D02*
X170769300Y-93726000D01*
X120097500Y-49708900D02*
X121158000Y-50769400D01*
X121158000Y-51489100D02*
X123750000Y-54081100D01*
X133905100Y-57326900D02*
X135684900Y-57326900D01*
X123750000Y-54081100D02*
X130659300Y-54081100D01*
X130659300Y-54081100D02*
X133905100Y-57326900D01*
X171958000Y-93726000D02*
X170769300Y-93726000D01*
X145403700Y-92238500D02*
X169281800Y-92238500D01*
X121158000Y-50769400D02*
X121158000Y-51489100D01*
X112268000Y-46050000D02*
X115926900Y-49708900D01*
X115926900Y-49708900D02*
X120097500Y-49708900D01*
%TO.N,/DRQ1*%
X129673700Y-54531300D02*
X119102100Y-54531300D01*
X143455000Y-58052100D02*
X133194500Y-58052100D01*
X119102100Y-54531300D02*
X116078000Y-51507200D01*
X149787100Y-96414900D02*
X153448200Y-100076000D01*
X116078000Y-50733800D02*
X112664200Y-47320000D01*
X105918000Y-47320000D02*
X104648000Y-46050000D01*
X133194500Y-58052100D02*
X129673700Y-54531300D01*
X153448200Y-100076000D02*
X172408700Y-100076000D01*
X116078000Y-51507200D02*
X116078000Y-50733800D01*
X173309300Y-100976600D02*
X173309300Y-101346000D01*
X172408700Y-100076000D02*
X173309300Y-100976600D01*
X174498000Y-101346000D02*
X173309300Y-101346000D01*
X112664200Y-47320000D02*
X105918000Y-47320000D01*
%TO.N,/DRQ3*%
X110998000Y-51514700D02*
X115434700Y-55951400D01*
X110998000Y-50740400D02*
X110998000Y-51514700D01*
X138802000Y-59809500D02*
X160072400Y-59809500D01*
X165799200Y-67338200D02*
X165799300Y-67338200D01*
X165799200Y-65536300D02*
X165799200Y-67338200D01*
X132581800Y-59053200D02*
X138045700Y-59053200D01*
X160072400Y-59809500D02*
X165799200Y-65536300D01*
X115434700Y-55951400D02*
X129480000Y-55951400D01*
X138045700Y-59053200D02*
X138802000Y-59809500D01*
X103133700Y-49615700D02*
X109873300Y-49615700D01*
X109873300Y-49615700D02*
X110998000Y-50740400D01*
X99568000Y-46050000D02*
X103133700Y-49615700D01*
X129480000Y-55951400D02*
X132581800Y-59053200D01*
%TO.N,/PG0*%
X138690400Y-58502300D02*
X138965900Y-58777800D01*
X100838000Y-46415400D02*
X103138100Y-48715500D01*
X94488000Y-46050000D02*
X95689300Y-44848700D01*
X113538000Y-50733100D02*
X113538000Y-51501000D01*
X117018500Y-54981500D02*
X129223700Y-54981500D01*
X95689300Y-44848700D02*
X100074800Y-44848700D01*
X171178300Y-49956700D02*
X171958000Y-50736400D01*
X103138100Y-48715500D02*
X111520400Y-48715500D01*
X170176700Y-49956700D02*
X171178300Y-49956700D01*
X138965900Y-58777800D02*
X162183900Y-58777800D01*
X111520400Y-48715500D02*
X113538000Y-50733100D01*
X171958000Y-57824500D02*
X178298900Y-64165400D01*
X113538000Y-51501000D02*
X117018500Y-54981500D01*
X162183900Y-58777800D02*
X169418000Y-51543700D01*
X132744500Y-58502300D02*
X138690400Y-58502300D01*
X169418000Y-50715400D02*
X170176700Y-49956700D01*
X100838000Y-45611900D02*
X100838000Y-46415400D01*
X169418000Y-51543700D02*
X169418000Y-50715400D01*
X100074800Y-44848700D02*
X100838000Y-45611900D01*
X129223700Y-54981500D02*
X132744500Y-58502300D01*
X171958000Y-50736400D02*
X171958000Y-57824500D01*
%TO.N,/PG1*%
X126904100Y-75650200D02*
X89769200Y-75650200D01*
X142439900Y-91186000D02*
X126904100Y-75650200D01*
X89769200Y-75650200D02*
X89545900Y-75873500D01*
X88659800Y-75873500D02*
X88231600Y-75445300D01*
X170769300Y-91186000D02*
X142439900Y-91186000D01*
X171958000Y-91186000D02*
X170769300Y-91186000D01*
X89545900Y-75873500D02*
X88659800Y-75873500D01*
%TO.N,/PG2*%
X172408700Y-87376000D02*
X173309300Y-88276600D01*
X117536500Y-59940800D02*
X127128700Y-59940800D01*
X174498000Y-88646000D02*
X173309300Y-88646000D01*
X115347500Y-57751800D02*
X117536500Y-59940800D01*
X98298000Y-51509400D02*
X101861100Y-55072500D01*
X141907500Y-76317800D02*
X142103200Y-76317800D01*
X101861100Y-55072500D02*
X111790000Y-55072500D01*
X127306000Y-60118100D02*
X132414200Y-60118100D01*
X92067300Y-48709300D02*
X96259700Y-48709300D01*
X89408000Y-46050000D02*
X92067300Y-48709300D01*
X114469300Y-57751800D02*
X115347500Y-57751800D01*
X96259700Y-48709300D02*
X98298000Y-50747600D01*
X142103200Y-76317800D02*
X153161400Y-87376000D01*
X173309300Y-88276600D02*
X173309300Y-88646000D01*
X133708200Y-61412100D02*
X136910400Y-61412100D01*
X127128700Y-59940800D02*
X127306000Y-60118100D01*
X111790000Y-55072500D02*
X114469300Y-57751800D01*
X153161400Y-87376000D02*
X172408700Y-87376000D01*
X132414200Y-60118100D02*
X133708200Y-61412100D01*
X98298000Y-50747600D02*
X98298000Y-51509400D01*
%TO.N,/PG5*%
X128581600Y-63872900D02*
X130129300Y-65420600D01*
X131318000Y-65786000D02*
X130129300Y-65786000D01*
X116231000Y-63091500D02*
X124868100Y-63091500D01*
X125649500Y-63872900D02*
X128581600Y-63872900D01*
X124868100Y-63091500D02*
X125649500Y-63872900D01*
X114201000Y-61061500D02*
X116231000Y-63091500D01*
X102765300Y-61061500D02*
X114201000Y-61061500D01*
X130129300Y-65420600D02*
X130129300Y-65786000D01*
%TO.N,/PJ0*%
X113536800Y-60002300D02*
X114415000Y-60002300D01*
X110857500Y-57323000D02*
X113536800Y-60002300D01*
X149098000Y-65786000D02*
X147909300Y-65786000D01*
X114415000Y-60002300D02*
X116604000Y-62191300D01*
X81907300Y-48709300D02*
X83559700Y-48709300D01*
X83559700Y-48709300D02*
X85598000Y-50747600D01*
X116604000Y-62191300D02*
X125241100Y-62191300D01*
X125241100Y-62191300D02*
X125616600Y-62566800D01*
X85598000Y-51499100D02*
X91421900Y-57323000D01*
X146430300Y-63937600D02*
X147909300Y-65416600D01*
X125616600Y-62566800D02*
X128828000Y-62566800D01*
X128828000Y-62566800D02*
X130198800Y-63937600D01*
X147909300Y-65416600D02*
X147909300Y-65786000D01*
X79248000Y-46050000D02*
X81907300Y-48709300D01*
X91421900Y-57323000D02*
X110857500Y-57323000D01*
X85598000Y-50747600D02*
X85598000Y-51499100D01*
X130198800Y-63937600D02*
X146430300Y-63937600D01*
%TO.N,/IRQ2*%
X125156200Y-76108300D02*
X89947700Y-76108300D01*
X151290700Y-94996000D02*
X151137500Y-94842800D01*
X87658700Y-76336400D02*
X79932200Y-68609900D01*
X173309300Y-95896600D02*
X172408700Y-94996000D01*
X89719600Y-76336400D02*
X87658700Y-76336400D01*
X173309300Y-96266000D02*
X173309300Y-95896600D01*
X151137500Y-94842800D02*
X143890700Y-94842800D01*
X174498000Y-96266000D02*
X173309300Y-96266000D01*
X172408700Y-94996000D02*
X151290700Y-94996000D01*
X89947700Y-76108300D02*
X89719600Y-76336400D01*
X143890700Y-94842800D02*
X125156200Y-76108300D01*
%TO.N,/PE0*%
X114228500Y-60452400D02*
X116417500Y-62641400D01*
X141478000Y-65786000D02*
X140289300Y-65786000D01*
X67874800Y-49916800D02*
X82202200Y-49916800D01*
X140289300Y-65456100D02*
X140289300Y-65786000D01*
X83058000Y-50772600D02*
X83058000Y-51515600D01*
X89315500Y-57773100D02*
X110671000Y-57773100D01*
X130012300Y-64387700D02*
X139220900Y-64387700D01*
X125430100Y-63016900D02*
X128641500Y-63016900D01*
X139220900Y-64387700D02*
X140289300Y-65456100D01*
X110671000Y-57773100D02*
X113350300Y-60452400D01*
X113350300Y-60452400D02*
X114228500Y-60452400D01*
X125054600Y-62641400D02*
X125430100Y-63016900D01*
X83058000Y-51515600D02*
X89315500Y-57773100D01*
X64008000Y-46050000D02*
X67874800Y-49916800D01*
X116417500Y-62641400D02*
X125054600Y-62641400D01*
X82202200Y-49916800D02*
X83058000Y-50772600D01*
X128641500Y-63016900D02*
X130012300Y-64387700D01*
%TO.N,/PE5*%
X168620300Y-68063300D02*
X170244300Y-66439300D01*
X136954500Y-68063300D02*
X168620300Y-68063300D01*
X135046700Y-66155500D02*
X136954500Y-68063300D01*
X133858000Y-65786000D02*
X135046700Y-65786000D01*
X135046700Y-65786000D02*
X135046700Y-66155500D01*
X170244300Y-51573700D02*
X170688000Y-51130000D01*
X170244300Y-66439300D02*
X170244300Y-51573700D01*
%TO.N,/PE4*%
X162175700Y-57102300D02*
X139029400Y-57102300D01*
X168148000Y-51130000D02*
X162175700Y-57102300D01*
%TO.N,/PE3*%
X140516900Y-51130000D02*
X139637500Y-52009400D01*
X147828000Y-51130000D02*
X140516900Y-51130000D01*
%TO.N,/A0*%
X145593500Y-98242200D02*
X152507300Y-105156000D01*
X174498000Y-106426000D02*
X173309300Y-106426000D01*
X152507300Y-105156000D02*
X172408700Y-105156000D01*
X173309300Y-106056600D02*
X173309300Y-106426000D01*
X172408700Y-105156000D02*
X173309300Y-106056600D01*
%TO.N,/A2*%
X173309300Y-103886000D02*
X173309300Y-103516600D01*
X173309300Y-103516600D02*
X172408700Y-102616000D01*
X125493800Y-77422600D02*
X122384300Y-77422600D01*
X172408700Y-102616000D02*
X151629400Y-102616000D01*
X174498000Y-103886000D02*
X173309300Y-103886000D01*
X145125000Y-97053800D02*
X125493800Y-77422600D01*
X151629400Y-102616000D02*
X146067200Y-97053800D01*
X146067200Y-97053800D02*
X145125000Y-97053800D01*
%TO.N,/A3*%
X171958000Y-103886000D02*
X152262800Y-103886000D01*
X145893900Y-97517100D02*
X144951700Y-97517100D01*
X152262800Y-103886000D02*
X145893900Y-97517100D01*
X125587600Y-78153000D02*
X120826100Y-78153000D01*
X144951700Y-97517100D02*
X125587600Y-78153000D01*
%TO.N,/A11*%
X109728000Y-51130000D02*
X109826300Y-51130000D01*
X109826300Y-51130000D02*
X115097800Y-56401500D01*
X116956400Y-56401500D02*
X118870400Y-58315500D01*
X115097800Y-56401500D02*
X116956400Y-56401500D01*
%TO.N,/A13*%
X110526700Y-52467100D02*
X114911200Y-56851600D01*
X114911200Y-56851600D02*
X115720500Y-56851600D01*
X104648000Y-51130000D02*
X105985100Y-52467100D01*
X128775500Y-59040600D02*
X128873200Y-58942900D01*
X105985100Y-52467100D02*
X110526700Y-52467100D01*
X117909500Y-59040600D02*
X128775500Y-59040600D01*
X115720500Y-56851600D02*
X117909500Y-59040600D01*
%TO.N,/A15*%
X127810700Y-59668000D02*
X133049200Y-59668000D01*
X117723000Y-59490700D02*
X127633400Y-59490700D01*
X115534000Y-57301700D02*
X117723000Y-59490700D01*
X99568000Y-51130000D02*
X102394700Y-53956700D01*
X111379600Y-53956700D02*
X114724600Y-57301700D01*
X102394700Y-53956700D02*
X111379600Y-53956700D01*
X114724600Y-57301700D02*
X115534000Y-57301700D01*
X127633400Y-59490700D02*
X127810700Y-59668000D01*
X133049200Y-59668000D02*
X133166600Y-59785400D01*
%TO.N,/A16*%
X163149300Y-65416600D02*
X163149300Y-65786000D01*
X164338000Y-65786000D02*
X163149300Y-65786000D01*
X101420600Y-55522600D02*
X111603500Y-55522600D01*
X126250400Y-60390900D02*
X126587200Y-60727700D01*
X126587200Y-60727700D02*
X132387000Y-60727700D01*
X114282800Y-58201900D02*
X115161000Y-58201900D01*
X132387000Y-60727700D02*
X133796500Y-62137200D01*
X117350000Y-60390900D02*
X126250400Y-60390900D01*
X159869900Y-62137200D02*
X163149300Y-65416600D01*
X97028000Y-51130000D02*
X101420600Y-55522600D01*
X115161000Y-58201900D02*
X117350000Y-60390900D01*
X111603500Y-55522600D02*
X114282800Y-58201900D01*
X133796500Y-62137200D02*
X159869900Y-62137200D01*
%TO.N,/A17*%
X157780000Y-62587300D02*
X160609300Y-65416600D01*
X126439400Y-61216500D02*
X129387500Y-61216500D01*
X117163500Y-60841000D02*
X126063900Y-60841000D01*
X129387500Y-61216500D02*
X130758300Y-62587300D01*
X114096300Y-58652000D02*
X114974500Y-58652000D01*
X160609300Y-65416600D02*
X160609300Y-65786000D01*
X114974500Y-58652000D02*
X117163500Y-60841000D01*
X130758300Y-62587300D02*
X157780000Y-62587300D01*
X111417000Y-55972700D02*
X114096300Y-58652000D01*
X99330700Y-55972700D02*
X111417000Y-55972700D01*
X161798000Y-65786000D02*
X160609300Y-65786000D01*
X94488000Y-51130000D02*
X99330700Y-55972700D01*
X126063900Y-60841000D02*
X126439400Y-61216500D01*
%TO.N,/A18*%
X155690100Y-63037400D02*
X158069300Y-65416600D01*
X130571800Y-63037400D02*
X155690100Y-63037400D01*
X91948000Y-51130000D02*
X97240800Y-56422800D01*
X113909800Y-59102100D02*
X114788000Y-59102100D01*
X125877400Y-61291100D02*
X126252900Y-61666600D01*
X114788000Y-59102100D02*
X116977000Y-61291100D01*
X111230500Y-56422800D02*
X113909800Y-59102100D01*
X116977000Y-61291100D02*
X125877400Y-61291100D01*
X97240800Y-56422800D02*
X111230500Y-56422800D01*
X158069300Y-65416600D02*
X158069300Y-65786000D01*
X129201000Y-61666600D02*
X130571800Y-63037400D01*
X159258000Y-65786000D02*
X158069300Y-65786000D01*
X126252900Y-61666600D02*
X129201000Y-61666600D01*
%TO.N,/A19*%
X126066400Y-62116700D02*
X129014500Y-62116700D01*
X155529300Y-65416600D02*
X155529300Y-65786000D01*
X130385300Y-63487500D02*
X153600200Y-63487500D01*
X114601500Y-59552200D02*
X116790500Y-61741200D01*
X156718000Y-65786000D02*
X155529300Y-65786000D01*
X113723300Y-59552200D02*
X114601500Y-59552200D01*
X129014500Y-62116700D02*
X130385300Y-63487500D01*
X95150900Y-56872900D02*
X111044000Y-56872900D01*
X111044000Y-56872900D02*
X113723300Y-59552200D01*
X125690900Y-61741200D02*
X126066400Y-62116700D01*
X89408000Y-51130000D02*
X95150900Y-56872900D01*
X153600200Y-63487500D02*
X155529300Y-65416600D01*
X116790500Y-61741200D02*
X125690900Y-61741200D01*
%TO.N,/AEN*%
X171958000Y-88646000D02*
X170769300Y-88646000D01*
X127805100Y-75121000D02*
X89272700Y-75121000D01*
X170769300Y-88646000D02*
X141330100Y-88646000D01*
X141330100Y-88646000D02*
X127805100Y-75121000D01*
%TO.N,/PH6*%
X115060900Y-64572200D02*
X102746700Y-64572200D01*
X115905300Y-65786000D02*
X115905300Y-65416600D01*
X115905300Y-65416600D02*
X115060900Y-64572200D01*
X117094000Y-65786000D02*
X115905300Y-65786000D01*
%TO.N,/D0*%
X124968000Y-65374800D02*
X124968000Y-66274900D01*
X123134800Y-63541600D02*
X124968000Y-65374800D01*
X171958000Y-68326000D02*
X170769300Y-68326000D01*
X116044500Y-63541600D02*
X123134800Y-63541600D01*
X81788000Y-51130000D02*
X93230300Y-62572300D01*
X127252800Y-68559700D02*
X170535600Y-68559700D01*
X115075200Y-62572300D02*
X116044500Y-63541600D01*
X170535600Y-68559700D02*
X170769300Y-68326000D01*
X124968000Y-66274900D02*
X127252800Y-68559700D01*
X93230300Y-62572300D02*
X115075200Y-62572300D01*
%TO.N,/D1*%
X125726800Y-69516600D02*
X172488100Y-69516600D01*
X120201900Y-63991700D02*
X125726800Y-69516600D01*
X115113800Y-63247500D02*
X115858000Y-63991700D01*
X115858000Y-63991700D02*
X120201900Y-63991700D01*
X172488100Y-69516600D02*
X173309300Y-68695400D01*
X174498000Y-68326000D02*
X173309300Y-68326000D01*
X79248000Y-51130000D02*
X91365500Y-63247500D01*
X173309300Y-68695400D02*
X173309300Y-68326000D01*
X91365500Y-63247500D02*
X115113800Y-63247500D01*
%TO.N,/D2*%
X76708000Y-51130000D02*
X89383000Y-63805000D01*
X115671500Y-64441800D02*
X120015300Y-64441800D01*
X89383000Y-63805000D02*
X115034700Y-63805000D01*
X126439500Y-70866000D02*
X171958000Y-70866000D01*
X120015300Y-64441800D02*
X126439500Y-70866000D01*
X115034700Y-63805000D02*
X115671500Y-64441800D01*
%TO.N,/D3*%
X173309300Y-71235400D02*
X172488100Y-72056600D01*
X174498000Y-70866000D02*
X173309300Y-70866000D01*
X95094600Y-72056600D02*
X74168000Y-51130000D01*
X172488100Y-72056600D02*
X95094600Y-72056600D01*
X173309300Y-70866000D02*
X173309300Y-71235400D01*
%TO.N,/D4*%
X93411500Y-72913500D02*
X170276800Y-72913500D01*
X171958000Y-73406000D02*
X170769300Y-73406000D01*
X170276800Y-72913500D02*
X170769300Y-73406000D01*
X71628000Y-51130000D02*
X93411500Y-72913500D01*
%TO.N,/D5*%
X91355600Y-73397600D02*
X69088000Y-51130000D01*
X172461300Y-74595700D02*
X130726200Y-74595700D01*
X130726200Y-74595700D02*
X129528100Y-73397600D01*
X173309300Y-73747700D02*
X172461300Y-74595700D01*
X173309300Y-73406000D02*
X173309300Y-73747700D01*
X129528100Y-73397600D02*
X91355600Y-73397600D01*
X174498000Y-73406000D02*
X173309300Y-73406000D01*
%TO.N,/D6*%
X169869200Y-75045900D02*
X170769300Y-75946000D01*
X171958000Y-75946000D02*
X170769300Y-75946000D01*
X66548000Y-51130000D02*
X89265700Y-73847700D01*
X89265700Y-73847700D02*
X129341600Y-73847700D01*
X129341600Y-73847700D02*
X130539800Y-75045900D01*
X130539800Y-75045900D02*
X169869200Y-75045900D01*
%TO.N,/D7*%
X174498000Y-75946000D02*
X173309300Y-75946000D01*
X173309300Y-76315400D02*
X172488100Y-77136600D01*
X173309300Y-75946000D02*
X173309300Y-76315400D01*
X87255800Y-74377800D02*
X64008000Y-51130000D01*
X129193200Y-75592700D02*
X127978300Y-74377800D01*
X172488100Y-77136600D02*
X150662400Y-77136600D01*
X149118500Y-75592700D02*
X129193200Y-75592700D01*
X150662400Y-77136600D02*
X149118500Y-75592700D01*
X127978300Y-74377800D02*
X87255800Y-74377800D01*
%TO.N,Net-(C4-Pad1)*%
X110474000Y-102870000D02*
X110474000Y-99617000D01*
X110998000Y-107335000D02*
X110998000Y-103394000D01*
X110474000Y-99617000D02*
X109282000Y-98425000D01*
X110998000Y-103394000D02*
X110474000Y-102870000D01*
%TO.N,Net-(C5-Pad1)*%
X105594000Y-99687000D02*
X104332000Y-98425000D01*
X105156000Y-103308000D02*
X105594000Y-102870000D01*
X105594000Y-102870000D02*
X105594000Y-99687000D01*
X105156000Y-107335000D02*
X105156000Y-103308000D01*
%TO.N,/PC7*%
X174128400Y-77134800D02*
X173146700Y-78116500D01*
X175010300Y-77134800D02*
X174128400Y-77134800D01*
X173146700Y-78116500D02*
X173146700Y-78486000D01*
X171958000Y-78486000D02*
X173146700Y-78486000D01*
X177405400Y-74739700D02*
X175010300Y-77134800D01*
%TO.N,/PC5*%
X171958000Y-81026000D02*
X173146700Y-81026000D01*
X176997100Y-77709500D02*
X174950600Y-79756000D01*
X174950600Y-79756000D02*
X174047200Y-79756000D01*
X173146700Y-80656500D02*
X173146700Y-81026000D01*
X174047200Y-79756000D02*
X173146700Y-80656500D01*
%TO.N,/PC2*%
X176368700Y-64556700D02*
X171485300Y-64556700D01*
X174909700Y-67056000D02*
X178141000Y-70287300D01*
X170731900Y-66271800D02*
X171516100Y-67056000D01*
X174867400Y-82377300D02*
X174498000Y-82377300D01*
X178646100Y-64903900D02*
X176715900Y-64903900D01*
X171516100Y-67056000D02*
X174909700Y-67056000D01*
X171485300Y-64556700D02*
X170731900Y-65310100D01*
X179044600Y-51866600D02*
X179044600Y-64505400D01*
X179044600Y-64505400D02*
X178646100Y-64903900D01*
X178308000Y-51130000D02*
X179044600Y-51866600D01*
X170731900Y-65310100D02*
X170731900Y-66271800D01*
X178141000Y-70287300D02*
X178141000Y-79103700D01*
X174498000Y-83566000D02*
X174498000Y-82377300D01*
X176715900Y-64903900D02*
X176368700Y-64556700D01*
X178141000Y-79103700D02*
X174867400Y-82377300D01*
%TD*%
M02*
