M48
; DRILL file {KiCad (6.0.11)} date Tue Mar 28 13:09:07 2023
; FORMAT={-:-/ absolute / inch / decimal}
; #@! TF.CreationDate,2023-03-28T13:09:07-06:00
; #@! TF.GenerationSoftware,Kicad,Pcbnew,(6.0.11)
; #@! TF.FileFunction,Plated,1,2,PTH
FMAT,2
INCH
; #@! TA.AperFunction,Plated,PTH,ViaDrill
T1C0.0157
; #@! TA.AperFunction,Plated,PTH,ComponentDrill
T2C0.0315
; #@! TA.AperFunction,Plated,PTH,ComponentDrill
T3C0.0400
; #@! TA.AperFunction,Plated,PTH,ComponentDrill
T4C0.0450
; #@! TA.AperFunction,Plated,PTH,ComponentDrill
T5C0.0669
%
G90
G05
T1
X3.4916Y-2.765
X3.5218Y-2.7324
X3.5768Y-2.7454
X4.0452Y-2.5422
X4.0855Y-2.4436
X4.3816Y-2.3037
X4.693Y-2.2663
X4.7887Y-2.3167
X4.7931Y-2.2766
X4.8255Y-2.2421
X4.9129Y-2.1551
X4.9746Y-2.2576
X5.1915Y-2.1003
X5.1943Y-2.2693
X5.4049Y-2.208
X5.4363Y-2.2403
X5.5843Y-2.2982
X5.645Y-2.3175
X5.7851Y-2.0693
X6.0769Y-3.4375
X6.0981Y-3.7864
X6.1929Y-2.9125
X6.2087Y-3.4449
X6.2156Y-3.0175
X6.5727Y-3.0521
X6.59Y-2.4941
X6.7288Y-3.34
X6.8713Y-2.5225
X6.9106Y-2.3132
X6.9206Y-3.8534
X6.9584Y-3.7287
X7.0467Y-2.6388
X7.2273Y-2.0699
T2
X3.58Y-3.0416
X3.58Y-3.14
X3.765Y-3.7331
X3.765Y-3.8316
X3.86Y-3.4134
X3.86Y-3.5119
X4.015Y-3.625
X4.1134Y-3.625
X4.14Y-4.2258
X4.14Y-4.3242
X4.1572Y-4.05
X4.3494Y-4.05
X4.37Y-4.2258
X4.37Y-4.3242
T3
X3.81Y-2.59
X3.91Y-2.59
X4.01Y-2.59
X4.11Y-2.59
X4.17Y-4.49
X4.21Y-2.59
X4.27Y-4.49
X4.31Y-2.59
X4.37Y-4.49
X4.41Y-2.59
X4.47Y-4.49
X4.51Y-2.59
X4.57Y-4.49
X4.61Y-2.59
X4.67Y-4.49
X4.71Y-2.59
X4.77Y-4.49
X4.87Y-2.59
X4.87Y-4.49
X4.97Y-2.59
X5.07Y-2.59
X5.07Y-4.49
X5.17Y-2.59
X5.17Y-4.49
X5.27Y-2.59
X5.27Y-4.49
X5.37Y-2.59
X5.37Y-4.49
X5.47Y-2.59
X5.47Y-4.49
X5.57Y-2.59
X5.57Y-4.49
X5.67Y-4.49
X5.77Y-2.59
X5.77Y-4.49
X5.87Y-2.59
X5.97Y-2.59
X5.97Y-4.49
X6.07Y-2.59
X6.07Y-4.49
X6.17Y-2.59
X6.17Y-4.49
X6.27Y-2.59
X6.27Y-4.49
X6.37Y-2.59
X6.37Y-4.49
X6.47Y-2.59
X6.47Y-4.49
X6.57Y-4.49
X6.67Y-4.49
X6.77Y-2.59
X6.77Y-2.69
X6.77Y-2.79
X6.77Y-2.89
X6.77Y-2.99
X6.77Y-3.09
X6.77Y-3.19
X6.77Y-3.29
X6.77Y-3.39
X6.77Y-3.49
X6.77Y-3.59
X6.77Y-3.69
X6.77Y-3.79
X6.77Y-3.89
X6.77Y-3.99
X6.77Y-4.09
X6.77Y-4.19
X6.77Y-4.29
X6.87Y-2.59
X6.87Y-2.69
X6.87Y-2.79
X6.87Y-2.89
X6.87Y-2.99
X6.87Y-3.09
X6.87Y-3.19
X6.87Y-3.29
X6.87Y-3.39
X6.87Y-3.49
X6.87Y-3.59
X6.87Y-3.69
X6.87Y-3.79
X6.87Y-3.89
X6.87Y-3.99
X6.87Y-4.09
X6.87Y-4.19
X6.87Y-4.29
T4
X2.42Y-1.813
X2.42Y-2.013
X2.52Y-1.813
X2.52Y-2.013
X2.62Y-1.813
X2.62Y-2.013
X2.72Y-1.813
X2.72Y-2.013
X2.82Y-1.813
X2.82Y-2.013
X2.92Y-1.813
X2.92Y-2.013
X3.02Y-1.813
X3.02Y-2.013
X3.12Y-1.813
X3.12Y-2.013
X3.22Y-1.813
X3.22Y-2.013
X3.32Y-1.813
X3.32Y-2.013
X3.42Y-1.813
X3.42Y-2.013
X3.52Y-1.813
X3.52Y-2.013
X3.62Y-1.813
X3.62Y-2.013
X3.72Y-1.813
X3.72Y-2.013
X3.82Y-1.813
X3.82Y-2.013
X3.92Y-1.813
X3.92Y-2.013
X4.02Y-1.813
X4.02Y-2.013
X4.12Y-1.813
X4.12Y-2.013
X4.22Y-1.813
X4.22Y-2.013
X4.32Y-1.813
X4.32Y-2.013
X4.42Y-1.813
X4.42Y-2.013
X4.52Y-1.813
X4.52Y-2.013
X4.62Y-1.813
X4.62Y-2.013
X4.72Y-1.813
X4.72Y-2.013
X4.82Y-1.813
X4.82Y-2.013
X4.92Y-1.813
X4.92Y-2.013
X5.02Y-1.813
X5.02Y-2.013
X5.12Y-1.813
X5.12Y-2.013
X5.22Y-1.813
X5.22Y-2.013
X5.32Y-1.813
X5.32Y-2.013
X5.42Y-1.813
X5.42Y-2.013
X5.82Y-1.813
X5.82Y-2.013
X5.92Y-1.813
X5.92Y-2.013
X6.02Y-1.813
X6.02Y-2.013
X6.12Y-1.813
X6.12Y-2.013
X6.22Y-1.813
X6.22Y-2.013
X6.32Y-1.813
X6.32Y-2.013
X6.42Y-1.813
X6.42Y-2.013
X6.52Y-1.813
X6.52Y-2.013
X6.62Y-1.813
X6.62Y-2.013
X6.72Y-1.813
X6.72Y-2.013
X6.82Y-1.813
X6.82Y-2.013
X6.92Y-1.813
X6.92Y-2.013
X7.02Y-1.813
X7.02Y-2.013
X7.12Y-1.813
X7.12Y-2.013
X7.22Y-1.813
X7.22Y-2.013
X7.32Y-1.813
X7.32Y-2.013
X7.42Y-1.813
X7.42Y-2.013
X7.52Y-1.813
X7.52Y-2.013
T5
X3.355Y-3.22
X3.355Y-3.3759
X3.355Y-3.5318
X3.355Y-3.6877
X3.355Y-3.8436
X3.355Y-3.9995
T0
M30
