M48
; DRILL file {KiCad (6.0.11)} date Sat Mar 11 14:29:25 2023
; FORMAT={-:-/ absolute / inch / decimal}
; #@! TF.CreationDate,2023-03-11T14:29:25-07:00
; #@! TF.GenerationSoftware,Kicad,Pcbnew,(6.0.11)
; #@! TF.FileFunction,Plated,1,2,PTH
FMAT,2
INCH
; #@! TA.AperFunction,Plated,PTH,ViaDrill
T1C0.0157
; #@! TA.AperFunction,Plated,PTH,ComponentDrill
T2C0.0315
; #@! TA.AperFunction,Plated,PTH,ComponentDrill
T3C0.0400
; #@! TA.AperFunction,Plated,PTH,ComponentDrill
T4C0.0450
; #@! TA.AperFunction,Plated,PTH,ComponentDrill
T5C0.0669
%
G90
G05
T1
X3.1469Y-2.7012
X3.4737Y-2.9703
X3.5147Y-2.9575
X4.0451Y-2.5422
X4.0459Y-2.404
X4.6799Y-2.2959
X4.7569Y-3.0769
X4.8183Y-3.0481
X4.916Y-3.1086
X5.0239Y-1.9519
X5.0737Y-2.3206
X5.2428Y-2.3538
X5.2728Y-2.1512
X5.3398Y-2.1294
X5.3401Y-1.9314
X5.3419Y-2.257
X5.3902Y-2.4178
X5.4736Y-2.2481
X5.477Y-2.1085
X5.4975Y-2.0476
X5.5869Y-3.0046
X5.6478Y-2.2855
X5.6572Y-2.2086
X5.6863Y-2.1799
X5.7246Y-3.6314
X5.732Y-3.8678
X5.8853Y-1.9374
X5.8971Y-3.7959
X5.9104Y-3.056
X5.9385Y-3.7625
X6.5275Y-2.6511
X6.9684Y-3.0594
X6.9845Y-2.9425
X7.0196Y-2.5262
T2
X3.55Y-3.5681
X3.55Y-3.6666
X3.58Y-3.0416
X3.58Y-3.14
X3.86Y-3.4134
X3.86Y-3.5119
X4.015Y-3.625
X4.1134Y-3.625
X4.14Y-4.2258
X4.14Y-4.3242
X4.1572Y-4.05
X4.3494Y-4.05
X4.37Y-4.2258
X4.37Y-4.3242
T3
X3.81Y-2.59
X3.91Y-2.59
X4.01Y-2.59
X4.11Y-2.59
X4.17Y-4.49
X4.21Y-2.59
X4.27Y-4.49
X4.31Y-2.59
X4.37Y-4.49
X4.41Y-2.59
X4.47Y-4.49
X4.51Y-2.59
X4.57Y-4.49
X4.61Y-2.59
X4.67Y-4.49
X4.71Y-2.59
X4.77Y-4.49
X4.87Y-2.59
X4.87Y-4.49
X4.97Y-2.59
X5.07Y-2.59
X5.07Y-4.49
X5.17Y-2.59
X5.17Y-4.49
X5.27Y-2.59
X5.27Y-4.49
X5.37Y-2.59
X5.37Y-4.49
X5.47Y-2.59
X5.47Y-4.49
X5.57Y-2.59
X5.57Y-4.49
X5.67Y-4.49
X5.77Y-2.59
X5.77Y-4.49
X5.87Y-2.59
X5.97Y-2.59
X5.97Y-4.49
X6.07Y-2.59
X6.07Y-4.49
X6.17Y-2.59
X6.17Y-4.49
X6.27Y-2.59
X6.27Y-4.49
X6.37Y-2.59
X6.37Y-4.49
X6.47Y-2.59
X6.47Y-4.49
X6.57Y-4.49
X6.67Y-4.49
X6.77Y-2.59
X6.77Y-2.69
X6.77Y-2.79
X6.77Y-2.89
X6.77Y-2.99
X6.77Y-3.09
X6.77Y-3.19
X6.77Y-3.29
X6.77Y-3.39
X6.77Y-3.49
X6.77Y-3.59
X6.77Y-3.69
X6.77Y-3.79
X6.77Y-3.89
X6.77Y-3.99
X6.77Y-4.09
X6.77Y-4.19
X6.77Y-4.29
X6.87Y-2.59
X6.87Y-2.69
X6.87Y-2.79
X6.87Y-2.89
X6.87Y-2.99
X6.87Y-3.09
X6.87Y-3.19
X6.87Y-3.29
X6.87Y-3.39
X6.87Y-3.49
X6.87Y-3.59
X6.87Y-3.69
X6.87Y-3.79
X6.87Y-3.89
X6.87Y-3.99
X6.87Y-4.09
X6.87Y-4.19
X6.87Y-4.29
T4
X2.42Y-1.813
X2.42Y-2.013
X2.52Y-1.813
X2.52Y-2.013
X2.62Y-1.813
X2.62Y-2.013
X2.72Y-1.813
X2.72Y-2.013
X2.82Y-1.813
X2.82Y-2.013
X2.92Y-1.813
X2.92Y-2.013
X3.02Y-1.813
X3.02Y-2.013
X3.12Y-1.813
X3.12Y-2.013
X3.22Y-1.813
X3.22Y-2.013
X3.32Y-1.813
X3.32Y-2.013
X3.42Y-1.813
X3.42Y-2.013
X3.52Y-1.813
X3.52Y-2.013
X3.62Y-1.813
X3.62Y-2.013
X3.72Y-1.813
X3.72Y-2.013
X3.82Y-1.813
X3.82Y-2.013
X3.92Y-1.813
X3.92Y-2.013
X4.02Y-1.813
X4.02Y-2.013
X4.12Y-1.813
X4.12Y-2.013
X4.22Y-1.813
X4.22Y-2.013
X4.32Y-1.813
X4.32Y-2.013
X4.42Y-1.813
X4.42Y-2.013
X4.52Y-1.813
X4.52Y-2.013
X4.62Y-1.813
X4.62Y-2.013
X4.72Y-1.813
X4.72Y-2.013
X4.82Y-1.813
X4.82Y-2.013
X4.92Y-1.813
X4.92Y-2.013
X5.02Y-1.813
X5.02Y-2.013
X5.12Y-1.813
X5.12Y-2.013
X5.22Y-1.813
X5.22Y-2.013
X5.32Y-1.813
X5.32Y-2.013
X5.42Y-1.813
X5.42Y-2.013
X5.82Y-1.813
X5.82Y-2.013
X5.92Y-1.813
X5.92Y-2.013
X6.02Y-1.813
X6.02Y-2.013
X6.12Y-1.813
X6.12Y-2.013
X6.22Y-1.813
X6.22Y-2.013
X6.32Y-1.813
X6.32Y-2.013
X6.42Y-1.813
X6.42Y-2.013
X6.52Y-1.813
X6.52Y-2.013
X6.62Y-1.813
X6.62Y-2.013
X6.72Y-1.813
X6.72Y-2.013
X6.82Y-1.813
X6.82Y-2.013
X6.92Y-1.813
X6.92Y-2.013
X7.02Y-1.813
X7.02Y-2.013
X7.12Y-1.813
X7.12Y-2.013
X7.22Y-1.813
X7.22Y-2.013
X7.32Y-1.813
X7.32Y-2.013
X7.42Y-1.813
X7.42Y-2.013
X7.52Y-1.813
X7.52Y-2.013
T5
X3.22Y-3.22
X3.22Y-3.3759
X3.22Y-3.5318
X3.22Y-3.6877
X3.22Y-3.8436
X3.22Y-3.9995
T0
M30
