M48
; DRILL file {KiCad (6.0.11)} date Sat Apr  1 14:18:46 2023
; FORMAT={-:-/ absolute / inch / decimal}
; #@! TF.CreationDate,2023-04-01T14:18:46-06:00
; #@! TF.GenerationSoftware,Kicad,Pcbnew,(6.0.11)
; #@! TF.FileFunction,Plated,1,2,PTH
FMAT,2
INCH
; #@! TA.AperFunction,Plated,PTH,ViaDrill
T1C0.0157
; #@! TA.AperFunction,Plated,PTH,ComponentDrill
T2C0.0315
; #@! TA.AperFunction,Plated,PTH,ComponentDrill
T3C0.0400
; #@! TA.AperFunction,Plated,PTH,ComponentDrill
T4C0.0450
; #@! TA.AperFunction,Plated,PTH,ComponentDrill
T5C0.0669
%
G90
G05
T1
X3.5057Y-2.246
X3.8624Y-2.4554
X3.948Y-2.4965
X3.9858Y-2.5314
X4.1067Y-2.4839
X4.1337Y-2.4046
X4.1614Y-2.3516
X4.1813Y-2.5252
X4.2381Y-2.3517
X4.3226Y-2.3595
X4.4356Y-4.3929
X4.5431Y-2.3851
X4.5963Y-2.6555
X4.6607Y-2.2684
X4.7424Y-2.2605
X4.8082Y-2.1954
X4.8196Y-1.9472
X5.0275Y-2.0703
X5.0401Y-2.1767
X5.0797Y-2.8643
X5.0837Y-2.0825
X5.1209Y-2.9469
X5.1932Y-2.5278
X5.2106Y-2.9507
X5.2379Y-3.0064
X5.3186Y-3.1422
X5.5112Y-2.8099
X5.5242Y-2.2996
X5.5296Y-2.5419
X5.6639Y-2.5951
X5.7916Y-2.2834
X5.831Y-2.2657
X5.8432Y-2.9014
X5.9032Y-2.248
X6.0435Y-3.4635
X6.0504Y-3.3443
X6.0897Y-3.7434
X6.1237Y-2.4685
X6.1354Y-2.2288
X6.2009Y-2.2101
X6.2904Y-2.9782
X6.3484Y-4.3648
X6.5839Y-2.7681
X6.9544Y-2.1786
X7.0736Y-3.5962
X7.1499Y-2.2253
X7.2712Y-2.3812
X7.2972Y-2.4559
X7.3006Y-2.2927
X7.3145Y-2.1557
X7.3382Y-2.2139
X7.3639Y-2.1288
T2
X4.015Y-3.625
X4.1134Y-3.625
X4.14Y-4.2258
X4.14Y-4.3242
X4.1572Y-4.05
X4.3494Y-4.05
X4.37Y-4.2258
X4.37Y-4.3242
X7.185Y-3.4761
X7.185Y-3.5745
X7.22Y-3.0688
X7.22Y-3.1672
X7.2634Y-2.815
X7.3619Y-2.815
T3
X3.81Y-2.59
X3.91Y-2.59
X4.01Y-2.59
X4.11Y-2.59
X4.17Y-4.49
X4.21Y-2.59
X4.27Y-4.49
X4.31Y-2.59
X4.37Y-4.49
X4.41Y-2.59
X4.47Y-4.49
X4.51Y-2.59
X4.57Y-4.49
X4.61Y-2.59
X4.67Y-4.49
X4.71Y-2.59
X4.77Y-4.49
X4.87Y-2.59
X4.87Y-4.49
X4.97Y-2.59
X5.07Y-2.59
X5.07Y-4.49
X5.17Y-2.59
X5.17Y-4.49
X5.27Y-2.59
X5.27Y-4.49
X5.37Y-2.59
X5.37Y-4.49
X5.47Y-2.59
X5.47Y-4.49
X5.57Y-2.59
X5.57Y-4.49
X5.67Y-4.49
X5.77Y-2.59
X5.77Y-4.49
X5.87Y-2.59
X5.97Y-2.59
X5.97Y-4.49
X6.07Y-2.59
X6.07Y-4.49
X6.17Y-2.59
X6.17Y-4.49
X6.27Y-2.59
X6.27Y-4.49
X6.37Y-2.59
X6.37Y-4.49
X6.47Y-2.59
X6.47Y-4.49
X6.57Y-4.49
X6.67Y-4.49
X6.77Y-2.59
X6.77Y-2.69
X6.77Y-2.79
X6.77Y-2.89
X6.77Y-2.99
X6.77Y-3.09
X6.77Y-3.19
X6.77Y-3.29
X6.77Y-3.39
X6.77Y-3.49
X6.77Y-3.59
X6.77Y-3.69
X6.77Y-3.79
X6.77Y-3.89
X6.77Y-3.99
X6.77Y-4.09
X6.77Y-4.19
X6.77Y-4.29
X6.87Y-2.59
X6.87Y-2.69
X6.87Y-2.79
X6.87Y-2.89
X6.87Y-2.99
X6.87Y-3.09
X6.87Y-3.19
X6.87Y-3.29
X6.87Y-3.39
X6.87Y-3.49
X6.87Y-3.59
X6.87Y-3.69
X6.87Y-3.79
X6.87Y-3.89
X6.87Y-3.99
X6.87Y-4.09
X6.87Y-4.19
X6.87Y-4.29
T4
X2.42Y-1.813
X2.42Y-2.013
X2.52Y-1.813
X2.52Y-2.013
X2.62Y-1.813
X2.62Y-2.013
X2.72Y-1.813
X2.72Y-2.013
X2.82Y-1.813
X2.82Y-2.013
X2.92Y-1.813
X2.92Y-2.013
X3.02Y-1.813
X3.02Y-2.013
X3.12Y-1.813
X3.12Y-2.013
X3.22Y-1.813
X3.22Y-2.013
X3.32Y-1.813
X3.32Y-2.013
X3.42Y-1.813
X3.42Y-2.013
X3.52Y-1.813
X3.52Y-2.013
X3.62Y-1.813
X3.62Y-2.013
X3.72Y-1.813
X3.72Y-2.013
X3.82Y-1.813
X3.82Y-2.013
X3.92Y-1.813
X3.92Y-2.013
X4.02Y-1.813
X4.02Y-2.013
X4.12Y-1.813
X4.12Y-2.013
X4.22Y-1.813
X4.22Y-2.013
X4.32Y-1.813
X4.32Y-2.013
X4.42Y-1.813
X4.42Y-2.013
X4.52Y-1.813
X4.52Y-2.013
X4.62Y-1.813
X4.62Y-2.013
X4.72Y-1.813
X4.72Y-2.013
X4.82Y-1.813
X4.82Y-2.013
X4.92Y-1.813
X4.92Y-2.013
X5.02Y-1.813
X5.02Y-2.013
X5.12Y-1.813
X5.12Y-2.013
X5.22Y-1.813
X5.22Y-2.013
X5.32Y-1.813
X5.32Y-2.013
X5.42Y-1.813
X5.42Y-2.013
X5.82Y-1.813
X5.82Y-2.013
X5.92Y-1.813
X5.92Y-2.013
X6.02Y-1.813
X6.02Y-2.013
X6.12Y-1.813
X6.12Y-2.013
X6.22Y-1.813
X6.22Y-2.013
X6.32Y-1.813
X6.32Y-2.013
X6.42Y-1.813
X6.42Y-2.013
X6.52Y-1.813
X6.52Y-2.013
X6.62Y-1.813
X6.62Y-2.013
X6.72Y-1.813
X6.72Y-2.013
X6.82Y-1.813
X6.82Y-2.013
X6.92Y-1.813
X6.92Y-2.013
X7.02Y-1.813
X7.02Y-2.013
X7.12Y-1.813
X7.12Y-2.013
X7.22Y-1.813
X7.22Y-2.013
X7.32Y-1.813
X7.32Y-2.013
X7.42Y-1.813
X7.42Y-2.013
X7.52Y-1.813
X7.52Y-2.013
T5
X7.5583Y-2.8202
X7.5583Y-2.9761
X7.5583Y-3.132
X7.5583Y-3.288
X7.5583Y-3.4439
X7.5583Y-3.5998
T0
M30
