%TF.GenerationSoftware,KiCad,Pcbnew,(6.0.11)*%
%TF.CreationDate,2023-04-01T14:18:44-06:00*%
%TF.ProjectId,arduino-mega-isa-shield,61726475-696e-46f2-9d6d-6567612d6973,rev?*%
%TF.SameCoordinates,Original*%
%TF.FileFunction,Copper,L1,Top*%
%TF.FilePolarity,Positive*%
%FSLAX46Y46*%
G04 Gerber Fmt 4.6, Leading zero omitted, Abs format (unit mm)*
G04 Created by KiCad (PCBNEW (6.0.11)) date 2023-04-01 14:18:44*
%MOMM*%
%LPD*%
G01*
G04 APERTURE LIST*
G04 Aperture macros list*
%AMRoundRect*
0 Rectangle with rounded corners*
0 $1 Rounding radius*
0 $2 $3 $4 $5 $6 $7 $8 $9 X,Y pos of 4 corners*
0 Add a 4 corners polygon primitive as box body*
4,1,4,$2,$3,$4,$5,$6,$7,$8,$9,$2,$3,0*
0 Add four circle primitives for the rounded corners*
1,1,$1+$1,$2,$3*
1,1,$1+$1,$4,$5*
1,1,$1+$1,$6,$7*
1,1,$1+$1,$8,$9*
0 Add four rect primitives between the rounded corners*
20,1,$1+$1,$2,$3,$4,$5,0*
20,1,$1+$1,$4,$5,$6,$7,0*
20,1,$1+$1,$6,$7,$8,$9,0*
20,1,$1+$1,$8,$9,$2,$3,0*%
G04 Aperture macros list end*
%TA.AperFunction,ComponentPad*%
%ADD10R,1.600000X1.600000*%
%TD*%
%TA.AperFunction,ComponentPad*%
%ADD11C,1.600000*%
%TD*%
%TA.AperFunction,ComponentPad*%
%ADD12C,1.500000*%
%TD*%
%TA.AperFunction,ComponentPad*%
%ADD13O,1.727200X1.727200*%
%TD*%
%TA.AperFunction,ComponentPad*%
%ADD14R,1.727200X1.727200*%
%TD*%
%TA.AperFunction,ComponentPad*%
%ADD15C,1.651000*%
%TD*%
%TA.AperFunction,ComponentPad*%
%ADD16RoundRect,0.250001X1.099999X-1.099999X1.099999X1.099999X-1.099999X1.099999X-1.099999X-1.099999X0*%
%TD*%
%TA.AperFunction,ComponentPad*%
%ADD17C,2.700000*%
%TD*%
%TA.AperFunction,SMDPad,CuDef*%
%ADD18RoundRect,0.150000X0.825000X0.150000X-0.825000X0.150000X-0.825000X-0.150000X0.825000X-0.150000X0*%
%TD*%
%TA.AperFunction,ViaPad*%
%ADD19C,0.800000*%
%TD*%
%TA.AperFunction,Conductor*%
%ADD20C,2.000000*%
%TD*%
%TA.AperFunction,Conductor*%
%ADD21C,1.000000*%
%TD*%
%TA.AperFunction,Conductor*%
%ADD22C,0.500000*%
%TD*%
%TA.AperFunction,Conductor*%
%ADD23C,0.250000*%
%TD*%
G04 APERTURE END LIST*
D10*
%TO.P,C2,1*%
%TO.N,+12V*%
X183388000Y-77946900D03*
D11*
%TO.P,C2,2*%
%TO.N,GND*%
X183388000Y-80446900D03*
%TD*%
D10*
%TO.P,C1,1*%
%TO.N,+5V*%
X182499000Y-88293200D03*
D11*
%TO.P,C1,2*%
%TO.N,GND*%
X182499000Y-90793200D03*
%TD*%
%TO.P,C4,1*%
%TO.N,Net-(C4-Pad1)*%
X110998000Y-107335000D03*
%TO.P,C4,2*%
%TO.N,GND*%
X110998000Y-109835000D03*
%TD*%
D10*
%TO.P,C3,1*%
%TO.N,GND*%
X184491600Y-71501000D03*
D11*
%TO.P,C3,2*%
%TO.N,-12V*%
X186991600Y-71501000D03*
%TD*%
D12*
%TO.P,Y1,1,1*%
%TO.N,Net-(C4-Pad1)*%
X110474000Y-102870000D03*
%TO.P,Y1,2,2*%
%TO.N,Net-(C5-Pad1)*%
X105594000Y-102870000D03*
%TD*%
D13*
%TO.P,XA1,*%
%TO.N,*%
X105918000Y-114046000D03*
%TO.P,XA1,3V3,3.3V*%
%TO.N,unconnected-(XA1-Pad3V3)*%
X113538000Y-114046000D03*
%TO.P,XA1,5V1,5V*%
%TO.N,+5V*%
X116078000Y-114046000D03*
%TO.P,XA1,5V3,5V*%
X171958000Y-65786000D03*
%TO.P,XA1,5V4,5V*%
X174498000Y-65786000D03*
%TO.P,XA1,A0,A0*%
%TO.N,/A8*%
X128778000Y-114046000D03*
%TO.P,XA1,A1,A1*%
%TO.N,/A9*%
X131318000Y-114046000D03*
%TO.P,XA1,A2,A2*%
%TO.N,/A10*%
X133858000Y-114046000D03*
%TO.P,XA1,A3,A3*%
%TO.N,/A11*%
X136398000Y-114046000D03*
%TO.P,XA1,A4,A4*%
%TO.N,/A12*%
X138938000Y-114046000D03*
%TO.P,XA1,A5,A5*%
%TO.N,/A13*%
X141478000Y-114046000D03*
%TO.P,XA1,A6,A6*%
%TO.N,/A14*%
X144018000Y-114046000D03*
%TO.P,XA1,A7,A7*%
%TO.N,/A15*%
X146558000Y-114046000D03*
%TO.P,XA1,A8,A8*%
%TO.N,/LA17*%
X151638000Y-114046000D03*
%TO.P,XA1,A9,A9*%
%TO.N,/LA18*%
X154178000Y-114046000D03*
%TO.P,XA1,A10,A10*%
%TO.N,/LA19*%
X156718000Y-114046000D03*
%TO.P,XA1,A11,A11*%
%TO.N,/LA20*%
X159258000Y-114046000D03*
%TO.P,XA1,A12,A12*%
%TO.N,/LA21*%
X161798000Y-114046000D03*
%TO.P,XA1,A13,A13*%
%TO.N,/LA22*%
X164338000Y-114046000D03*
%TO.P,XA1,A14,A14*%
%TO.N,/LA23*%
X166878000Y-114046000D03*
%TO.P,XA1,A15,A15*%
%TO.N,/PK7*%
X169418000Y-114046000D03*
%TO.P,XA1,AREF,AREF*%
%TO.N,unconnected-(XA1-PadAREF)*%
X101854000Y-65786000D03*
%TO.P,XA1,D0,D0_RX0*%
%TO.N,/PE0*%
X141478000Y-65786000D03*
%TO.P,XA1,D1,D1_TX0*%
%TO.N,/ALE*%
X138938000Y-65786000D03*
%TO.P,XA1,D2,D2_INT0*%
%TO.N,/PE4*%
X136398000Y-65786000D03*
%TO.P,XA1,D3,D3_INT1*%
%TO.N,/PE5*%
X133858000Y-65786000D03*
%TO.P,XA1,D4,D4*%
%TO.N,/PG5*%
X131318000Y-65786000D03*
%TO.P,XA1,D5,D5*%
%TO.N,/PE3*%
X128778000Y-65786000D03*
%TO.P,XA1,D6,D6*%
%TO.N,/PH3*%
X126238000Y-65786000D03*
%TO.P,XA1,D7,D7*%
%TO.N,/PH4*%
X123698000Y-65786000D03*
%TO.P,XA1,D8,D8*%
%TO.N,/PH5*%
X119634000Y-65786000D03*
%TO.P,XA1,D9,D9*%
%TO.N,/PH6*%
X117094000Y-65786000D03*
%TO.P,XA1,D10,D10*%
%TO.N,/A4*%
X114554000Y-65786000D03*
%TO.P,XA1,D11,D11*%
%TO.N,/A5*%
X112014000Y-65786000D03*
%TO.P,XA1,D12,D12*%
%TO.N,/A6*%
X109474000Y-65786000D03*
%TO.P,XA1,D13,D13*%
%TO.N,/A7*%
X106934000Y-65786000D03*
%TO.P,XA1,D14,D14_TX3*%
%TO.N,/PJ1*%
X146558000Y-65786000D03*
%TO.P,XA1,D15,D15_RX3*%
%TO.N,/PJ0*%
X149098000Y-65786000D03*
%TO.P,XA1,D16,D16_TX2*%
%TO.N,/PH1*%
X151638000Y-65786000D03*
%TO.P,XA1,D17,D17_RX2*%
%TO.N,/PH0*%
X154178000Y-65786000D03*
%TO.P,XA1,D18,D18_TX1*%
%TO.N,/A19*%
X156718000Y-65786000D03*
%TO.P,XA1,D19,D19_RX1*%
%TO.N,/A18*%
X159258000Y-65786000D03*
%TO.P,XA1,D20,D20_SDA*%
%TO.N,/A17*%
X161798000Y-65786000D03*
%TO.P,XA1,D21,D21_SCL*%
%TO.N,/A16*%
X164338000Y-65786000D03*
%TO.P,XA1,D22,D22*%
%TO.N,/D0*%
X171958000Y-68326000D03*
%TO.P,XA1,D23,D23*%
%TO.N,/D1*%
X174498000Y-68326000D03*
%TO.P,XA1,D24,D24*%
%TO.N,/D2*%
X171958000Y-70866000D03*
%TO.P,XA1,D25,D25*%
%TO.N,/D3*%
X174498000Y-70866000D03*
%TO.P,XA1,D26,D26*%
%TO.N,/D4*%
X171958000Y-73406000D03*
%TO.P,XA1,D27,D27*%
%TO.N,/D5*%
X174498000Y-73406000D03*
%TO.P,XA1,D28,D28*%
%TO.N,/D6*%
X171958000Y-75946000D03*
%TO.P,XA1,D29,D29*%
%TO.N,/D7*%
X174498000Y-75946000D03*
%TO.P,XA1,D30,D30*%
%TO.N,/PC7*%
X171958000Y-78486000D03*
%TO.P,XA1,D31,D31*%
%TO.N,/PC6*%
X174498000Y-78486000D03*
%TO.P,XA1,D32,D32*%
%TO.N,/PC5*%
X171958000Y-81026000D03*
%TO.P,XA1,D33,D33*%
%TO.N,/PC4*%
X174498000Y-81026000D03*
%TO.P,XA1,D34,D34*%
%TO.N,/PC3*%
X171958000Y-83566000D03*
%TO.P,XA1,D35,D35*%
%TO.N,/PC2*%
X174498000Y-83566000D03*
%TO.P,XA1,D36,D36*%
%TO.N,/PC1*%
X171958000Y-86106000D03*
%TO.P,XA1,D37,D37*%
%TO.N,/PC0*%
X174498000Y-86106000D03*
%TO.P,XA1,D38,D38*%
%TO.N,/AEN*%
X171958000Y-88646000D03*
%TO.P,XA1,D39,D39*%
%TO.N,/PG2*%
X174498000Y-88646000D03*
%TO.P,XA1,D40,D40*%
%TO.N,/PG1*%
X171958000Y-91186000D03*
%TO.P,XA1,D41,D41*%
%TO.N,/PG0*%
X174498000Y-91186000D03*
%TO.P,XA1,D42,D42*%
%TO.N,/IRQ7*%
X171958000Y-93726000D03*
%TO.P,XA1,D43,D43*%
%TO.N,/IRQ5*%
X174498000Y-93726000D03*
%TO.P,XA1,D44,D44*%
%TO.N,/IRQ3*%
X171958000Y-96266000D03*
%TO.P,XA1,D45,D45*%
%TO.N,/IRQ2*%
X174498000Y-96266000D03*
%TO.P,XA1,D46,D46*%
%TO.N,/DRQ7*%
X171958000Y-98806000D03*
%TO.P,XA1,D47,D47*%
%TO.N,/DRQ5*%
X174498000Y-98806000D03*
%TO.P,XA1,D48,D48*%
%TO.N,/DRQ3*%
X171958000Y-101346000D03*
%TO.P,XA1,D49,D49*%
%TO.N,/DRQ1*%
X174498000Y-101346000D03*
%TO.P,XA1,D50,D50_MISO*%
%TO.N,/A3*%
X171958000Y-103886000D03*
%TO.P,XA1,D51,D51_MOSI*%
%TO.N,/A2*%
X174498000Y-103886000D03*
%TO.P,XA1,D52,D52_SCK*%
%TO.N,/A1*%
X171958000Y-106426000D03*
%TO.P,XA1,D53,D53_CS*%
%TO.N,/A0*%
X174498000Y-106426000D03*
D14*
%TO.P,XA1,GND1,GND*%
%TO.N,GND*%
X104394000Y-65786000D03*
%TO.P,XA1,GND2,GND*%
X118618000Y-114046000D03*
%TO.P,XA1,GND3,GND*%
X121158000Y-114046000D03*
%TO.P,XA1,GND5,GND*%
X171958000Y-108966000D03*
%TO.P,XA1,GND6,GND*%
X174498000Y-108966000D03*
D13*
%TO.P,XA1,IORF,IOREF*%
%TO.N,unconnected-(XA1-PadIORF)*%
X108458000Y-114046000D03*
%TO.P,XA1,RST1,RESET*%
%TO.N,unconnected-(XA1-PadRST1)*%
X110998000Y-114046000D03*
%TO.P,XA1,SCL,SCL*%
%TO.N,unconnected-(XA1-PadSCL)*%
X96774000Y-65786000D03*
%TO.P,XA1,SDA,SDA*%
%TO.N,unconnected-(XA1-PadSDA)*%
X99314000Y-65786000D03*
%TO.P,XA1,VIN,VIN*%
%TO.N,+5V*%
X123698000Y-114046000D03*
%TD*%
D11*
%TO.P,C6,1*%
%TO.N,+5V*%
X101981000Y-92075000D03*
%TO.P,C6,2*%
%TO.N,GND*%
X104481000Y-92075000D03*
%TD*%
D15*
%TO.P,J1,1,D18*%
%TO.N,GND*%
X191008000Y-51130000D03*
%TO.P,J1,2,D17*%
%TO.N,/PK7*%
X188468000Y-51130000D03*
%TO.P,J1,3,D16*%
%TO.N,+5V*%
X185928000Y-51130000D03*
%TO.P,J1,4,D15*%
%TO.N,/DRQ7*%
X183388000Y-51130000D03*
%TO.P,J1,5,D14*%
%TO.N,/PH4*%
X180848000Y-51130000D03*
%TO.P,J1,6,D13*%
%TO.N,/DRQ6*%
X178308000Y-51130000D03*
%TO.P,J1,7,D12*%
%TO.N,/~{DACK6}*%
X175768000Y-51130000D03*
%TO.P,J1,8,D11*%
%TO.N,/DRQ5*%
X173228000Y-51130000D03*
%TO.P,J1,9,D10*%
%TO.N,/PH3*%
X170688000Y-51130000D03*
%TO.P,J1,10,D9*%
%TO.N,/DRQ0*%
X168148000Y-51130000D03*
%TO.P,J1,11,D8*%
%TO.N,/~{DACK0}*%
X165608000Y-51130000D03*
%TO.P,J1,12,D7*%
%TO.N,/IRQ14*%
X163068000Y-51130000D03*
%TO.P,J1,13,D6*%
%TO.N,/IRQ13*%
X160528000Y-51130000D03*
%TO.P,J1,14,D5*%
%TO.N,/IRQ12*%
X157988000Y-51130000D03*
%TO.P,J1,15,D4*%
%TO.N,/IRQ11*%
X155448000Y-51130000D03*
%TO.P,J1,16,D3*%
%TO.N,/IRQ10*%
X152908000Y-51130000D03*
%TO.P,J1,17,D2*%
%TO.N,/PJ1*%
X150368000Y-51130000D03*
%TO.P,J1,18,D1*%
%TO.N,/~{MEMCS16}*%
X147828000Y-51130000D03*
%TO.P,J1,19,B31*%
%TO.N,GND*%
X137668000Y-51130000D03*
%TO.P,J1,20,B30*%
%TO.N,/OSC_14M318*%
X135128000Y-51130000D03*
%TO.P,J1,21,B29*%
%TO.N,+5V*%
X132588000Y-51130000D03*
%TO.P,J1,22,B28*%
%TO.N,/ALE*%
X130048000Y-51130000D03*
%TO.P,J1,23,B27*%
%TO.N,/PH5*%
X127508000Y-51130000D03*
%TO.P,J1,24,B26*%
%TO.N,/~{DACK2}*%
X124968000Y-51130000D03*
%TO.P,J1,25,B25*%
%TO.N,/IRQ3*%
X122428000Y-51130000D03*
%TO.P,J1,26,B24*%
%TO.N,/IRQ4*%
X119888000Y-51130000D03*
%TO.P,J1,27,B23*%
%TO.N,/IRQ5*%
X117348000Y-51130000D03*
%TO.P,J1,28,B22*%
%TO.N,/IRQ6*%
X114808000Y-51130000D03*
%TO.P,J1,29,B21*%
%TO.N,/IRQ7*%
X112268000Y-51130000D03*
%TO.P,J1,30,B20*%
%TO.N,/OSC_8M*%
X109728000Y-51130000D03*
%TO.P,J1,31,B19*%
%TO.N,/~{REFRESH}*%
X107188000Y-51130000D03*
%TO.P,J1,32,B18*%
%TO.N,/DRQ1*%
X104648000Y-51130000D03*
%TO.P,J1,33,B17*%
%TO.N,/PH0*%
X102108000Y-51130000D03*
%TO.P,J1,34,B16*%
%TO.N,/DRQ3*%
X99568000Y-51130000D03*
%TO.P,J1,35,B15*%
%TO.N,/PH1*%
X97028000Y-51130000D03*
%TO.P,J1,36,B14*%
%TO.N,/PG0*%
X94488000Y-51130000D03*
%TO.P,J1,37,B13*%
%TO.N,/PG1*%
X91948000Y-51130000D03*
%TO.P,J1,38,B12*%
%TO.N,/PG2*%
X89408000Y-51130000D03*
%TO.P,J1,39,B11*%
%TO.N,/PG5*%
X86868000Y-51130000D03*
%TO.P,J1,40,B10*%
%TO.N,GND*%
X84328000Y-51130000D03*
%TO.P,J1,41,B9*%
%TO.N,+12V*%
X81788000Y-51130000D03*
%TO.P,J1,42,B8*%
%TO.N,/PJ0*%
X79248000Y-51130000D03*
%TO.P,J1,43,B7*%
%TO.N,-12V*%
X76708000Y-51130000D03*
%TO.P,J1,44,B6*%
%TO.N,/DRQ2*%
X74168000Y-51130000D03*
%TO.P,J1,45,B5*%
%TO.N,/-5V*%
X71628000Y-51130000D03*
%TO.P,J1,46,B4*%
%TO.N,/IRQ2*%
X69088000Y-51130000D03*
%TO.P,J1,47,B3*%
%TO.N,+5V*%
X66548000Y-51130000D03*
%TO.P,J1,48,B2*%
%TO.N,/PE0*%
X64008000Y-51130000D03*
%TO.P,J1,49,B1*%
%TO.N,GND*%
X61468000Y-51130000D03*
%TO.P,J1,50,C18*%
%TO.N,/PC7*%
X191008000Y-46050000D03*
%TO.P,J1,51,C17*%
%TO.N,/PC6*%
X188468000Y-46050000D03*
%TO.P,J1,52,C16*%
%TO.N,/PC5*%
X185928000Y-46050000D03*
%TO.P,J1,53,C15*%
%TO.N,/PC4*%
X183388000Y-46050000D03*
%TO.P,J1,54,C14*%
%TO.N,/PC3*%
X180848000Y-46050000D03*
%TO.P,J1,55,C13*%
%TO.N,/PC2*%
X178308000Y-46050000D03*
%TO.P,J1,56,C12*%
%TO.N,/PC1*%
X175768000Y-46050000D03*
%TO.P,J1,57,C11*%
%TO.N,/PC0*%
X173228000Y-46050000D03*
%TO.P,J1,58,C10*%
%TO.N,/PE5*%
X170688000Y-46050000D03*
%TO.P,J1,59,C9*%
%TO.N,/PE4*%
X168148000Y-46050000D03*
%TO.P,J1,60,C8*%
%TO.N,/LA17*%
X165608000Y-46050000D03*
%TO.P,J1,61,C7*%
%TO.N,/LA18*%
X163068000Y-46050000D03*
%TO.P,J1,62,C6*%
%TO.N,/LA19*%
X160528000Y-46050000D03*
%TO.P,J1,63,C5*%
%TO.N,/LA20*%
X157988000Y-46050000D03*
%TO.P,J1,64,C4*%
%TO.N,/LA21*%
X155448000Y-46050000D03*
%TO.P,J1,65,C3*%
%TO.N,/LA22*%
X152908000Y-46050000D03*
%TO.P,J1,66,C2*%
%TO.N,/LA23*%
X150368000Y-46050000D03*
%TO.P,J1,67,C1*%
%TO.N,/PE3*%
X147828000Y-46050000D03*
%TO.P,J1,68,A31*%
%TO.N,/A0*%
X137668000Y-46050000D03*
%TO.P,J1,69,A30*%
%TO.N,/A1*%
X135128000Y-46050000D03*
%TO.P,J1,70,A29*%
%TO.N,/A2*%
X132588000Y-46050000D03*
%TO.P,J1,71,A28*%
%TO.N,/A3*%
X130048000Y-46050000D03*
%TO.P,J1,72,A27*%
%TO.N,/A4*%
X127508000Y-46050000D03*
%TO.P,J1,73,A26*%
%TO.N,/A5*%
X124968000Y-46050000D03*
%TO.P,J1,74,A25*%
%TO.N,/A6*%
X122428000Y-46050000D03*
%TO.P,J1,75,A24*%
%TO.N,/A7*%
X119888000Y-46050000D03*
%TO.P,J1,76,A23*%
%TO.N,/A8*%
X117348000Y-46050000D03*
%TO.P,J1,77,A22*%
%TO.N,/A9*%
X114808000Y-46050000D03*
%TO.P,J1,78,A21*%
%TO.N,/A10*%
X112268000Y-46050000D03*
%TO.P,J1,79,A20*%
%TO.N,/A11*%
X109728000Y-46050000D03*
%TO.P,J1,80,A19*%
%TO.N,/A12*%
X107188000Y-46050000D03*
%TO.P,J1,81,A18*%
%TO.N,/A13*%
X104648000Y-46050000D03*
%TO.P,J1,82,A17*%
%TO.N,/A14*%
X102108000Y-46050000D03*
%TO.P,J1,83,A16*%
%TO.N,/A15*%
X99568000Y-46050000D03*
%TO.P,J1,84,A15*%
%TO.N,/A16*%
X97028000Y-46050000D03*
%TO.P,J1,85,A14*%
%TO.N,/A17*%
X94488000Y-46050000D03*
%TO.P,J1,86,A13*%
%TO.N,/A18*%
X91948000Y-46050000D03*
%TO.P,J1,87,A12*%
%TO.N,/A19*%
X89408000Y-46050000D03*
%TO.P,J1,88,A11*%
%TO.N,/AEN*%
X86868000Y-46050000D03*
%TO.P,J1,89,A10*%
%TO.N,/PH6*%
X84328000Y-46050000D03*
%TO.P,J1,90,A9*%
%TO.N,/D0*%
X81788000Y-46050000D03*
%TO.P,J1,91,A8*%
%TO.N,/D1*%
X79248000Y-46050000D03*
%TO.P,J1,92,A7*%
%TO.N,/D2*%
X76708000Y-46050000D03*
%TO.P,J1,93,A6*%
%TO.N,/D3*%
X74168000Y-46050000D03*
%TO.P,J1,94,A5*%
%TO.N,/D4*%
X71628000Y-46050000D03*
%TO.P,J1,95,A4*%
%TO.N,/D5*%
X69088000Y-46050000D03*
%TO.P,J1,96,A3*%
%TO.N,/D6*%
X66548000Y-46050000D03*
%TO.P,J1,97,A2*%
%TO.N,/D7*%
X64008000Y-46050000D03*
%TO.P,J1,98,A1*%
%TO.N,/~{IO_CH_CHK}*%
X61468000Y-46050000D03*
%TD*%
D16*
%TO.P,J2,1,Pin_1*%
%TO.N,+5V*%
X191980000Y-91434000D03*
D17*
%TO.P,J2,2,Pin_2*%
X191980000Y-87474000D03*
%TO.P,J2,3,Pin_3*%
%TO.N,GND*%
X191980000Y-83514000D03*
%TO.P,J2,4,Pin_4*%
X191980000Y-79554000D03*
%TO.P,J2,5,Pin_5*%
%TO.N,+12V*%
X191980000Y-75594000D03*
%TO.P,J2,6,Pin_6*%
%TO.N,-12V*%
X191980000Y-71634000D03*
%TD*%
D11*
%TO.P,C5,1*%
%TO.N,Net-(C5-Pad1)*%
X105156000Y-107335000D03*
%TO.P,C5,2*%
%TO.N,GND*%
X105156000Y-109835000D03*
%TD*%
D18*
%TO.P,U1,1,X1*%
%TO.N,Net-(C4-Pad1)*%
X109282000Y-98425000D03*
%TO.P,U1,2,VDD*%
%TO.N,+5V*%
X109282000Y-97155000D03*
%TO.P,U1,3,GND*%
%TO.N,GND*%
X109282000Y-95885000D03*
%TO.P,U1,4,S1*%
X109282000Y-94615000D03*
%TO.P,U1,5,CLK*%
%TO.N,/OSC_14M318*%
X104332000Y-94615000D03*
%TO.P,U1,6,S0*%
%TO.N,GND*%
X104332000Y-95885000D03*
%TO.P,U1,7,OE*%
%TO.N,+5V*%
X104332000Y-97155000D03*
%TO.P,U1,8,X2*%
%TO.N,Net-(C5-Pad1)*%
X104332000Y-98425000D03*
%TD*%
D19*
%TO.N,-12V*%
X89045100Y-57048700D03*
%TO.N,/DRQ7*%
X179670300Y-91344600D03*
%TO.N,/PH4*%
X128019500Y-55287500D03*
X176642800Y-55335200D03*
%TO.N,/PH3*%
X143862400Y-65916200D03*
%TO.N,/OSC_14M318*%
X133042500Y-76361700D03*
%TO.N,/ALE*%
X131907200Y-64205600D03*
%TO.N,/IRQ3*%
X185436500Y-58233800D03*
%TO.N,/IRQ5*%
X185349300Y-62379600D03*
%TO.N,/IRQ7*%
X129024400Y-72752200D03*
X122127200Y-55762100D03*
%TO.N,/DRQ1*%
X130071300Y-74850000D03*
X120457900Y-57417000D03*
%TO.N,/PH0*%
X107647000Y-59733000D03*
%TO.N,/DRQ3*%
X132349800Y-74948400D03*
%TO.N,/PH1*%
X105698800Y-59729500D03*
%TO.N,/PG0*%
X140315100Y-58410700D03*
X148416700Y-73696000D03*
%TO.N,/PG1*%
X167231600Y-70309100D03*
X104309900Y-63091600D03*
%TO.N,/PG2*%
X101239400Y-64296600D03*
%TO.N,/PG5*%
X98104500Y-62366500D03*
%TO.N,/PE0*%
X139984600Y-71371400D03*
%TO.N,/PE4*%
X140451700Y-64563000D03*
%TO.N,/LA17*%
X127697700Y-52585200D03*
%TO.N,/LA18*%
X154679500Y-95081900D03*
%TO.N,/LA20*%
X161249400Y-110867100D03*
%TO.N,/PE3*%
X129127000Y-52896700D03*
%TO.N,/A0*%
X153680400Y-84946000D03*
%TO.N,/A1*%
X153505400Y-87973600D03*
%TO.N,/A3*%
X135092100Y-79811600D03*
%TO.N,/A10*%
X122416600Y-49459900D03*
%TO.N,/A11*%
X112665400Y-111579800D03*
%TO.N,/A13*%
X109794800Y-59931200D03*
X115395900Y-60580500D03*
%TO.N,/A14*%
X106204200Y-64139500D03*
X116746500Y-67450400D03*
%TO.N,/A16*%
X157503700Y-56135700D03*
%TO.N,/A17*%
X155839100Y-56610300D03*
%TO.N,/A18*%
X149941300Y-57099000D03*
X155542700Y-62700400D03*
%TO.N,/A19*%
X148107800Y-57549100D03*
%TO.N,/AEN*%
X159775300Y-75646100D03*
X147107600Y-57999200D03*
%TO.N,/PH6*%
X118382100Y-57616400D03*
%TO.N,/D0*%
X104995400Y-61077000D03*
%TO.N,/D1*%
X181608200Y-56522000D03*
%TO.N,/D2*%
X100280200Y-63410000D03*
%TO.N,/PC7*%
X186389100Y-56232600D03*
%TO.N,/PC4*%
X185788200Y-54754500D03*
%TO.N,/PC2*%
X187043900Y-54072300D03*
%TO.N,/PC0*%
X184689400Y-60483400D03*
%TD*%
D20*
%TO.N,+5V*%
X191980000Y-87474000D02*
X183318242Y-87474000D01*
D21*
X180999000Y-93202600D02*
X181364000Y-93567600D01*
X100330000Y-97282000D02*
X100330000Y-93726000D01*
X100330000Y-93726000D02*
X101981000Y-92075000D01*
X180340000Y-118237000D02*
X123317000Y-118237000D01*
X116078000Y-117856000D02*
X116078000Y-118237000D01*
X116078000Y-117856000D02*
X116078000Y-114046000D01*
X184402300Y-49604300D02*
X134113700Y-49604300D01*
D20*
X191980000Y-87474000D02*
X191980000Y-91434000D01*
D21*
X100330000Y-97155000D02*
X100457000Y-97155000D01*
X100330000Y-117348000D02*
X101219000Y-118237000D01*
X181364000Y-93567620D02*
X181364000Y-117213000D01*
D22*
X104332000Y-97155000D02*
X109282000Y-97155000D01*
D21*
X123698000Y-114046000D02*
X123698000Y-117856000D01*
X117348000Y-118237000D02*
X116459000Y-118237000D01*
X180999000Y-89793242D02*
X180999000Y-93202620D01*
X181483000Y-69342000D02*
X181483000Y-66802000D01*
X181483000Y-66802000D02*
X180467000Y-65786000D01*
X182499000Y-88293242D02*
X180999000Y-89793242D01*
X122301000Y-118237000D02*
X123317000Y-118237000D01*
X181364000Y-117213000D02*
X180340000Y-118237000D01*
X181483000Y-87277242D02*
X181483000Y-69342000D01*
D20*
X187278242Y-91434000D02*
X183318242Y-87474000D01*
D21*
X180467000Y-65786000D02*
X174498000Y-65786000D01*
X182499000Y-88293242D02*
X181483000Y-87277242D01*
X100330000Y-97282000D02*
X100330000Y-117348000D01*
D20*
X191980000Y-91434000D02*
X187278242Y-91434000D01*
D21*
X122301000Y-118237000D02*
X117348000Y-118237000D01*
X185928000Y-51130000D02*
X184402300Y-49604300D01*
X101219000Y-118237000D02*
X116459000Y-118237000D01*
X134113700Y-49604300D02*
X132588000Y-51130000D01*
D20*
X183318242Y-87474000D02*
X182499000Y-88293242D01*
D21*
X171958000Y-65786000D02*
X174498000Y-65786000D01*
X101981000Y-97155000D02*
X104332000Y-97155000D01*
D22*
X100457000Y-97155000D02*
X101981000Y-97155000D01*
D21*
%TO.N,+12V*%
X81788000Y-51516500D02*
X88521000Y-58249500D01*
X182753000Y-77311863D02*
X183388000Y-77946863D01*
X110794400Y-58142900D02*
X111670800Y-59019300D01*
X103678800Y-58142900D02*
X110794400Y-58142900D01*
X81788000Y-51130000D02*
X81788000Y-51516500D01*
X183388000Y-77946863D02*
X189627137Y-77946863D01*
X116532100Y-59019300D02*
X117682200Y-60169400D01*
X88521000Y-58249500D02*
X103572200Y-58249500D01*
X189627137Y-77946863D02*
X191980000Y-75594000D01*
X182753000Y-66327500D02*
X182753000Y-69977000D01*
X125828900Y-60169400D02*
X125947800Y-60288300D01*
X103572200Y-58249500D02*
X103678800Y-58142900D01*
X111670800Y-59019300D02*
X116532100Y-59019300D01*
X125947800Y-60288300D02*
X138888800Y-60288300D01*
X138888800Y-60288300D02*
X139350000Y-60749500D01*
X139350000Y-60749500D02*
X177175000Y-60749500D01*
X117682200Y-60169400D02*
X125828900Y-60169400D01*
X177175000Y-60749500D02*
X182753000Y-66327500D01*
X182753000Y-69977000D02*
X182753000Y-77311863D01*
%TO.N,-12V*%
X126326000Y-58969300D02*
X126444900Y-59088200D01*
X139847100Y-59549400D02*
X180963400Y-59549400D01*
X89151600Y-56942200D02*
X111290900Y-56942200D01*
X111290900Y-56942200D02*
X112167900Y-57819200D01*
X118179300Y-58969300D02*
X126326000Y-58969300D01*
X89045100Y-57048700D02*
X89151600Y-56942200D01*
X117029200Y-57819200D02*
X118179300Y-58969300D01*
X180963400Y-59549400D02*
X191980000Y-70566000D01*
X112167900Y-57819200D02*
X117029200Y-57819200D01*
X191980000Y-70566000D02*
X191980000Y-71634000D01*
X126444900Y-59088200D02*
X139385900Y-59088200D01*
X139385900Y-59088200D02*
X139847100Y-59549400D01*
X191980000Y-71634000D02*
X187124620Y-71634000D01*
%TO.N,GND*%
X174498000Y-108966000D02*
X171958000Y-108966000D01*
D22*
X104332000Y-95885000D02*
X109282000Y-95885000D01*
D21*
X189480300Y-52657700D02*
X139195700Y-52657700D01*
X110998000Y-109835000D02*
X112129000Y-109835000D01*
D20*
X113030000Y-108934370D02*
X113030000Y-97409000D01*
X110236000Y-94615000D02*
X109282000Y-94615000D01*
D21*
X139195700Y-52657700D02*
X137668000Y-51130000D01*
X109282000Y-95655000D02*
X109282000Y-95885000D01*
X191008000Y-51130000D02*
X189480300Y-52657700D01*
D20*
X113030000Y-97409000D02*
X110236000Y-94615000D01*
X112129370Y-109835000D02*
X113030000Y-108934370D01*
X109282000Y-94615000D02*
X109282000Y-95655000D01*
D23*
%TO.N,/DRQ7*%
X173146700Y-98806000D02*
X173146700Y-98434400D01*
X171958000Y-98806000D02*
X173146700Y-98806000D01*
X173146700Y-98434400D02*
X173963800Y-97617300D01*
X179670300Y-92784100D02*
X179670300Y-91344600D01*
X174837100Y-97617300D02*
X179670300Y-92784100D01*
X173963800Y-97617300D02*
X174837100Y-97617300D01*
%TO.N,/PH4*%
X128067200Y-55335200D02*
X176642800Y-55335200D01*
X128019500Y-55287500D02*
X128067200Y-55335200D01*
%TO.N,/PH3*%
X126238000Y-65786000D02*
X127426700Y-65786000D01*
X143862400Y-65916200D02*
X142283000Y-67495600D01*
X128764800Y-67495600D02*
X127426700Y-66157500D01*
X127426700Y-66157500D02*
X127426700Y-65786000D01*
X142283000Y-67495600D02*
X128764800Y-67495600D01*
%TO.N,/OSC_14M318*%
X104332000Y-94615000D02*
X122585300Y-76361700D01*
X122585300Y-76361700D02*
X133042500Y-76361700D01*
%TO.N,/ALE*%
X135907600Y-66993400D02*
X135128000Y-66213800D01*
X138938000Y-65786000D02*
X137730600Y-66993400D01*
X135128000Y-65342200D02*
X133991400Y-64205600D01*
X137730600Y-66993400D02*
X135907600Y-66993400D01*
X135128000Y-66213800D02*
X135128000Y-65342200D01*
X133991400Y-64205600D02*
X131907200Y-64205600D01*
%TO.N,/IRQ3*%
X125827700Y-53634400D02*
X123323300Y-51130000D01*
X123323300Y-51130000D02*
X122428000Y-51130000D01*
X180837100Y-53634400D02*
X125827700Y-53634400D01*
X185436500Y-58233800D02*
X180837100Y-53634400D01*
%TO.N,/IRQ5*%
X177532100Y-54562400D02*
X185349300Y-62379600D01*
X123599700Y-52943100D02*
X125219000Y-54562400D01*
X125219000Y-54562400D02*
X177532100Y-54562400D01*
X119161100Y-52943100D02*
X123599700Y-52943100D01*
X117348000Y-51130000D02*
X119161100Y-52943100D01*
%TO.N,/IRQ7*%
X140090000Y-72752200D02*
X145233800Y-77896000D01*
X112542800Y-51130000D02*
X115706300Y-54293500D01*
X120658600Y-54293500D02*
X122127200Y-55762100D01*
X151228500Y-77896000D02*
X167058500Y-93726000D01*
X129024400Y-72752200D02*
X140090000Y-72752200D01*
X167058500Y-93726000D02*
X171958000Y-93726000D01*
X112268000Y-51130000D02*
X112542800Y-51130000D01*
X145233800Y-77896000D02*
X151228500Y-77896000D01*
X115706300Y-54293500D02*
X120658600Y-54293500D01*
%TO.N,/DRQ1*%
X138865500Y-78401400D02*
X134687400Y-74223300D01*
X107780900Y-54262900D02*
X111688400Y-54262900D01*
X113519400Y-56093900D02*
X119134800Y-56093900D01*
X134687400Y-74223300D02*
X130698000Y-74223300D01*
X130698000Y-74223300D02*
X130071300Y-74850000D01*
X171223700Y-100157300D02*
X149467800Y-78401400D01*
X149467800Y-78401400D02*
X138865500Y-78401400D01*
X173309300Y-101346000D02*
X173309300Y-100974400D01*
X119134800Y-56093900D02*
X120457900Y-57417000D01*
X172492200Y-100157300D02*
X171223700Y-100157300D01*
X111688400Y-54262900D02*
X113519400Y-56093900D01*
X173309300Y-100974400D02*
X172492200Y-100157300D01*
X104648000Y-51130000D02*
X107780900Y-54262900D01*
X174498000Y-101346000D02*
X173309300Y-101346000D01*
%TO.N,/PH0*%
X110282800Y-61444600D02*
X125300600Y-61444600D01*
X108571200Y-59733000D02*
X110282800Y-61444600D01*
X154178000Y-65786000D02*
X152989300Y-65786000D01*
X125419500Y-61563500D02*
X138360500Y-61563500D01*
X152989300Y-65416600D02*
X152989300Y-65786000D01*
X107647000Y-59733000D02*
X108571200Y-59733000D01*
X138821700Y-62024700D02*
X149597400Y-62024700D01*
X138360500Y-61563500D02*
X138821700Y-62024700D01*
X125300600Y-61444600D02*
X125419500Y-61563500D01*
X149597400Y-62024700D02*
X152989300Y-65416600D01*
%TO.N,/DRQ3*%
X170769300Y-101009400D02*
X153653100Y-83893200D01*
X170769300Y-101346000D02*
X170769300Y-101009400D01*
X142885300Y-83893200D02*
X133940500Y-74948400D01*
X171958000Y-101346000D02*
X170769300Y-101346000D01*
X133940500Y-74948400D02*
X132349800Y-74948400D01*
X153653100Y-83893200D02*
X142885300Y-83893200D01*
%TO.N,/PH1*%
X110096300Y-61894700D02*
X125114100Y-61894700D01*
X151638000Y-65786000D02*
X150449300Y-65786000D01*
X106427500Y-60458200D02*
X108659800Y-60458200D01*
X138174000Y-62013600D02*
X138635200Y-62474800D01*
X108659800Y-60458200D02*
X110096300Y-61894700D01*
X150449300Y-65416600D02*
X150449300Y-65786000D01*
X125114100Y-61894700D02*
X125233000Y-62013600D01*
X105698800Y-59729500D02*
X106427500Y-60458200D01*
X147507500Y-62474800D02*
X150449300Y-65416600D01*
X125233000Y-62013600D02*
X138174000Y-62013600D01*
X138635200Y-62474800D02*
X147507500Y-62474800D01*
%TO.N,/PG0*%
X112304600Y-55515800D02*
X113332800Y-56544000D01*
X94488000Y-51130000D02*
X98873800Y-55515800D01*
X172492200Y-89997300D02*
X167509800Y-89997300D01*
X173309300Y-90814400D02*
X172492200Y-89997300D01*
X98873800Y-55515800D02*
X112304600Y-55515800D01*
X167509800Y-89997300D02*
X151208500Y-73696000D01*
X151208500Y-73696000D02*
X148416700Y-73696000D01*
X119954100Y-58144200D02*
X126667800Y-58144200D01*
X126667800Y-58144200D02*
X126786700Y-58263100D01*
X113332800Y-56544000D02*
X118353900Y-56544000D01*
X118353900Y-56544000D02*
X119954100Y-58144200D01*
X126786700Y-58263100D02*
X140167500Y-58263100D01*
X140167500Y-58263100D02*
X140315100Y-58410700D01*
X173309300Y-91186000D02*
X173309300Y-90814400D01*
X174498000Y-91186000D02*
X173309300Y-91186000D01*
%TO.N,/PG1*%
X167231600Y-70309100D02*
X167082400Y-70159900D01*
X167082400Y-70159900D02*
X144254800Y-70159900D01*
X120319600Y-64146900D02*
X108660200Y-64146900D01*
X142040600Y-67945700D02*
X124118400Y-67945700D01*
X124118400Y-67945700D02*
X120319600Y-64146900D01*
X144254800Y-70159900D02*
X142040600Y-67945700D01*
X107445700Y-62932400D02*
X104469100Y-62932400D01*
X104469100Y-62932400D02*
X104309900Y-63091600D01*
X108660200Y-64146900D02*
X107445700Y-62932400D01*
%TO.N,/PG2*%
X105108800Y-64296600D02*
X101239400Y-64296600D01*
X174498000Y-88646000D02*
X174498000Y-87457300D01*
X174049000Y-74644300D02*
X173146800Y-73742100D01*
X159692100Y-71060100D02*
X143881800Y-71060100D01*
X141667600Y-68845900D02*
X108312900Y-68845900D01*
X175686800Y-86640000D02*
X175686800Y-75452500D01*
X174869500Y-87457300D02*
X175686800Y-86640000D01*
X160714500Y-72082500D02*
X159692100Y-71060100D01*
X172337700Y-72082500D02*
X160714500Y-72082500D01*
X174498000Y-87457300D02*
X174869500Y-87457300D01*
X174878600Y-74644300D02*
X174049000Y-74644300D01*
X105745300Y-64933100D02*
X105108800Y-64296600D01*
X108312900Y-68845900D02*
X105745300Y-66278300D01*
X105745300Y-66278300D02*
X105745300Y-64933100D01*
X173146800Y-73742100D02*
X173146800Y-72891600D01*
X143881800Y-71060100D02*
X141667600Y-68845900D01*
X175686800Y-75452500D02*
X174878600Y-74644300D01*
X173146800Y-72891600D02*
X172337700Y-72082500D01*
%TO.N,/PG5*%
X131318000Y-65786000D02*
X130129300Y-65786000D01*
X124369800Y-63696800D02*
X124487000Y-63814000D01*
X98104500Y-62366500D02*
X107516400Y-62366500D01*
X130129300Y-65414400D02*
X130129300Y-65786000D01*
X108846700Y-63696800D02*
X124369800Y-63696800D01*
X124487000Y-63814000D02*
X128528900Y-63814000D01*
X128528900Y-63814000D02*
X130129300Y-65414400D01*
X107516400Y-62366500D02*
X108846700Y-63696800D01*
%TO.N,/PJ0*%
X125046500Y-62463700D02*
X137987500Y-62463700D01*
X147909300Y-65416800D02*
X147909300Y-65786000D01*
X137987500Y-62463700D02*
X138448700Y-62924900D01*
X124927600Y-62344800D02*
X125046500Y-62463700D01*
X104824200Y-59880300D02*
X105852200Y-60908300D01*
X107968000Y-60908300D02*
X109404500Y-62344800D01*
X149098000Y-65786000D02*
X147909300Y-65786000D01*
X109404500Y-62344800D02*
X124927600Y-62344800D01*
X87998300Y-59880300D02*
X104824200Y-59880300D01*
X138448700Y-62924900D02*
X145417400Y-62924900D01*
X145417400Y-62924900D02*
X147909300Y-65416800D01*
X79248000Y-51130000D02*
X87998300Y-59880300D01*
X105852200Y-60908300D02*
X107968000Y-60908300D01*
%TO.N,/IRQ2*%
X174498000Y-95077300D02*
X174126400Y-95077300D01*
X169331900Y-92456000D02*
X152662900Y-75787000D01*
X174498000Y-96266000D02*
X174498000Y-95077300D01*
X173309300Y-93374100D02*
X172391200Y-92456000D01*
X88604300Y-70646300D02*
X69088000Y-51130000D01*
X152662900Y-75787000D02*
X146062300Y-75787000D01*
X172391200Y-92456000D02*
X169331900Y-92456000D01*
X146062300Y-75787000D02*
X140921600Y-70646300D01*
X140921600Y-70646300D02*
X88604300Y-70646300D01*
X174126400Y-95077300D02*
X173309300Y-94260200D01*
X173309300Y-94260200D02*
X173309300Y-93374100D01*
%TO.N,/PE0*%
X139984600Y-71371400D02*
X84249400Y-71371400D01*
X84249400Y-71371400D02*
X64008000Y-51130000D01*
%TO.N,/PE4*%
X136398000Y-65786000D02*
X137586700Y-65786000D01*
X137586700Y-65786000D02*
X137586700Y-65414500D01*
X137586700Y-65414500D02*
X138438200Y-64563000D01*
X138438200Y-64563000D02*
X140451700Y-64563000D01*
%TO.N,/LA17*%
X142001300Y-48328900D02*
X131203000Y-48328900D01*
X165608000Y-46050000D02*
X164435600Y-44877600D01*
X128778000Y-50753900D02*
X128778000Y-51504900D01*
X131203000Y-48328900D02*
X128778000Y-50753900D01*
X128778000Y-51504900D02*
X127697700Y-52585200D01*
X145452600Y-44877600D02*
X142001300Y-48328900D01*
X164435600Y-44877600D02*
X145452600Y-44877600D01*
%TO.N,/LA18*%
X154178000Y-114046000D02*
X154178000Y-95583400D01*
X154178000Y-95583400D02*
X154679500Y-95081900D01*
%TO.N,/LA20*%
X159258000Y-114046000D02*
X159258000Y-112857300D01*
X159259200Y-112857300D02*
X161249400Y-110867100D01*
X159258000Y-112857300D02*
X159259200Y-112857300D01*
%TO.N,/PE3*%
X145098900Y-48779100D02*
X133217600Y-48779100D01*
X129956700Y-52896700D02*
X129127000Y-52896700D01*
X147828000Y-46050000D02*
X145098900Y-48779100D01*
X133217600Y-48779100D02*
X131386000Y-50610700D01*
X131386000Y-50610700D02*
X131386000Y-51467400D01*
X131386000Y-51467400D02*
X129956700Y-52896700D01*
%TO.N,/A0*%
X172391200Y-102616000D02*
X171350400Y-102616000D01*
X174126400Y-105237300D02*
X173309300Y-104420200D01*
X174498000Y-106426000D02*
X174498000Y-105237300D01*
X174498000Y-105237300D02*
X174126400Y-105237300D01*
X173309300Y-104420200D02*
X173309300Y-103534100D01*
X171350400Y-102616000D02*
X153680400Y-84946000D01*
X173309300Y-103534100D02*
X172391200Y-102616000D01*
%TO.N,/A1*%
X170769300Y-106426000D02*
X170769300Y-105237500D01*
X171958000Y-106426000D02*
X170769300Y-106426000D01*
X170769300Y-105237500D02*
X153505400Y-87973600D01*
%TO.N,/A3*%
X141216300Y-85935800D02*
X135092100Y-79811600D01*
X171958000Y-103886000D02*
X170769300Y-103886000D01*
X152819100Y-85935800D02*
X141216300Y-85935800D01*
X170769300Y-103886000D02*
X152819100Y-85935800D01*
%TO.N,/A10*%
X122416600Y-49459900D02*
X116545000Y-49459900D01*
X113135100Y-46050000D02*
X112268000Y-46050000D01*
X116545000Y-49459900D02*
X113135100Y-46050000D01*
%TO.N,/A11*%
X135209300Y-114046000D02*
X135209300Y-113674500D01*
X136398000Y-114046000D02*
X135209300Y-114046000D01*
X135209300Y-113674500D02*
X133114600Y-111579800D01*
X133114600Y-111579800D02*
X112665400Y-111579800D01*
%TO.N,/A12*%
X77978000Y-45677900D02*
X77978000Y-46439400D01*
X103111700Y-93983700D02*
X103111700Y-91601200D01*
X78765000Y-47226400D02*
X82271200Y-47226400D01*
X77978000Y-46439400D02*
X78765000Y-47226400D01*
X82271200Y-47226400D02*
X83058000Y-46439600D01*
X62833100Y-51594500D02*
X62833100Y-45565300D01*
X102992500Y-94102900D02*
X103111700Y-93983700D01*
X117352700Y-93277900D02*
X107370500Y-93277900D01*
X62833100Y-45565300D02*
X63959600Y-44438800D01*
X102992500Y-94988400D02*
X102992500Y-94102900D01*
X83058000Y-45669400D02*
X83830100Y-44897300D01*
X107370500Y-93277900D02*
X105390400Y-95258000D01*
X76738900Y-44438800D02*
X77978000Y-45677900D01*
X137749300Y-113674500D02*
X117352700Y-93277900D01*
X103111700Y-91601200D02*
X64934100Y-53423600D01*
X137749300Y-114046000D02*
X137749300Y-113674500D01*
X138938000Y-114046000D02*
X137749300Y-114046000D01*
X83058000Y-46439600D02*
X83058000Y-45669400D01*
X103262100Y-95258000D02*
X102992500Y-94988400D01*
X106035300Y-44897300D02*
X107188000Y-46050000D01*
X64934100Y-53423600D02*
X64662200Y-53423600D01*
X63959600Y-44438800D02*
X76738900Y-44438800D01*
X105390400Y-95258000D02*
X103262100Y-95258000D01*
X64662200Y-53423600D02*
X62833100Y-51594500D01*
X83830100Y-44897300D02*
X106035300Y-44897300D01*
%TO.N,/A13*%
X110444100Y-60580500D02*
X115395900Y-60580500D01*
X109794800Y-59931200D02*
X110444100Y-60580500D01*
%TO.N,/A14*%
X116746500Y-67450400D02*
X109449800Y-67450400D01*
X109449800Y-67450400D02*
X108122700Y-66123300D01*
X108122700Y-65293700D02*
X106968500Y-64139500D01*
X108122700Y-66123300D02*
X108122700Y-65293700D01*
X106968500Y-64139500D02*
X106204200Y-64139500D01*
%TO.N,/A16*%
X113157600Y-47830900D02*
X116078000Y-50751300D01*
X98808900Y-47830900D02*
X113157600Y-47830900D01*
X157249100Y-55881100D02*
X157503700Y-56135700D01*
X116078000Y-50751300D02*
X116078000Y-51515000D01*
X117956300Y-53393300D02*
X122496000Y-53393300D01*
X116078000Y-51515000D02*
X117956300Y-53393300D01*
X122496000Y-53393300D02*
X124983800Y-55881100D01*
X128451400Y-55881100D02*
X157249100Y-55881100D01*
X127719200Y-56012600D02*
X128319900Y-56012600D01*
X97028000Y-46050000D02*
X98808900Y-47830900D01*
X128319900Y-56012600D02*
X128451400Y-55881100D01*
X127587700Y-55881100D02*
X127719200Y-56012600D01*
X124983800Y-55881100D02*
X127587700Y-55881100D01*
%TO.N,/A17*%
X94488000Y-46050000D02*
X97030900Y-48592900D01*
X124362600Y-56335200D02*
X127405200Y-56335200D01*
X113538000Y-50733900D02*
X113538000Y-51488500D01*
X97030900Y-48592900D02*
X111397000Y-48592900D01*
X127532700Y-56462700D02*
X128506400Y-56462700D01*
X128633900Y-56335200D02*
X155564000Y-56335200D01*
X155564000Y-56335200D02*
X155839100Y-56610300D01*
X113538000Y-51488500D02*
X115892900Y-53843400D01*
X127405200Y-56335200D02*
X127532700Y-56462700D01*
X111397000Y-48592900D02*
X113538000Y-50733900D01*
X115892900Y-53843400D02*
X121870800Y-53843400D01*
X121870800Y-53843400D02*
X124362600Y-56335200D01*
X128506400Y-56462700D02*
X128633900Y-56335200D01*
%TO.N,/A18*%
X128820400Y-56785300D02*
X149627600Y-56785300D01*
X127346200Y-56912800D02*
X128692900Y-56912800D01*
X110998000Y-51490700D02*
X112058600Y-52551300D01*
X127218700Y-56785300D02*
X127346200Y-56912800D01*
X109283600Y-49043100D02*
X110998000Y-50757500D01*
X122125000Y-56785300D02*
X127218700Y-56785300D01*
X112058600Y-52551300D02*
X113327400Y-52551300D01*
X149627600Y-56785300D02*
X149941300Y-57099000D01*
X94941100Y-49043100D02*
X109283600Y-49043100D01*
X159258000Y-65786000D02*
X156172400Y-62700400D01*
X156172400Y-62700400D02*
X155542700Y-62700400D01*
X115519700Y-54743600D02*
X120083300Y-54743600D01*
X120083300Y-54743600D02*
X122125000Y-56785300D01*
X110998000Y-50757500D02*
X110998000Y-51490700D01*
X128692900Y-56912800D02*
X128820400Y-56785300D01*
X91948000Y-46050000D02*
X94941100Y-49043100D01*
X113327400Y-52551300D02*
X115519700Y-54743600D01*
%TO.N,/A19*%
X90737300Y-47379300D02*
X92640600Y-47379300D01*
X110044200Y-53137600D02*
X113277100Y-53137600D01*
X128879400Y-57362900D02*
X129006900Y-57235400D01*
X115333200Y-55193700D02*
X119896800Y-55193700D01*
X113277100Y-53137600D02*
X115333200Y-55193700D01*
X127032200Y-57235400D02*
X127159700Y-57362900D01*
X89408000Y-46050000D02*
X90737300Y-47379300D01*
X92640600Y-47379300D02*
X94790400Y-49529100D01*
X119896800Y-55193700D02*
X121938500Y-57235400D01*
X129006900Y-57235400D02*
X147794100Y-57235400D01*
X107216900Y-49529100D02*
X108458000Y-50770200D01*
X108458000Y-50770200D02*
X108458000Y-51551400D01*
X147794100Y-57235400D02*
X148107800Y-57549100D01*
X127159700Y-57362900D02*
X128879400Y-57362900D01*
X108458000Y-51551400D02*
X110044200Y-53137600D01*
X121938500Y-57235400D02*
X127032200Y-57235400D01*
X94790400Y-49529100D02*
X107216900Y-49529100D01*
%TO.N,/AEN*%
X129193400Y-57685500D02*
X146793900Y-57685500D01*
X171958000Y-87457300D02*
X171586500Y-87457300D01*
X146793900Y-57685500D02*
X147107600Y-57999200D01*
X108200100Y-53812800D02*
X113144700Y-53812800D01*
X113144700Y-53812800D02*
X114975700Y-55643800D01*
X105918000Y-51530700D02*
X108200100Y-53812800D01*
X105918000Y-50754900D02*
X105918000Y-51530700D01*
X88647500Y-47829500D02*
X92251900Y-47829500D01*
X86868000Y-46050000D02*
X88647500Y-47829500D01*
X171586500Y-87457300D02*
X159775300Y-75646100D01*
X126845700Y-57685500D02*
X126973200Y-57813000D01*
X105142400Y-49979300D02*
X105918000Y-50754900D01*
X94401700Y-49979300D02*
X105142400Y-49979300D01*
X92251900Y-47829500D02*
X94401700Y-49979300D01*
X171958000Y-88646000D02*
X171958000Y-87457300D01*
X126973200Y-57813000D02*
X129065900Y-57813000D01*
X121752000Y-57685500D02*
X126845700Y-57685500D01*
X129065900Y-57813000D02*
X129193400Y-57685500D01*
X119710300Y-55643800D02*
X121752000Y-57685500D01*
X114975700Y-55643800D02*
X119710300Y-55643800D01*
%TO.N,/PH6*%
X111481600Y-55966000D02*
X112509700Y-56994100D01*
X91086300Y-48590000D02*
X93130900Y-50634600D01*
X112509700Y-56994100D02*
X117759800Y-56994100D01*
X97653300Y-55966000D02*
X111481600Y-55966000D01*
X93130900Y-51443600D02*
X97653300Y-55966000D01*
X84328000Y-46050000D02*
X86868000Y-48590000D01*
X86868000Y-48590000D02*
X91086300Y-48590000D01*
X117759800Y-56994100D02*
X118382100Y-57616400D01*
X93130900Y-50634600D02*
X93130900Y-51443600D01*
%TO.N,/D0*%
X145037600Y-65992800D02*
X147370800Y-68326000D01*
X104995400Y-61077000D02*
X105276800Y-61358400D01*
X107781500Y-61358400D02*
X109218000Y-62794900D01*
X145037600Y-65429300D02*
X145037600Y-65992800D01*
X137801000Y-62913800D02*
X138262200Y-63375000D01*
X147370800Y-68326000D02*
X171958000Y-68326000D01*
X109218000Y-62794900D02*
X124741100Y-62794900D01*
X142983300Y-63375000D02*
X145037600Y-65429300D01*
X138262200Y-63375000D02*
X142983300Y-63375000D01*
X124860000Y-62913800D02*
X137801000Y-62913800D01*
X105276800Y-61358400D02*
X107781500Y-61358400D01*
X124741100Y-62794900D02*
X124860000Y-62913800D01*
%TO.N,/D1*%
X110998000Y-45656000D02*
X109737600Y-44395600D01*
X113633100Y-47261400D02*
X111846500Y-47261400D01*
X80902400Y-44395600D02*
X79248000Y-46050000D01*
X121158000Y-50772600D02*
X120364700Y-49979300D01*
X116351000Y-49979300D02*
X113633100Y-47261400D01*
X123930200Y-52373600D02*
X122024600Y-52373600D01*
X121158000Y-51507000D02*
X121158000Y-50772600D01*
X122024600Y-52373600D02*
X121158000Y-51507000D01*
X111846500Y-47261400D02*
X110998000Y-46412900D01*
X110998000Y-46412900D02*
X110998000Y-45656000D01*
X125668800Y-54112200D02*
X123930200Y-52373600D01*
X109737600Y-44395600D02*
X80902400Y-44395600D01*
X179198400Y-54112200D02*
X125668800Y-54112200D01*
X120364700Y-49979300D02*
X116351000Y-49979300D01*
X181608200Y-56522000D02*
X179198400Y-54112200D01*
%TO.N,/D2*%
X103602900Y-63410000D02*
X100280200Y-63410000D01*
X144068300Y-70610000D02*
X141854100Y-68395800D01*
X123931900Y-68395800D02*
X120133300Y-64597200D01*
X104009600Y-63816700D02*
X103602900Y-63410000D01*
X108473800Y-64597200D02*
X107286600Y-63410000D01*
X166507000Y-70610000D02*
X144068300Y-70610000D01*
X166941600Y-71044600D02*
X166507000Y-70610000D01*
X171958000Y-70866000D02*
X170769300Y-70866000D01*
X107286600Y-63410000D02*
X105217600Y-63410000D01*
X170590700Y-71044600D02*
X166941600Y-71044600D01*
X104810900Y-63816700D02*
X104009600Y-63816700D01*
X170769300Y-70866000D02*
X170590700Y-71044600D01*
X105217600Y-63410000D02*
X104810900Y-63816700D01*
X120133300Y-64597200D02*
X108473800Y-64597200D01*
X141854100Y-68395800D02*
X123931900Y-68395800D01*
%TO.N,/D3*%
X156102700Y-63425500D02*
X157988000Y-65310800D01*
X139008200Y-61574600D02*
X153391500Y-61574600D01*
X117340400Y-60994500D02*
X125487100Y-60994500D01*
X74168000Y-46050000D02*
X75830000Y-47712000D01*
X169336500Y-67716700D02*
X169919800Y-67133400D01*
X153391500Y-61574600D02*
X155242400Y-63425500D01*
X173309300Y-68860200D02*
X174126400Y-69677300D01*
X75830000Y-47712000D02*
X77496800Y-47712000D01*
X174126400Y-69677300D02*
X174498000Y-69677300D01*
X125487100Y-60994500D02*
X125606000Y-61113400D01*
X80518000Y-50733200D02*
X80518000Y-51530700D01*
X174498000Y-70866000D02*
X174498000Y-69677300D01*
X77496800Y-47712000D02*
X80518000Y-50733200D01*
X169919800Y-67133400D02*
X172503400Y-67133400D01*
X105287600Y-59115300D02*
X105404400Y-58998500D01*
X172503400Y-67133400D02*
X173309300Y-67939300D01*
X88102600Y-59115300D02*
X105287600Y-59115300D01*
X105404400Y-58998500D02*
X109887600Y-58998500D01*
X125606000Y-61113400D02*
X138547000Y-61113400D01*
X157988000Y-65310800D02*
X157988000Y-66228400D01*
X173309300Y-67939300D02*
X173309300Y-68860200D01*
X80518000Y-51530700D02*
X88102600Y-59115300D01*
X159476300Y-67716700D02*
X169336500Y-67716700D01*
X116190300Y-59844400D02*
X117340400Y-60994500D01*
X157988000Y-66228400D02*
X159476300Y-67716700D01*
X138547000Y-61113400D02*
X139008200Y-61574600D01*
X155242400Y-63425500D02*
X156102700Y-63425500D01*
X110733500Y-59844400D02*
X116190300Y-59844400D01*
X109887600Y-58998500D02*
X110733500Y-59844400D01*
%TO.N,/D4*%
X143695300Y-71510200D02*
X141481100Y-69296000D01*
X75438000Y-51489800D02*
X75438000Y-49860000D01*
X171958000Y-73406000D02*
X170769300Y-73406000D01*
X93244200Y-69296000D02*
X75438000Y-51489800D01*
X161401400Y-73406000D02*
X159505600Y-71510200D01*
X141481100Y-69296000D02*
X93244200Y-69296000D01*
X170769300Y-73406000D02*
X161401400Y-73406000D01*
X159505600Y-71510200D02*
X143695300Y-71510200D01*
X75438000Y-49860000D02*
X71628000Y-46050000D01*
%TO.N,/D5*%
X77978000Y-51492300D02*
X86816200Y-60330500D01*
X144587500Y-66179300D02*
X147966400Y-69558200D01*
X124554600Y-63245000D02*
X124673500Y-63363900D01*
X137614500Y-63363900D02*
X138075700Y-63825100D01*
X109031500Y-63245000D02*
X124554600Y-63245000D01*
X174498000Y-73406000D02*
X174498000Y-72217300D01*
X142796800Y-63825100D02*
X144587500Y-65615800D01*
X76732500Y-49499300D02*
X77978000Y-50744800D01*
X70249000Y-44889000D02*
X72139000Y-44889000D01*
X104646400Y-61808500D02*
X107595000Y-61808500D01*
X69088000Y-46050000D02*
X70249000Y-44889000D01*
X107595000Y-61808500D02*
X109031500Y-63245000D01*
X72898000Y-45648000D02*
X72898000Y-46424500D01*
X174128500Y-72217300D02*
X174498000Y-72217300D01*
X75972800Y-49499300D02*
X76732500Y-49499300D01*
X77978000Y-50744800D02*
X77978000Y-51492300D01*
X173228000Y-71316800D02*
X174128500Y-72217300D01*
X124673500Y-63363900D02*
X137614500Y-63363900D01*
X72139000Y-44889000D02*
X72898000Y-45648000D01*
X172353400Y-69558200D02*
X173228000Y-70432800D01*
X86816200Y-60330500D02*
X103168400Y-60330500D01*
X138075700Y-63825100D02*
X142796800Y-63825100D01*
X173228000Y-70432800D02*
X173228000Y-71316800D01*
X144587500Y-65615800D02*
X144587500Y-66179300D01*
X147966400Y-69558200D02*
X172353400Y-69558200D01*
X72898000Y-46424500D02*
X75972800Y-49499300D01*
X103168400Y-60330500D02*
X104646400Y-61808500D01*
%TO.N,/D6*%
X72898000Y-51527700D02*
X72898000Y-50733200D01*
X162761200Y-75946000D02*
X158885900Y-72070700D01*
X69886100Y-47721300D02*
X68219300Y-47721300D01*
X72898000Y-50733200D02*
X69886100Y-47721300D01*
X68219300Y-47721300D02*
X66548000Y-46050000D01*
X158885900Y-72070700D02*
X143619200Y-72070700D01*
X141294600Y-69746100D02*
X91116400Y-69746100D01*
X170769300Y-75946000D02*
X162761200Y-75946000D01*
X171958000Y-75946000D02*
X170769300Y-75946000D01*
X143619200Y-72070700D02*
X141294600Y-69746100D01*
X91116400Y-69746100D02*
X72898000Y-51527700D01*
%TO.N,/D7*%
X163228800Y-77143200D02*
X159056500Y-72970900D01*
X89023500Y-70196200D02*
X70358000Y-51530700D01*
X173309300Y-75946000D02*
X173309300Y-76317500D01*
X70358000Y-50748700D02*
X68843600Y-49234300D01*
X68843600Y-49234300D02*
X67192300Y-49234300D01*
X141108100Y-70196200D02*
X89023500Y-70196200D01*
X67192300Y-49234300D02*
X64008000Y-46050000D01*
X174498000Y-75946000D02*
X173309300Y-75946000D01*
X143882800Y-72970900D02*
X141108100Y-70196200D01*
X159056500Y-72970900D02*
X143882800Y-72970900D01*
X172483600Y-77143200D02*
X163228800Y-77143200D01*
X70358000Y-51530700D02*
X70358000Y-50748700D01*
X173309300Y-76317500D02*
X172483600Y-77143200D01*
D22*
%TO.N,Net-(C4-Pad1)*%
X110474000Y-102870000D02*
X109220000Y-101616000D01*
D23*
X110474000Y-102870000D02*
X110998000Y-103394000D01*
D22*
X110998000Y-107335000D02*
X110998000Y-103394000D01*
X109220000Y-101616000D02*
X109220000Y-98487000D01*
D23*
%TO.N,Net-(C5-Pad1)*%
X105156000Y-105321500D02*
X105594000Y-104883500D01*
D22*
X105594000Y-102870000D02*
X104267000Y-101543000D01*
X105156000Y-107335000D02*
X105156000Y-103308000D01*
D23*
X105594000Y-104883500D02*
X105594000Y-102870000D01*
D22*
X104267000Y-101543000D02*
X104267000Y-98490000D01*
D23*
%TO.N,/PC7*%
X193106500Y-52060500D02*
X188934400Y-56232600D01*
X188934400Y-56232600D02*
X186389100Y-56232600D01*
X191008000Y-46050000D02*
X193106500Y-48148500D01*
X193106500Y-48148500D02*
X193106500Y-52060500D01*
%TO.N,/PC4*%
X189776200Y-47536300D02*
X192641500Y-50401600D01*
X185849700Y-54816000D02*
X185788200Y-54754500D01*
X192641500Y-51888800D02*
X189714300Y-54816000D01*
X184874300Y-47536300D02*
X189776200Y-47536300D01*
X183388000Y-46050000D02*
X184874300Y-47536300D01*
X189714300Y-54816000D02*
X185849700Y-54816000D01*
X192641500Y-50401600D02*
X192641500Y-51888800D01*
%TO.N,/PC2*%
X192174400Y-51639300D02*
X189741400Y-54072300D01*
X180711800Y-48453800D02*
X190057000Y-48453800D01*
X190057000Y-48453800D02*
X192174400Y-50571200D01*
X178308000Y-46050000D02*
X180711800Y-48453800D01*
X189741400Y-54072300D02*
X187043900Y-54072300D01*
X192174400Y-50571200D02*
X192174400Y-51639300D01*
%TO.N,/PC0*%
X191550700Y-44886100D02*
X174391900Y-44886100D01*
X185409800Y-60483400D02*
X193574400Y-52318800D01*
X184689400Y-60483400D02*
X185409800Y-60483400D01*
X193574400Y-52318800D02*
X193574400Y-46909800D01*
X174391900Y-44886100D02*
X173228000Y-46050000D01*
X193574400Y-46909800D02*
X191550700Y-44886100D01*
%TD*%
M02*
