%TF.GenerationSoftware,KiCad,Pcbnew,(6.0.11)*%
%TF.CreationDate,2023-03-11T15:53:01-07:00*%
%TF.ProjectId,arduino-mega-isa-shield,61726475-696e-46f2-9d6d-6567612d6973,rev?*%
%TF.SameCoordinates,Original*%
%TF.FileFunction,Legend,Top*%
%TF.FilePolarity,Positive*%
%FSLAX46Y46*%
G04 Gerber Fmt 4.6, Leading zero omitted, Abs format (unit mm)*
G04 Created by KiCad (PCBNEW (6.0.11)) date 2023-03-11 15:53:01*
%MOMM*%
%LPD*%
G01*
G04 APERTURE LIST*
%ADD10C,0.150000*%
%ADD11C,0.075000*%
%ADD12C,0.120000*%
G04 APERTURE END LIST*
D10*
X152218333Y-103880666D02*
X152694523Y-103880666D01*
X152123095Y-104166380D02*
X152456428Y-103166380D01*
X152789761Y-104166380D01*
X153123095Y-104166380D02*
X153123095Y-103499714D01*
X153123095Y-103690190D02*
X153170714Y-103594952D01*
X153218333Y-103547333D01*
X153313571Y-103499714D01*
X153408809Y-103499714D01*
X154170714Y-104166380D02*
X154170714Y-103166380D01*
X154170714Y-104118761D02*
X154075476Y-104166380D01*
X153885000Y-104166380D01*
X153789761Y-104118761D01*
X153742142Y-104071142D01*
X153694523Y-103975904D01*
X153694523Y-103690190D01*
X153742142Y-103594952D01*
X153789761Y-103547333D01*
X153885000Y-103499714D01*
X154075476Y-103499714D01*
X154170714Y-103547333D01*
X155075476Y-103499714D02*
X155075476Y-104166380D01*
X154646904Y-103499714D02*
X154646904Y-104023523D01*
X154694523Y-104118761D01*
X154789761Y-104166380D01*
X154932619Y-104166380D01*
X155027857Y-104118761D01*
X155075476Y-104071142D01*
X155551666Y-104166380D02*
X155551666Y-103499714D01*
X155551666Y-103166380D02*
X155504047Y-103214000D01*
X155551666Y-103261619D01*
X155599285Y-103214000D01*
X155551666Y-103166380D01*
X155551666Y-103261619D01*
X156027857Y-103499714D02*
X156027857Y-104166380D01*
X156027857Y-103594952D02*
X156075476Y-103547333D01*
X156170714Y-103499714D01*
X156313571Y-103499714D01*
X156408809Y-103547333D01*
X156456428Y-103642571D01*
X156456428Y-104166380D01*
X157075476Y-104166380D02*
X156980238Y-104118761D01*
X156932619Y-104071142D01*
X156885000Y-103975904D01*
X156885000Y-103690190D01*
X156932619Y-103594952D01*
X156980238Y-103547333D01*
X157075476Y-103499714D01*
X157218333Y-103499714D01*
X157313571Y-103547333D01*
X157361190Y-103594952D01*
X157408809Y-103690190D01*
X157408809Y-103975904D01*
X157361190Y-104071142D01*
X157313571Y-104118761D01*
X157218333Y-104166380D01*
X157075476Y-104166380D01*
X158599285Y-104166380D02*
X158599285Y-103166380D01*
X158932619Y-103880666D01*
X159265952Y-103166380D01*
X159265952Y-104166380D01*
X160123095Y-104118761D02*
X160027857Y-104166380D01*
X159837380Y-104166380D01*
X159742142Y-104118761D01*
X159694523Y-104023523D01*
X159694523Y-103642571D01*
X159742142Y-103547333D01*
X159837380Y-103499714D01*
X160027857Y-103499714D01*
X160123095Y-103547333D01*
X160170714Y-103642571D01*
X160170714Y-103737809D01*
X159694523Y-103833047D01*
X161027857Y-103499714D02*
X161027857Y-104309238D01*
X160980238Y-104404476D01*
X160932619Y-104452095D01*
X160837380Y-104499714D01*
X160694523Y-104499714D01*
X160599285Y-104452095D01*
X161027857Y-104118761D02*
X160932619Y-104166380D01*
X160742142Y-104166380D01*
X160646904Y-104118761D01*
X160599285Y-104071142D01*
X160551666Y-103975904D01*
X160551666Y-103690190D01*
X160599285Y-103594952D01*
X160646904Y-103547333D01*
X160742142Y-103499714D01*
X160932619Y-103499714D01*
X161027857Y-103547333D01*
X161932619Y-104166380D02*
X161932619Y-103642571D01*
X161885000Y-103547333D01*
X161789761Y-103499714D01*
X161599285Y-103499714D01*
X161504047Y-103547333D01*
X161932619Y-104118761D02*
X161837380Y-104166380D01*
X161599285Y-104166380D01*
X161504047Y-104118761D01*
X161456428Y-104023523D01*
X161456428Y-103928285D01*
X161504047Y-103833047D01*
X161599285Y-103785428D01*
X161837380Y-103785428D01*
X161932619Y-103737809D01*
X163123095Y-103261619D02*
X163170714Y-103214000D01*
X163265952Y-103166380D01*
X163504047Y-103166380D01*
X163599285Y-103214000D01*
X163646904Y-103261619D01*
X163694523Y-103356857D01*
X163694523Y-103452095D01*
X163646904Y-103594952D01*
X163075476Y-104166380D01*
X163694523Y-104166380D01*
X164599285Y-103166380D02*
X164123095Y-103166380D01*
X164075476Y-103642571D01*
X164123095Y-103594952D01*
X164218333Y-103547333D01*
X164456428Y-103547333D01*
X164551666Y-103594952D01*
X164599285Y-103642571D01*
X164646904Y-103737809D01*
X164646904Y-103975904D01*
X164599285Y-104071142D01*
X164551666Y-104118761D01*
X164456428Y-104166380D01*
X164218333Y-104166380D01*
X164123095Y-104118761D01*
X164075476Y-104071142D01*
X165504047Y-103166380D02*
X165313571Y-103166380D01*
X165218333Y-103214000D01*
X165170714Y-103261619D01*
X165075476Y-103404476D01*
X165027857Y-103594952D01*
X165027857Y-103975904D01*
X165075476Y-104071142D01*
X165123095Y-104118761D01*
X165218333Y-104166380D01*
X165408809Y-104166380D01*
X165504047Y-104118761D01*
X165551666Y-104071142D01*
X165599285Y-103975904D01*
X165599285Y-103737809D01*
X165551666Y-103642571D01*
X165504047Y-103594952D01*
X165408809Y-103547333D01*
X165218333Y-103547333D01*
X165123095Y-103594952D01*
X165075476Y-103642571D01*
X165027857Y-103737809D01*
X166218333Y-103166380D02*
X166313571Y-103166380D01*
X166408809Y-103214000D01*
X166456428Y-103261619D01*
X166504047Y-103356857D01*
X166551666Y-103547333D01*
X166551666Y-103785428D01*
X166504047Y-103975904D01*
X166456428Y-104071142D01*
X166408809Y-104118761D01*
X166313571Y-104166380D01*
X166218333Y-104166380D01*
X166123095Y-104118761D01*
X166075476Y-104071142D01*
X166027857Y-103975904D01*
X165980238Y-103785428D01*
X165980238Y-103547333D01*
X166027857Y-103356857D01*
X166075476Y-103261619D01*
X166123095Y-103214000D01*
X166218333Y-103166380D01*
X153694523Y-105776380D02*
X153694523Y-104776380D01*
X154123095Y-105728761D02*
X154265952Y-105776380D01*
X154504047Y-105776380D01*
X154599285Y-105728761D01*
X154646904Y-105681142D01*
X154694523Y-105585904D01*
X154694523Y-105490666D01*
X154646904Y-105395428D01*
X154599285Y-105347809D01*
X154504047Y-105300190D01*
X154313571Y-105252571D01*
X154218333Y-105204952D01*
X154170714Y-105157333D01*
X154123095Y-105062095D01*
X154123095Y-104966857D01*
X154170714Y-104871619D01*
X154218333Y-104824000D01*
X154313571Y-104776380D01*
X154551666Y-104776380D01*
X154694523Y-104824000D01*
X155075476Y-105490666D02*
X155551666Y-105490666D01*
X154980238Y-105776380D02*
X155313571Y-104776380D01*
X155646904Y-105776380D01*
X157313571Y-105681142D02*
X157265952Y-105728761D01*
X157123095Y-105776380D01*
X157027857Y-105776380D01*
X156885000Y-105728761D01*
X156789761Y-105633523D01*
X156742142Y-105538285D01*
X156694523Y-105347809D01*
X156694523Y-105204952D01*
X156742142Y-105014476D01*
X156789761Y-104919238D01*
X156885000Y-104824000D01*
X157027857Y-104776380D01*
X157123095Y-104776380D01*
X157265952Y-104824000D01*
X157313571Y-104871619D01*
X158170714Y-105776380D02*
X158170714Y-105252571D01*
X158123095Y-105157333D01*
X158027857Y-105109714D01*
X157837380Y-105109714D01*
X157742142Y-105157333D01*
X158170714Y-105728761D02*
X158075476Y-105776380D01*
X157837380Y-105776380D01*
X157742142Y-105728761D01*
X157694523Y-105633523D01*
X157694523Y-105538285D01*
X157742142Y-105443047D01*
X157837380Y-105395428D01*
X158075476Y-105395428D01*
X158170714Y-105347809D01*
X158646904Y-105776380D02*
X158646904Y-105109714D01*
X158646904Y-105300190D02*
X158694523Y-105204952D01*
X158742142Y-105157333D01*
X158837380Y-105109714D01*
X158932619Y-105109714D01*
X159694523Y-105776380D02*
X159694523Y-104776380D01*
X159694523Y-105728761D02*
X159599285Y-105776380D01*
X159408809Y-105776380D01*
X159313571Y-105728761D01*
X159265952Y-105681142D01*
X159218333Y-105585904D01*
X159218333Y-105300190D01*
X159265952Y-105204952D01*
X159313571Y-105157333D01*
X159408809Y-105109714D01*
X159599285Y-105109714D01*
X159694523Y-105157333D01*
X160885000Y-105728761D02*
X161027857Y-105776380D01*
X161265952Y-105776380D01*
X161361190Y-105728761D01*
X161408809Y-105681142D01*
X161456428Y-105585904D01*
X161456428Y-105490666D01*
X161408809Y-105395428D01*
X161361190Y-105347809D01*
X161265952Y-105300190D01*
X161075476Y-105252571D01*
X160980238Y-105204952D01*
X160932619Y-105157333D01*
X160885000Y-105062095D01*
X160885000Y-104966857D01*
X160932619Y-104871619D01*
X160980238Y-104824000D01*
X161075476Y-104776380D01*
X161313571Y-104776380D01*
X161456428Y-104824000D01*
X161885000Y-105776380D02*
X161885000Y-104776380D01*
X162313571Y-105776380D02*
X162313571Y-105252571D01*
X162265952Y-105157333D01*
X162170714Y-105109714D01*
X162027857Y-105109714D01*
X161932619Y-105157333D01*
X161885000Y-105204952D01*
X162789761Y-105776380D02*
X162789761Y-105109714D01*
X162789761Y-104776380D02*
X162742142Y-104824000D01*
X162789761Y-104871619D01*
X162837380Y-104824000D01*
X162789761Y-104776380D01*
X162789761Y-104871619D01*
X163646904Y-105728761D02*
X163551666Y-105776380D01*
X163361190Y-105776380D01*
X163265952Y-105728761D01*
X163218333Y-105633523D01*
X163218333Y-105252571D01*
X163265952Y-105157333D01*
X163361190Y-105109714D01*
X163551666Y-105109714D01*
X163646904Y-105157333D01*
X163694523Y-105252571D01*
X163694523Y-105347809D01*
X163218333Y-105443047D01*
X164265952Y-105776380D02*
X164170714Y-105728761D01*
X164123095Y-105633523D01*
X164123095Y-104776380D01*
X165075476Y-105776380D02*
X165075476Y-104776380D01*
X165075476Y-105728761D02*
X164980238Y-105776380D01*
X164789761Y-105776380D01*
X164694523Y-105728761D01*
X164646904Y-105681142D01*
X164599285Y-105585904D01*
X164599285Y-105300190D01*
X164646904Y-105204952D01*
X164694523Y-105157333D01*
X164789761Y-105109714D01*
X164980238Y-105109714D01*
X165075476Y-105157333D01*
X156289761Y-107386380D02*
X156289761Y-106386380D01*
X156289761Y-106767333D02*
X156385000Y-106719714D01*
X156575476Y-106719714D01*
X156670714Y-106767333D01*
X156718333Y-106814952D01*
X156765952Y-106910190D01*
X156765952Y-107195904D01*
X156718333Y-107291142D01*
X156670714Y-107338761D01*
X156575476Y-107386380D01*
X156385000Y-107386380D01*
X156289761Y-107338761D01*
X157099285Y-106719714D02*
X157337380Y-107386380D01*
X157575476Y-106719714D02*
X157337380Y-107386380D01*
X157242142Y-107624476D01*
X157194523Y-107672095D01*
X157099285Y-107719714D01*
X158718333Y-107386380D02*
X158718333Y-106386380D01*
X158813571Y-107005428D02*
X159099285Y-107386380D01*
X159099285Y-106719714D02*
X158718333Y-107100666D01*
X159908809Y-107338761D02*
X159813571Y-107386380D01*
X159623095Y-107386380D01*
X159527857Y-107338761D01*
X159480238Y-107243523D01*
X159480238Y-106862571D01*
X159527857Y-106767333D01*
X159623095Y-106719714D01*
X159813571Y-106719714D01*
X159908809Y-106767333D01*
X159956428Y-106862571D01*
X159956428Y-106957809D01*
X159480238Y-107053047D01*
X160765952Y-107338761D02*
X160670714Y-107386380D01*
X160480238Y-107386380D01*
X160385000Y-107338761D01*
X160337380Y-107243523D01*
X160337380Y-106862571D01*
X160385000Y-106767333D01*
X160480238Y-106719714D01*
X160670714Y-106719714D01*
X160765952Y-106767333D01*
X160813571Y-106862571D01*
X160813571Y-106957809D01*
X160337380Y-107053047D01*
X161670714Y-106719714D02*
X161670714Y-107529238D01*
X161623095Y-107624476D01*
X161575476Y-107672095D01*
X161480238Y-107719714D01*
X161337380Y-107719714D01*
X161242142Y-107672095D01*
X161670714Y-107338761D02*
X161575476Y-107386380D01*
X161385000Y-107386380D01*
X161289761Y-107338761D01*
X161242142Y-107291142D01*
X161194523Y-107195904D01*
X161194523Y-106910190D01*
X161242142Y-106814952D01*
X161289761Y-106767333D01*
X161385000Y-106719714D01*
X161575476Y-106719714D01*
X161670714Y-106767333D01*
X162099285Y-107338761D02*
X162194523Y-107386380D01*
X162385000Y-107386380D01*
X162480238Y-107338761D01*
X162527857Y-107243523D01*
X162527857Y-107195904D01*
X162480238Y-107100666D01*
X162385000Y-107053047D01*
X162242142Y-107053047D01*
X162146904Y-107005428D01*
X162099285Y-106910190D01*
X162099285Y-106862571D01*
X162146904Y-106767333D01*
X162242142Y-106719714D01*
X162385000Y-106719714D01*
X162480238Y-106767333D01*
X150908809Y-109939714D02*
X150908809Y-110749238D01*
X150861190Y-110844476D01*
X150813571Y-110892095D01*
X150718333Y-110939714D01*
X150575476Y-110939714D01*
X150480238Y-110892095D01*
X150908809Y-110558761D02*
X150813571Y-110606380D01*
X150623095Y-110606380D01*
X150527857Y-110558761D01*
X150480238Y-110511142D01*
X150432619Y-110415904D01*
X150432619Y-110130190D01*
X150480238Y-110034952D01*
X150527857Y-109987333D01*
X150623095Y-109939714D01*
X150813571Y-109939714D01*
X150908809Y-109987333D01*
X151385000Y-110606380D02*
X151385000Y-109939714D01*
X151385000Y-109606380D02*
X151337380Y-109654000D01*
X151385000Y-109701619D01*
X151432619Y-109654000D01*
X151385000Y-109606380D01*
X151385000Y-109701619D01*
X151718333Y-109939714D02*
X152099285Y-109939714D01*
X151861190Y-109606380D02*
X151861190Y-110463523D01*
X151908809Y-110558761D01*
X152004047Y-110606380D01*
X152099285Y-110606380D01*
X152432619Y-110606380D02*
X152432619Y-109606380D01*
X152861190Y-110606380D02*
X152861190Y-110082571D01*
X152813571Y-109987333D01*
X152718333Y-109939714D01*
X152575476Y-109939714D01*
X152480238Y-109987333D01*
X152432619Y-110034952D01*
X153765952Y-109939714D02*
X153765952Y-110606380D01*
X153337380Y-109939714D02*
X153337380Y-110463523D01*
X153385000Y-110558761D01*
X153480238Y-110606380D01*
X153623095Y-110606380D01*
X153718333Y-110558761D01*
X153765952Y-110511142D01*
X154242142Y-110606380D02*
X154242142Y-109606380D01*
X154242142Y-109987333D02*
X154337380Y-109939714D01*
X154527857Y-109939714D01*
X154623095Y-109987333D01*
X154670714Y-110034952D01*
X154718333Y-110130190D01*
X154718333Y-110415904D01*
X154670714Y-110511142D01*
X154623095Y-110558761D01*
X154527857Y-110606380D01*
X154337380Y-110606380D01*
X154242142Y-110558761D01*
X155146904Y-110511142D02*
X155194523Y-110558761D01*
X155146904Y-110606380D01*
X155099285Y-110558761D01*
X155146904Y-110511142D01*
X155146904Y-110606380D01*
X156051666Y-110558761D02*
X155956428Y-110606380D01*
X155765952Y-110606380D01*
X155670714Y-110558761D01*
X155623095Y-110511142D01*
X155575476Y-110415904D01*
X155575476Y-110130190D01*
X155623095Y-110034952D01*
X155670714Y-109987333D01*
X155765952Y-109939714D01*
X155956428Y-109939714D01*
X156051666Y-109987333D01*
X156623095Y-110606380D02*
X156527857Y-110558761D01*
X156480238Y-110511142D01*
X156432619Y-110415904D01*
X156432619Y-110130190D01*
X156480238Y-110034952D01*
X156527857Y-109987333D01*
X156623095Y-109939714D01*
X156765952Y-109939714D01*
X156861190Y-109987333D01*
X156908809Y-110034952D01*
X156956428Y-110130190D01*
X156956428Y-110415904D01*
X156908809Y-110511142D01*
X156861190Y-110558761D01*
X156765952Y-110606380D01*
X156623095Y-110606380D01*
X157385000Y-110606380D02*
X157385000Y-109939714D01*
X157385000Y-110034952D02*
X157432619Y-109987333D01*
X157527857Y-109939714D01*
X157670714Y-109939714D01*
X157765952Y-109987333D01*
X157813571Y-110082571D01*
X157813571Y-110606380D01*
X157813571Y-110082571D02*
X157861190Y-109987333D01*
X157956428Y-109939714D01*
X158099285Y-109939714D01*
X158194523Y-109987333D01*
X158242142Y-110082571D01*
X158242142Y-110606380D01*
X159432619Y-109558761D02*
X158575476Y-110844476D01*
X159765952Y-110606380D02*
X159765952Y-109606380D01*
X159861190Y-110225428D02*
X160146904Y-110606380D01*
X160146904Y-109939714D02*
X159765952Y-110320666D01*
X160480238Y-109939714D02*
X160718333Y-110606380D01*
X160956428Y-109939714D01*
X161765952Y-110606380D02*
X161765952Y-110082571D01*
X161718333Y-109987333D01*
X161623095Y-109939714D01*
X161432619Y-109939714D01*
X161337380Y-109987333D01*
X161765952Y-110558761D02*
X161670714Y-110606380D01*
X161432619Y-110606380D01*
X161337380Y-110558761D01*
X161289761Y-110463523D01*
X161289761Y-110368285D01*
X161337380Y-110273047D01*
X161432619Y-110225428D01*
X161670714Y-110225428D01*
X161765952Y-110177809D01*
X162242142Y-109939714D02*
X162242142Y-110606380D01*
X162242142Y-110034952D02*
X162289761Y-109987333D01*
X162385000Y-109939714D01*
X162527857Y-109939714D01*
X162623095Y-109987333D01*
X162670714Y-110082571D01*
X162670714Y-110606380D01*
X163575476Y-110606380D02*
X163575476Y-109606380D01*
X163575476Y-110558761D02*
X163480238Y-110606380D01*
X163289761Y-110606380D01*
X163194523Y-110558761D01*
X163146904Y-110511142D01*
X163099285Y-110415904D01*
X163099285Y-110130190D01*
X163146904Y-110034952D01*
X163194523Y-109987333D01*
X163289761Y-109939714D01*
X163480238Y-109939714D01*
X163575476Y-109987333D01*
X164432619Y-110558761D02*
X164337380Y-110606380D01*
X164146904Y-110606380D01*
X164051666Y-110558761D01*
X164004047Y-110463523D01*
X164004047Y-110082571D01*
X164051666Y-109987333D01*
X164146904Y-109939714D01*
X164337380Y-109939714D01*
X164432619Y-109987333D01*
X164480238Y-110082571D01*
X164480238Y-110177809D01*
X164004047Y-110273047D01*
X164908809Y-110606380D02*
X164908809Y-109939714D01*
X164908809Y-110130190D02*
X164956428Y-110034952D01*
X165004047Y-109987333D01*
X165099285Y-109939714D01*
X165194523Y-109939714D01*
X165670714Y-110606380D02*
X165575476Y-110558761D01*
X165527857Y-110463523D01*
X165527857Y-109606380D01*
X166480238Y-110606380D02*
X166480238Y-110082571D01*
X166432619Y-109987333D01*
X166337380Y-109939714D01*
X166146904Y-109939714D01*
X166051666Y-109987333D01*
X166480238Y-110558761D02*
X166385000Y-110606380D01*
X166146904Y-110606380D01*
X166051666Y-110558761D01*
X166004047Y-110463523D01*
X166004047Y-110368285D01*
X166051666Y-110273047D01*
X166146904Y-110225428D01*
X166385000Y-110225428D01*
X166480238Y-110177809D01*
X167385000Y-110606380D02*
X167385000Y-110082571D01*
X167337380Y-109987333D01*
X167242142Y-109939714D01*
X167051666Y-109939714D01*
X166956428Y-109987333D01*
X167385000Y-110558761D02*
X167289761Y-110606380D01*
X167051666Y-110606380D01*
X166956428Y-110558761D01*
X166908809Y-110463523D01*
X166908809Y-110368285D01*
X166956428Y-110273047D01*
X167051666Y-110225428D01*
X167289761Y-110225428D01*
X167385000Y-110177809D01*
X168289761Y-109939714D02*
X168289761Y-110749238D01*
X168242142Y-110844476D01*
X168194523Y-110892095D01*
X168099285Y-110939714D01*
X167956428Y-110939714D01*
X167861190Y-110892095D01*
X168289761Y-110558761D02*
X168194523Y-110606380D01*
X168004047Y-110606380D01*
X167908809Y-110558761D01*
X167861190Y-110511142D01*
X167813571Y-110415904D01*
X167813571Y-110130190D01*
X167861190Y-110034952D01*
X167908809Y-109987333D01*
X168004047Y-109939714D01*
X168194523Y-109939714D01*
X168289761Y-109987333D01*
X84171404Y-101227000D02*
X84076166Y-101179380D01*
X83933309Y-101179380D01*
X83790452Y-101227000D01*
X83695214Y-101322238D01*
X83647595Y-101417476D01*
X83599976Y-101607952D01*
X83599976Y-101750809D01*
X83647595Y-101941285D01*
X83695214Y-102036523D01*
X83790452Y-102131761D01*
X83933309Y-102179380D01*
X84028547Y-102179380D01*
X84171404Y-102131761D01*
X84219023Y-102084142D01*
X84219023Y-101750809D01*
X84028547Y-101750809D01*
X84647595Y-102179380D02*
X84647595Y-101179380D01*
X85219023Y-102179380D01*
X85219023Y-101179380D01*
X85695214Y-102179380D02*
X85695214Y-101179380D01*
X85933309Y-101179380D01*
X86076166Y-101227000D01*
X86171404Y-101322238D01*
X86219023Y-101417476D01*
X86266642Y-101607952D01*
X86266642Y-101750809D01*
X86219023Y-101941285D01*
X86171404Y-102036523D01*
X86076166Y-102131761D01*
X85933309Y-102179380D01*
X85695214Y-102179380D01*
X84257404Y-97163000D02*
X84162166Y-97115380D01*
X84019309Y-97115380D01*
X83876452Y-97163000D01*
X83781214Y-97258238D01*
X83733595Y-97353476D01*
X83685976Y-97543952D01*
X83685976Y-97686809D01*
X83733595Y-97877285D01*
X83781214Y-97972523D01*
X83876452Y-98067761D01*
X84019309Y-98115380D01*
X84114547Y-98115380D01*
X84257404Y-98067761D01*
X84305023Y-98020142D01*
X84305023Y-97686809D01*
X84114547Y-97686809D01*
X84733595Y-98115380D02*
X84733595Y-97115380D01*
X85305023Y-98115380D01*
X85305023Y-97115380D01*
X85781214Y-98115380D02*
X85781214Y-97115380D01*
X86019309Y-97115380D01*
X86162166Y-97163000D01*
X86257404Y-97258238D01*
X86305023Y-97353476D01*
X86352642Y-97543952D01*
X86352642Y-97686809D01*
X86305023Y-97877285D01*
X86257404Y-97972523D01*
X86162166Y-98067761D01*
X86019309Y-98115380D01*
X85781214Y-98115380D01*
X84257404Y-93226000D02*
X84162166Y-93178380D01*
X84019309Y-93178380D01*
X83876452Y-93226000D01*
X83781214Y-93321238D01*
X83733595Y-93416476D01*
X83685976Y-93606952D01*
X83685976Y-93749809D01*
X83733595Y-93940285D01*
X83781214Y-94035523D01*
X83876452Y-94130761D01*
X84019309Y-94178380D01*
X84114547Y-94178380D01*
X84257404Y-94130761D01*
X84305023Y-94083142D01*
X84305023Y-93749809D01*
X84114547Y-93749809D01*
X84733595Y-94178380D02*
X84733595Y-93178380D01*
X85305023Y-94178380D01*
X85305023Y-93178380D01*
X85781214Y-94178380D02*
X85781214Y-93178380D01*
X86019309Y-93178380D01*
X86162166Y-93226000D01*
X86257404Y-93321238D01*
X86305023Y-93416476D01*
X86352642Y-93606952D01*
X86352642Y-93749809D01*
X86305023Y-93940285D01*
X86257404Y-94035523D01*
X86162166Y-94130761D01*
X86019309Y-94178380D01*
X85781214Y-94178380D01*
X83733595Y-89860428D02*
X84495500Y-89860428D01*
X85495500Y-90241380D02*
X84924071Y-90241380D01*
X85209785Y-90241380D02*
X85209785Y-89241380D01*
X85114547Y-89384238D01*
X85019309Y-89479476D01*
X84924071Y-89527095D01*
X85876452Y-89336619D02*
X85924071Y-89289000D01*
X86019309Y-89241380D01*
X86257404Y-89241380D01*
X86352642Y-89289000D01*
X86400261Y-89336619D01*
X86447880Y-89431857D01*
X86447880Y-89527095D01*
X86400261Y-89669952D01*
X85828833Y-90241380D01*
X86447880Y-90241380D01*
X86733595Y-89241380D02*
X87066928Y-90241380D01*
X87400261Y-89241380D01*
X83733595Y-85923428D02*
X84495500Y-85923428D01*
X84114547Y-86304380D02*
X84114547Y-85542476D01*
X85495500Y-86304380D02*
X84924071Y-86304380D01*
X85209785Y-86304380D02*
X85209785Y-85304380D01*
X85114547Y-85447238D01*
X85019309Y-85542476D01*
X84924071Y-85590095D01*
X85876452Y-85399619D02*
X85924071Y-85352000D01*
X86019309Y-85304380D01*
X86257404Y-85304380D01*
X86352642Y-85352000D01*
X86400261Y-85399619D01*
X86447880Y-85494857D01*
X86447880Y-85590095D01*
X86400261Y-85732952D01*
X85828833Y-86304380D01*
X86447880Y-86304380D01*
X86733595Y-85304380D02*
X87066928Y-86304380D01*
X87400261Y-85304380D01*
X83733595Y-81859428D02*
X84495500Y-81859428D01*
X84114547Y-82240380D02*
X84114547Y-81478476D01*
X85447880Y-81240380D02*
X84971690Y-81240380D01*
X84924071Y-81716571D01*
X84971690Y-81668952D01*
X85066928Y-81621333D01*
X85305023Y-81621333D01*
X85400261Y-81668952D01*
X85447880Y-81716571D01*
X85495500Y-81811809D01*
X85495500Y-82049904D01*
X85447880Y-82145142D01*
X85400261Y-82192761D01*
X85305023Y-82240380D01*
X85066928Y-82240380D01*
X84971690Y-82192761D01*
X84924071Y-82145142D01*
X85781214Y-81240380D02*
X86114547Y-82240380D01*
X86447880Y-81240380D01*
%TO.C,C6*%
X103064333Y-89882142D02*
X103016714Y-89929761D01*
X102873857Y-89977380D01*
X102778619Y-89977380D01*
X102635761Y-89929761D01*
X102540523Y-89834523D01*
X102492904Y-89739285D01*
X102445285Y-89548809D01*
X102445285Y-89405952D01*
X102492904Y-89215476D01*
X102540523Y-89120238D01*
X102635761Y-89025000D01*
X102778619Y-88977380D01*
X102873857Y-88977380D01*
X103016714Y-89025000D01*
X103064333Y-89072619D01*
X103921476Y-88977380D02*
X103731000Y-88977380D01*
X103635761Y-89025000D01*
X103588142Y-89072619D01*
X103492904Y-89215476D01*
X103445285Y-89405952D01*
X103445285Y-89786904D01*
X103492904Y-89882142D01*
X103540523Y-89929761D01*
X103635761Y-89977380D01*
X103826238Y-89977380D01*
X103921476Y-89929761D01*
X103969095Y-89882142D01*
X104016714Y-89786904D01*
X104016714Y-89548809D01*
X103969095Y-89453571D01*
X103921476Y-89405952D01*
X103826238Y-89358333D01*
X103635761Y-89358333D01*
X103540523Y-89405952D01*
X103492904Y-89453571D01*
X103445285Y-89548809D01*
X105926142Y-91400380D02*
X106021380Y-91400380D01*
X106116619Y-91448000D01*
X106164238Y-91495619D01*
X106211857Y-91590857D01*
X106259476Y-91781333D01*
X106259476Y-92019428D01*
X106211857Y-92209904D01*
X106164238Y-92305142D01*
X106116619Y-92352761D01*
X106021380Y-92400380D01*
X105926142Y-92400380D01*
X105830904Y-92352761D01*
X105783285Y-92305142D01*
X105735666Y-92209904D01*
X105688047Y-92019428D01*
X105688047Y-91781333D01*
X105735666Y-91590857D01*
X105783285Y-91495619D01*
X105830904Y-91448000D01*
X105926142Y-91400380D01*
X106688047Y-92305142D02*
X106735666Y-92352761D01*
X106688047Y-92400380D01*
X106640428Y-92352761D01*
X106688047Y-92305142D01*
X106688047Y-92400380D01*
X107688047Y-92400380D02*
X107116619Y-92400380D01*
X107402333Y-92400380D02*
X107402333Y-91400380D01*
X107307095Y-91543238D01*
X107211857Y-91638476D01*
X107116619Y-91686095D01*
X108545190Y-91733714D02*
X108545190Y-92400380D01*
X108116619Y-91733714D02*
X108116619Y-92257523D01*
X108164238Y-92352761D01*
X108259476Y-92400380D01*
X108402333Y-92400380D01*
X108497571Y-92352761D01*
X108545190Y-92305142D01*
X109354714Y-91876571D02*
X109021380Y-91876571D01*
X109021380Y-92400380D02*
X109021380Y-91400380D01*
X109497571Y-91400380D01*
%TO.C,C2*%
X102068333Y-85320142D02*
X102020714Y-85367761D01*
X101877857Y-85415380D01*
X101782619Y-85415380D01*
X101639761Y-85367761D01*
X101544523Y-85272523D01*
X101496904Y-85177285D01*
X101449285Y-84986809D01*
X101449285Y-84843952D01*
X101496904Y-84653476D01*
X101544523Y-84558238D01*
X101639761Y-84463000D01*
X101782619Y-84415380D01*
X101877857Y-84415380D01*
X102020714Y-84463000D01*
X102068333Y-84510619D01*
X102449285Y-84510619D02*
X102496904Y-84463000D01*
X102592142Y-84415380D01*
X102830238Y-84415380D01*
X102925476Y-84463000D01*
X102973095Y-84510619D01*
X103020714Y-84605857D01*
X103020714Y-84701095D01*
X102973095Y-84843952D01*
X102401666Y-85415380D01*
X103020714Y-85415380D01*
X102195666Y-87066380D02*
X101624238Y-87066380D01*
X101909952Y-87066380D02*
X101909952Y-86066380D01*
X101814714Y-86209238D01*
X101719476Y-86304476D01*
X101624238Y-86352095D01*
X102814714Y-86066380D02*
X102909952Y-86066380D01*
X103005190Y-86114000D01*
X103052809Y-86161619D01*
X103100428Y-86256857D01*
X103148047Y-86447333D01*
X103148047Y-86685428D01*
X103100428Y-86875904D01*
X103052809Y-86971142D01*
X103005190Y-87018761D01*
X102909952Y-87066380D01*
X102814714Y-87066380D01*
X102719476Y-87018761D01*
X102671857Y-86971142D01*
X102624238Y-86875904D01*
X102576619Y-86685428D01*
X102576619Y-86447333D01*
X102624238Y-86256857D01*
X102671857Y-86161619D01*
X102719476Y-86114000D01*
X102814714Y-86066380D01*
X104005190Y-86399714D02*
X104005190Y-87066380D01*
X103576619Y-86399714D02*
X103576619Y-86923523D01*
X103624238Y-87018761D01*
X103719476Y-87066380D01*
X103862333Y-87066380D01*
X103957571Y-87018761D01*
X104005190Y-86971142D01*
X104814714Y-86542571D02*
X104481380Y-86542571D01*
X104481380Y-87066380D02*
X104481380Y-86066380D01*
X104957571Y-86066380D01*
X106624238Y-87066380D02*
X106052809Y-87066380D01*
X106338523Y-87066380D02*
X106338523Y-86066380D01*
X106243285Y-86209238D01*
X106148047Y-86304476D01*
X106052809Y-86352095D01*
X107481380Y-86066380D02*
X107290904Y-86066380D01*
X107195666Y-86114000D01*
X107148047Y-86161619D01*
X107052809Y-86304476D01*
X107005190Y-86494952D01*
X107005190Y-86875904D01*
X107052809Y-86971142D01*
X107100428Y-87018761D01*
X107195666Y-87066380D01*
X107386142Y-87066380D01*
X107481380Y-87018761D01*
X107529000Y-86971142D01*
X107576619Y-86875904D01*
X107576619Y-86637809D01*
X107529000Y-86542571D01*
X107481380Y-86494952D01*
X107386142Y-86447333D01*
X107195666Y-86447333D01*
X107100428Y-86494952D01*
X107052809Y-86542571D01*
X107005190Y-86637809D01*
X107862333Y-86066380D02*
X108195666Y-87066380D01*
X108529000Y-86066380D01*
%TO.C,C1*%
X86320333Y-78843142D02*
X86272714Y-78890761D01*
X86129857Y-78938380D01*
X86034619Y-78938380D01*
X85891761Y-78890761D01*
X85796523Y-78795523D01*
X85748904Y-78700285D01*
X85701285Y-78509809D01*
X85701285Y-78366952D01*
X85748904Y-78176476D01*
X85796523Y-78081238D01*
X85891761Y-77986000D01*
X86034619Y-77938380D01*
X86129857Y-77938380D01*
X86272714Y-77986000D01*
X86320333Y-78033619D01*
X87272714Y-78938380D02*
X86701285Y-78938380D01*
X86987000Y-78938380D02*
X86987000Y-77938380D01*
X86891761Y-78081238D01*
X86796523Y-78176476D01*
X86701285Y-78224095D01*
X95210666Y-78958380D02*
X94639238Y-78958380D01*
X94924952Y-78958380D02*
X94924952Y-77958380D01*
X94829714Y-78101238D01*
X94734476Y-78196476D01*
X94639238Y-78244095D01*
X95829714Y-77958380D02*
X95924952Y-77958380D01*
X96020190Y-78006000D01*
X96067809Y-78053619D01*
X96115428Y-78148857D01*
X96163047Y-78339333D01*
X96163047Y-78577428D01*
X96115428Y-78767904D01*
X96067809Y-78863142D01*
X96020190Y-78910761D01*
X95924952Y-78958380D01*
X95829714Y-78958380D01*
X95734476Y-78910761D01*
X95686857Y-78863142D01*
X95639238Y-78767904D01*
X95591619Y-78577428D01*
X95591619Y-78339333D01*
X95639238Y-78148857D01*
X95686857Y-78053619D01*
X95734476Y-78006000D01*
X95829714Y-77958380D01*
X97020190Y-78291714D02*
X97020190Y-78958380D01*
X96591619Y-78291714D02*
X96591619Y-78815523D01*
X96639238Y-78910761D01*
X96734476Y-78958380D01*
X96877333Y-78958380D01*
X96972571Y-78910761D01*
X97020190Y-78863142D01*
X97829714Y-78434571D02*
X97496380Y-78434571D01*
X97496380Y-78958380D02*
X97496380Y-77958380D01*
X97972571Y-77958380D01*
X99639238Y-78958380D02*
X99067809Y-78958380D01*
X99353523Y-78958380D02*
X99353523Y-77958380D01*
X99258285Y-78101238D01*
X99163047Y-78196476D01*
X99067809Y-78244095D01*
X100496380Y-77958380D02*
X100305904Y-77958380D01*
X100210666Y-78006000D01*
X100163047Y-78053619D01*
X100067809Y-78196476D01*
X100020190Y-78386952D01*
X100020190Y-78767904D01*
X100067809Y-78863142D01*
X100115428Y-78910761D01*
X100210666Y-78958380D01*
X100401142Y-78958380D01*
X100496380Y-78910761D01*
X100544000Y-78863142D01*
X100591619Y-78767904D01*
X100591619Y-78529809D01*
X100544000Y-78434571D01*
X100496380Y-78386952D01*
X100401142Y-78339333D01*
X100210666Y-78339333D01*
X100115428Y-78386952D01*
X100067809Y-78434571D01*
X100020190Y-78529809D01*
X100877333Y-77958380D02*
X101210666Y-78958380D01*
X101544000Y-77958380D01*
%TO.C,C4*%
X113625333Y-108942142D02*
X113577714Y-108989761D01*
X113434857Y-109037380D01*
X113339619Y-109037380D01*
X113196761Y-108989761D01*
X113101523Y-108894523D01*
X113053904Y-108799285D01*
X113006285Y-108608809D01*
X113006285Y-108465952D01*
X113053904Y-108275476D01*
X113101523Y-108180238D01*
X113196761Y-108085000D01*
X113339619Y-108037380D01*
X113434857Y-108037380D01*
X113577714Y-108085000D01*
X113625333Y-108132619D01*
X114482476Y-108370714D02*
X114482476Y-109037380D01*
X114244380Y-107989761D02*
X114006285Y-108704047D01*
X114625333Y-108704047D01*
X113038142Y-109783619D02*
X113085761Y-109736000D01*
X113181000Y-109688380D01*
X113419095Y-109688380D01*
X113514333Y-109736000D01*
X113561952Y-109783619D01*
X113609571Y-109878857D01*
X113609571Y-109974095D01*
X113561952Y-110116952D01*
X112990523Y-110688380D01*
X113609571Y-110688380D01*
X113942904Y-109688380D02*
X114609571Y-109688380D01*
X114181000Y-110688380D01*
X114990523Y-110021714D02*
X114990523Y-111021714D01*
X114990523Y-110069333D02*
X115085761Y-110021714D01*
X115276238Y-110021714D01*
X115371476Y-110069333D01*
X115419095Y-110116952D01*
X115466714Y-110212190D01*
X115466714Y-110497904D01*
X115419095Y-110593142D01*
X115371476Y-110640761D01*
X115276238Y-110688380D01*
X115085761Y-110688380D01*
X114990523Y-110640761D01*
X116228619Y-110164571D02*
X115895285Y-110164571D01*
X115895285Y-110688380D02*
X115895285Y-109688380D01*
X116371476Y-109688380D01*
%TO.C,C3*%
X89749333Y-87987142D02*
X89701714Y-88034761D01*
X89558857Y-88082380D01*
X89463619Y-88082380D01*
X89320761Y-88034761D01*
X89225523Y-87939523D01*
X89177904Y-87844285D01*
X89130285Y-87653809D01*
X89130285Y-87510952D01*
X89177904Y-87320476D01*
X89225523Y-87225238D01*
X89320761Y-87130000D01*
X89463619Y-87082380D01*
X89558857Y-87082380D01*
X89701714Y-87130000D01*
X89749333Y-87177619D01*
X90082666Y-87082380D02*
X90701714Y-87082380D01*
X90368380Y-87463333D01*
X90511238Y-87463333D01*
X90606476Y-87510952D01*
X90654095Y-87558571D01*
X90701714Y-87653809D01*
X90701714Y-87891904D01*
X90654095Y-87987142D01*
X90606476Y-88034761D01*
X90511238Y-88082380D01*
X90225523Y-88082380D01*
X90130285Y-88034761D01*
X90082666Y-87987142D01*
X88987666Y-96845380D02*
X88416238Y-96845380D01*
X88701952Y-96845380D02*
X88701952Y-95845380D01*
X88606714Y-95988238D01*
X88511476Y-96083476D01*
X88416238Y-96131095D01*
X89606714Y-95845380D02*
X89701952Y-95845380D01*
X89797190Y-95893000D01*
X89844809Y-95940619D01*
X89892428Y-96035857D01*
X89940047Y-96226333D01*
X89940047Y-96464428D01*
X89892428Y-96654904D01*
X89844809Y-96750142D01*
X89797190Y-96797761D01*
X89701952Y-96845380D01*
X89606714Y-96845380D01*
X89511476Y-96797761D01*
X89463857Y-96750142D01*
X89416238Y-96654904D01*
X89368619Y-96464428D01*
X89368619Y-96226333D01*
X89416238Y-96035857D01*
X89463857Y-95940619D01*
X89511476Y-95893000D01*
X89606714Y-95845380D01*
X90797190Y-96178714D02*
X90797190Y-96845380D01*
X90368619Y-96178714D02*
X90368619Y-96702523D01*
X90416238Y-96797761D01*
X90511476Y-96845380D01*
X90654333Y-96845380D01*
X90749571Y-96797761D01*
X90797190Y-96750142D01*
X91606714Y-96321571D02*
X91273380Y-96321571D01*
X91273380Y-96845380D02*
X91273380Y-95845380D01*
X91749571Y-95845380D01*
X93416238Y-96845380D02*
X92844809Y-96845380D01*
X93130523Y-96845380D02*
X93130523Y-95845380D01*
X93035285Y-95988238D01*
X92940047Y-96083476D01*
X92844809Y-96131095D01*
X94273380Y-95845380D02*
X94082904Y-95845380D01*
X93987666Y-95893000D01*
X93940047Y-95940619D01*
X93844809Y-96083476D01*
X93797190Y-96273952D01*
X93797190Y-96654904D01*
X93844809Y-96750142D01*
X93892428Y-96797761D01*
X93987666Y-96845380D01*
X94178142Y-96845380D01*
X94273380Y-96797761D01*
X94321000Y-96750142D01*
X94368619Y-96654904D01*
X94368619Y-96416809D01*
X94321000Y-96321571D01*
X94273380Y-96273952D01*
X94178142Y-96226333D01*
X93987666Y-96226333D01*
X93892428Y-96273952D01*
X93844809Y-96321571D01*
X93797190Y-96416809D01*
X94654333Y-95845380D02*
X94987666Y-96845380D01*
X95321000Y-95845380D01*
%TO.C,Y1*%
X114585809Y-102846190D02*
X114585809Y-103322380D01*
X114252476Y-102322380D02*
X114585809Y-102846190D01*
X114919142Y-102322380D01*
X115776285Y-103322380D02*
X115204857Y-103322380D01*
X115490571Y-103322380D02*
X115490571Y-102322380D01*
X115395333Y-102465238D01*
X115300095Y-102560476D01*
X115204857Y-102608095D01*
X114380000Y-103973380D02*
X114999047Y-103973380D01*
X114665714Y-104354333D01*
X114808571Y-104354333D01*
X114903809Y-104401952D01*
X114951428Y-104449571D01*
X114999047Y-104544809D01*
X114999047Y-104782904D01*
X114951428Y-104878142D01*
X114903809Y-104925761D01*
X114808571Y-104973380D01*
X114522857Y-104973380D01*
X114427619Y-104925761D01*
X114380000Y-104878142D01*
X115427619Y-104878142D02*
X115475238Y-104925761D01*
X115427619Y-104973380D01*
X115380000Y-104925761D01*
X115427619Y-104878142D01*
X115427619Y-104973380D01*
X116380000Y-103973380D02*
X115903809Y-103973380D01*
X115856190Y-104449571D01*
X115903809Y-104401952D01*
X115999047Y-104354333D01*
X116237142Y-104354333D01*
X116332380Y-104401952D01*
X116380000Y-104449571D01*
X116427619Y-104544809D01*
X116427619Y-104782904D01*
X116380000Y-104878142D01*
X116332380Y-104925761D01*
X116237142Y-104973380D01*
X115999047Y-104973380D01*
X115903809Y-104925761D01*
X115856190Y-104878142D01*
X116760952Y-103973380D02*
X117427619Y-103973380D01*
X116999047Y-104973380D01*
X117856190Y-104973380D02*
X118046666Y-104973380D01*
X118141904Y-104925761D01*
X118189523Y-104878142D01*
X118284761Y-104735285D01*
X118332380Y-104544809D01*
X118332380Y-104163857D01*
X118284761Y-104068619D01*
X118237142Y-104021000D01*
X118141904Y-103973380D01*
X117951428Y-103973380D01*
X117856190Y-104021000D01*
X117808571Y-104068619D01*
X117760952Y-104163857D01*
X117760952Y-104401952D01*
X117808571Y-104497190D01*
X117856190Y-104544809D01*
X117951428Y-104592428D01*
X118141904Y-104592428D01*
X118237142Y-104544809D01*
X118284761Y-104497190D01*
X118332380Y-104401952D01*
X119237142Y-103973380D02*
X118760952Y-103973380D01*
X118713333Y-104449571D01*
X118760952Y-104401952D01*
X118856190Y-104354333D01*
X119094285Y-104354333D01*
X119189523Y-104401952D01*
X119237142Y-104449571D01*
X119284761Y-104544809D01*
X119284761Y-104782904D01*
X119237142Y-104878142D01*
X119189523Y-104925761D01*
X119094285Y-104973380D01*
X118856190Y-104973380D01*
X118760952Y-104925761D01*
X118713333Y-104878142D01*
X120141904Y-104306714D02*
X120141904Y-104973380D01*
X119903809Y-103925761D02*
X119665714Y-104640047D01*
X120284761Y-104640047D01*
X121141904Y-103973380D02*
X120665714Y-103973380D01*
X120618095Y-104449571D01*
X120665714Y-104401952D01*
X120760952Y-104354333D01*
X120999047Y-104354333D01*
X121094285Y-104401952D01*
X121141904Y-104449571D01*
X121189523Y-104544809D01*
X121189523Y-104782904D01*
X121141904Y-104878142D01*
X121094285Y-104925761D01*
X120999047Y-104973380D01*
X120760952Y-104973380D01*
X120665714Y-104925761D01*
X120618095Y-104878142D01*
X121618095Y-104973380D02*
X121618095Y-103973380D01*
X121951428Y-104687666D01*
X122284761Y-103973380D01*
X122284761Y-104973380D01*
X122760952Y-104973380D02*
X122760952Y-103973380D01*
X122760952Y-104449571D02*
X123332380Y-104449571D01*
X123332380Y-104973380D02*
X123332380Y-103973380D01*
X123713333Y-103973380D02*
X124380000Y-103973380D01*
X123713333Y-104973380D01*
X124380000Y-104973380D01*
%TO.C,XA1*%
X140462000Y-84939142D02*
X140509619Y-84986761D01*
X140462000Y-85034380D01*
X140414380Y-84986761D01*
X140462000Y-84939142D01*
X140462000Y-85034380D01*
D11*
X141108952Y-67917190D02*
X141108952Y-67417190D01*
X141228000Y-67417190D01*
X141299428Y-67441000D01*
X141347047Y-67488619D01*
X141370857Y-67536238D01*
X141394666Y-67631476D01*
X141394666Y-67702904D01*
X141370857Y-67798142D01*
X141347047Y-67845761D01*
X141299428Y-67893380D01*
X141228000Y-67917190D01*
X141108952Y-67917190D01*
X141704190Y-67417190D02*
X141751809Y-67417190D01*
X141799428Y-67441000D01*
X141823238Y-67464809D01*
X141847047Y-67512428D01*
X141870857Y-67607666D01*
X141870857Y-67726714D01*
X141847047Y-67821952D01*
X141823238Y-67869571D01*
X141799428Y-67893380D01*
X141751809Y-67917190D01*
X141704190Y-67917190D01*
X141656571Y-67893380D01*
X141632761Y-67869571D01*
X141608952Y-67821952D01*
X141585142Y-67726714D01*
X141585142Y-67607666D01*
X141608952Y-67512428D01*
X141632761Y-67464809D01*
X141656571Y-67441000D01*
X141704190Y-67417190D01*
D10*
%TO.C,J1*%
X58721666Y-42251380D02*
X58721666Y-42965666D01*
X58674047Y-43108523D01*
X58578809Y-43203761D01*
X58435952Y-43251380D01*
X58340714Y-43251380D01*
X59721666Y-43251380D02*
X59150238Y-43251380D01*
X59435952Y-43251380D02*
X59435952Y-42251380D01*
X59340714Y-42394238D01*
X59245476Y-42489476D01*
X59150238Y-42537095D01*
X119452285Y-48518571D02*
X119785619Y-48518571D01*
X119928476Y-49042380D02*
X119452285Y-49042380D01*
X119452285Y-48042380D01*
X119928476Y-48042380D01*
X120690380Y-48518571D02*
X120833238Y-48566190D01*
X120880857Y-48613809D01*
X120928476Y-48709047D01*
X120928476Y-48851904D01*
X120880857Y-48947142D01*
X120833238Y-48994761D01*
X120738000Y-49042380D01*
X120357047Y-49042380D01*
X120357047Y-48042380D01*
X120690380Y-48042380D01*
X120785619Y-48090000D01*
X120833238Y-48137619D01*
X120880857Y-48232857D01*
X120880857Y-48328095D01*
X120833238Y-48423333D01*
X120785619Y-48470952D01*
X120690380Y-48518571D01*
X120357047Y-48518571D01*
X121928476Y-48947142D02*
X121880857Y-48994761D01*
X121738000Y-49042380D01*
X121642761Y-49042380D01*
X121499904Y-48994761D01*
X121404666Y-48899523D01*
X121357047Y-48804285D01*
X121309428Y-48613809D01*
X121309428Y-48470952D01*
X121357047Y-48280476D01*
X121404666Y-48185238D01*
X121499904Y-48090000D01*
X121642761Y-48042380D01*
X121738000Y-48042380D01*
X121880857Y-48090000D01*
X121928476Y-48137619D01*
X122785619Y-48375714D02*
X122785619Y-49042380D01*
X122547523Y-47994761D02*
X122309428Y-48709047D01*
X122928476Y-48709047D01*
X123357047Y-49042380D02*
X123547523Y-49042380D01*
X123642761Y-48994761D01*
X123690380Y-48947142D01*
X123785619Y-48804285D01*
X123833238Y-48613809D01*
X123833238Y-48232857D01*
X123785619Y-48137619D01*
X123738000Y-48090000D01*
X123642761Y-48042380D01*
X123452285Y-48042380D01*
X123357047Y-48090000D01*
X123309428Y-48137619D01*
X123261809Y-48232857D01*
X123261809Y-48470952D01*
X123309428Y-48566190D01*
X123357047Y-48613809D01*
X123452285Y-48661428D01*
X123642761Y-48661428D01*
X123738000Y-48613809D01*
X123785619Y-48566190D01*
X123833238Y-48470952D01*
X124261809Y-49042380D02*
X124261809Y-48042380D01*
X124499904Y-48042380D01*
X124642761Y-48090000D01*
X124738000Y-48185238D01*
X124785619Y-48280476D01*
X124833238Y-48470952D01*
X124833238Y-48613809D01*
X124785619Y-48804285D01*
X124738000Y-48899523D01*
X124642761Y-48994761D01*
X124499904Y-49042380D01*
X124261809Y-49042380D01*
X125833238Y-48947142D02*
X125785619Y-48994761D01*
X125642761Y-49042380D01*
X125547523Y-49042380D01*
X125404666Y-48994761D01*
X125309428Y-48899523D01*
X125261809Y-48804285D01*
X125214190Y-48613809D01*
X125214190Y-48470952D01*
X125261809Y-48280476D01*
X125309428Y-48185238D01*
X125404666Y-48090000D01*
X125547523Y-48042380D01*
X125642761Y-48042380D01*
X125785619Y-48090000D01*
X125833238Y-48137619D01*
X126166571Y-48042380D02*
X126404666Y-49042380D01*
X126595142Y-48328095D01*
X126785619Y-49042380D01*
X127023714Y-48042380D01*
X127404666Y-49042380D02*
X127404666Y-48042380D01*
X127976095Y-49042380D01*
X127976095Y-48042380D01*
X128452285Y-48661428D02*
X129214190Y-48661428D01*
X129642761Y-48994761D02*
X129785619Y-49042380D01*
X130023714Y-49042380D01*
X130118952Y-48994761D01*
X130166571Y-48947142D01*
X130214190Y-48851904D01*
X130214190Y-48756666D01*
X130166571Y-48661428D01*
X130118952Y-48613809D01*
X130023714Y-48566190D01*
X129833238Y-48518571D01*
X129738000Y-48470952D01*
X129690380Y-48423333D01*
X129642761Y-48328095D01*
X129642761Y-48232857D01*
X129690380Y-48137619D01*
X129738000Y-48090000D01*
X129833238Y-48042380D01*
X130071333Y-48042380D01*
X130214190Y-48090000D01*
X131071333Y-48375714D02*
X131071333Y-49042380D01*
X130833238Y-47994761D02*
X130595142Y-48709047D01*
X131214190Y-48709047D01*
X131547523Y-48137619D02*
X131595142Y-48090000D01*
X131690380Y-48042380D01*
X131928476Y-48042380D01*
X132023714Y-48090000D01*
X132071333Y-48137619D01*
X132118952Y-48232857D01*
X132118952Y-48328095D01*
X132071333Y-48470952D01*
X131499904Y-49042380D01*
X132118952Y-49042380D01*
X132738000Y-48042380D02*
X132833238Y-48042380D01*
X132928476Y-48090000D01*
X132976095Y-48137619D01*
X133023714Y-48232857D01*
X133071333Y-48423333D01*
X133071333Y-48661428D01*
X133023714Y-48851904D01*
X132976095Y-48947142D01*
X132928476Y-48994761D01*
X132833238Y-49042380D01*
X132738000Y-49042380D01*
X132642761Y-48994761D01*
X132595142Y-48947142D01*
X132547523Y-48851904D01*
X132499904Y-48661428D01*
X132499904Y-48423333D01*
X132547523Y-48232857D01*
X132595142Y-48137619D01*
X132642761Y-48090000D01*
X132738000Y-48042380D01*
X191008000Y-45502380D02*
X191008000Y-45740476D01*
X190769904Y-45645238D02*
X191008000Y-45740476D01*
X191246095Y-45645238D01*
X190865142Y-45930952D02*
X191008000Y-45740476D01*
X191150857Y-45930952D01*
%TO.C,J2*%
X82343666Y-78700380D02*
X82343666Y-79414666D01*
X82296047Y-79557523D01*
X82200809Y-79652761D01*
X82057952Y-79700380D01*
X81962714Y-79700380D01*
X82772238Y-78795619D02*
X82819857Y-78748000D01*
X82915095Y-78700380D01*
X83153190Y-78700380D01*
X83248428Y-78748000D01*
X83296047Y-78795619D01*
X83343666Y-78890857D01*
X83343666Y-78986095D01*
X83296047Y-79128952D01*
X82724619Y-79700380D01*
X83343666Y-79700380D01*
%TO.C,C5*%
X102322333Y-108942142D02*
X102274714Y-108989761D01*
X102131857Y-109037380D01*
X102036619Y-109037380D01*
X101893761Y-108989761D01*
X101798523Y-108894523D01*
X101750904Y-108799285D01*
X101703285Y-108608809D01*
X101703285Y-108465952D01*
X101750904Y-108275476D01*
X101798523Y-108180238D01*
X101893761Y-108085000D01*
X102036619Y-108037380D01*
X102131857Y-108037380D01*
X102274714Y-108085000D01*
X102322333Y-108132619D01*
X103227095Y-108037380D02*
X102750904Y-108037380D01*
X102703285Y-108513571D01*
X102750904Y-108465952D01*
X102846142Y-108418333D01*
X103084238Y-108418333D01*
X103179476Y-108465952D01*
X103227095Y-108513571D01*
X103274714Y-108608809D01*
X103274714Y-108846904D01*
X103227095Y-108942142D01*
X103179476Y-108989761D01*
X103084238Y-109037380D01*
X102846142Y-109037380D01*
X102750904Y-108989761D01*
X102703285Y-108942142D01*
X99957142Y-109783619D02*
X100004761Y-109736000D01*
X100100000Y-109688380D01*
X100338095Y-109688380D01*
X100433333Y-109736000D01*
X100480952Y-109783619D01*
X100528571Y-109878857D01*
X100528571Y-109974095D01*
X100480952Y-110116952D01*
X99909523Y-110688380D01*
X100528571Y-110688380D01*
X100861904Y-109688380D02*
X101528571Y-109688380D01*
X101100000Y-110688380D01*
X101909523Y-110021714D02*
X101909523Y-111021714D01*
X101909523Y-110069333D02*
X102004761Y-110021714D01*
X102195238Y-110021714D01*
X102290476Y-110069333D01*
X102338095Y-110116952D01*
X102385714Y-110212190D01*
X102385714Y-110497904D01*
X102338095Y-110593142D01*
X102290476Y-110640761D01*
X102195238Y-110688380D01*
X102004761Y-110688380D01*
X101909523Y-110640761D01*
X103147619Y-110164571D02*
X102814285Y-110164571D01*
X102814285Y-110688380D02*
X102814285Y-109688380D01*
X103290476Y-109688380D01*
%TO.C,U1*%
X111125095Y-94448380D02*
X111125095Y-95257904D01*
X111172714Y-95353142D01*
X111220333Y-95400761D01*
X111315571Y-95448380D01*
X111506047Y-95448380D01*
X111601285Y-95400761D01*
X111648904Y-95353142D01*
X111696523Y-95257904D01*
X111696523Y-94448380D01*
X112696523Y-95448380D02*
X112125095Y-95448380D01*
X112410809Y-95448380D02*
X112410809Y-94448380D01*
X112315571Y-94591238D01*
X112220333Y-94686476D01*
X112125095Y-94734095D01*
X111641238Y-97353380D02*
X111641238Y-96353380D01*
X112688857Y-97258142D02*
X112641238Y-97305761D01*
X112498380Y-97353380D01*
X112403142Y-97353380D01*
X112260285Y-97305761D01*
X112165047Y-97210523D01*
X112117428Y-97115285D01*
X112069809Y-96924809D01*
X112069809Y-96781952D01*
X112117428Y-96591476D01*
X112165047Y-96496238D01*
X112260285Y-96401000D01*
X112403142Y-96353380D01*
X112498380Y-96353380D01*
X112641238Y-96401000D01*
X112688857Y-96448619D01*
X113069809Y-97305761D02*
X113212666Y-97353380D01*
X113450761Y-97353380D01*
X113546000Y-97305761D01*
X113593619Y-97258142D01*
X113641238Y-97162904D01*
X113641238Y-97067666D01*
X113593619Y-96972428D01*
X113546000Y-96924809D01*
X113450761Y-96877190D01*
X113260285Y-96829571D01*
X113165047Y-96781952D01*
X113117428Y-96734333D01*
X113069809Y-96639095D01*
X113069809Y-96543857D01*
X113117428Y-96448619D01*
X113165047Y-96401000D01*
X113260285Y-96353380D01*
X113498380Y-96353380D01*
X113641238Y-96401000D01*
X114546000Y-96353380D02*
X114069809Y-96353380D01*
X114022190Y-96829571D01*
X114069809Y-96781952D01*
X114165047Y-96734333D01*
X114403142Y-96734333D01*
X114498380Y-96781952D01*
X114546000Y-96829571D01*
X114593619Y-96924809D01*
X114593619Y-97162904D01*
X114546000Y-97258142D01*
X114498380Y-97305761D01*
X114403142Y-97353380D01*
X114165047Y-97353380D01*
X114069809Y-97305761D01*
X114022190Y-97258142D01*
X115212666Y-96353380D02*
X115307904Y-96353380D01*
X115403142Y-96401000D01*
X115450761Y-96448619D01*
X115498380Y-96543857D01*
X115546000Y-96734333D01*
X115546000Y-96972428D01*
X115498380Y-97162904D01*
X115450761Y-97258142D01*
X115403142Y-97305761D01*
X115307904Y-97353380D01*
X115212666Y-97353380D01*
X115117428Y-97305761D01*
X115069809Y-97258142D01*
X115022190Y-97162904D01*
X114974571Y-96972428D01*
X114974571Y-96734333D01*
X115022190Y-96543857D01*
X115069809Y-96448619D01*
X115117428Y-96401000D01*
X115212666Y-96353380D01*
X116498380Y-97353380D02*
X115926952Y-97353380D01*
X116212666Y-97353380D02*
X116212666Y-96353380D01*
X116117428Y-96496238D01*
X116022190Y-96591476D01*
X115926952Y-96639095D01*
D12*
%TO.C,C6*%
X101211000Y-93495000D02*
X105251000Y-93495000D01*
X105251000Y-90655000D02*
X105251000Y-91280000D01*
X105251000Y-92870000D02*
X105251000Y-93495000D01*
X101211000Y-90655000D02*
X101211000Y-91280000D01*
X101211000Y-92870000D02*
X101211000Y-93495000D01*
X101211000Y-90655000D02*
X105251000Y-90655000D01*
%TO.C,C2*%
X97004000Y-88191600D02*
X94822000Y-88191600D01*
X100268000Y-90312600D02*
X95820000Y-90312600D01*
X97004000Y-88872600D02*
X94946000Y-88872600D01*
X97004000Y-89832600D02*
X95408000Y-89832600D01*
X100940000Y-89392600D02*
X99084000Y-89392600D01*
X100088000Y-90472600D02*
X96000000Y-90472600D01*
X97004000Y-89912600D02*
X95466000Y-89912600D01*
X101203000Y-88631600D02*
X99084000Y-88631600D01*
X100900000Y-89472600D02*
X99084000Y-89472600D01*
X98984000Y-91072600D02*
X97104000Y-91072600D01*
X97004000Y-89192600D02*
X95058000Y-89192600D01*
X101091000Y-89032600D02*
X99084000Y-89032600D01*
X98846000Y-91112600D02*
X97242000Y-91112600D01*
X97004000Y-89752600D02*
X95354000Y-89752600D01*
X97004000Y-89312600D02*
X95110000Y-89312600D01*
X101105000Y-88992600D02*
X99084000Y-88992600D01*
X100592000Y-89952600D02*
X99084000Y-89952600D01*
X97004000Y-90072600D02*
X95594000Y-90072600D01*
X101262000Y-88231600D02*
X99084000Y-88231600D01*
X101259000Y-88271600D02*
X99084000Y-88271600D01*
X99625000Y-90792600D02*
X96463000Y-90792600D01*
X97004000Y-88591600D02*
X94877000Y-88591600D01*
X99306000Y-90952600D02*
X96782000Y-90952600D01*
X101245000Y-88391600D02*
X99084000Y-88391600D01*
X97004000Y-88672600D02*
X94894000Y-88672600D01*
X97004000Y-88471600D02*
X94855000Y-88471600D01*
X100226000Y-90352600D02*
X95862000Y-90352600D01*
X100878000Y-89512600D02*
X99084000Y-89512600D01*
X97004000Y-88511600D02*
X94862000Y-88511600D01*
X99878000Y-90632600D02*
X96210000Y-90632600D01*
X100708000Y-89792600D02*
X99084000Y-89792600D01*
X97004000Y-89672600D02*
X95302000Y-89672600D01*
X97004000Y-89072600D02*
X95011000Y-89072600D01*
X101255000Y-88311600D02*
X99084000Y-88311600D01*
X101211000Y-88591600D02*
X99084000Y-88591600D01*
X97004000Y-89472600D02*
X95188000Y-89472600D01*
X100198000Y-84766359D02*
X99568000Y-84766359D01*
X101165000Y-88792600D02*
X99084000Y-88792600D01*
X100810000Y-89632600D02*
X99084000Y-89632600D01*
X100309000Y-90272600D02*
X95779000Y-90272600D01*
X97004000Y-90192600D02*
X95701000Y-90192600D01*
X97004000Y-88792600D02*
X94923000Y-88792600D01*
X100460000Y-90112600D02*
X99084000Y-90112600D01*
X97004000Y-89992600D02*
X95528000Y-89992600D01*
X97004000Y-89792600D02*
X95380000Y-89792600D01*
X101175000Y-88752600D02*
X99084000Y-88752600D01*
X100760000Y-89712600D02*
X99084000Y-89712600D01*
X101272000Y-88071600D02*
X94816000Y-88071600D01*
X100651000Y-89872600D02*
X99084000Y-89872600D01*
X99476000Y-90872600D02*
X96612000Y-90872600D01*
X100978000Y-89312600D02*
X99084000Y-89312600D01*
X97004000Y-89352600D02*
X95128000Y-89352600D01*
X99820000Y-90672600D02*
X96268000Y-90672600D01*
X97004000Y-90112600D02*
X95628000Y-90112600D01*
X100181000Y-90392600D02*
X95907000Y-90392600D01*
X97004000Y-88311600D02*
X94833000Y-88311600D01*
X97004000Y-89592600D02*
X95254000Y-89592600D01*
X97004000Y-89112600D02*
X95026000Y-89112600D01*
X97004000Y-88912600D02*
X94958000Y-88912600D01*
X97004000Y-89032600D02*
X94997000Y-89032600D01*
X97004000Y-88551600D02*
X94869000Y-88551600D01*
X97004000Y-89272600D02*
X95092000Y-89272600D01*
X101154000Y-88832600D02*
X99084000Y-88832600D01*
X101274000Y-87991600D02*
X94814000Y-87991600D01*
X100560000Y-89992600D02*
X99084000Y-89992600D01*
X97004000Y-88391600D02*
X94843000Y-88391600D01*
X101046000Y-89152600D02*
X99084000Y-89152600D01*
X101250000Y-88351600D02*
X99084000Y-88351600D01*
X101130000Y-88912600D02*
X99084000Y-88912600D01*
X100680000Y-89832600D02*
X99084000Y-89832600D01*
X99394000Y-90912600D02*
X96694000Y-90912600D01*
X100786000Y-89672600D02*
X99084000Y-89672600D01*
X98677000Y-91152600D02*
X97411000Y-91152600D01*
X97004000Y-89512600D02*
X95210000Y-89512600D01*
X101274000Y-87951600D02*
X94814000Y-87951600D01*
X97004000Y-89632600D02*
X95278000Y-89632600D01*
X100734000Y-89752600D02*
X99084000Y-89752600D01*
X97004000Y-89872600D02*
X95437000Y-89872600D01*
X99553000Y-90832600D02*
X96535000Y-90832600D01*
X99103000Y-91032600D02*
X96985000Y-91032600D01*
X99883000Y-84451359D02*
X99883000Y-85081359D01*
X97004000Y-88952600D02*
X94970000Y-88952600D01*
X97004000Y-89232600D02*
X95074000Y-89232600D01*
X97004000Y-89432600D02*
X95168000Y-89432600D01*
X100494000Y-90072600D02*
X99084000Y-90072600D01*
X97004000Y-88351600D02*
X94838000Y-88351600D01*
X101274000Y-88031600D02*
X94814000Y-88031600D01*
X101077000Y-89072600D02*
X99084000Y-89072600D01*
X97004000Y-89392600D02*
X95148000Y-89392600D01*
X100349000Y-90232600D02*
X99084000Y-90232600D01*
X101062000Y-89112600D02*
X99084000Y-89112600D01*
X101266000Y-88191600D02*
X99084000Y-88191600D01*
X100960000Y-89352600D02*
X99084000Y-89352600D01*
X100039000Y-90512600D02*
X96049000Y-90512600D01*
X97004000Y-89152600D02*
X95042000Y-89152600D01*
X97004000Y-90232600D02*
X95739000Y-90232600D01*
X97004000Y-89952600D02*
X95496000Y-89952600D01*
X99934000Y-90592600D02*
X96154000Y-90592600D01*
X97004000Y-88832600D02*
X94934000Y-88832600D01*
X101142000Y-88872600D02*
X99084000Y-88872600D01*
X99209000Y-90992600D02*
X96879000Y-90992600D01*
X97004000Y-88752600D02*
X94913000Y-88752600D01*
X97004000Y-89712600D02*
X95328000Y-89712600D01*
X100387000Y-90192600D02*
X99084000Y-90192600D01*
X101014000Y-89232600D02*
X99084000Y-89232600D01*
X97004000Y-89552600D02*
X95232000Y-89552600D01*
X97004000Y-90032600D02*
X95560000Y-90032600D01*
X97004000Y-88271600D02*
X94829000Y-88271600D01*
X100996000Y-89272600D02*
X99084000Y-89272600D01*
X101268000Y-88151600D02*
X94820000Y-88151600D01*
X97004000Y-88231600D02*
X94826000Y-88231600D01*
X100920000Y-89432600D02*
X99084000Y-89432600D01*
X101185000Y-88712600D02*
X99084000Y-88712600D01*
X101271000Y-88111600D02*
X94817000Y-88111600D01*
X97004000Y-88712600D02*
X94903000Y-88712600D01*
X99694000Y-90752600D02*
X96394000Y-90752600D01*
X101194000Y-88672600D02*
X99084000Y-88672600D01*
X99988000Y-90552600D02*
X96100000Y-90552600D01*
X100834000Y-89592600D02*
X99084000Y-89592600D01*
X97004000Y-88631600D02*
X94885000Y-88631600D01*
X101118000Y-88952600D02*
X99084000Y-88952600D01*
X97004000Y-90152600D02*
X95664000Y-90152600D01*
X97004000Y-88431600D02*
X94849000Y-88431600D01*
X98446000Y-91192600D02*
X97642000Y-91192600D01*
X101233000Y-88471600D02*
X99084000Y-88471600D01*
X101226000Y-88511600D02*
X99084000Y-88511600D01*
X100622000Y-89912600D02*
X99084000Y-89912600D01*
X101239000Y-88431600D02*
X99084000Y-88431600D01*
X100136000Y-90432600D02*
X95952000Y-90432600D01*
X100528000Y-90032600D02*
X99084000Y-90032600D01*
X97004000Y-88992600D02*
X94983000Y-88992600D01*
X101030000Y-89192600D02*
X99084000Y-89192600D01*
X100856000Y-89552600D02*
X99084000Y-89552600D01*
X101219000Y-88551600D02*
X99084000Y-88551600D01*
X99758000Y-90712600D02*
X96330000Y-90712600D01*
X100424000Y-90152600D02*
X99084000Y-90152600D01*
X101314000Y-87951600D02*
G75*
G03*
X101314000Y-87951600I-3270000J0D01*
G01*
%TO.C,C1*%
X91972000Y-77145000D02*
X93866000Y-77145000D01*
X88708000Y-76145000D02*
X93156000Y-76145000D01*
X87871000Y-77465000D02*
X89892000Y-77465000D01*
X91972000Y-77025000D02*
X93808000Y-77025000D01*
X88268000Y-76665000D02*
X89892000Y-76665000D01*
X88448000Y-76425000D02*
X89892000Y-76425000D01*
X88627000Y-76225000D02*
X89892000Y-76225000D01*
X89218000Y-75745000D02*
X92646000Y-75745000D01*
X87708000Y-78306000D02*
X94156000Y-78306000D01*
X90130000Y-75345000D02*
X91734000Y-75345000D01*
X89423000Y-75625000D02*
X92441000Y-75625000D01*
X91972000Y-77545000D02*
X94018000Y-77545000D01*
X88190000Y-76785000D02*
X89892000Y-76785000D01*
X91972000Y-76825000D02*
X93698000Y-76825000D01*
X90530000Y-75265000D02*
X91334000Y-75265000D01*
X87743000Y-77986000D02*
X89892000Y-77986000D01*
X89582000Y-75545000D02*
X92282000Y-75545000D01*
X89992000Y-75385000D02*
X91872000Y-75385000D01*
X87710000Y-78266000D02*
X89892000Y-78266000D01*
X91972000Y-76705000D02*
X93622000Y-76705000D01*
X91972000Y-76345000D02*
X93348000Y-76345000D01*
X91972000Y-77505000D02*
X94006000Y-77505000D01*
X88216000Y-76745000D02*
X89892000Y-76745000D01*
X91972000Y-76905000D02*
X93744000Y-76905000D01*
X87773000Y-77826000D02*
X89892000Y-77826000D01*
X91972000Y-77465000D02*
X93993000Y-77465000D01*
X87714000Y-78226000D02*
X89892000Y-78226000D01*
X91972000Y-77705000D02*
X94063000Y-77705000D01*
X88988000Y-75905000D02*
X92876000Y-75905000D01*
X87721000Y-78146000D02*
X89892000Y-78146000D01*
X88076000Y-76985000D02*
X89892000Y-76985000D01*
X87885000Y-77425000D02*
X89892000Y-77425000D01*
X89093000Y-82006241D02*
X89093000Y-81376241D01*
X87980000Y-77185000D02*
X89892000Y-77185000D01*
X87702000Y-78506000D02*
X94162000Y-78506000D01*
X88937000Y-75945000D02*
X92927000Y-75945000D01*
X88036000Y-77065000D02*
X89892000Y-77065000D01*
X91972000Y-76625000D02*
X93568000Y-76625000D01*
X91972000Y-76505000D02*
X93480000Y-76505000D01*
X88384000Y-76505000D02*
X89892000Y-76505000D01*
X91972000Y-76785000D02*
X93674000Y-76785000D01*
X91972000Y-76425000D02*
X93416000Y-76425000D01*
X91972000Y-77986000D02*
X94121000Y-77986000D01*
X87704000Y-78386000D02*
X94160000Y-78386000D01*
X87858000Y-77505000D02*
X89892000Y-77505000D01*
X88166000Y-76825000D02*
X89892000Y-76825000D01*
X91972000Y-77225000D02*
X93902000Y-77225000D01*
X87930000Y-77305000D02*
X89892000Y-77305000D01*
X91972000Y-77345000D02*
X93950000Y-77345000D01*
X88482000Y-76385000D02*
X89892000Y-76385000D01*
X91972000Y-77946000D02*
X94114000Y-77946000D01*
X91972000Y-78026000D02*
X94127000Y-78026000D01*
X91972000Y-76385000D02*
X93382000Y-76385000D01*
X91972000Y-78146000D02*
X94143000Y-78146000D01*
X91972000Y-77385000D02*
X93965000Y-77385000D01*
X89042000Y-75865000D02*
X92822000Y-75865000D01*
X88589000Y-76265000D02*
X89892000Y-76265000D01*
X88296000Y-76625000D02*
X89892000Y-76625000D01*
X91972000Y-77665000D02*
X94053000Y-77665000D01*
X91972000Y-78066000D02*
X94133000Y-78066000D01*
X87765000Y-77866000D02*
X89892000Y-77866000D01*
X91972000Y-77906000D02*
X94107000Y-77906000D01*
X91972000Y-76465000D02*
X93448000Y-76465000D01*
X88416000Y-76465000D02*
X89892000Y-76465000D01*
X91972000Y-78266000D02*
X94154000Y-78266000D01*
X90299000Y-75305000D02*
X91565000Y-75305000D01*
X91972000Y-76665000D02*
X93596000Y-76665000D01*
X88750000Y-76105000D02*
X93114000Y-76105000D01*
X88120000Y-76905000D02*
X89892000Y-76905000D01*
X87998000Y-77145000D02*
X89892000Y-77145000D01*
X91972000Y-78106000D02*
X94138000Y-78106000D01*
X88516000Y-76345000D02*
X89892000Y-76345000D01*
X87702000Y-78466000D02*
X94162000Y-78466000D01*
X89282000Y-75705000D02*
X92582000Y-75705000D01*
X91972000Y-76305000D02*
X93312000Y-76305000D01*
X87846000Y-77545000D02*
X89892000Y-77545000D01*
X89156000Y-75785000D02*
X92708000Y-75785000D01*
X91972000Y-76225000D02*
X93237000Y-76225000D01*
X87731000Y-78066000D02*
X89892000Y-78066000D01*
X89873000Y-75425000D02*
X91991000Y-75425000D01*
X87914000Y-77345000D02*
X89892000Y-77345000D01*
X91972000Y-77866000D02*
X94099000Y-77866000D01*
X91972000Y-76545000D02*
X93510000Y-76545000D01*
X91972000Y-76265000D02*
X93275000Y-76265000D01*
X87899000Y-77385000D02*
X89892000Y-77385000D01*
X89767000Y-75465000D02*
X92097000Y-75465000D01*
X87757000Y-77906000D02*
X89892000Y-77906000D01*
X89500000Y-75585000D02*
X92364000Y-75585000D01*
X87801000Y-77705000D02*
X89892000Y-77705000D01*
X91972000Y-78226000D02*
X94150000Y-78226000D01*
X88142000Y-76865000D02*
X89892000Y-76865000D01*
X87791000Y-77745000D02*
X89892000Y-77745000D01*
X91972000Y-77826000D02*
X94091000Y-77826000D01*
X88888000Y-75985000D02*
X92976000Y-75985000D01*
X88778000Y-81691241D02*
X89408000Y-81691241D01*
X89098000Y-75825000D02*
X92766000Y-75825000D01*
X91972000Y-77105000D02*
X93848000Y-77105000D01*
X91972000Y-78186000D02*
X94147000Y-78186000D01*
X87946000Y-77265000D02*
X89892000Y-77265000D01*
X88098000Y-76945000D02*
X89892000Y-76945000D01*
X88325000Y-76585000D02*
X89892000Y-76585000D01*
X88840000Y-76025000D02*
X93024000Y-76025000D01*
X91972000Y-77265000D02*
X93918000Y-77265000D01*
X88552000Y-76305000D02*
X89892000Y-76305000D01*
X87726000Y-78106000D02*
X89892000Y-78106000D01*
X91972000Y-76985000D02*
X93788000Y-76985000D01*
X89351000Y-75665000D02*
X92513000Y-75665000D01*
X87962000Y-77225000D02*
X89892000Y-77225000D01*
X91972000Y-77185000D02*
X93884000Y-77185000D01*
X87782000Y-77785000D02*
X89892000Y-77785000D01*
X87750000Y-77946000D02*
X89892000Y-77946000D01*
X91972000Y-77305000D02*
X93934000Y-77305000D01*
X87702000Y-78426000D02*
X94162000Y-78426000D01*
X91972000Y-76865000D02*
X93722000Y-76865000D01*
X91972000Y-77625000D02*
X94042000Y-77625000D01*
X87705000Y-78346000D02*
X94159000Y-78346000D01*
X87737000Y-78026000D02*
X89892000Y-78026000D01*
X88354000Y-76545000D02*
X89892000Y-76545000D01*
X91972000Y-76745000D02*
X93648000Y-76745000D01*
X91972000Y-77745000D02*
X94073000Y-77745000D01*
X89670000Y-75505000D02*
X92194000Y-75505000D01*
X88667000Y-76185000D02*
X93197000Y-76185000D01*
X88795000Y-76065000D02*
X93069000Y-76065000D01*
X88016000Y-77105000D02*
X89892000Y-77105000D01*
X91972000Y-77425000D02*
X93979000Y-77425000D01*
X91972000Y-76585000D02*
X93539000Y-76585000D01*
X87834000Y-77585000D02*
X89892000Y-77585000D01*
X88242000Y-76705000D02*
X89892000Y-76705000D01*
X87717000Y-78186000D02*
X89892000Y-78186000D01*
X91972000Y-77065000D02*
X93828000Y-77065000D01*
X88056000Y-77025000D02*
X89892000Y-77025000D01*
X87811000Y-77665000D02*
X89892000Y-77665000D01*
X91972000Y-77585000D02*
X94030000Y-77585000D01*
X87822000Y-77625000D02*
X89892000Y-77625000D01*
X91972000Y-76945000D02*
X93766000Y-76945000D01*
X91972000Y-77785000D02*
X94082000Y-77785000D01*
X94202000Y-78506000D02*
G75*
G03*
X94202000Y-78506000I-3270000J0D01*
G01*
%TO.C,C4*%
X112418000Y-110605000D02*
X111793000Y-110605000D01*
X112418000Y-106565000D02*
X112418000Y-110605000D01*
X109578000Y-106565000D02*
X109578000Y-110605000D01*
X110203000Y-106565000D02*
X109578000Y-106565000D01*
X110203000Y-110605000D02*
X109578000Y-110605000D01*
X112418000Y-106565000D02*
X111793000Y-106565000D01*
%TO.C,C3*%
X87946000Y-89519400D02*
X92394000Y-89519400D01*
X86975000Y-91400400D02*
X89130000Y-91400400D01*
X86940000Y-91880400D02*
X93400000Y-91880400D01*
X87827000Y-89639400D02*
X89130000Y-89639400D01*
X87096000Y-90879400D02*
X89130000Y-90879400D01*
X87754000Y-89719400D02*
X89130000Y-89719400D01*
X88908000Y-88879400D02*
X91432000Y-88879400D01*
X91210000Y-89639400D02*
X92513000Y-89639400D01*
X91210000Y-90519400D02*
X93104000Y-90519400D01*
X91210000Y-90239400D02*
X92960000Y-90239400D01*
X87060000Y-90999400D02*
X89130000Y-90999400D01*
X88589000Y-89039400D02*
X91751000Y-89039400D01*
X91210000Y-91400400D02*
X93365000Y-91400400D01*
X88820000Y-88919400D02*
X91520000Y-88919400D01*
X88331000Y-95380641D02*
X88331000Y-94750641D01*
X87039000Y-91079400D02*
X89130000Y-91079400D01*
X86969000Y-91440400D02*
X89130000Y-91440400D01*
X91210000Y-90439400D02*
X93066000Y-90439400D01*
X86959000Y-91520400D02*
X89130000Y-91520400D01*
X87358000Y-90279400D02*
X89130000Y-90279400D01*
X91210000Y-90399400D02*
X93046000Y-90399400D01*
X88336000Y-89199400D02*
X92004000Y-89199400D01*
X91210000Y-90719400D02*
X93188000Y-90719400D01*
X89005000Y-88839400D02*
X91335000Y-88839400D01*
X91210000Y-89839400D02*
X92686000Y-89839400D01*
X89230000Y-88759400D02*
X91110000Y-88759400D01*
X91210000Y-91119400D02*
X93311000Y-91119400D01*
X91210000Y-90319400D02*
X93004000Y-90319400D01*
X87084000Y-90919400D02*
X89130000Y-90919400D01*
X91210000Y-90639400D02*
X93156000Y-90639400D01*
X91210000Y-90279400D02*
X92982000Y-90279400D01*
X87563000Y-89959400D02*
X89130000Y-89959400D01*
X86964000Y-91480400D02*
X89130000Y-91480400D01*
X88394000Y-89159400D02*
X91946000Y-89159400D01*
X87152000Y-90719400D02*
X89130000Y-90719400D01*
X87622000Y-89879400D02*
X89130000Y-89879400D01*
X86981000Y-91360400D02*
X89130000Y-91360400D01*
X91210000Y-90599400D02*
X93140000Y-90599400D01*
X91210000Y-90079400D02*
X92860000Y-90079400D01*
X87137000Y-90759400D02*
X89130000Y-90759400D01*
X91210000Y-91079400D02*
X93301000Y-91079400D01*
X88456000Y-89119400D02*
X91884000Y-89119400D01*
X88661000Y-88999400D02*
X91679000Y-88999400D01*
X86955000Y-91560400D02*
X89130000Y-91560400D01*
X88520000Y-89079400D02*
X91820000Y-89079400D01*
X87049000Y-91039400D02*
X89130000Y-91039400D01*
X87168000Y-90679400D02*
X89130000Y-90679400D01*
X88016000Y-95065641D02*
X88646000Y-95065641D01*
X87123000Y-90799400D02*
X89130000Y-90799400D01*
X88226000Y-89279400D02*
X92114000Y-89279400D01*
X91210000Y-90479400D02*
X93086000Y-90479400D01*
X91210000Y-91560400D02*
X93385000Y-91560400D01*
X88078000Y-89399400D02*
X92262000Y-89399400D01*
X88033000Y-89439400D02*
X92307000Y-89439400D01*
X91210000Y-90759400D02*
X93203000Y-90759400D01*
X91210000Y-90559400D02*
X93122000Y-90559400D01*
X91210000Y-90839400D02*
X93231000Y-90839400D01*
X87506000Y-90039400D02*
X89130000Y-90039400D01*
X87011000Y-91200400D02*
X89130000Y-91200400D01*
X86952000Y-91600400D02*
X89130000Y-91600400D01*
X87003000Y-91240400D02*
X89130000Y-91240400D01*
X91210000Y-90119400D02*
X92886000Y-90119400D01*
X87236000Y-90519400D02*
X89130000Y-90519400D01*
X89768000Y-88639400D02*
X90572000Y-88639400D01*
X86995000Y-91280400D02*
X89130000Y-91280400D01*
X87294000Y-90399400D02*
X89130000Y-90399400D01*
X87218000Y-90559400D02*
X89130000Y-90559400D01*
X91210000Y-89919400D02*
X92748000Y-89919400D01*
X91210000Y-90039400D02*
X92834000Y-90039400D01*
X87865000Y-89599400D02*
X89130000Y-89599400D01*
X89537000Y-88679400D02*
X90803000Y-88679400D01*
X91210000Y-90679400D02*
X93172000Y-90679400D01*
X91210000Y-91440400D02*
X93371000Y-91440400D01*
X87336000Y-90319400D02*
X89130000Y-90319400D01*
X91210000Y-89679400D02*
X92550000Y-89679400D01*
X87184000Y-90639400D02*
X89130000Y-90639400D01*
X91210000Y-90199400D02*
X92936000Y-90199400D01*
X87988000Y-89479400D02*
X92352000Y-89479400D01*
X91210000Y-90799400D02*
X93217000Y-90799400D01*
X87480000Y-90079400D02*
X89130000Y-90079400D01*
X91210000Y-90999400D02*
X93280000Y-90999400D01*
X88126000Y-89359400D02*
X92214000Y-89359400D01*
X87404000Y-90199400D02*
X89130000Y-90199400D01*
X91210000Y-89999400D02*
X92806000Y-89999400D01*
X88738000Y-88959400D02*
X91602000Y-88959400D01*
X91210000Y-91480400D02*
X93376000Y-91480400D01*
X87109000Y-90839400D02*
X89130000Y-90839400D01*
X91210000Y-90879400D02*
X93244000Y-90879400D01*
X86946000Y-91680400D02*
X93394000Y-91680400D01*
X91210000Y-90159400D02*
X92912000Y-90159400D01*
X91210000Y-91159400D02*
X93320000Y-91159400D01*
X87592000Y-89919400D02*
X89130000Y-89919400D01*
X88280000Y-89239400D02*
X92060000Y-89239400D01*
X91210000Y-91360400D02*
X93359000Y-91360400D01*
X88175000Y-89319400D02*
X92165000Y-89319400D01*
X87029000Y-91119400D02*
X89130000Y-91119400D01*
X91210000Y-91280400D02*
X93345000Y-91280400D01*
X89111000Y-88799400D02*
X91229000Y-88799400D01*
X87686000Y-89799400D02*
X89130000Y-89799400D01*
X91210000Y-89759400D02*
X92620000Y-89759400D01*
X87200000Y-90599400D02*
X89130000Y-90599400D01*
X91210000Y-90959400D02*
X93268000Y-90959400D01*
X91210000Y-91600400D02*
X93388000Y-91600400D01*
X91210000Y-91640400D02*
X93392000Y-91640400D01*
X87654000Y-89839400D02*
X89130000Y-89839400D01*
X86943000Y-91720400D02*
X93397000Y-91720400D01*
X87254000Y-90479400D02*
X89130000Y-90479400D01*
X91210000Y-91200400D02*
X93329000Y-91200400D01*
X87720000Y-89759400D02*
X89130000Y-89759400D01*
X87072000Y-90959400D02*
X89130000Y-90959400D01*
X91210000Y-91320400D02*
X93352000Y-91320400D01*
X91210000Y-91520400D02*
X93381000Y-91520400D01*
X87790000Y-89679400D02*
X89130000Y-89679400D01*
X91210000Y-90919400D02*
X93256000Y-90919400D01*
X87380000Y-90239400D02*
X89130000Y-90239400D01*
X86988000Y-91320400D02*
X89130000Y-91320400D01*
X86940000Y-91800400D02*
X93400000Y-91800400D01*
X86948000Y-91640400D02*
X89130000Y-91640400D01*
X87534000Y-89999400D02*
X89130000Y-89999400D01*
X87020000Y-91159400D02*
X89130000Y-91159400D01*
X91210000Y-89599400D02*
X92475000Y-89599400D01*
X91210000Y-90359400D02*
X93026000Y-90359400D01*
X86940000Y-91840400D02*
X93400000Y-91840400D01*
X87454000Y-90119400D02*
X89130000Y-90119400D01*
X91210000Y-89959400D02*
X92777000Y-89959400D01*
X91210000Y-91240400D02*
X93337000Y-91240400D01*
X89368000Y-88719400D02*
X90972000Y-88719400D01*
X91210000Y-91039400D02*
X93291000Y-91039400D01*
X87905000Y-89559400D02*
X92435000Y-89559400D01*
X87428000Y-90159400D02*
X89130000Y-90159400D01*
X91210000Y-89719400D02*
X92586000Y-89719400D01*
X86942000Y-91760400D02*
X93398000Y-91760400D01*
X87274000Y-90439400D02*
X89130000Y-90439400D01*
X87314000Y-90359400D02*
X89130000Y-90359400D01*
X91210000Y-89799400D02*
X92654000Y-89799400D01*
X91210000Y-89879400D02*
X92718000Y-89879400D01*
X93440000Y-91880400D02*
G75*
G03*
X93440000Y-91880400I-3270000J0D01*
G01*
%TO.C,Y1*%
X111159000Y-105395000D02*
X104909000Y-105395000D01*
X111159000Y-100345000D02*
X104909000Y-100345000D01*
X104909000Y-100345000D02*
G75*
G03*
X104909000Y-105395000I0J-2525000D01*
G01*
X111159000Y-105395000D02*
G75*
G03*
X111159000Y-100345000I0J2525000D01*
G01*
%TO.C,J1*%
X56769000Y-43764000D02*
X56769000Y-53416000D01*
X56769000Y-53416000D02*
X195707000Y-53416000D01*
X195707000Y-53416000D02*
X195707000Y-43764000D01*
X195707000Y-43764000D02*
X56769000Y-43764000D01*
X194564000Y-46050000D02*
G75*
G03*
X194564000Y-46050000I-381000J0D01*
G01*
%TO.C,J2*%
X68278000Y-92848000D02*
X66778000Y-92848000D01*
X66778000Y-84928000D02*
X66778000Y-86568000D01*
X66778000Y-92848000D02*
X66778000Y-94488000D01*
X68278000Y-102598000D02*
X68278000Y-80778000D01*
X66778000Y-90528000D02*
X68278000Y-90528000D01*
X66778000Y-96808000D02*
X66778000Y-98448000D01*
X83398000Y-80178000D02*
X81788000Y-80178000D01*
X77898000Y-79728000D02*
X77898000Y-103648000D01*
X68278000Y-96808000D02*
X66778000Y-96808000D01*
X66778000Y-102408000D02*
X68278000Y-102408000D01*
X74478000Y-80778000D02*
X74478000Y-79728000D01*
X74478000Y-102598000D02*
X68278000Y-102598000D01*
X74478000Y-79728000D02*
X77898000Y-79728000D01*
X66778000Y-82608000D02*
X68278000Y-82608000D01*
X68278000Y-84928000D02*
X66778000Y-84928000D01*
X66778000Y-98448000D02*
X68278000Y-98448000D01*
X68278000Y-80968000D02*
X66778000Y-80968000D01*
X66778000Y-80968000D02*
X66778000Y-82608000D01*
X74478000Y-103648000D02*
X74478000Y-102598000D01*
X66778000Y-86568000D02*
X68278000Y-86568000D01*
X66778000Y-100768000D02*
X66778000Y-102408000D01*
X68278000Y-100768000D02*
X66778000Y-100768000D01*
X77898000Y-103648000D02*
X74478000Y-103648000D01*
X66778000Y-94488000D02*
X68278000Y-94488000D01*
X68278000Y-80778000D02*
X74478000Y-80778000D01*
X83398000Y-81788000D02*
X83398000Y-80178000D01*
X68278000Y-88888000D02*
X66778000Y-88888000D01*
X66778000Y-88888000D02*
X66778000Y-90528000D01*
%TO.C,C5*%
X106576000Y-106565000D02*
X106576000Y-110605000D01*
X104361000Y-110605000D02*
X103736000Y-110605000D01*
X104361000Y-106565000D02*
X103736000Y-106565000D01*
X106576000Y-110605000D02*
X105951000Y-110605000D01*
X103736000Y-106565000D02*
X103736000Y-110605000D01*
X106576000Y-106565000D02*
X105951000Y-106565000D01*
%TO.C,U1*%
X106807000Y-99080000D02*
X110257000Y-99080000D01*
X106807000Y-99080000D02*
X104857000Y-99080000D01*
X106807000Y-93960000D02*
X108757000Y-93960000D01*
X106807000Y-93960000D02*
X104857000Y-93960000D01*
%TD*%
M02*
