%TF.GenerationSoftware,KiCad,Pcbnew,(6.0.11)*%
%TF.CreationDate,2023-03-28T13:09:03-06:00*%
%TF.ProjectId,arduino-mega-isa-shield,61726475-696e-46f2-9d6d-6567612d6973,rev?*%
%TF.SameCoordinates,Original*%
%TF.FileFunction,Copper,L2,Bot*%
%TF.FilePolarity,Positive*%
%FSLAX46Y46*%
G04 Gerber Fmt 4.6, Leading zero omitted, Abs format (unit mm)*
G04 Created by KiCad (PCBNEW (6.0.11)) date 2023-03-28 13:09:03*
%MOMM*%
%LPD*%
G01*
G04 APERTURE LIST*
G04 Aperture macros list*
%AMRoundRect*
0 Rectangle with rounded corners*
0 $1 Rounding radius*
0 $2 $3 $4 $5 $6 $7 $8 $9 X,Y pos of 4 corners*
0 Add a 4 corners polygon primitive as box body*
4,1,4,$2,$3,$4,$5,$6,$7,$8,$9,$2,$3,0*
0 Add four circle primitives for the rounded corners*
1,1,$1+$1,$2,$3*
1,1,$1+$1,$4,$5*
1,1,$1+$1,$6,$7*
1,1,$1+$1,$8,$9*
0 Add four rect primitives between the rounded corners*
20,1,$1+$1,$2,$3,$4,$5,0*
20,1,$1+$1,$4,$5,$6,$7,0*
20,1,$1+$1,$6,$7,$8,$9,0*
20,1,$1+$1,$8,$9,$2,$3,0*%
G04 Aperture macros list end*
%TA.AperFunction,ComponentPad*%
%ADD10O,1.727200X1.727200*%
%TD*%
%TA.AperFunction,ComponentPad*%
%ADD11R,1.727200X1.727200*%
%TD*%
%TA.AperFunction,ComponentPad*%
%ADD12R,1.600000X1.600000*%
%TD*%
%TA.AperFunction,ComponentPad*%
%ADD13C,1.600000*%
%TD*%
%TA.AperFunction,ComponentPad*%
%ADD14C,1.500000*%
%TD*%
%TA.AperFunction,ComponentPad*%
%ADD15C,1.651000*%
%TD*%
%TA.AperFunction,ComponentPad*%
%ADD16RoundRect,0.250001X-1.099999X1.099999X-1.099999X-1.099999X1.099999X-1.099999X1.099999X1.099999X0*%
%TD*%
%TA.AperFunction,ComponentPad*%
%ADD17C,2.700000*%
%TD*%
%TA.AperFunction,ViaPad*%
%ADD18C,0.800000*%
%TD*%
%TA.AperFunction,Conductor*%
%ADD19C,1.000000*%
%TD*%
%TA.AperFunction,Conductor*%
%ADD20C,2.000000*%
%TD*%
%TA.AperFunction,Conductor*%
%ADD21C,0.250000*%
%TD*%
G04 APERTURE END LIST*
D10*
%TO.P,XA1,*%
%TO.N,*%
X105918000Y-114046000D03*
%TO.P,XA1,3V3,3.3V*%
%TO.N,unconnected-(XA1-Pad3V3)*%
X113538000Y-114046000D03*
%TO.P,XA1,5V1,5V*%
%TO.N,+5V*%
X116078000Y-114046000D03*
%TO.P,XA1,5V3,5V*%
X171958000Y-65786000D03*
%TO.P,XA1,5V4,5V*%
X174498000Y-65786000D03*
%TO.P,XA1,A0,A0*%
%TO.N,/A8*%
X128778000Y-114046000D03*
%TO.P,XA1,A1,A1*%
%TO.N,/A9*%
X131318000Y-114046000D03*
%TO.P,XA1,A2,A2*%
%TO.N,/A10*%
X133858000Y-114046000D03*
%TO.P,XA1,A3,A3*%
%TO.N,/A11*%
X136398000Y-114046000D03*
%TO.P,XA1,A4,A4*%
%TO.N,/A12*%
X138938000Y-114046000D03*
%TO.P,XA1,A5,A5*%
%TO.N,/A13*%
X141478000Y-114046000D03*
%TO.P,XA1,A6,A6*%
%TO.N,/A14*%
X144018000Y-114046000D03*
%TO.P,XA1,A7,A7*%
%TO.N,/A15*%
X146558000Y-114046000D03*
%TO.P,XA1,A8,A8*%
%TO.N,/LA17*%
X151638000Y-114046000D03*
%TO.P,XA1,A9,A9*%
%TO.N,/LA18*%
X154178000Y-114046000D03*
%TO.P,XA1,A10,A10*%
%TO.N,/LA19*%
X156718000Y-114046000D03*
%TO.P,XA1,A11,A11*%
%TO.N,/LA20*%
X159258000Y-114046000D03*
%TO.P,XA1,A12,A12*%
%TO.N,/LA21*%
X161798000Y-114046000D03*
%TO.P,XA1,A13,A13*%
%TO.N,/LA22*%
X164338000Y-114046000D03*
%TO.P,XA1,A14,A14*%
%TO.N,/LA23*%
X166878000Y-114046000D03*
%TO.P,XA1,A15,A15*%
%TO.N,/PK7*%
X169418000Y-114046000D03*
%TO.P,XA1,AREF,AREF*%
%TO.N,unconnected-(XA1-PadAREF)*%
X101854000Y-65786000D03*
%TO.P,XA1,D0,D0_RX0*%
%TO.N,/PE0*%
X141478000Y-65786000D03*
%TO.P,XA1,D1,D1_TX0*%
%TO.N,/ALE*%
X138938000Y-65786000D03*
%TO.P,XA1,D2,D2_INT0*%
%TO.N,/PE4*%
X136398000Y-65786000D03*
%TO.P,XA1,D3,D3_INT1*%
%TO.N,/PE5*%
X133858000Y-65786000D03*
%TO.P,XA1,D4,D4*%
%TO.N,/PG5*%
X131318000Y-65786000D03*
%TO.P,XA1,D5,D5*%
%TO.N,/PE3*%
X128778000Y-65786000D03*
%TO.P,XA1,D6,D6*%
%TO.N,/PH3*%
X126238000Y-65786000D03*
%TO.P,XA1,D7,D7*%
%TO.N,/PH4*%
X123698000Y-65786000D03*
%TO.P,XA1,D8,D8*%
%TO.N,/PH5*%
X119634000Y-65786000D03*
%TO.P,XA1,D9,D9*%
%TO.N,/PH6*%
X117094000Y-65786000D03*
%TO.P,XA1,D10,D10*%
%TO.N,/A4*%
X114554000Y-65786000D03*
%TO.P,XA1,D11,D11*%
%TO.N,/A5*%
X112014000Y-65786000D03*
%TO.P,XA1,D12,D12*%
%TO.N,/A6*%
X109474000Y-65786000D03*
%TO.P,XA1,D13,D13*%
%TO.N,/A7*%
X106934000Y-65786000D03*
%TO.P,XA1,D14,D14_TX3*%
%TO.N,/PJ1*%
X146558000Y-65786000D03*
%TO.P,XA1,D15,D15_RX3*%
%TO.N,/PJ0*%
X149098000Y-65786000D03*
%TO.P,XA1,D16,D16_TX2*%
%TO.N,/PH1*%
X151638000Y-65786000D03*
%TO.P,XA1,D17,D17_RX2*%
%TO.N,/PH0*%
X154178000Y-65786000D03*
%TO.P,XA1,D18,D18_TX1*%
%TO.N,/A19*%
X156718000Y-65786000D03*
%TO.P,XA1,D19,D19_RX1*%
%TO.N,/A18*%
X159258000Y-65786000D03*
%TO.P,XA1,D20,D20_SDA*%
%TO.N,/A17*%
X161798000Y-65786000D03*
%TO.P,XA1,D21,D21_SCL*%
%TO.N,/A16*%
X164338000Y-65786000D03*
%TO.P,XA1,D22,D22*%
%TO.N,/D0*%
X171958000Y-68326000D03*
%TO.P,XA1,D23,D23*%
%TO.N,/D1*%
X174498000Y-68326000D03*
%TO.P,XA1,D24,D24*%
%TO.N,/D2*%
X171958000Y-70866000D03*
%TO.P,XA1,D25,D25*%
%TO.N,/D3*%
X174498000Y-70866000D03*
%TO.P,XA1,D26,D26*%
%TO.N,/D4*%
X171958000Y-73406000D03*
%TO.P,XA1,D27,D27*%
%TO.N,/D5*%
X174498000Y-73406000D03*
%TO.P,XA1,D28,D28*%
%TO.N,/D6*%
X171958000Y-75946000D03*
%TO.P,XA1,D29,D29*%
%TO.N,/D7*%
X174498000Y-75946000D03*
%TO.P,XA1,D30,D30*%
%TO.N,/PC7*%
X171958000Y-78486000D03*
%TO.P,XA1,D31,D31*%
%TO.N,/PC6*%
X174498000Y-78486000D03*
%TO.P,XA1,D32,D32*%
%TO.N,/PC5*%
X171958000Y-81026000D03*
%TO.P,XA1,D33,D33*%
%TO.N,/PC4*%
X174498000Y-81026000D03*
%TO.P,XA1,D34,D34*%
%TO.N,/PC3*%
X171958000Y-83566000D03*
%TO.P,XA1,D35,D35*%
%TO.N,/PC2*%
X174498000Y-83566000D03*
%TO.P,XA1,D36,D36*%
%TO.N,/PC1*%
X171958000Y-86106000D03*
%TO.P,XA1,D37,D37*%
%TO.N,/PC0*%
X174498000Y-86106000D03*
%TO.P,XA1,D38,D38*%
%TO.N,/AEN*%
X171958000Y-88646000D03*
%TO.P,XA1,D39,D39*%
%TO.N,/PG2*%
X174498000Y-88646000D03*
%TO.P,XA1,D40,D40*%
%TO.N,/PG1*%
X171958000Y-91186000D03*
%TO.P,XA1,D41,D41*%
%TO.N,/PG0*%
X174498000Y-91186000D03*
%TO.P,XA1,D42,D42*%
%TO.N,/IRQ7*%
X171958000Y-93726000D03*
%TO.P,XA1,D43,D43*%
%TO.N,/IRQ5*%
X174498000Y-93726000D03*
%TO.P,XA1,D44,D44*%
%TO.N,/IRQ3*%
X171958000Y-96266000D03*
%TO.P,XA1,D45,D45*%
%TO.N,/IRQ2*%
X174498000Y-96266000D03*
%TO.P,XA1,D46,D46*%
%TO.N,/DRQ7*%
X171958000Y-98806000D03*
%TO.P,XA1,D47,D47*%
%TO.N,/DRQ5*%
X174498000Y-98806000D03*
%TO.P,XA1,D48,D48*%
%TO.N,/DRQ3*%
X171958000Y-101346000D03*
%TO.P,XA1,D49,D49*%
%TO.N,/DRQ1*%
X174498000Y-101346000D03*
%TO.P,XA1,D50,D50_MISO*%
%TO.N,/A3*%
X171958000Y-103886000D03*
%TO.P,XA1,D51,D51_MOSI*%
%TO.N,/A2*%
X174498000Y-103886000D03*
%TO.P,XA1,D52,D52_SCK*%
%TO.N,/A1*%
X171958000Y-106426000D03*
%TO.P,XA1,D53,D53_CS*%
%TO.N,/A0*%
X174498000Y-106426000D03*
D11*
%TO.P,XA1,GND1,GND*%
%TO.N,GND*%
X104394000Y-65786000D03*
%TO.P,XA1,GND2,GND*%
X118618000Y-114046000D03*
%TO.P,XA1,GND3,GND*%
X121158000Y-114046000D03*
%TO.P,XA1,GND5,GND*%
X171958000Y-108966000D03*
%TO.P,XA1,GND6,GND*%
X174498000Y-108966000D03*
D10*
%TO.P,XA1,IORF,IOREF*%
%TO.N,unconnected-(XA1-PadIORF)*%
X108458000Y-114046000D03*
%TO.P,XA1,RST1,RESET*%
%TO.N,unconnected-(XA1-PadRST1)*%
X110998000Y-114046000D03*
%TO.P,XA1,SCL,SCL*%
%TO.N,unconnected-(XA1-PadSCL)*%
X96774000Y-65786000D03*
%TO.P,XA1,SDA,SDA*%
%TO.N,unconnected-(XA1-PadSDA)*%
X99314000Y-65786000D03*
%TO.P,XA1,VIN,VIN*%
%TO.N,+5V*%
X123698000Y-114046000D03*
%TD*%
D12*
%TO.P,C3,1*%
%TO.N,GND*%
X95631000Y-97321380D03*
D13*
%TO.P,C3,2*%
%TO.N,-12V*%
X95631000Y-94821380D03*
%TD*%
D12*
%TO.P,C2,1*%
%TO.N,+12V*%
X98044000Y-86701600D03*
D13*
%TO.P,C2,2*%
%TO.N,GND*%
X98044000Y-89201600D03*
%TD*%
D12*
%TO.P,C1,1*%
%TO.N,+5V*%
X90932000Y-79756000D03*
D13*
%TO.P,C1,2*%
%TO.N,GND*%
X90932000Y-77256000D03*
%TD*%
%TO.P,C4,1*%
%TO.N,Net-(C4-Pad1)*%
X110998000Y-107335000D03*
%TO.P,C4,2*%
%TO.N,GND*%
X110998000Y-109835000D03*
%TD*%
D14*
%TO.P,Y1,1,1*%
%TO.N,Net-(C4-Pad1)*%
X110474000Y-102870000D03*
%TO.P,Y1,2,2*%
%TO.N,Net-(C5-Pad1)*%
X105594000Y-102870000D03*
%TD*%
D13*
%TO.P,C6,1*%
%TO.N,+5V*%
X101981000Y-92075000D03*
%TO.P,C6,2*%
%TO.N,GND*%
X104481000Y-92075000D03*
%TD*%
D15*
%TO.P,J1,1,D18*%
%TO.N,GND*%
X191008000Y-46050000D03*
%TO.P,J1,2,D17*%
%TO.N,/PK7*%
X188468000Y-46050000D03*
%TO.P,J1,3,D16*%
%TO.N,+5V*%
X185928000Y-46050000D03*
%TO.P,J1,4,D15*%
%TO.N,/DRQ7*%
X183388000Y-46050000D03*
%TO.P,J1,5,D14*%
%TO.N,/PH4*%
X180848000Y-46050000D03*
%TO.P,J1,6,D13*%
%TO.N,/DRQ6*%
X178308000Y-46050000D03*
%TO.P,J1,7,D12*%
%TO.N,/~{DACK6}*%
X175768000Y-46050000D03*
%TO.P,J1,8,D11*%
%TO.N,/DRQ5*%
X173228000Y-46050000D03*
%TO.P,J1,9,D10*%
%TO.N,/PH3*%
X170688000Y-46050000D03*
%TO.P,J1,10,D9*%
%TO.N,/DRQ0*%
X168148000Y-46050000D03*
%TO.P,J1,11,D8*%
%TO.N,/~{DACK0}*%
X165608000Y-46050000D03*
%TO.P,J1,12,D7*%
%TO.N,/IRQ14*%
X163068000Y-46050000D03*
%TO.P,J1,13,D6*%
%TO.N,/IRQ13*%
X160528000Y-46050000D03*
%TO.P,J1,14,D5*%
%TO.N,/IRQ12*%
X157988000Y-46050000D03*
%TO.P,J1,15,D4*%
%TO.N,/IRQ11*%
X155448000Y-46050000D03*
%TO.P,J1,16,D3*%
%TO.N,/IRQ10*%
X152908000Y-46050000D03*
%TO.P,J1,17,D2*%
%TO.N,/PJ1*%
X150368000Y-46050000D03*
%TO.P,J1,18,D1*%
%TO.N,/~{MEMCS16}*%
X147828000Y-46050000D03*
%TO.P,J1,19,B31*%
%TO.N,GND*%
X137668000Y-46050000D03*
%TO.P,J1,20,B30*%
%TO.N,/OSC_14M318*%
X135128000Y-46050000D03*
%TO.P,J1,21,B29*%
%TO.N,+5V*%
X132588000Y-46050000D03*
%TO.P,J1,22,B28*%
%TO.N,/ALE*%
X130048000Y-46050000D03*
%TO.P,J1,23,B27*%
%TO.N,/PH5*%
X127508000Y-46050000D03*
%TO.P,J1,24,B26*%
%TO.N,/~{DACK2}*%
X124968000Y-46050000D03*
%TO.P,J1,25,B25*%
%TO.N,/IRQ3*%
X122428000Y-46050000D03*
%TO.P,J1,26,B24*%
%TO.N,/IRQ4*%
X119888000Y-46050000D03*
%TO.P,J1,27,B23*%
%TO.N,/IRQ5*%
X117348000Y-46050000D03*
%TO.P,J1,28,B22*%
%TO.N,/IRQ6*%
X114808000Y-46050000D03*
%TO.P,J1,29,B21*%
%TO.N,/IRQ7*%
X112268000Y-46050000D03*
%TO.P,J1,30,B20*%
%TO.N,/OSC_8M*%
X109728000Y-46050000D03*
%TO.P,J1,31,B19*%
%TO.N,/~{REFRESH}*%
X107188000Y-46050000D03*
%TO.P,J1,32,B18*%
%TO.N,/DRQ1*%
X104648000Y-46050000D03*
%TO.P,J1,33,B17*%
%TO.N,/PH0*%
X102108000Y-46050000D03*
%TO.P,J1,34,B16*%
%TO.N,/DRQ3*%
X99568000Y-46050000D03*
%TO.P,J1,35,B15*%
%TO.N,/PH1*%
X97028000Y-46050000D03*
%TO.P,J1,36,B14*%
%TO.N,/PG0*%
X94488000Y-46050000D03*
%TO.P,J1,37,B13*%
%TO.N,/PG1*%
X91948000Y-46050000D03*
%TO.P,J1,38,B12*%
%TO.N,/PG2*%
X89408000Y-46050000D03*
%TO.P,J1,39,B11*%
%TO.N,/PG5*%
X86868000Y-46050000D03*
%TO.P,J1,40,B10*%
%TO.N,GND*%
X84328000Y-46050000D03*
%TO.P,J1,41,B9*%
%TO.N,+12V*%
X81788000Y-46050000D03*
%TO.P,J1,42,B8*%
%TO.N,/PJ0*%
X79248000Y-46050000D03*
%TO.P,J1,43,B7*%
%TO.N,-12V*%
X76708000Y-46050000D03*
%TO.P,J1,44,B6*%
%TO.N,/DRQ2*%
X74168000Y-46050000D03*
%TO.P,J1,45,B5*%
%TO.N,/-5V*%
X71628000Y-46050000D03*
%TO.P,J1,46,B4*%
%TO.N,/IRQ2*%
X69088000Y-46050000D03*
%TO.P,J1,47,B3*%
%TO.N,+5V*%
X66548000Y-46050000D03*
%TO.P,J1,48,B2*%
%TO.N,/PE0*%
X64008000Y-46050000D03*
%TO.P,J1,49,B1*%
%TO.N,GND*%
X61468000Y-46050000D03*
%TO.P,J1,50,C18*%
%TO.N,/PC7*%
X191008000Y-51130000D03*
%TO.P,J1,51,C17*%
%TO.N,/PC6*%
X188468000Y-51130000D03*
%TO.P,J1,52,C16*%
%TO.N,/PC5*%
X185928000Y-51130000D03*
%TO.P,J1,53,C15*%
%TO.N,/PC4*%
X183388000Y-51130000D03*
%TO.P,J1,54,C14*%
%TO.N,/PC3*%
X180848000Y-51130000D03*
%TO.P,J1,55,C13*%
%TO.N,/PC2*%
X178308000Y-51130000D03*
%TO.P,J1,56,C12*%
%TO.N,/PC1*%
X175768000Y-51130000D03*
%TO.P,J1,57,C11*%
%TO.N,/PC0*%
X173228000Y-51130000D03*
%TO.P,J1,58,C10*%
%TO.N,/PE5*%
X170688000Y-51130000D03*
%TO.P,J1,59,C9*%
%TO.N,/PE4*%
X168148000Y-51130000D03*
%TO.P,J1,60,C8*%
%TO.N,/LA17*%
X165608000Y-51130000D03*
%TO.P,J1,61,C7*%
%TO.N,/LA18*%
X163068000Y-51130000D03*
%TO.P,J1,62,C6*%
%TO.N,/LA19*%
X160528000Y-51130000D03*
%TO.P,J1,63,C5*%
%TO.N,/LA20*%
X157988000Y-51130000D03*
%TO.P,J1,64,C4*%
%TO.N,/LA21*%
X155448000Y-51130000D03*
%TO.P,J1,65,C3*%
%TO.N,/LA22*%
X152908000Y-51130000D03*
%TO.P,J1,66,C2*%
%TO.N,/LA23*%
X150368000Y-51130000D03*
%TO.P,J1,67,C1*%
%TO.N,/PE3*%
X147828000Y-51130000D03*
%TO.P,J1,68,A31*%
%TO.N,/A0*%
X137668000Y-51130000D03*
%TO.P,J1,69,A30*%
%TO.N,/A1*%
X135128000Y-51130000D03*
%TO.P,J1,70,A29*%
%TO.N,/A2*%
X132588000Y-51130000D03*
%TO.P,J1,71,A28*%
%TO.N,/A3*%
X130048000Y-51130000D03*
%TO.P,J1,72,A27*%
%TO.N,/A4*%
X127508000Y-51130000D03*
%TO.P,J1,73,A26*%
%TO.N,/A5*%
X124968000Y-51130000D03*
%TO.P,J1,74,A25*%
%TO.N,/A6*%
X122428000Y-51130000D03*
%TO.P,J1,75,A24*%
%TO.N,/A7*%
X119888000Y-51130000D03*
%TO.P,J1,76,A23*%
%TO.N,/A8*%
X117348000Y-51130000D03*
%TO.P,J1,77,A22*%
%TO.N,/A9*%
X114808000Y-51130000D03*
%TO.P,J1,78,A21*%
%TO.N,/A10*%
X112268000Y-51130000D03*
%TO.P,J1,79,A20*%
%TO.N,/A11*%
X109728000Y-51130000D03*
%TO.P,J1,80,A19*%
%TO.N,/A12*%
X107188000Y-51130000D03*
%TO.P,J1,81,A18*%
%TO.N,/A13*%
X104648000Y-51130000D03*
%TO.P,J1,82,A17*%
%TO.N,/A14*%
X102108000Y-51130000D03*
%TO.P,J1,83,A16*%
%TO.N,/A15*%
X99568000Y-51130000D03*
%TO.P,J1,84,A15*%
%TO.N,/A16*%
X97028000Y-51130000D03*
%TO.P,J1,85,A14*%
%TO.N,/A17*%
X94488000Y-51130000D03*
%TO.P,J1,86,A13*%
%TO.N,/A18*%
X91948000Y-51130000D03*
%TO.P,J1,87,A12*%
%TO.N,/A19*%
X89408000Y-51130000D03*
%TO.P,J1,88,A11*%
%TO.N,/AEN*%
X86868000Y-51130000D03*
%TO.P,J1,89,A10*%
%TO.N,/PH6*%
X84328000Y-51130000D03*
%TO.P,J1,90,A9*%
%TO.N,/D0*%
X81788000Y-51130000D03*
%TO.P,J1,91,A8*%
%TO.N,/D1*%
X79248000Y-51130000D03*
%TO.P,J1,92,A7*%
%TO.N,/D2*%
X76708000Y-51130000D03*
%TO.P,J1,93,A6*%
%TO.N,/D3*%
X74168000Y-51130000D03*
%TO.P,J1,94,A5*%
%TO.N,/D4*%
X71628000Y-51130000D03*
%TO.P,J1,95,A4*%
%TO.N,/D5*%
X69088000Y-51130000D03*
%TO.P,J1,96,A3*%
%TO.N,/D6*%
X66548000Y-51130000D03*
%TO.P,J1,97,A2*%
%TO.N,/D7*%
X64008000Y-51130000D03*
%TO.P,J1,98,A1*%
%TO.N,/~{IO_CH_CHK}*%
X61468000Y-51130000D03*
%TD*%
D16*
%TO.P,J2,1,Pin_1*%
%TO.N,+5V*%
X85217000Y-81788000D03*
D17*
%TO.P,J2,2,Pin_2*%
%TO.N,+12V*%
X85217000Y-85748000D03*
%TO.P,J2,3,Pin_3*%
%TO.N,-12V*%
X85217000Y-89708000D03*
%TO.P,J2,4,Pin_4*%
%TO.N,GND*%
X85217000Y-93668000D03*
%TO.P,J2,5,Pin_5*%
X85217000Y-97628000D03*
%TO.P,J2,6,Pin_6*%
X85217000Y-101588000D03*
%TD*%
D13*
%TO.P,C5,1*%
%TO.N,Net-(C5-Pad1)*%
X105156000Y-107335000D03*
%TO.P,C5,2*%
%TO.N,GND*%
X105156000Y-109835000D03*
%TD*%
D18*
%TO.N,/PH4*%
X126355200Y-57342500D03*
%TO.N,/DRQ5*%
X170912100Y-84836000D03*
%TO.N,/DRQ1*%
X175783500Y-97876800D03*
X183573200Y-52575600D03*
%TO.N,/PH0*%
X111291800Y-58513300D03*
%TO.N,/DRQ3*%
X141841800Y-58375100D03*
%TO.N,/PG0*%
X143384000Y-58864200D03*
%TO.N,/PG1*%
X146942200Y-52559800D03*
%TO.N,/PG2*%
X89454700Y-69403200D03*
%TO.N,/PG5*%
X103772300Y-62068400D03*
%TO.N,/IRQ2*%
X88687900Y-70229800D03*
%TO.N,/LA17*%
X166946100Y-77524500D03*
%TO.N,/LA18*%
X131935000Y-57640800D03*
%TO.N,/LA19*%
X157299400Y-73976700D03*
X154352800Y-87312500D03*
%TO.N,/LA20*%
X138082300Y-56903700D03*
%TO.N,/LA21*%
X176743900Y-94708900D03*
%TO.N,/LA22*%
X137283600Y-56083700D03*
%TO.N,/LA23*%
X157875400Y-76644900D03*
X157701600Y-87500400D03*
%TO.N,/PE3*%
X131864600Y-53347400D03*
%TO.N,/A2*%
X154892300Y-96175300D03*
%TO.N,/A8*%
X124787600Y-54739000D03*
%TO.N,/A11*%
X122567000Y-56949300D03*
%TO.N,/A12*%
X119201900Y-57565200D03*
%TO.N,/A13*%
X121632300Y-58843700D03*
%TO.N,/A15*%
X121743600Y-57824900D03*
%TO.N,/AEN*%
X90849800Y-69734200D03*
%TO.N,/PH6*%
X102748400Y-64572200D03*
%TO.N,/PC7*%
X178985400Y-67025600D03*
%TO.N,/PC6*%
X174531300Y-64071700D03*
%TO.N,/PC4*%
X175529200Y-58755800D03*
%TO.N,/PC3*%
X167386900Y-63349200D03*
%TD*%
D19*
%TO.N,-12V*%
X78532000Y-89708000D02*
X85217000Y-89708000D01*
X78224000Y-89400000D02*
X78532000Y-89708000D01*
X78224000Y-69334000D02*
X78224000Y-89400000D01*
X77351000Y-68461000D02*
X78224000Y-69334000D01*
X56481436Y-68461000D02*
X77351000Y-68461000D01*
X55491000Y-67470564D02*
X56481436Y-68461000D01*
X55491000Y-53399802D02*
X55491000Y-67470564D01*
X55497454Y-53393348D02*
X55491000Y-53399802D01*
X55491000Y-53386894D02*
X55497454Y-53393348D01*
X55491000Y-42117106D02*
X55491000Y-53386894D01*
X57484106Y-40124000D02*
X55491000Y-42117106D01*
X74922000Y-40124000D02*
X57484106Y-40124000D01*
X76708000Y-41910000D02*
X74922000Y-40124000D01*
X76708000Y-46050000D02*
X76708000Y-41910000D01*
D20*
%TO.N,GND*%
X85217000Y-101588000D02*
X85217000Y-118491000D01*
X85217000Y-118491000D02*
X85471000Y-118745000D01*
D19*
X104481000Y-92075000D02*
X101607600Y-89201600D01*
X101607600Y-89201600D02*
X98044000Y-89201600D01*
X95631000Y-97321380D02*
X98044000Y-94908380D01*
X98044000Y-94908380D02*
X98044000Y-89201600D01*
X85217000Y-97628000D02*
X95324380Y-97628000D01*
X95324380Y-97628000D02*
X95631000Y-97321380D01*
X85217000Y-97628000D02*
X85217000Y-93668000D01*
X85217000Y-101588000D02*
X85217000Y-97628000D01*
D20*
X120015000Y-118745000D02*
X176149000Y-118745000D01*
X180213000Y-108966000D02*
X174498000Y-108966000D01*
X191405000Y-40624000D02*
X196943786Y-40624000D01*
X171958000Y-108966000D02*
X174498000Y-108966000D01*
X180594000Y-114300000D02*
X180594000Y-109347000D01*
X180594000Y-67292786D02*
X180594000Y-109347000D01*
X119380000Y-114046000D02*
X118618000Y-114046000D01*
X84328000Y-41402000D02*
X85106000Y-40624000D01*
X95377000Y-67945000D02*
X103632000Y-67945000D01*
X180594000Y-109347000D02*
X180213000Y-108966000D01*
D21*
X71119400Y-47212100D02*
X70358000Y-46450700D01*
X69582300Y-44899200D02*
X62618800Y-44899200D01*
D20*
X196943786Y-40624000D02*
X198644000Y-42324214D01*
X191008000Y-41021000D02*
X191405000Y-40624000D01*
X137668000Y-46050000D02*
X137668000Y-40735000D01*
X94488000Y-88138000D02*
X95551600Y-89201600D01*
X198644000Y-57624786D02*
X194022786Y-62246000D01*
X92432000Y-77256000D02*
X94488000Y-79312000D01*
D21*
X70358000Y-46450700D02*
X70358000Y-45674900D01*
D20*
X103632000Y-67945000D02*
X104394000Y-67183000D01*
X85106000Y-40624000D02*
X137779000Y-40624000D01*
X90932000Y-77256000D02*
X92432000Y-77256000D01*
X95551600Y-89201600D02*
X98044000Y-89201600D01*
X137779000Y-40624000D02*
X191405000Y-40624000D01*
X90932000Y-72390000D02*
X95377000Y-67945000D01*
D21*
X62618800Y-44899200D02*
X61468000Y-46050000D01*
D20*
X121158000Y-114046000D02*
X119380000Y-114046000D01*
X194022786Y-62246000D02*
X185640786Y-62246000D01*
X118618000Y-114046000D02*
X118618000Y-118237000D01*
X198644000Y-42324214D02*
X198644000Y-57624786D01*
X185640786Y-62246000D02*
X180594000Y-67292786D01*
X90932000Y-77256000D02*
X90932000Y-72390000D01*
D21*
X84328000Y-46050000D02*
X83165900Y-47212100D01*
D20*
X118110000Y-118745000D02*
X120015000Y-118745000D01*
X85471000Y-118745000D02*
X118110000Y-118745000D01*
X104394000Y-67183000D02*
X104394000Y-65786000D01*
X118618000Y-118237000D02*
X118110000Y-118745000D01*
X84328000Y-46050000D02*
X84328000Y-41402000D01*
X120015000Y-118745000D02*
X121158000Y-117602000D01*
X121158000Y-117602000D02*
X121158000Y-114046000D01*
D21*
X83165900Y-47212100D02*
X71119400Y-47212100D01*
D20*
X176149000Y-118745000D02*
X180594000Y-114300000D01*
D21*
X70358000Y-45674900D02*
X69582300Y-44899200D01*
D20*
X110998000Y-109835000D02*
X115169000Y-109835000D01*
X105156000Y-109835000D02*
X110998000Y-109835000D01*
X94488000Y-79312000D02*
X94488000Y-88138000D01*
X115169000Y-109835000D02*
X119380000Y-114046000D01*
X137668000Y-40735000D02*
X137779000Y-40624000D01*
X191008000Y-46050000D02*
X191008000Y-41021000D01*
D21*
%TO.N,/PK7*%
X169418000Y-109262400D02*
X169418000Y-114046000D01*
X189651300Y-47233300D02*
X189651300Y-53015400D01*
X188468000Y-46050000D02*
X189651300Y-47233300D01*
X178405800Y-104256300D02*
X175034400Y-107627700D01*
X175034400Y-107627700D02*
X171052700Y-107627700D01*
X189651300Y-53015400D02*
X178251800Y-64414900D01*
X178251800Y-64414900D02*
X178251800Y-90102800D01*
X178251800Y-90102800D02*
X178405800Y-90256800D01*
X171052700Y-107627700D02*
X169418000Y-109262400D01*
X178405800Y-90256800D02*
X178405800Y-104256300D01*
%TO.N,/DRQ7*%
X177919100Y-90406800D02*
X177791800Y-90279500D01*
X173146700Y-98806000D02*
X173146700Y-99175500D01*
X175032900Y-99996600D02*
X177919100Y-97110400D01*
X173967800Y-99996600D02*
X175032900Y-99996600D01*
X171958000Y-98806000D02*
X173146700Y-98806000D01*
X187078900Y-49740900D02*
X183388000Y-46050000D01*
X177791800Y-62707000D02*
X187078900Y-53419900D01*
X187078900Y-53419900D02*
X187078900Y-49740900D01*
X173146700Y-99175500D02*
X173967800Y-99996600D01*
X177919100Y-97110400D02*
X177919100Y-90406800D01*
X177791800Y-90279500D02*
X177791800Y-62707000D01*
%TO.N,/PH4*%
X123698000Y-59999700D02*
X126355200Y-57342500D01*
X123698000Y-65786000D02*
X123698000Y-59999700D01*
%TO.N,/DRQ5*%
X167671200Y-81595100D02*
X167671200Y-77093700D01*
X165756000Y-75178500D02*
X165756000Y-56468800D01*
X166878000Y-50747600D02*
X168916300Y-48709300D01*
X170912100Y-84836000D02*
X167671200Y-81595100D01*
X167671200Y-77093700D02*
X165756000Y-75178500D01*
X165756000Y-56468800D02*
X166878000Y-55346800D01*
X166878000Y-55346800D02*
X166878000Y-50747600D01*
X168916300Y-48709300D02*
X170568700Y-48709300D01*
X170568700Y-48709300D02*
X173228000Y-46050000D01*
%TO.N,/PJ1*%
X146215600Y-50202400D02*
X146215600Y-64254900D01*
X150368000Y-46050000D02*
X146215600Y-50202400D01*
X146215600Y-64254900D02*
X146558000Y-64597300D01*
X146558000Y-65786000D02*
X146558000Y-64597300D01*
%TO.N,/ALE*%
X130048000Y-46050000D02*
X128867300Y-47230700D01*
X138938000Y-56712400D02*
X138938000Y-64597300D01*
X128867300Y-51605600D02*
X129596400Y-52334700D01*
X133060900Y-49947100D02*
X133858000Y-50744200D01*
X131318000Y-50716400D02*
X132087300Y-49947100D01*
X130515400Y-52334700D02*
X131318000Y-51532100D01*
X138938000Y-65786000D02*
X138938000Y-64597300D01*
X128867300Y-47230700D02*
X128867300Y-51605600D01*
X133858000Y-51632400D02*
X138938000Y-56712400D01*
X133858000Y-50744200D02*
X133858000Y-51632400D01*
X132087300Y-49947100D02*
X133060900Y-49947100D01*
X129596400Y-52334700D02*
X130515400Y-52334700D01*
X131318000Y-51532100D02*
X131318000Y-50716400D01*
%TO.N,/PH5*%
X119634000Y-65786000D02*
X119634000Y-64597300D01*
X119927000Y-57810700D02*
X126244200Y-51493500D01*
X126244200Y-51493500D02*
X126244200Y-47313800D01*
X119634000Y-64597300D02*
X119927000Y-64304300D01*
X119927000Y-64304300D02*
X119927000Y-57810700D01*
X126244200Y-47313800D02*
X127508000Y-46050000D01*
%TO.N,/IRQ3*%
X122428000Y-46050000D02*
X123599200Y-44878800D01*
X131318000Y-45672700D02*
X131318000Y-46407300D01*
X131318000Y-46407300D02*
X134085500Y-49174800D01*
X134085500Y-49174800D02*
X137398600Y-49174800D01*
X171588500Y-95077300D02*
X171958000Y-95077300D01*
X171958000Y-96266000D02*
X171958000Y-95077300D01*
X130524100Y-44878800D02*
X131318000Y-45672700D01*
X137398600Y-49174800D02*
X144467400Y-56243600D01*
X144467400Y-67956200D02*
X171588500Y-95077300D01*
X123599200Y-44878800D02*
X130524100Y-44878800D01*
X144467400Y-56243600D02*
X144467400Y-67956200D01*
%TO.N,/IRQ5*%
X174498000Y-93726000D02*
X173309300Y-93726000D01*
X119419600Y-43978400D02*
X134688600Y-43978400D01*
X117348000Y-46050000D02*
X119419600Y-43978400D01*
X136310600Y-45600400D02*
X136310600Y-46566500D01*
X173309300Y-93356600D02*
X173309300Y-93726000D01*
X145367800Y-66282100D02*
X171460500Y-92374800D01*
X171460500Y-92374800D02*
X172327500Y-92374800D01*
X172327500Y-92374800D02*
X173309300Y-93356600D01*
X136310600Y-46566500D02*
X145367800Y-55623700D01*
X145367800Y-55623700D02*
X145367800Y-66282100D01*
X134688600Y-43978400D02*
X136310600Y-45600400D01*
%TO.N,/IRQ7*%
X118618000Y-45666200D02*
X119855600Y-44428600D01*
X134614500Y-47200700D02*
X136062000Y-47200700D01*
X144917600Y-66685600D02*
X171958000Y-93726000D01*
X113436300Y-47218300D02*
X117814400Y-47218300D01*
X112268000Y-46050000D02*
X113436300Y-47218300D01*
X144917600Y-56056300D02*
X144917600Y-66685600D01*
X119855600Y-44428600D02*
X132599100Y-44428600D01*
X132599100Y-44428600D02*
X133858000Y-45687500D01*
X117814400Y-47218300D02*
X118618000Y-46414700D01*
X118618000Y-46414700D02*
X118618000Y-45666200D01*
X136062000Y-47200700D02*
X144917600Y-56056300D01*
X133858000Y-46444200D02*
X134614500Y-47200700D01*
X133858000Y-45687500D02*
X133858000Y-46444200D01*
%TO.N,/DRQ1*%
X177332200Y-58816600D02*
X183573200Y-52575600D01*
X177469000Y-96191300D02*
X177469000Y-90982100D01*
X177332200Y-90845300D02*
X177332200Y-58816600D01*
X175783500Y-97876800D02*
X177469000Y-96191300D01*
X177469000Y-90982100D02*
X177332200Y-90845300D01*
%TO.N,/PH0*%
X105918000Y-49860000D02*
X105918000Y-53139500D01*
X105918000Y-53139500D02*
X111291800Y-58513300D01*
X102108000Y-46050000D02*
X105918000Y-49860000D01*
%TO.N,/DRQ3*%
X171588500Y-100157300D02*
X170606800Y-99175600D01*
X170606800Y-99175600D02*
X170606800Y-97269400D01*
X171958000Y-100157300D02*
X171588500Y-100157300D01*
X170606800Y-97269400D02*
X143567200Y-70229800D01*
X171958000Y-101346000D02*
X171958000Y-100157300D01*
X143567200Y-70229800D02*
X143567200Y-60100500D01*
X143567200Y-60100500D02*
X141841800Y-58375100D01*
%TO.N,/PG0*%
X175026400Y-97485600D02*
X171459700Y-97485600D01*
X175730100Y-96781900D02*
X175026400Y-97485600D01*
X144017300Y-59497500D02*
X143384000Y-58864200D01*
X174498000Y-92374700D02*
X174867400Y-92374700D01*
X174498000Y-91186000D02*
X174498000Y-92374700D01*
X144017300Y-70043200D02*
X144017300Y-59497500D01*
X175730100Y-93237400D02*
X175730100Y-96781900D01*
X171459700Y-97485600D02*
X144017300Y-70043200D01*
X174867400Y-92374700D02*
X175730100Y-93237400D01*
%TO.N,/PG1*%
X147828000Y-67652700D02*
X147828000Y-53445600D01*
X147828000Y-53445600D02*
X146942200Y-52559800D01*
X171958000Y-91186000D02*
X171361300Y-91186000D01*
X171361300Y-91186000D02*
X147828000Y-67652700D01*
%TO.N,/PG2*%
X85685400Y-45588500D02*
X85685400Y-47469300D01*
X89408000Y-46050000D02*
X88250700Y-44892700D01*
X83140100Y-63088600D02*
X89454700Y-69403200D01*
X85685400Y-47469300D02*
X83140100Y-50014600D01*
X86381200Y-44892700D02*
X85685400Y-45588500D01*
X88250700Y-44892700D02*
X86381200Y-44892700D01*
X83140100Y-50014600D02*
X83140100Y-63088600D01*
%TO.N,/PG5*%
X91179700Y-48709300D02*
X93218000Y-50747600D01*
X89527300Y-48709300D02*
X91179700Y-48709300D01*
X86868000Y-46050000D02*
X89527300Y-48709300D01*
X93218000Y-51514100D02*
X103772300Y-62068400D01*
X93218000Y-50747600D02*
X93218000Y-51514100D01*
%TO.N,/IRQ2*%
X69088000Y-46050000D02*
X72898000Y-49860000D01*
X72898000Y-49860000D02*
X72898000Y-54439900D01*
X72898000Y-54439900D02*
X88687900Y-70229800D01*
%TO.N,/LA17*%
X165608000Y-51130000D02*
X163125000Y-53613000D01*
X163125000Y-73703400D02*
X166946100Y-77524500D01*
X163125000Y-53613000D02*
X163125000Y-73703400D01*
%TO.N,/LA18*%
X130127700Y-74270900D02*
X130127700Y-59448100D01*
X154178000Y-98321200D02*
X130127700Y-74270900D01*
X154178000Y-114046000D02*
X154178000Y-98321200D01*
X130127700Y-59448100D02*
X131935000Y-57640800D01*
%TO.N,/LA19*%
X160528000Y-70748100D02*
X157299400Y-73976700D01*
X160528000Y-51130000D02*
X160528000Y-70748100D01*
X156718000Y-89677700D02*
X156718000Y-114046000D01*
X154352800Y-87312500D02*
X156718000Y-89677700D01*
%TO.N,/LA20*%
X137732100Y-57253900D02*
X138082300Y-56903700D01*
X159258000Y-114046000D02*
X159258000Y-91180400D01*
X159258000Y-91180400D02*
X137732100Y-69654500D01*
X137732100Y-69654500D02*
X137732100Y-57253900D01*
%TO.N,/LA21*%
X176743900Y-94708900D02*
X176743900Y-91728300D01*
X158600500Y-76344600D02*
X155448000Y-73192100D01*
X171418400Y-89836600D02*
X158600500Y-77018700D01*
X155448000Y-73192100D02*
X155448000Y-51130000D01*
X158600500Y-77018700D02*
X158600500Y-76344600D01*
X176743900Y-91728300D02*
X174852200Y-89836600D01*
X174852200Y-89836600D02*
X171418400Y-89836600D01*
%TO.N,/LA22*%
X163149300Y-114415400D02*
X162330000Y-115234700D01*
X135200100Y-67793800D02*
X135200100Y-58167200D01*
X163149300Y-114046000D02*
X163149300Y-114415400D01*
X150036500Y-88185700D02*
X150036500Y-82630200D01*
X150036500Y-82630200D02*
X135200100Y-67793800D01*
X155617500Y-113245000D02*
X155617500Y-93766700D01*
X155617500Y-93766700D02*
X150036500Y-88185700D01*
X162330000Y-115234700D02*
X156201600Y-115234700D01*
X164338000Y-114046000D02*
X163149300Y-114046000D01*
X156201600Y-115234700D02*
X155448000Y-114481100D01*
X135200100Y-58167200D02*
X137283600Y-56083700D01*
X155448000Y-114481100D02*
X155448000Y-113414500D01*
X155448000Y-113414500D02*
X155617500Y-113245000D01*
%TO.N,/LA23*%
X166878000Y-114046000D02*
X166878000Y-112857300D01*
X165472300Y-95271100D02*
X165472300Y-111451700D01*
X157701600Y-87500400D02*
X165472300Y-95271100D01*
X150368000Y-69137500D02*
X157875400Y-76644900D01*
X165472300Y-111451700D02*
X165472400Y-111451700D01*
X150368000Y-51130000D02*
X150368000Y-69137500D01*
X165472400Y-111451700D02*
X166878000Y-112857300D01*
%TO.N,/PE3*%
X128778000Y-65786000D02*
X128778000Y-64597300D01*
X128778000Y-64597300D02*
X128778000Y-56434000D01*
X128778000Y-56434000D02*
X131864600Y-53347400D01*
%TO.N,/A0*%
X169685900Y-100765400D02*
X171617700Y-102697200D01*
X171617700Y-102697200D02*
X172472400Y-102697200D01*
X174498000Y-106426000D02*
X174498000Y-105237300D01*
X173228000Y-103452800D02*
X173228000Y-104336800D01*
X141116700Y-54578700D02*
X141116700Y-58832900D01*
X137668000Y-51130000D02*
X141116700Y-54578700D01*
X174128500Y-105237300D02*
X174498000Y-105237300D01*
X173228000Y-104336800D02*
X174128500Y-105237300D01*
X143117000Y-70416300D02*
X169685900Y-96985200D01*
X143117000Y-60833200D02*
X143117000Y-70416300D01*
X172472400Y-102697200D02*
X173228000Y-103452800D01*
X169685900Y-96985200D02*
X169685900Y-100765400D01*
X141116700Y-58832900D02*
X143117000Y-60833200D01*
%TO.N,/A1*%
X166344500Y-99993300D02*
X171588500Y-105237300D01*
X171958000Y-106426000D02*
X171958000Y-105237300D01*
X140208000Y-56210000D02*
X140208000Y-68981300D01*
X166344500Y-95117800D02*
X166344500Y-99993300D01*
X135128000Y-51130000D02*
X140208000Y-56210000D01*
X171588500Y-105237300D02*
X171958000Y-105237300D01*
X140208000Y-68981300D02*
X166344500Y-95117800D01*
%TO.N,/A2*%
X132588000Y-51130000D02*
X132669100Y-51211100D01*
X132669100Y-73952100D02*
X154892300Y-96175300D01*
X132669100Y-51211100D02*
X132669100Y-73952100D01*
%TO.N,/A3*%
X136398000Y-51487300D02*
X136398000Y-50703200D01*
X140666600Y-60789900D02*
X140666600Y-55755900D01*
X133700200Y-49496900D02*
X131681100Y-49496900D01*
X136398000Y-50703200D02*
X135641800Y-49947000D01*
X167480700Y-95617500D02*
X142666800Y-70803600D01*
X131681100Y-49496900D02*
X130048000Y-51130000D01*
X135641800Y-49947000D02*
X134150300Y-49947000D01*
X140666600Y-55755900D02*
X136398000Y-51487300D01*
X171958000Y-103886000D02*
X167480800Y-99408800D01*
X142666800Y-62790100D02*
X140666600Y-60789900D01*
X167480800Y-99408800D02*
X167480700Y-99408800D01*
X142666800Y-70803600D02*
X142666800Y-62790100D01*
X134150300Y-49947000D02*
X133700200Y-49496900D01*
X167480700Y-99408800D02*
X167480700Y-95617500D01*
%TO.N,/A4*%
X115742700Y-65786000D02*
X115742700Y-66155500D01*
X127357000Y-51130000D02*
X127508000Y-51130000D01*
X114554000Y-65786000D02*
X115742700Y-65786000D01*
X120116900Y-66985800D02*
X120868100Y-66234600D01*
X120868100Y-57618900D02*
X127357000Y-51130000D01*
X120868100Y-66234600D02*
X120868100Y-57618900D01*
X116573000Y-66985800D02*
X120116900Y-66985800D01*
X115742700Y-66155500D02*
X116573000Y-66985800D01*
%TO.N,/A5*%
X112014000Y-65786000D02*
X112014000Y-63727300D01*
X121109500Y-54988500D02*
X124968000Y-51130000D01*
X120752800Y-54988500D02*
X121109500Y-54988500D01*
X112014000Y-63727300D02*
X120752800Y-54988500D01*
%TO.N,/A6*%
X122428000Y-51643300D02*
X109474000Y-64597300D01*
X122428000Y-51130000D02*
X122428000Y-51643300D01*
X109474000Y-65786000D02*
X109474000Y-64597300D01*
%TO.N,/A7*%
X118724400Y-49966400D02*
X119888000Y-51130000D01*
X113657300Y-50639600D02*
X114330500Y-49966400D01*
X114330500Y-49966400D02*
X118724400Y-49966400D01*
X113657300Y-57874000D02*
X113657300Y-50639600D01*
X106934000Y-65786000D02*
X106934000Y-64597300D01*
X106934000Y-64597300D02*
X113657300Y-57874000D01*
%TO.N,/A8*%
X127508000Y-57459400D02*
X127508000Y-74833900D01*
X127508000Y-74833900D02*
X148299300Y-95625200D01*
X124787600Y-54739000D02*
X127508000Y-57459400D01*
X130909100Y-116177100D02*
X128778000Y-114046000D01*
X148299300Y-95625200D02*
X148299300Y-114679700D01*
X146801900Y-116177100D02*
X130909100Y-116177100D01*
X148299300Y-114679700D02*
X146801900Y-116177100D01*
%TO.N,/A9*%
X108278800Y-64644100D02*
X108278800Y-89818100D01*
X114808000Y-51130000D02*
X114808000Y-58114900D01*
X108278800Y-89818100D02*
X131318000Y-112857300D01*
X114808000Y-58114900D02*
X108278800Y-64644100D01*
X131318000Y-114046000D02*
X131318000Y-112857300D01*
%TO.N,/A10*%
X105719200Y-89060000D02*
X105719200Y-65138800D01*
X131831400Y-115253300D02*
X130840700Y-115253300D01*
X133858000Y-114046000D02*
X132669300Y-114046000D01*
X130048000Y-113388800D02*
X105719200Y-89060000D01*
X130048000Y-114460600D02*
X130048000Y-113388800D01*
X105719200Y-65138800D02*
X112268000Y-58590000D01*
X112268000Y-58590000D02*
X112268000Y-51130000D01*
X132669300Y-114415400D02*
X131831400Y-115253300D01*
X130840700Y-115253300D02*
X130048000Y-114460600D01*
X132669300Y-114046000D02*
X132669300Y-114415400D01*
%TO.N,/A11*%
X146615800Y-115726500D02*
X138078500Y-115726500D01*
X122865600Y-57247900D02*
X122865600Y-59272500D01*
X138078500Y-115726500D02*
X136398000Y-114046000D01*
X147792700Y-114549600D02*
X146615800Y-115726500D01*
X122509300Y-59628800D02*
X122509300Y-84646000D01*
X122865600Y-59272500D02*
X122509300Y-59628800D01*
X122509300Y-84646000D02*
X147792700Y-109929400D01*
X122567000Y-56949300D02*
X122865600Y-57247900D01*
X147792700Y-109929400D02*
X147792700Y-114549600D01*
%TO.N,/A12*%
X113338500Y-63428600D02*
X119201900Y-57565200D01*
X113338500Y-85987300D02*
X113338500Y-63428600D01*
X138938000Y-114046000D02*
X138938000Y-111586800D01*
X138938000Y-111586800D02*
X113338500Y-85987300D01*
%TO.N,/A13*%
X141478000Y-114046000D02*
X141478000Y-112857300D01*
X141478000Y-112857300D02*
X121557100Y-92936400D01*
X121557100Y-92936400D02*
X121557100Y-58918900D01*
X121557100Y-58918900D02*
X121632300Y-58843700D01*
%TO.N,/A14*%
X137668000Y-113388800D02*
X137668000Y-114518000D01*
X100927300Y-45551400D02*
X101639200Y-44839500D01*
X137668000Y-114518000D02*
X138426300Y-115276300D01*
X110818000Y-64254000D02*
X110818000Y-86538800D01*
X101639200Y-44839500D02*
X102551900Y-44839500D01*
X142829300Y-114415400D02*
X142829300Y-114046000D01*
X110818000Y-86538800D02*
X137668000Y-113388800D01*
X102108000Y-51130000D02*
X100927300Y-49949300D01*
X141968400Y-115276300D02*
X142829300Y-114415400D01*
X123590500Y-51652700D02*
X122962500Y-52280700D01*
X144018000Y-114046000D02*
X142829300Y-114046000D01*
X102551900Y-44839500D02*
X103378000Y-45665600D01*
X105658400Y-48709300D02*
X121659700Y-48709300D01*
X103378000Y-45665600D02*
X103378000Y-46428900D01*
X100927300Y-49949300D02*
X100927300Y-45551400D01*
X122791300Y-52280700D02*
X110818000Y-64254000D01*
X122962500Y-52280700D02*
X122791300Y-52280700D01*
X121659700Y-48709300D02*
X123590500Y-50640100D01*
X103378000Y-46428900D02*
X105658400Y-48709300D01*
X138426300Y-115276300D02*
X141968400Y-115276300D01*
X123590500Y-50640100D02*
X123590500Y-51652700D01*
%TO.N,/A15*%
X146558000Y-114046000D02*
X145369300Y-114046000D01*
X122374600Y-59126900D02*
X122374600Y-58455900D01*
X145369300Y-113553400D02*
X122059200Y-90243300D01*
X122374600Y-58455900D02*
X121743600Y-57824900D01*
X122059200Y-90243300D02*
X122059200Y-59442300D01*
X145369300Y-114046000D02*
X145369300Y-113553400D01*
X122059200Y-59442300D02*
X122374600Y-59126900D01*
%TO.N,/AEN*%
X90849800Y-69734200D02*
X86868000Y-65752400D01*
X86868000Y-65752400D02*
X86868000Y-51130000D01*
%TO.N,/PH6*%
X101188500Y-64572200D02*
X102748400Y-64572200D01*
X84328000Y-51130000D02*
X85480800Y-49977200D01*
X88138000Y-50762800D02*
X88138000Y-51521700D01*
X88138000Y-51521700D02*
X101188500Y-64572200D01*
X85480800Y-49977200D02*
X87352400Y-49977200D01*
X87352400Y-49977200D02*
X88138000Y-50762800D01*
%TO.N,/PC7*%
X191008000Y-51130000D02*
X191008000Y-55003000D01*
X191008000Y-55003000D02*
X178985400Y-67025600D01*
%TO.N,/PC6*%
X173309300Y-76438300D02*
X174168300Y-77297300D01*
X174498000Y-78486000D02*
X174498000Y-77297300D01*
X174531300Y-64071700D02*
X173309300Y-65293700D01*
X174168300Y-77297300D02*
X174498000Y-77297300D01*
X173309300Y-65293700D02*
X173309300Y-76438300D01*
%TO.N,/PC5*%
X184301700Y-49503700D02*
X170687000Y-49503700D01*
X171958000Y-81026000D02*
X171958000Y-79837300D01*
X169531000Y-50659700D02*
X169531000Y-63587600D01*
X171628100Y-79837300D02*
X171958000Y-79837300D01*
X170687000Y-49503700D02*
X169531000Y-50659700D01*
X169531000Y-63587600D02*
X170319200Y-64375800D01*
X185928000Y-51130000D02*
X184301700Y-49503700D01*
X170319200Y-78528400D02*
X171628100Y-79837300D01*
X170319200Y-64375800D02*
X170319200Y-78528400D01*
%TO.N,/PC4*%
X175735500Y-78963000D02*
X174861200Y-79837300D01*
X175735500Y-58962100D02*
X175735500Y-78963000D01*
X174861200Y-79837300D02*
X174498000Y-79837300D01*
X174498000Y-81026000D02*
X174498000Y-79837300D01*
X175529200Y-58755800D02*
X175735500Y-58962100D01*
%TO.N,/PC3*%
X169316500Y-77988100D02*
X169316500Y-80105300D01*
X171588500Y-82377300D02*
X171958000Y-82377300D01*
X166206200Y-64529900D02*
X166206200Y-74877800D01*
X166206200Y-74877800D02*
X169316500Y-77988100D01*
X167386900Y-63349200D02*
X166206200Y-64529900D01*
X171958000Y-83566000D02*
X171958000Y-82377300D01*
X169316500Y-80105300D02*
X171588500Y-82377300D01*
%TO.N,/PC2*%
X172714900Y-49973200D02*
X172052700Y-50635400D01*
X170769300Y-65293700D02*
X170769300Y-76438300D01*
X174128500Y-82377300D02*
X174498000Y-82377300D01*
X171606600Y-77275600D02*
X172518600Y-77275600D01*
X173227900Y-81476700D02*
X174128500Y-82377300D01*
X174498000Y-83566000D02*
X174498000Y-82377300D01*
X172052700Y-50635400D02*
X172052700Y-64010400D01*
X170769300Y-76438300D02*
X171606600Y-77275600D01*
X172052700Y-64010400D02*
X172052600Y-64010400D01*
X178308000Y-51130000D02*
X177151200Y-49973200D01*
X172052600Y-64010400D02*
X170769300Y-65293700D01*
X177151200Y-49973200D02*
X172714900Y-49973200D01*
X173227900Y-77984900D02*
X173227900Y-81476700D01*
X172518600Y-77275600D02*
X173227900Y-77984900D01*
%TO.N,/PC1*%
X173146700Y-86475500D02*
X173146700Y-86106000D01*
X171958000Y-86106000D02*
X173146700Y-86106000D01*
X175768000Y-51130000D02*
X176712400Y-52074400D01*
X173967800Y-87296600D02*
X173146700Y-86475500D01*
X176712400Y-52074400D02*
X176712400Y-85626200D01*
X175042000Y-87296600D02*
X173967800Y-87296600D01*
X176712400Y-85626200D02*
X175042000Y-87296600D01*
%TO.N,/PC0*%
X174867400Y-84917300D02*
X174498000Y-84917300D01*
X173228000Y-51130000D02*
X176254500Y-54156500D01*
X176254500Y-83530200D02*
X174867400Y-84917300D01*
X176254500Y-54156500D02*
X176254500Y-83530200D01*
X174498000Y-86106000D02*
X174498000Y-84917300D01*
%TD*%
M02*
